<?xml version="1.0" encoding="UTF-8"?>
<svg id="Bargraph_1" xmlns="http://www.w3.org/2000/svg" viewBox="0 0 1136.71 794.06">
  <defs>
    <style>
      .cls-1 {
        fill: #3d3d3d;
      }

      .cls-1, .cls-2, .cls-3, .cls-4, .cls-5, .cls-6, .cls-7, .cls-8 {
        stroke-width: 0px;
      }

      .cls-2 {
        fill: #595959;
      }

      .cls-9 {
        stroke-dasharray: 0 0 12.16 12.16;
      }

      .cls-9, .cls-10 {
        stroke: #7b457d;
      }

      .cls-9, .cls-10, .cls-11, .cls-12, .cls-13, .cls-14, .cls-15 {
        fill: none;
        stroke-miterlimit: 10;
      }

      .cls-3 {
        fill: #c45331;
      }

      .cls-11 {
        stroke-width: .67px;
      }

      .cls-11, .cls-12, .cls-13, .cls-15 {
        stroke: #595959;
      }

      .cls-13 {
        stroke-width: .94px;
      }

      .cls-4 {
        fill: #9b4227;
      }

      .cls-5 {
        fill: #7b457d;
      }

      .cls-14 {
        stroke: #265e8c;
      }

      .cls-6 {
        fill: #3179b4;
      }

      .cls-7 {
        fill: #265e8c;
      }

      .cls-8 {
        fill: #fff;
      }

      .cls-15 {
        stroke-width: .9px;
      }
    </style>
  </defs>
  <g id="x-axis">
    <line class="cls-11" x1="79.27" y1="675.32" x2="79.27" y2="720.32"/>
    <line class="cls-12" x1="79.22" y1="675.81" x2="974.86" y2="675.81"/>
    <line class="cls-11" x1="974.54" y1="675.31" x2="974.54" y2="720.31"/>
    <g id="_1st_exp" data-name="1st_exp">
      <path class="cls-1" d="M237.38,725v-1.16h2.63v10.12h-1.29v-8.96h-1.34Z"/>
      <path class="cls-1" d="M243.54,733.78c-.47-.2-.84-.48-1.11-.84-.27-.36-.42-.77-.45-1.24h1.32c.04.38.22.7.54.94.32.24.74.36,1.27.36.49,0,.87-.11,1.15-.32.28-.21.42-.48.42-.81s-.15-.59-.45-.75-.76-.32-1.39-.48c-.57-.15-1.03-.3-1.39-.46-.36-.15-.67-.38-.92-.69-.26-.3-.38-.7-.38-1.2,0-.39.12-.75.35-1.08.23-.33.56-.58.99-.78s.92-.29,1.47-.29c.85,0,1.54.21,2.06.64.52.43.8,1.02.84,1.76h-1.27c-.03-.4-.19-.72-.48-.97-.29-.24-.69-.36-1.18-.36-.46,0-.82.1-1.09.29-.27.2-.41.45-.41.77,0,.25.08.46.25.62.16.16.37.29.62.39.25.1.59.21,1.03.33.55.15,1,.3,1.34.44s.64.36.89.65c.25.29.38.67.39,1.13,0,.42-.12.8-.35,1.13-.23.34-.56.6-.99.79s-.91.29-1.46.29c-.59,0-1.12-.1-1.58-.3Z"/>
      <path class="cls-1" d="M251.27,727.33v4.52c0,.37.08.64.24.79.16.15.43.23.83.23h.94v1.08h-1.15c-.71,0-1.24-.16-1.6-.49-.35-.33-.53-.86-.53-1.61v-4.52h-.99v-1.05h.99v-1.93h1.27v1.93h2v1.05h-2Z"/>
      <path class="cls-1" d="M265.51,730.6h-6.13c.05.76.31,1.35.78,1.77.47.42,1.04.64,1.71.64.55,0,1.01-.13,1.38-.38s.63-.6.78-1.03h1.37c-.21.74-.62,1.34-1.23,1.8-.62.46-1.38.69-2.3.69-.73,0-1.38-.16-1.95-.49-.57-.33-1.02-.79-1.35-1.39-.33-.6-.49-1.3-.49-2.09s.16-1.49.48-2.09c.32-.6.76-1.06,1.34-1.38.57-.32,1.23-.48,1.98-.48s1.37.16,1.93.48.99.75,1.29,1.31c.3.55.46,1.18.46,1.88,0,.24-.01.5-.04.77ZM263.91,728.31c-.21-.35-.51-.62-.88-.8-.37-.18-.78-.27-1.23-.27-.64,0-1.19.21-1.65.62-.45.41-.71.98-.78,1.71h4.84c0-.48-.11-.9-.32-1.25Z"/>
      <path class="cls-1" d="M271.23,733.96l-1.82-2.86-1.75,2.86h-1.33l2.48-3.81-2.48-3.86h1.44l1.82,2.84,1.74-2.84h1.33l-2.46,3.79,2.48,3.88h-1.44Z"/>
      <path class="cls-1" d="M276.34,726.6c.5-.29,1.08-.44,1.74-.44s1.3.16,1.85.49c.56.33.99.79,1.31,1.38.32.59.48,1.28.48,2.06s-.16,1.47-.48,2.07c-.32.61-.75,1.08-1.31,1.41-.56.34-1.17.5-1.85.5s-1.23-.15-1.73-.44c-.5-.29-.88-.66-1.14-1.1v5.05h-1.27v-11.31h1.27v1.41c.25-.44.63-.81,1.13-1.1ZM280.07,728.58c-.23-.43-.55-.76-.94-.98-.4-.22-.83-.34-1.31-.34s-.9.12-1.29.34c-.4.23-.71.56-.95.99-.24.43-.36.94-.36,1.51s.12,1.08.36,1.52.56.77.95.99c.4.23.83.34,1.29.34s.91-.11,1.31-.34c.4-.23.71-.56.94-.99s.35-.95.35-1.53-.12-1.08-.35-1.51Z"/>
      <path class="cls-1" d="M283.4,728.03c.32-.59.75-1.05,1.31-1.38.56-.33,1.17-.49,1.85-.49s1.25.14,1.75.43c.49.29.86.65,1.11,1.09v-1.4h1.29v7.67h-1.29v-1.43c-.25.45-.63.82-1.13,1.11-.5.29-1.08.44-1.74.44s-1.3-.17-1.85-.5-.98-.81-1.3-1.41c-.32-.61-.48-1.3-.48-2.07s.16-1.47.48-2.06ZM289.07,728.59c-.23-.43-.55-.76-.94-.99-.4-.23-.83-.34-1.31-.34s-.91.11-1.3.34c-.39.22-.7.55-.94.98s-.35.93-.35,1.51.12,1.1.35,1.53.55.77.94.99.83.34,1.3.34.91-.11,1.31-.34c.4-.23.71-.56.94-.99.23-.43.35-.94.35-1.52s-.12-1.08-.35-1.51Z"/>
      <path class="cls-1" d="M298.87,726.99c.58.56.87,1.38.87,2.44v4.52h-1.26v-4.34c0-.77-.19-1.35-.57-1.76-.38-.41-.91-.61-1.57-.61s-1.21.21-1.6.63c-.4.42-.59,1.03-.59,1.83v4.24h-1.27v-7.67h1.27v1.09c.25-.39.59-.7,1.03-.91s.91-.32,1.44-.32c.93,0,1.69.28,2.27.85Z"/>
      <path class="cls-1" d="M302.96,733.78c-.47-.2-.84-.48-1.11-.84-.27-.36-.42-.77-.45-1.24h1.32c.04.38.22.7.54.94.32.24.74.36,1.27.36.49,0,.87-.11,1.15-.32.28-.21.42-.48.42-.81s-.15-.59-.45-.75-.76-.32-1.39-.48c-.57-.15-1.03-.3-1.39-.46-.36-.15-.67-.38-.92-.69-.26-.3-.38-.7-.38-1.2,0-.39.12-.75.35-1.08.23-.33.56-.58.99-.78s.92-.29,1.47-.29c.85,0,1.54.21,2.06.64.52.43.8,1.02.84,1.76h-1.27c-.03-.4-.19-.72-.48-.97-.29-.24-.69-.36-1.18-.36-.46,0-.82.1-1.09.29-.27.2-.41.45-.41.77,0,.25.08.46.25.62.16.16.37.29.62.39.25.1.59.21,1.03.33.55.15,1,.3,1.34.44s.64.36.89.65c.25.29.38.67.39,1.13,0,.42-.12.8-.35,1.13-.23.34-.56.6-.99.79s-.91.29-1.46.29c-.59,0-1.12-.1-1.58-.3Z"/>
      <path class="cls-1" d="M309.17,724.79c-.17-.17-.25-.37-.25-.62s.08-.45.25-.62.37-.25.62-.25.43.08.6.25c.16.17.25.37.25.62s-.08.45-.25.62c-.16.17-.36.25-.6.25s-.45-.08-.62-.25ZM310.41,726.28v7.67h-1.27v-7.67h1.27Z"/>
      <path class="cls-1" d="M313.97,733.59c-.58-.33-1.04-.79-1.37-1.39-.33-.6-.5-1.3-.5-2.09s.17-1.48.51-2.08c.34-.6.81-1.06,1.39-1.39.59-.32,1.25-.48,1.97-.48s1.39.16,1.97.48c.59.32,1.05.78,1.39,1.38.34.6.51,1.29.51,2.09s-.17,1.49-.52,2.09c-.35.6-.82,1.07-1.42,1.39-.6.33-1.26.49-1.99.49s-1.37-.16-1.95-.49ZM317.21,732.64c.4-.21.73-.54.97-.97.25-.43.37-.95.37-1.57s-.12-1.14-.36-1.57-.56-.75-.95-.96c-.39-.21-.82-.32-1.27-.32s-.89.11-1.28.32c-.39.21-.7.53-.93.96s-.35.95-.35,1.57.11,1.15.34,1.58c.23.43.53.75.92.96.38.21.8.31,1.26.31s.89-.11,1.29-.32Z"/>
      <path class="cls-1" d="M327.54,726.99c.58.56.87,1.38.87,2.44v4.52h-1.26v-4.34c0-.77-.19-1.35-.57-1.76-.38-.41-.91-.61-1.57-.61s-1.21.21-1.6.63c-.4.42-.59,1.03-.59,1.83v4.24h-1.27v-7.67h1.27v1.09c.25-.39.59-.7,1.03-.91s.91-.32,1.44-.32c.93,0,1.69.28,2.27.85Z"/>
    </g>
    <g id="_2nd_exp" data-name="2nd_exp">
      <path class="cls-1" d="M698.8,733c.67-.61,1.24-1.25,1.7-1.92.46-.67.69-1.32.69-1.97,0-.61-.15-1.08-.44-1.43-.29-.35-.77-.53-1.42-.53s-1.13.2-1.48.59c-.35.4-.54.93-.57,1.59h-1.23c.04-1.04.35-1.85.95-2.42.6-.57,1.37-.85,2.31-.85s1.72.27,2.29.8.85,1.26.85,2.2c0,.77-.23,1.53-.69,2.26s-.99,1.38-1.58,1.93c-.59.56-1.34,1.2-2.25,1.94h4.82v1.06h-6.73v-.91c1.19-.95,2.11-1.73,2.79-2.34Z"/>
      <path class="cls-1" d="M710.44,729.4c.58.56.87,1.38.87,2.44v4.52h-1.26v-4.34c0-.77-.19-1.35-.57-1.76-.38-.41-.91-.61-1.57-.61s-1.21.21-1.6.63c-.4.42-.59,1.03-.59,1.83v4.24h-1.27v-7.67h1.27v1.09c.25-.39.59-.7,1.03-.91.43-.21.91-.32,1.43-.32.93,0,1.69.28,2.27.85Z"/>
      <path class="cls-1" d="M713.39,730.44c.32-.59.75-1.05,1.31-1.38.56-.33,1.18-.49,1.87-.49.6,0,1.15.14,1.67.41.51.28.91.64,1.18,1.08v-4.06h1.29v10.36h-1.29v-1.44c-.25.46-.62.83-1.12,1.13-.49.29-1.07.44-1.74.44s-1.3-.17-1.86-.5-.99-.81-1.31-1.41c-.32-.61-.48-1.3-.48-2.07s.16-1.47.48-2.06ZM719.06,731c-.23-.43-.55-.76-.95-.99s-.83-.34-1.31-.34-.91.11-1.3.34c-.39.22-.7.55-.94.98s-.35.93-.35,1.51.12,1.1.35,1.53.55.77.94.99c.39.23.83.34,1.3.34s.91-.11,1.31-.34.71-.56.95-.99c.23-.43.35-.94.35-1.52s-.12-1.08-.35-1.51Z"/>
      <path class="cls-1" d="M733.55,733h-6.13c.05.76.31,1.35.78,1.77.47.42,1.04.64,1.71.64.55,0,1.01-.13,1.38-.38.37-.26.63-.6.78-1.03h1.37c-.21.74-.62,1.34-1.23,1.8s-1.38.69-2.3.69c-.73,0-1.38-.16-1.95-.49-.57-.33-1.02-.79-1.35-1.39-.33-.6-.49-1.3-.49-2.09s.16-1.49.48-2.09c.32-.6.76-1.06,1.34-1.38.57-.32,1.23-.48,1.98-.48s1.37.16,1.93.48c.56.32.99.75,1.29,1.31.3.55.46,1.18.46,1.88,0,.24-.01.5-.04.77ZM731.96,730.72c-.21-.35-.51-.62-.88-.8-.37-.18-.78-.27-1.23-.27-.64,0-1.19.21-1.64.62-.45.41-.71.98-.78,1.71h4.84c0-.48-.11-.9-.32-1.25Z"/>
      <path class="cls-1" d="M739.28,736.36l-1.82-2.86-1.75,2.86h-1.33l2.48-3.81-2.48-3.86h1.44l1.82,2.84,1.74-2.84h1.33l-2.46,3.79,2.48,3.88h-1.44Z"/>
      <path class="cls-1" d="M744.38,729.01c.5-.29,1.08-.44,1.74-.44s1.3.16,1.85.49c.56.33.99.79,1.31,1.38.32.59.48,1.28.48,2.06s-.16,1.47-.48,2.07c-.32.61-.75,1.08-1.31,1.41s-1.17.5-1.85.5-1.23-.15-1.73-.44-.88-.66-1.14-1.1v5.05h-1.27v-11.31h1.27v1.41c.25-.44.63-.81,1.13-1.1ZM748.11,730.99c-.23-.43-.55-.76-.94-.98-.4-.22-.83-.34-1.31-.34s-.9.12-1.29.34-.71.56-.95.99c-.24.43-.36.94-.36,1.51s.12,1.08.36,1.52c.24.43.56.77.95.99s.83.34,1.29.34.91-.11,1.31-.34c.4-.23.71-.56.94-.99s.35-.95.35-1.53-.12-1.08-.35-1.51Z"/>
      <path class="cls-1" d="M751.44,730.44c.32-.59.75-1.05,1.31-1.38.55-.33,1.17-.49,1.85-.49s1.25.14,1.75.43c.5.29.86.65,1.11,1.09v-1.4h1.29v7.67h-1.29v-1.43c-.25.45-.63.82-1.13,1.11-.5.29-1.08.44-1.74.44s-1.3-.17-1.85-.5-.98-.81-1.3-1.41-.48-1.3-.48-2.07.16-1.47.48-2.06ZM757.11,731c-.23-.43-.55-.76-.94-.99-.4-.23-.83-.34-1.31-.34s-.91.11-1.3.34c-.39.22-.71.55-.94.98s-.35.93-.35,1.51.12,1.1.35,1.53.55.77.94.99c.39.23.83.34,1.3.34s.91-.11,1.31-.34c.4-.23.71-.56.94-.99s.35-.94.35-1.52-.12-1.08-.35-1.51Z"/>
      <path class="cls-1" d="M766.91,729.4c.58.56.87,1.38.87,2.44v4.52h-1.26v-4.34c0-.77-.19-1.35-.57-1.76-.38-.41-.91-.61-1.57-.61s-1.21.21-1.6.63-.59,1.03-.59,1.83v4.24h-1.27v-7.67h1.27v1.09c.25-.39.59-.7,1.03-.91.43-.21.91-.32,1.44-.32.93,0,1.69.28,2.27.85Z"/>
      <path class="cls-1" d="M771,736.19c-.47-.2-.83-.48-1.11-.84-.27-.36-.42-.77-.45-1.24h1.32c.04.38.22.7.54.94.32.24.74.36,1.27.36.49,0,.87-.11,1.15-.32.28-.21.42-.48.42-.81s-.15-.59-.45-.75-.76-.32-1.39-.48c-.57-.15-1.03-.3-1.39-.46-.36-.15-.67-.38-.92-.69-.26-.3-.38-.7-.38-1.2,0-.39.12-.75.35-1.08.23-.33.56-.58.99-.78.43-.19.92-.29,1.47-.29.85,0,1.54.21,2.06.64.52.43.8,1.02.84,1.76h-1.27c-.03-.4-.19-.72-.48-.97-.29-.24-.69-.36-1.18-.36-.46,0-.82.1-1.09.29-.27.2-.41.45-.41.77,0,.25.08.46.25.62.16.16.37.29.62.39.25.1.59.21,1.03.33.55.15,1,.3,1.34.44.34.14.64.36.89.65s.38.67.39,1.13c0,.42-.12.8-.35,1.13s-.56.6-.99.79-.91.29-1.46.29c-.59,0-1.12-.1-1.58-.3Z"/>
      <path class="cls-1" d="M777.22,727.19c-.17-.17-.25-.37-.25-.62s.08-.45.25-.62.37-.25.62-.25.43.08.59.25.25.37.25.62-.08.45-.25.62-.36.25-.59.25-.45-.08-.62-.25ZM778.45,728.69v7.67h-1.27v-7.67h1.27Z"/>
      <path class="cls-1" d="M782.01,736c-.58-.33-1.04-.79-1.37-1.39-.33-.6-.5-1.3-.5-2.09s.17-1.48.51-2.08c.34-.6.81-1.06,1.39-1.39.59-.32,1.25-.48,1.97-.48s1.39.16,1.97.48c.59.32,1.05.78,1.39,1.38.34.6.51,1.29.51,2.09s-.17,1.49-.52,2.09c-.35.6-.82,1.07-1.42,1.39-.6.33-1.26.49-1.99.49s-1.37-.16-1.95-.49ZM785.25,735.05c.4-.21.73-.54.97-.97.25-.43.37-.95.37-1.57s-.12-1.14-.36-1.57c-.24-.43-.56-.75-.95-.96-.39-.21-.82-.32-1.27-.32s-.89.11-1.28.32-.7.53-.93.96-.35.95-.35,1.57.11,1.15.34,1.58c.23.43.53.75.92.96.38.21.8.31,1.26.31s.89-.11,1.29-.32Z"/>
      <path class="cls-1" d="M795.58,729.4c.58.56.87,1.38.87,2.44v4.52h-1.26v-4.34c0-.77-.19-1.35-.57-1.76-.38-.41-.91-.61-1.57-.61s-1.21.21-1.6.63c-.4.42-.59,1.03-.59,1.83v4.24h-1.27v-7.67h1.27v1.09c.25-.39.59-.7,1.03-.91.43-.21.91-.32,1.43-.32.93,0,1.69.28,2.27.85Z"/>
    </g>
    <line id="Divider" class="cls-15" x1="524.1" y1="676.31" x2="524.1" y2="756.31"/>
  </g>
  <g id="y-axis">
    <line class="cls-12" x1="74.27" y1="528.91" x2="86.27" y2="528.91"/>
    <line class="cls-12" x1="74.27" y1="382.01" x2="86.27" y2="382.01"/>
    <line class="cls-12" x1="74.27" y1="235.11" x2="86.27" y2="235.11"/>
    <line class="cls-13" x1="74.27" y1="88.21" x2="86.27" y2="88.21"/>
    <g>
      <path class="cls-2" d="M47.4,530.22c.77-.7,1.42-1.43,1.94-2.19.53-.76.79-1.51.79-2.25,0-.69-.17-1.24-.5-1.64-.34-.4-.88-.6-1.62-.6s-1.29.23-1.69.68-.62,1.06-.65,1.82h-1.41c.04-1.19.41-2.12,1.09-2.77.68-.65,1.56-.98,2.64-.98s1.97.3,2.62.91c.65.61.97,1.45.97,2.51,0,.88-.26,1.75-.79,2.58-.53.84-1.13,1.57-1.8,2.21s-1.53,1.37-2.58,2.22h5.5v1.22h-7.7v-1.04c1.35-1.09,2.42-1.98,3.18-2.68Z"/>
      <path class="cls-2" d="M54.49,523.87c.6-1.03,1.64-1.54,3.14-1.54s2.52.51,3.12,1.54c.6,1.03.9,2.46.9,4.3s-.3,3.32-.9,4.35c-.6,1.03-1.64,1.55-3.12,1.55s-2.54-.52-3.14-1.55c-.6-1.04-.9-2.49-.9-4.35s.3-3.27.9-4.3ZM60.02,525.8c-.12-.65-.37-1.17-.75-1.56-.38-.39-.93-.59-1.64-.59s-1.28.2-1.66.59c-.38.39-.63.92-.75,1.56-.12.65-.18,1.43-.18,2.36s.06,1.77.18,2.42c.12.65.37,1.17.75,1.57.38.39.93.59,1.66.59s1.26-.2,1.64-.59c.38-.39.63-.92.75-1.57.12-.65.18-1.46.18-2.42s-.06-1.71-.18-2.36Z"/>
    </g>
    <g>
      <path class="cls-2" d="M43.61,384.5v-1.1l5.62-7.78h1.74v7.62h1.6v1.26h-1.6v2.58h-1.44v-2.58h-5.92ZM49.59,377.14l-4.3,6.1h4.3v-6.1Z"/>
      <path class="cls-2" d="M54.92,376.88c.6-1.03,1.64-1.54,3.14-1.54s2.52.51,3.12,1.54c.6,1.03.9,2.46.9,4.3s-.3,3.32-.9,4.35c-.6,1.03-1.64,1.55-3.12,1.55s-2.54-.52-3.14-1.55c-.6-1.04-.9-2.49-.9-4.35s.3-3.27.9-4.3ZM60.45,378.82c-.12-.65-.37-1.17-.75-1.56-.38-.39-.93-.59-1.64-.59s-1.28.2-1.66.59c-.38.39-.63.92-.75,1.56-.12.65-.18,1.43-.18,2.36s.06,1.77.18,2.42c.12.65.37,1.17.75,1.57.38.39.93.59,1.66.59s1.26-.2,1.64-.59c.38-.39.63-.92.75-1.57.12-.65.18-1.46.18-2.42s-.06-1.71-.18-2.36Z"/>
    </g>
    <g>
      <path class="cls-2" d="M48.81,229.59c-.95,0-1.66.37-2.13,1.1-.47.73-.7,1.93-.69,3.61.25-.55.65-.99,1.22-1.3.57-.31,1.21-.47,1.91-.47,1.1,0,1.98.34,2.63,1.02.66.68.98,1.63.98,2.83,0,.73-.14,1.38-.42,1.95-.28.58-.71,1.04-1.28,1.38-.57.34-1.26.51-2.07.51-1.1,0-1.96-.25-2.58-.74-.62-.49-1.05-1.17-1.3-2.03-.25-.86-.37-1.93-.37-3.2,0-3.92,1.37-5.87,4.1-5.87,1.04,0,1.87.28,2.46.85.6.57.95,1.28,1.06,2.14h-1.34c-.23-1.18-.97-1.78-2.19-1.78ZM47.53,234.03c-.41.19-.73.47-.98.85s-.38.84-.38,1.38c0,.81.23,1.47.7,1.98.47.51,1.14.76,2.02.76.75,0,1.34-.23,1.78-.7.44-.46.66-1.09.66-1.88,0-.83-.21-1.49-.64-1.96-.43-.47-1.05-.71-1.87-.71-.46,0-.89.09-1.3.28Z"/>
      <path class="cls-2" d="M55.61,229.98c.6-1.03,1.64-1.54,3.14-1.54s2.52.51,3.12,1.54c.6,1.03.9,2.46.9,4.3s-.3,3.32-.9,4.35c-.6,1.03-1.64,1.55-3.12,1.55s-2.54-.52-3.14-1.55c-.6-1.04-.9-2.49-.9-4.35s.3-3.27.9-4.3ZM61.14,231.91c-.12-.65-.37-1.17-.75-1.56-.38-.39-.93-.59-1.64-.59s-1.28.2-1.66.59c-.38.39-.63.92-.75,1.56-.12.65-.18,1.43-.18,2.36s.06,1.77.18,2.42c.12.65.37,1.17.75,1.57.38.39.93.59,1.66.59s1.26-.2,1.64-.59c.38-.39.63-.92.75-1.57.12-.65.18-1.46.18-2.42s-.06-1.71-.18-2.36Z"/>
    </g>
    <g>
      <path class="cls-2" d="M45.5,86.24c-.32-.45-.48-.99-.48-1.63,0-.58.14-1.1.43-1.56.29-.46.72-.83,1.29-1.1.57-.27,1.26-.41,2.07-.41s1.5.14,2.07.41c.57.27,1,.64,1.3,1.1.29.46.44.98.44,1.56,0,.62-.17,1.16-.5,1.62s-.78.81-1.36,1.03c.66.2,1.19.56,1.58,1.06s.58,1.12.58,1.83-.17,1.3-.51,1.82c-.34.52-.82.92-1.45,1.2-.62.28-1.34.42-2.15.42s-1.52-.14-2.14-.42c-.61-.28-1.09-.68-1.43-1.2-.34-.52-.51-1.12-.51-1.82s.19-1.33.58-1.84c.38-.51.91-.86,1.57-1.06-.6-.24-1.06-.58-1.38-1.02ZM46.88,88.45c-.5.37-.75.92-.75,1.66,0,.68.24,1.23.73,1.65s1.14.62,1.96.62,1.47-.21,1.95-.62.72-.97.72-1.65-.25-1.26-.74-1.64c-.49-.38-1.14-.57-1.94-.57s-1.43.18-1.94.55ZM50.58,83.28c-.43-.35-1.01-.53-1.76-.53s-1.32.18-1.74.53-.64.86-.64,1.52c0,.6.22,1.08.66,1.44.44.36,1.02.54,1.72.54s1.29-.18,1.74-.55c.44-.37.66-.85.66-1.45,0-.65-.21-1.15-.64-1.5Z"/>
      <path class="cls-2" d="M55.76,83.08c.6-1.03,1.64-1.54,3.14-1.54s2.52.51,3.12,1.54c.6,1.03.9,2.46.9,4.3s-.3,3.32-.9,4.35c-.6,1.03-1.64,1.55-3.12,1.55s-2.54-.52-3.14-1.55c-.6-1.04-.9-2.49-.9-4.35s.3-3.27.9-4.3ZM61.29,85.01c-.12-.65-.37-1.17-.75-1.56-.38-.39-.93-.59-1.64-.59s-1.28.2-1.66.59c-.38.39-.63.92-.75,1.56-.12.65-.18,1.43-.18,2.36s.06,1.77.18,2.42c.12.65.37,1.17.75,1.57.38.39.93.59,1.66.59s1.26-.2,1.64-.59c.38-.39.63-.92.75-1.57.12-.65.18-1.46.18-2.42s-.06-1.71-.18-2.36Z"/>
    </g>
    <g id="Unit">
      <path class="cls-1" d="M21.84,421.88l-5.09,4.59h5.09v1.46h-11.15v-1.46h5.17l-5.17-4.61v-1.84l5.58,5.06,5.57-5.1v1.9Z"/>
      <path class="cls-1" d="M11.36,418.3c-.19.19-.43.29-.7.29s-.51-.1-.7-.29c-.19-.19-.29-.43-.29-.7s.1-.49.29-.68c.19-.19.43-.28.7-.28s.51.09.7.28c.19.19.29.41.29.68s-.1.51-.29.7ZM13.07,416.89h8.77v1.46h-8.77v-1.46Z"/>
      <path class="cls-1" d="M10,412.95h11.84v1.46h-11.84v-1.46Z"/>
      <path class="cls-1" d="M21.42,408.88c-.37.67-.9,1.19-1.59,1.57s-1.49.57-2.39.57-1.69-.19-2.38-.58c-.69-.39-1.22-.92-1.58-1.59-.37-.67-.55-1.42-.55-2.26s.18-1.58.55-2.26c.37-.67.89-1.2,1.58-1.59.68-.39,1.48-.58,2.38-.58s1.7.2,2.39.6c.69.4,1.22.94,1.59,1.62.37.68.56,1.44.56,2.27s-.19,1.57-.56,2.23ZM20.34,405.18c-.25-.46-.61-.83-1.1-1.11-.49-.28-1.09-.42-1.79-.42s-1.3.14-1.79.42-.86.64-1.1,1.09c-.24.45-.36.93-.36,1.46s.12,1.02.36,1.46c.24.44.61.8,1.1,1.06.49.27,1.09.4,1.79.4s1.32-.13,1.81-.39.86-.61,1.1-1.05c.24-.44.36-.92.36-1.44s-.12-1.01-.37-1.47Z"/>
      <path class="cls-1" d="M13.34,387.86c.28-.53.71-.95,1.27-1.26.57-.31,1.25-.46,2.06-.46h5.17v1.44h-4.96c-.87,0-1.54.22-2.01.65-.46.43-.7,1.02-.7,1.75s.24,1.36.73,1.81c.49.45,1.19.67,2.1.67h4.83v1.44h-4.96c-.87,0-1.54.22-2.01.65-.46.43-.7,1.02-.7,1.75s.24,1.36.73,1.81c.49.45,1.19.67,2.1.67h4.83v1.46h-8.77v-1.46h1.26c-.46-.29-.81-.67-1.06-1.16-.25-.48-.37-1.02-.37-1.61,0-.74.17-1.39.5-1.95.33-.56.82-.99,1.46-1.26-.62-.25-1.1-.65-1.44-1.22-.34-.56-.51-1.19-.51-1.89s.14-1.29.42-1.82Z"/>
      <path class="cls-1" d="M18,375.8v7.01c.86-.05,1.54-.35,2.02-.89s.73-1.19.73-1.96c0-.63-.15-1.15-.44-1.58s-.69-.72-1.18-.89v-1.57c.84.23,1.53.7,2.06,1.41s.79,1.58.79,2.62c0,.83-.19,1.58-.56,2.23-.37.66-.9,1.17-1.59,1.54-.69.37-1.49.56-2.39.56s-1.7-.18-2.38-.54c-.68-.36-1.21-.87-1.58-1.53-.37-.66-.55-1.41-.55-2.26s.18-1.57.54-2.21c.36-.64.86-1.13,1.5-1.48.63-.35,1.35-.52,2.15-.52.28,0,.57.02.88.05ZM15.38,377.62c-.4.25-.7.58-.91,1s-.31.89-.31,1.4c0,.74.23,1.36.7,1.88.47.52,1.12.81,1.95.89v-5.54c-.55,0-1.03.12-1.43.37Z"/>
      <path class="cls-1" d="M14.27,372.06h5.17c.43,0,.73-.09.9-.27.18-.18.26-.5.26-.94v-1.07h1.23v1.31c0,.81-.19,1.42-.56,1.82-.37.41-.99.61-1.84.61h-5.17v1.14h-1.2v-1.14h-2.21v-1.46h2.21v-2.29h1.2v2.29Z"/>
      <path class="cls-1" d="M18,360.06v7.01c.86-.05,1.54-.35,2.02-.89s.73-1.19.73-1.96c0-.63-.15-1.15-.44-1.58s-.69-.72-1.18-.89v-1.57c.84.23,1.53.7,2.06,1.41s.79,1.58.79,2.62c0,.83-.19,1.58-.56,2.23-.37.66-.9,1.17-1.59,1.54-.69.37-1.49.56-2.39.56s-1.7-.18-2.38-.54c-.68-.36-1.21-.87-1.58-1.53-.37-.66-.55-1.41-.55-2.26s.18-1.57.54-2.21c.36-.64.86-1.13,1.5-1.48.63-.35,1.35-.52,2.15-.52.28,0,.57.02.88.05ZM15.38,361.88c-.4.25-.7.58-.91,1s-.31.89-.31,1.4c0,.74.23,1.36.7,1.88.47.52,1.12.81,1.95.89v-5.54c-.55,0-1.03.12-1.43.37Z"/>
      <path class="cls-1" d="M13.33,355.54c-.28-.47-.42-1.05-.42-1.74h1.5v.38c0,1.63.89,2.45,2.66,2.45h4.77v1.46h-8.77v-1.46h1.42c-.5-.26-.89-.62-1.17-1.1Z"/>
      <path class="cls-1" d="M21.64,350.82c-.23.53-.55.95-.96,1.26-.41.31-.88.48-1.42.51v-1.5c.44-.04.79-.25,1.07-.62s.42-.85.42-1.45c0-.55-.12-.99-.37-1.31-.25-.32-.55-.48-.93-.48s-.67.17-.86.51c-.19.34-.37.87-.55,1.58-.17.65-.34,1.18-.52,1.59s-.44.76-.78,1.06c-.35.29-.8.44-1.37.44-.45,0-.86-.13-1.23-.4-.37-.27-.67-.65-.89-1.14s-.33-1.05-.33-1.68c0-.97.25-1.75.74-2.35.49-.6,1.16-.92,2.02-.96v1.46c-.46.03-.83.22-1.1.55-.28.34-.42.79-.42,1.35,0,.52.11.94.34,1.25.22.31.52.46.88.46.29,0,.53-.09.71-.28.19-.19.34-.42.45-.7.11-.28.24-.67.38-1.18.17-.63.34-1.14.5-1.54.17-.39.41-.73.74-1.02.33-.28.76-.43,1.3-.44.48,0,.91.13,1.3.4.38.27.69.64.9,1.13.22.49.33,1.04.33,1.67,0,.67-.11,1.27-.34,1.81Z"/>
    </g>
  </g>
  <g id="Bars">
    <g id="eCO_2">
      <g id="Red.">
        <path class="cls-2" d="M906.22,700.52l-2.66-4.56h-1.76v4.56h-1.46v-11.15h3.6c.84,0,1.55.14,2.14.43.58.29,1.02.68,1.3,1.17.29.49.43,1.05.43,1.68,0,.77-.22,1.45-.66,2.03s-1.11.98-1.99,1.17l2.8,4.67h-1.74ZM901.81,694.79h2.14c.79,0,1.38-.2,1.78-.58.39-.39.59-.91.59-1.56s-.19-1.17-.58-1.54c-.39-.36-.98-.54-1.78-.54h-2.14v4.22Z"/>
        <path class="cls-2" d="M918.03,696.68h-7.01c.05.86.35,1.54.89,2.02.54.49,1.19.73,1.96.73.63,0,1.16-.15,1.58-.44.42-.29.72-.68.89-1.18h1.57c-.23.84-.7,1.53-1.41,2.06-.7.53-1.58.79-2.62.79-.83,0-1.58-.19-2.23-.56s-1.17-.9-1.54-1.59c-.37-.69-.56-1.49-.56-2.39s.18-1.7.54-2.38c.36-.68.87-1.21,1.53-1.58.66-.37,1.41-.55,2.26-.55s1.57.18,2.21.54c.64.36,1.13.86,1.48,1.5s.52,1.35.52,2.15c0,.28-.02.57-.05.88ZM916.21,694.06c-.25-.4-.58-.7-1-.91-.42-.21-.89-.31-1.4-.31-.74,0-1.36.23-1.88.7-.52.47-.81,1.12-.89,1.95h5.54c0-.55-.12-1.03-.37-1.43Z"/>
        <path class="cls-2" d="M920,693.74c.36-.68.86-1.2,1.5-1.58.63-.37,1.35-.56,2.14-.56.68,0,1.32.16,1.9.47.59.32,1.04.73,1.34,1.24v-4.64h1.47v11.84h-1.47v-1.65c-.29.52-.71.95-1.28,1.29s-1.23.5-1.98.5-1.49-.19-2.12-.58c-.63-.38-1.13-.92-1.5-1.62-.36-.69-.54-1.48-.54-2.37s.18-1.68.54-2.36ZM926.48,694.39c-.27-.49-.63-.87-1.08-1.13s-.95-.39-1.5-.39-1.04.13-1.49.38c-.45.26-.81.63-1.07,1.12-.27.49-.4,1.07-.4,1.73s.13,1.26.4,1.75c.27.5.62.88,1.07,1.14.45.26.94.39,1.49.39s1.04-.13,1.5-.39c.45-.26.81-.64,1.08-1.14s.4-1.07.4-1.74-.13-1.24-.4-1.73Z"/>
        <path class="cls-2" d="M930.57,700.32c-.19-.19-.29-.43-.29-.7s.1-.51.29-.7c.19-.19.43-.29.7-.29s.49.1.68.29c.19.19.28.43.28.7s-.09.51-.28.7c-.19.19-.41.29-.68.29s-.51-.1-.7-.29Z"/>
      </g>
      <rect id="eCO_r_2" class="cls-7" x="874.18" y="651.64" width="83.7" height="23.78"/>
      <g>
        <path class="cls-8" d="M903.62,657.06c.89-.78,2.09-1.17,3.62-1.17,1.01,0,1.88.18,2.6.53.72.35,1.27.83,1.64,1.43s.56,1.29.56,2.04c0,.89-.22,1.61-.67,2.17-.45.56-.96.94-1.56,1.14v.08c.77.26,1.37.68,1.82,1.27.45.59.67,1.35.67,2.28,0,.84-.19,1.57-.58,2.21s-.94,1.14-1.68,1.51c-.73.36-1.61.55-2.62.55-1.62,0-2.91-.4-3.87-1.19-.96-.79-1.47-1.99-1.53-3.6h3.35c.01.59.18,1.06.51,1.4.32.34.79.52,1.41.52.53,0,.93-.15,1.22-.45.29-.3.43-.7.43-1.2,0-.65-.21-1.11-.62-1.4s-1.07-.43-1.97-.43h-.65v-2.81h.65c.69,0,1.24-.12,1.67-.35s.64-.66.64-1.26c0-.48-.13-.86-.4-1.13-.27-.27-.64-.4-1.11-.4-.51,0-.89.15-1.14.46-.25.31-.39.69-.43,1.15h-3.37c.05-1.44.53-2.55,1.41-3.33Z"/>
        <path class="cls-8" d="M914.79,670.61c-.38-.36-.58-.8-.58-1.32s.19-.99.58-1.35c.38-.36.88-.55,1.48-.55s1.08.18,1.47.55c.38.36.58.81.58,1.35s-.19.97-.58,1.32c-.38.36-.87.53-1.47.53s-1.1-.18-1.48-.53Z"/>
        <path class="cls-8" d="M920.52,667.71c1.32-1.09,2.36-1.99,3.12-2.69s1.4-1.44,1.93-2.2c.53-.77.79-1.52.79-2.24,0-.55-.13-.98-.38-1.29-.26-.31-.64-.46-1.15-.46s-.91.19-1.2.58c-.29.38-.44.93-.44,1.63h-3.33c.03-1.14.27-2.1.74-2.87.46-.77,1.08-1.33,1.84-1.7.76-.36,1.61-.54,2.54-.54,1.6,0,2.81.41,3.63,1.23.81.82,1.22,1.89,1.22,3.21,0,1.44-.49,2.78-1.48,4.01-.98,1.23-2.24,2.43-3.76,3.61h5.46v2.81h-10.14v-2.57c.46-.36.67-.53.63-.51Z"/>
      </g>
      <g id="eCO">
        <path class="cls-2" d="M788.75,696.68h-7.01c.05.86.35,1.54.89,2.02.54.49,1.19.73,1.96.73.63,0,1.16-.15,1.58-.44.42-.29.72-.68.89-1.18h1.57c-.23.84-.7,1.53-1.41,2.06-.7.53-1.58.79-2.62.79-.83,0-1.58-.19-2.23-.56s-1.17-.9-1.54-1.59c-.37-.69-.56-1.49-.56-2.39s.18-1.7.54-2.38.87-1.21,1.53-1.58c.66-.37,1.41-.55,2.26-.55s1.57.18,2.21.54c.64.36,1.13.86,1.48,1.5.35.63.52,1.35.52,2.15,0,.28-.02.57-.05.88ZM786.93,694.06c-.25-.4-.58-.7-1-.91s-.89-.31-1.4-.31c-.74,0-1.36.23-1.88.7-.52.47-.81,1.12-.89,1.95h5.54c0-.55-.12-1.03-.37-1.43Z"/>
        <path class="cls-2" d="M790.91,692c.49-.87,1.16-1.55,2.01-2.04.85-.49,1.79-.74,2.82-.74,1.22,0,2.28.29,3.18.88s1.57,1.42,1.98,2.5h-1.74c-.31-.67-.75-1.19-1.34-1.55-.58-.36-1.28-.54-2.09-.54s-1.48.18-2.1.54c-.62.36-1.1.88-1.46,1.54-.35.67-.53,1.45-.53,2.34s.18,1.66.53,2.33c.35.67.84,1.18,1.46,1.54s1.32.54,2.1.54,1.51-.18,2.09-.54,1.03-.87,1.34-1.54h1.74c-.42,1.07-1.08,1.89-1.98,2.47-.91.58-1.97.87-3.18.87-1.03,0-1.98-.24-2.82-.73-.85-.49-1.52-1.16-2.01-2.02-.49-.86-.74-1.84-.74-2.93s.25-2.07.74-2.94Z"/>
        <path class="cls-2" d="M805.3,699.9c-.85-.49-1.53-1.16-2.02-2.03-.5-.87-.74-1.85-.74-2.94s.25-2.07.74-2.94c.5-.87,1.17-1.55,2.02-2.03.85-.49,1.8-.73,2.83-.73s1.99.24,2.85.73,1.53,1.16,2.02,2.02c.49.86.74,1.85.74,2.94s-.25,2.08-.74,2.94c-.49.86-1.16,1.54-2.02,2.02s-1.8.73-2.85.73-1.98-.24-2.83-.73ZM810.23,698.82c.62-.36,1.11-.88,1.47-1.55s.54-1.45.54-2.34-.18-1.68-.54-2.34c-.36-.67-.84-1.18-1.46-1.54-.62-.36-1.32-.54-2.11-.54s-1.49.18-2.11.54c-.62.36-1.11.88-1.46,1.54-.36.67-.54,1.45-.54,2.34s.18,1.66.54,2.34.85,1.19,1.47,1.55c.62.36,1.33.54,2.1.54s1.48-.18,2.1-.54Z"/>
        <path class="cls-2" d="M828.02,692.01c.53.28.95.71,1.26,1.27.31.57.46,1.25.46,2.06v5.17h-1.44v-4.96c0-.88-.22-1.54-.65-2.01s-1.02-.7-1.75-.7-1.36.24-1.81.73-.67,1.19-.67,2.1v4.83h-1.44v-4.96c0-.88-.22-1.54-.65-2.01-.43-.46-1.02-.7-1.75-.7s-1.36.24-1.81.73-.67,1.19-.67,2.1v4.83h-1.46v-8.77h1.46v1.26c.29-.46.67-.81,1.16-1.06.49-.25,1.02-.37,1.61-.37.74,0,1.39.17,1.95.5.57.33.99.82,1.26,1.46.25-.62.65-1.1,1.22-1.44.56-.34,1.19-.51,1.89-.51s1.29.14,1.82.42Z"/>
        <path class="cls-2" d="M834.87,692.11c.57-.34,1.23-.5,1.99-.5s1.49.19,2.12.56c.63.37,1.13.9,1.5,1.58.36.68.54,1.46.54,2.36s-.18,1.67-.54,2.37c-.36.69-.86,1.23-1.5,1.62-.63.38-1.34.58-2.12.58s-1.41-.17-1.98-.5-1.01-.75-1.3-1.26v5.78h-1.46v-12.93h1.46v1.62c.29-.5.72-.92,1.29-1.26ZM839.14,694.37c-.27-.49-.63-.86-1.08-1.12s-.95-.38-1.5-.38-1.03.13-1.48.39-.82.64-1.09,1.14c-.27.5-.41,1.07-.41,1.72s.14,1.24.41,1.74c.27.5.63.88,1.09,1.14.45.26.95.39,1.48.39s1.04-.13,1.5-.39c.45-.26.81-.64,1.08-1.14.27-.5.4-1.08.4-1.75s-.13-1.24-.4-1.73Z"/>
        <path class="cls-2" d="M842.94,693.74c.36-.68.86-1.2,1.5-1.58.63-.37,1.34-.56,2.12-.56s1.43.17,2,.5c.56.33.99.75,1.26,1.25v-1.6h1.47v8.77h-1.47v-1.63c-.29.51-.72.94-1.29,1.27-.57.34-1.24.5-1.99.5s-1.48-.19-2.11-.58c-.63-.38-1.13-.92-1.49-1.62s-.54-1.48-.54-2.37.18-1.68.54-2.36ZM849.42,694.39c-.27-.49-.63-.87-1.08-1.13-.45-.26-.95-.39-1.5-.39s-1.04.13-1.49.38-.81.63-1.07,1.12c-.27.49-.4,1.07-.4,1.73s.13,1.26.4,1.75c.27.5.62.88,1.07,1.14.45.26.94.39,1.49.39s1.04-.13,1.5-.39c.45-.26.81-.64,1.08-1.14.27-.5.4-1.07.4-1.74s-.13-1.24-.4-1.73Z"/>
        <path class="cls-2" d="M855.06,700.32c-.53-.23-.96-.55-1.26-.96-.31-.41-.48-.88-.51-1.42h1.5c.04.44.25.79.62,1.07s.85.42,1.45.42c.55,0,.99-.12,1.31-.37s.48-.55.48-.93-.17-.67-.51-.86c-.34-.19-.87-.37-1.58-.55-.65-.17-1.18-.34-1.59-.52-.41-.18-.76-.44-1.06-.78s-.44-.8-.44-1.37c0-.45.13-.86.4-1.23.27-.37.65-.67,1.14-.89s1.05-.33,1.68-.33c.97,0,1.75.25,2.35.74.6.49.92,1.16.96,2.02h-1.46c-.03-.46-.22-.83-.55-1.1s-.79-.42-1.35-.42c-.52,0-.94.11-1.25.34-.31.22-.46.52-.46.88,0,.29.09.53.28.71s.42.34.7.45c.28.11.67.24,1.18.38.63.17,1.14.34,1.54.5.39.17.73.41,1.02.74.28.33.43.76.44,1.3,0,.48-.13.91-.4,1.3s-.64.69-1.13.9c-.49.22-1.04.33-1.67.33-.67,0-1.27-.11-1.81-.34Z"/>
        <path class="cls-2" d="M863.41,700.32c-.53-.23-.96-.55-1.26-.96-.31-.41-.48-.88-.51-1.42h1.5c.04.44.25.79.62,1.07.37.28.85.42,1.45.42.55,0,.99-.12,1.31-.37.32-.25.48-.55.48-.93s-.17-.67-.51-.86-.87-.37-1.58-.55c-.65-.17-1.18-.34-1.59-.52-.41-.18-.76-.44-1.06-.78s-.44-.8-.44-1.37c0-.45.13-.86.4-1.23.27-.37.64-.67,1.13-.89.49-.22,1.05-.33,1.68-.33.97,0,1.75.25,2.35.74.6.49.92,1.16.96,2.02h-1.46c-.03-.46-.22-.83-.55-1.1s-.79-.42-1.35-.42c-.52,0-.94.11-1.25.34-.31.22-.46.52-.46.88,0,.29.09.53.28.71.19.19.42.34.7.45.28.11.67.24,1.18.38.63.17,1.14.34,1.54.5.39.17.73.41,1.02.74.28.33.43.76.44,1.3,0,.48-.13.91-.4,1.3s-.64.69-1.13.9c-.49.22-1.04.33-1.67.33-.67,0-1.28-.11-1.81-.34Z"/>
      </g>
      <rect id="eCO_km_2" class="cls-6" x="782.55" y="222.41" width="83.7" height="453.01"/>
      <g id="_61.7" data-name="61.7">
        <path class="cls-8" d="M813.66,235.65c-.27-.25-.65-.37-1.14-.37-.76,0-1.31.33-1.64.99-.33.66-.51,1.7-.52,3.13.29-.47.72-.83,1.27-1.1.55-.27,1.16-.4,1.83-.4,1.31,0,2.36.41,3.15,1.24.79.83,1.19,1.98,1.19,3.46,0,.97-.2,1.83-.59,2.56-.39.73-.97,1.31-1.72,1.72-.75.41-1.64.62-2.67.62-2.05,0-3.48-.64-4.28-1.93-.8-1.29-1.2-3.14-1.2-5.55,0-2.53.42-4.42,1.27-5.65s2.2-1.85,4.07-1.85c1,0,1.84.2,2.53.59.69.39,1.21.91,1.56,1.55.35.64.56,1.34.63,2.1h-3.18c-.11-.49-.29-.86-.56-1.11ZM811.21,241.11c-.38.34-.57.82-.57,1.45s.18,1.14.53,1.5c.35.36.86.54,1.51.54.59,0,1.05-.18,1.39-.53.34-.35.51-.84.51-1.45s-.17-1.12-.5-1.48c-.33-.36-.81-.54-1.44-.54-.57,0-1.05.17-1.43.51Z"/>
        <path class="cls-8" d="M819.38,236v-3.18h5.54v14.6h-3.56v-11.42h-1.98Z"/>
        <path class="cls-8" d="M827.73,247.05c-.38-.35-.57-.79-.57-1.31s.19-.98.57-1.34c.38-.36.87-.54,1.47-.54s1.07.18,1.45.54c.38.36.57.81.57,1.34s-.19.96-.57,1.31c-.38.35-.86.53-1.45.53s-1.09-.18-1.47-.53Z"/>
        <path class="cls-8" d="M842.22,235.38l-5.02,12.04h-3.5l5.08-11.66h-6.22v-2.92h9.66v2.54Z"/>
      </g>
    </g>
    <g id="Ikea_2">
      <g id="Red.-2" data-name="Red.">
        <path class="cls-2" d="M688.96,700.52l-2.66-4.56h-1.76v4.56h-1.46v-11.15h3.6c.84,0,1.55.14,2.14.43.58.29,1.02.68,1.3,1.17.29.49.43,1.05.43,1.68,0,.77-.22,1.45-.66,2.03s-1.11.98-1.99,1.17l2.8,4.67h-1.74ZM684.55,694.79h2.14c.79,0,1.38-.2,1.78-.58.39-.39.59-.91.59-1.56s-.19-1.17-.58-1.54c-.39-.36-.98-.54-1.78-.54h-2.14v4.22Z"/>
        <path class="cls-2" d="M700.77,696.68h-7.01c.05.86.35,1.54.89,2.02.54.49,1.19.73,1.96.73.63,0,1.15-.15,1.58-.44.42-.29.72-.68.89-1.18h1.57c-.24.84-.7,1.53-1.41,2.06-.7.53-1.58.79-2.62.79-.83,0-1.58-.19-2.23-.56-.66-.37-1.17-.9-1.54-1.59-.37-.69-.56-1.49-.56-2.39s.18-1.7.54-2.38c.36-.68.87-1.21,1.53-1.58.66-.37,1.41-.55,2.26-.55s1.57.18,2.21.54c.64.36,1.13.86,1.48,1.5s.52,1.35.52,2.15c0,.28-.02.57-.05.88ZM698.95,694.06c-.25-.4-.58-.7-1-.91-.42-.21-.89-.31-1.4-.31-.74,0-1.36.23-1.88.7-.52.47-.81,1.12-.89,1.95h5.54c0-.55-.12-1.03-.37-1.43Z"/>
        <path class="cls-2" d="M702.74,693.74c.36-.68.86-1.2,1.5-1.58.63-.37,1.35-.56,2.14-.56.68,0,1.32.16,1.9.47.59.32,1.03.73,1.34,1.24v-4.64h1.47v11.84h-1.47v-1.65c-.29.52-.71.95-1.28,1.29s-1.23.5-1.98.5-1.49-.19-2.12-.58c-.63-.38-1.13-.92-1.5-1.62-.36-.69-.54-1.48-.54-2.37s.18-1.68.54-2.36ZM709.22,694.39c-.27-.49-.63-.87-1.08-1.13-.45-.26-.95-.39-1.5-.39s-1.04.13-1.49.38-.81.63-1.07,1.12c-.27.49-.4,1.07-.4,1.73s.13,1.26.4,1.75.62.88,1.07,1.14c.45.26.94.39,1.49.39s1.04-.13,1.5-.39c.45-.26.81-.64,1.08-1.14s.4-1.07.4-1.74-.13-1.24-.4-1.73Z"/>
        <path class="cls-2" d="M713.31,700.33c-.19-.19-.29-.43-.29-.7s.1-.51.29-.7c.19-.19.43-.29.7-.29s.49.1.68.29c.19.19.28.43.28.7s-.09.51-.28.7c-.19.19-.41.29-.68.29s-.51-.1-.7-.29Z"/>
      </g>
      <rect id="IKEA_r_2" class="cls-4" x="656.92" y="631.27" width="83.7" height="43.84"/>
      <g id="_6.0" data-name="6.0">
        <path class="cls-8" d="M690.62,644.3c-.27-.25-.65-.37-1.14-.37-.76,0-1.31.33-1.64.99-.33.66-.51,1.7-.52,3.13.29-.47.72-.83,1.27-1.1.55-.27,1.16-.4,1.83-.4,1.31,0,2.36.41,3.15,1.24.79.83,1.19,1.98,1.19,3.46,0,.97-.2,1.83-.59,2.56-.39.73-.97,1.31-1.72,1.72s-1.64.62-2.67.62c-2.05,0-3.48-.64-4.28-1.93-.8-1.29-1.2-3.14-1.2-5.55,0-2.53.42-4.42,1.27-5.65s2.2-1.85,4.07-1.85c1,0,1.84.2,2.53.59.69.39,1.21.91,1.56,1.55.35.64.56,1.34.63,2.1h-3.18c-.11-.49-.29-.86-.56-1.11ZM688.17,649.76c-.38.34-.57.82-.57,1.45s.18,1.14.53,1.5c.35.36.86.54,1.51.54.59,0,1.05-.18,1.39-.53s.51-.84.51-1.45-.17-1.12-.5-1.48c-.33-.36-.81-.54-1.44-.54-.57,0-1.05.17-1.43.51Z"/>
        <path class="cls-8" d="M697.17,655.7c-.38-.35-.57-.79-.57-1.31s.19-.98.57-1.34c.38-.36.87-.54,1.47-.54s1.07.18,1.45.54c.38.36.57.81.57,1.34s-.19.96-.57,1.31c-.38.35-.86.53-1.45.53s-1.09-.18-1.47-.53Z"/>
        <path class="cls-8" d="M703.67,643.15c.89-1.32,2.32-1.98,4.29-1.98s3.4.66,4.29,1.98,1.33,3.13,1.33,5.42-.44,4.14-1.33,5.46-2.32,1.98-4.29,1.98-3.4-.66-4.29-1.98-1.33-3.14-1.33-5.46.44-4.1,1.33-5.42ZM709.78,645.46c-.29-.73-.9-1.09-1.82-1.09s-1.53.36-1.82,1.09c-.29.73-.44,1.76-.44,3.11,0,.91.05,1.66.16,2.25.11.59.32,1.07.65,1.44.33.37.81.55,1.45.55s1.12-.18,1.45-.55c.33-.37.54-.85.65-1.44.11-.59.16-1.34.16-2.25,0-1.35-.15-2.38-.44-3.11Z"/>
      </g>
      <g id="IKEA">
        <path class="cls-2" d="M593.21,690.57v11.15h-1.46v-11.15h1.46Z"/>
        <path class="cls-2" d="M601.74,701.72l-4.59-5.09v5.09h-1.46v-11.15h1.46v5.17l4.61-5.17h1.84l-5.06,5.58,5.1,5.57h-1.9Z"/>
        <path class="cls-2" d="M606.73,691.75v3.73h4.06v1.2h-4.06v3.84h4.54v1.2h-6v-11.17h6v1.2h-4.54Z"/>
        <path class="cls-2" d="M620.07,699.24h-4.86l-.9,2.48h-1.54l4.03-11.09h1.68l4.02,11.09h-1.54l-.9-2.48ZM619.66,698.05l-2.02-5.63-2.02,5.63h4.03Z"/>
      </g>
      <rect id="IKEA_km_2" class="cls-3" x="565.27" y="196.87" width="83.72" height="478.46"/>
      <g id="_65.2" data-name="65.2">
        <path class="cls-8" d="M593.29,209.93c-.27-.25-.65-.37-1.14-.37-.76,0-1.31.33-1.64.99-.33.66-.51,1.7-.52,3.13.29-.47.72-.83,1.27-1.1.55-.27,1.16-.4,1.83-.4,1.31,0,2.36.41,3.15,1.24.79.83,1.19,1.98,1.19,3.46,0,.97-.2,1.83-.59,2.56-.39.73-.97,1.31-1.72,1.72s-1.64.62-2.67.62c-2.05,0-3.48-.64-4.28-1.93-.8-1.29-1.2-3.14-1.2-5.55,0-2.53.42-4.42,1.27-5.65s2.2-1.85,4.07-1.85c1,0,1.84.2,2.53.59.69.39,1.21.91,1.56,1.55.35.64.56,1.34.63,2.1h-3.18c-.11-.49-.29-.86-.56-1.11ZM590.84,215.39c-.38.34-.57.82-.57,1.45s.18,1.14.53,1.5c.35.36.86.54,1.51.54.59,0,1.05-.18,1.39-.53s.51-.84.51-1.45-.17-1.12-.5-1.48c-.33-.36-.81-.54-1.44-.54-.57,0-1.05.17-1.43.51Z"/>
        <path class="cls-8" d="M609.65,210.08h-6.24v2.76c.27-.29.64-.53,1.12-.72.48-.19,1-.28,1.56-.28,1,0,1.83.23,2.49.68s1.14,1.04,1.45,1.76c.31.72.46,1.5.46,2.34,0,1.56-.44,2.8-1.32,3.71s-2.12,1.37-3.72,1.37c-1.07,0-1.99-.18-2.78-.55-.79-.37-1.39-.88-1.82-1.53s-.66-1.41-.7-2.26h3.34c.08.41.27.76.58,1.03.31.27.73.41,1.26.41.63,0,1.09-.2,1.4-.6s.46-.93.46-1.6-.16-1.15-.48-1.5-.79-.52-1.4-.52c-.45,0-.83.11-1.12.33-.29.22-.49.51-.58.87h-3.3v-8.7h9.34v3Z"/>
        <path class="cls-8" d="M612.84,221.33c-.38-.35-.57-.79-.57-1.31s.19-.98.57-1.34c.38-.36.87-.54,1.47-.54s1.07.18,1.45.54c.38.36.57.81.57,1.34s-.19.96-.57,1.31c-.38.35-.86.53-1.45.53s-1.09-.18-1.47-.53Z"/>
        <path class="cls-8" d="M618.51,218.46c1.31-1.08,2.34-1.97,3.09-2.66.75-.69,1.39-1.42,1.91-2.18.52-.76.78-1.5.78-2.22,0-.55-.13-.97-.38-1.28-.25-.31-.63-.46-1.14-.46s-.9.19-1.19.57c-.29.38-.43.92-.43,1.61h-3.3c.03-1.13.27-2.08.73-2.84s1.07-1.32,1.82-1.68c.75-.36,1.59-.54,2.51-.54,1.59,0,2.78.41,3.59,1.22.81.81,1.21,1.87,1.21,3.18,0,1.43-.49,2.75-1.46,3.97s-2.21,2.41-3.72,3.57h5.4v2.78h-10.04v-2.54c.45-.36.66-.53.62-.5Z"/>
      </g>
    </g>
    <g id="eCO_1">
      <g id="Red.-3" data-name="Red.">
        <path class="cls-2" d="M435.68,700.52l-2.66-4.56h-1.76v4.56h-1.46v-11.15h3.6c.84,0,1.55.14,2.14.43.58.29,1.02.68,1.3,1.17.29.49.43,1.05.43,1.68,0,.77-.22,1.45-.66,2.03-.44.59-1.11.98-1.99,1.17l2.8,4.67h-1.74ZM431.26,694.79h2.14c.79,0,1.38-.2,1.78-.58.39-.39.59-.91.59-1.56s-.19-1.17-.58-1.54c-.39-.36-.98-.54-1.78-.54h-2.14v4.22Z"/>
        <path class="cls-2" d="M447.49,696.68h-7.01c.05.86.35,1.54.89,2.02.54.49,1.19.73,1.96.73.63,0,1.15-.15,1.58-.44.42-.29.72-.68.89-1.18h1.57c-.23.84-.7,1.53-1.41,2.06-.7.53-1.58.79-2.62.79-.83,0-1.58-.19-2.23-.56-.66-.37-1.17-.9-1.54-1.59-.37-.69-.56-1.49-.56-2.39s.18-1.7.54-2.38.87-1.21,1.53-1.58c.66-.37,1.41-.55,2.26-.55s1.57.18,2.21.54c.64.36,1.13.86,1.48,1.5s.52,1.35.52,2.15c0,.28-.02.57-.05.88ZM445.66,694.06c-.25-.4-.58-.7-1-.91s-.89-.31-1.4-.31c-.74,0-1.36.23-1.88.7-.52.47-.81,1.12-.89,1.95h5.54c0-.55-.12-1.03-.37-1.43Z"/>
        <path class="cls-2" d="M449.45,693.74c.36-.68.86-1.2,1.5-1.58.63-.37,1.35-.56,2.14-.56.68,0,1.32.16,1.9.47.59.32,1.03.73,1.34,1.24v-4.64h1.47v11.84h-1.47v-1.65c-.29.52-.71.95-1.28,1.29s-1.23.5-1.98.5-1.49-.19-2.12-.58c-.63-.38-1.13-.92-1.5-1.62s-.54-1.48-.54-2.37.18-1.68.54-2.36ZM455.93,694.39c-.27-.49-.63-.87-1.08-1.13-.45-.26-.95-.39-1.5-.39s-1.04.13-1.49.38c-.45.26-.81.63-1.07,1.12-.27.49-.4,1.07-.4,1.73s.13,1.26.4,1.75c.27.5.62.88,1.07,1.14.45.26.94.39,1.49.39s1.04-.13,1.5-.39c.45-.26.81-.64,1.08-1.14s.4-1.07.4-1.74-.13-1.24-.4-1.73Z"/>
        <path class="cls-2" d="M460.03,700.32c-.19-.19-.29-.43-.29-.7s.1-.51.29-.7c.19-.19.43-.29.7-.29s.49.1.68.29c.19.19.28.43.28.7s-.09.51-.28.7c-.19.19-.41.29-.68.29s-.51-.1-.7-.29Z"/>
      </g>
      <rect id="eCO_r_1" class="cls-7" x="403.64" y="513.09" width="83.7" height="162.24"/>
      <g id="_22.1" data-name="22.1">
        <path class="cls-8" d="M428.89,534.65c1.31-1.08,2.34-1.97,3.09-2.66.75-.69,1.39-1.42,1.91-2.18s.78-1.5.78-2.22c0-.55-.13-.97-.38-1.28s-.63-.46-1.14-.46-.9.19-1.19.57c-.29.38-.43.92-.43,1.61h-3.3c.03-1.13.27-2.08.73-2.84.46-.76,1.07-1.32,1.82-1.68.75-.36,1.59-.54,2.51-.54,1.59,0,2.78.41,3.59,1.22.81.81,1.21,1.87,1.21,3.18,0,1.43-.49,2.75-1.46,3.97-.97,1.22-2.21,2.41-3.72,3.57h5.4v2.78h-10.04v-2.54c.45-.36.66-.53.62-.5Z"/>
        <path class="cls-8" d="M440.31,534.65c1.31-1.08,2.34-1.97,3.09-2.66.75-.69,1.39-1.42,1.91-2.18s.78-1.5.78-2.22c0-.55-.13-.97-.38-1.28s-.63-.46-1.14-.46-.9.19-1.19.57c-.29.38-.43.92-.43,1.61h-3.3c.03-1.13.27-2.08.73-2.84.46-.76,1.07-1.32,1.82-1.68.75-.36,1.59-.54,2.51-.54,1.59,0,2.78.41,3.59,1.22.81.81,1.21,1.87,1.21,3.18,0,1.43-.49,2.75-1.46,3.97-.97,1.22-2.21,2.41-3.72,3.57h5.4v2.78h-10.04v-2.54c.45-.36.66-.53.62-.5Z"/>
        <path class="cls-8" d="M451.7,537.52c-.38-.35-.57-.79-.57-1.31s.19-.98.57-1.34c.38-.36.87-.54,1.47-.54s1.07.18,1.45.54c.38.36.57.81.57,1.34s-.19.96-.57,1.31c-.38.35-.86.53-1.45.53s-1.09-.18-1.47-.53Z"/>
        <path class="cls-8" d="M456.51,526.47v-3.18h5.54v14.6h-3.56v-11.42h-1.98Z"/>
      </g>
      <g id="eCo">
        <path class="cls-2" d="M317.87,696.68h-7.01c.05.86.35,1.54.89,2.02.54.49,1.19.73,1.96.73.63,0,1.15-.15,1.58-.44.42-.29.72-.68.89-1.18h1.57c-.23.84-.7,1.53-1.41,2.06-.7.53-1.58.79-2.62.79-.83,0-1.58-.19-2.23-.56-.66-.37-1.17-.9-1.54-1.59-.37-.69-.56-1.49-.56-2.39s.18-1.7.54-2.38.87-1.21,1.53-1.58c.66-.37,1.41-.55,2.26-.55s1.57.18,2.21.54c.64.36,1.13.86,1.48,1.5s.52,1.35.52,2.15c0,.28-.02.57-.05.88ZM316.05,694.06c-.25-.4-.58-.7-1-.91s-.89-.31-1.4-.31c-.74,0-1.36.23-1.88.7-.52.47-.81,1.12-.89,1.95h5.54c0-.55-.12-1.03-.37-1.43Z"/>
        <path class="cls-2" d="M320.03,692c.49-.87,1.16-1.55,2.01-2.04.85-.49,1.79-.74,2.82-.74,1.22,0,2.28.29,3.18.88s1.57,1.42,1.98,2.5h-1.74c-.31-.67-.75-1.19-1.34-1.55-.58-.36-1.28-.54-2.09-.54s-1.48.18-2.1.54c-.62.36-1.1.88-1.46,1.54-.35.67-.53,1.45-.53,2.34s.18,1.66.53,2.33.84,1.18,1.46,1.54c.62.36,1.32.54,2.1.54s1.51-.18,2.09-.54c.58-.36,1.03-.87,1.34-1.54h1.74c-.42,1.07-1.08,1.89-1.98,2.47-.91.58-1.97.87-3.18.87-1.03,0-1.98-.24-2.82-.73-.85-.49-1.52-1.16-2.01-2.02-.49-.86-.74-1.84-.74-2.93s.25-2.07.74-2.94Z"/>
        <path class="cls-2" d="M334.42,699.9c-.85-.49-1.53-1.16-2.02-2.03-.5-.87-.74-1.85-.74-2.94s.25-2.07.74-2.94c.5-.87,1.17-1.55,2.02-2.03.85-.49,1.8-.73,2.83-.73s1.99.24,2.85.73c.85.49,1.52,1.16,2.02,2.02.49.86.74,1.85.74,2.94s-.25,2.08-.74,2.94c-.49.86-1.16,1.54-2.02,2.02-.85.49-1.8.73-2.85.73s-1.98-.24-2.83-.73ZM339.35,698.82c.62-.36,1.11-.88,1.47-1.55s.54-1.45.54-2.34-.18-1.68-.54-2.34c-.36-.67-.85-1.18-1.46-1.54-.62-.36-1.32-.54-2.11-.54s-1.49.18-2.11.54c-.62.36-1.11.88-1.46,1.54-.36.67-.54,1.45-.54,2.34s.18,1.66.54,2.34.85,1.19,1.47,1.55c.62.36,1.33.54,2.1.54s1.48-.18,2.1-.54Z"/>
        <path class="cls-2" d="M357.14,692.01c.53.28.95.71,1.26,1.27.31.57.46,1.25.46,2.06v5.17h-1.44v-4.96c0-.88-.22-1.54-.65-2.01-.43-.46-1.02-.7-1.75-.7s-1.36.24-1.81.73c-.45.49-.67,1.19-.67,2.1v4.83h-1.44v-4.96c0-.88-.22-1.54-.65-2.01s-1.02-.7-1.75-.7-1.36.24-1.81.73c-.45.49-.67,1.19-.67,2.1v4.83h-1.46v-8.77h1.46v1.26c.29-.46.67-.81,1.16-1.06.48-.25,1.02-.37,1.61-.37.74,0,1.39.17,1.95.5.56.33.99.82,1.26,1.46.25-.62.65-1.1,1.22-1.44.56-.34,1.19-.51,1.89-.51s1.29.14,1.82.42Z"/>
        <path class="cls-2" d="M363.99,692.11c.57-.34,1.23-.5,1.99-.5s1.49.19,2.12.56c.63.37,1.13.9,1.5,1.58.36.68.54,1.46.54,2.36s-.18,1.67-.54,2.37c-.36.69-.86,1.23-1.5,1.62-.63.38-1.34.58-2.12.58s-1.41-.17-1.98-.5c-.57-.34-1.01-.75-1.3-1.26v5.78h-1.46v-12.93h1.46v1.62c.29-.5.72-.92,1.29-1.26ZM368.26,694.37c-.27-.49-.63-.86-1.08-1.12-.45-.26-.95-.38-1.5-.38s-1.03.13-1.48.39c-.45.26-.82.64-1.09,1.14s-.41,1.07-.41,1.72.14,1.24.41,1.74.63.88,1.09,1.14c.45.26.95.39,1.48.39s1.04-.13,1.5-.39c.45-.26.81-.64,1.08-1.14.27-.5.4-1.08.4-1.75s-.13-1.24-.4-1.73Z"/>
        <path class="cls-2" d="M372.06,693.74c.36-.68.86-1.2,1.5-1.58.63-.37,1.34-.56,2.12-.56s1.43.17,2,.5c.56.33.99.75,1.26,1.25v-1.6h1.47v8.77h-1.47v-1.63c-.29.51-.72.94-1.29,1.27-.57.34-1.23.5-1.99.5s-1.48-.19-2.11-.58c-.63-.38-1.13-.92-1.49-1.62s-.54-1.48-.54-2.37.18-1.68.54-2.36ZM378.54,694.39c-.27-.49-.63-.87-1.08-1.13-.45-.26-.95-.39-1.5-.39s-1.04.13-1.49.38c-.45.26-.81.63-1.07,1.12-.27.49-.4,1.07-.4,1.73s.13,1.26.4,1.75c.27.5.62.88,1.07,1.14.45.26.94.39,1.49.39s1.04-.13,1.5-.39c.45-.26.81-.64,1.08-1.14s.4-1.07.4-1.74-.13-1.24-.4-1.73Z"/>
        <path class="cls-2" d="M384.18,700.32c-.53-.23-.95-.55-1.26-.96-.31-.41-.48-.88-.51-1.42h1.5c.04.44.25.79.62,1.07s.85.42,1.45.42c.55,0,.99-.12,1.31-.37.32-.25.48-.55.48-.93s-.17-.67-.51-.86c-.34-.19-.87-.37-1.58-.55-.65-.17-1.18-.34-1.59-.52-.41-.18-.76-.44-1.06-.78-.29-.35-.44-.8-.44-1.37,0-.45.13-.86.4-1.23.27-.37.65-.67,1.14-.89s1.05-.33,1.68-.33c.97,0,1.75.25,2.35.74.6.49.92,1.16.96,2.02h-1.46c-.03-.46-.22-.83-.55-1.1-.34-.28-.79-.42-1.35-.42-.52,0-.94.11-1.25.34-.31.22-.46.52-.46.88,0,.29.09.53.28.71.19.19.42.34.7.45.28.11.67.24,1.18.38.63.17,1.14.34,1.54.5.39.17.73.41,1.02.74.28.33.43.76.44,1.3,0,.48-.13.91-.4,1.3-.27.38-.64.69-1.13.9-.49.22-1.04.33-1.67.33-.67,0-1.27-.11-1.81-.34Z"/>
        <path class="cls-2" d="M392.53,700.32c-.53-.23-.95-.55-1.26-.96-.31-.41-.48-.88-.51-1.42h1.5c.04.44.25.79.62,1.07s.85.42,1.45.42c.55,0,.99-.12,1.31-.37.32-.25.48-.55.48-.93s-.17-.67-.51-.86c-.34-.19-.87-.37-1.58-.55-.65-.17-1.18-.34-1.59-.52-.41-.18-.76-.44-1.06-.78-.29-.35-.44-.8-.44-1.37,0-.45.13-.86.4-1.23.27-.37.65-.67,1.14-.89s1.05-.33,1.68-.33c.97,0,1.75.25,2.35.74.6.49.92,1.16.96,2.02h-1.46c-.03-.46-.22-.83-.55-1.1-.34-.28-.79-.42-1.35-.42-.52,0-.94.11-1.25.34-.31.22-.46.52-.46.88,0,.29.09.53.28.71.19.19.42.34.7.45.28.11.67.24,1.18.38.63.17,1.14.34,1.54.5.39.17.73.41,1.02.74.28.33.43.76.44,1.3,0,.48-.13.91-.4,1.3-.27.38-.64.69-1.13.9-.49.22-1.04.33-1.67.33-.67,0-1.27-.11-1.81-.34Z"/>
      </g>
      <rect id="eCO_km_1" class="cls-6" x="311.34" y="198.75" width="84.36" height="476.58"/>
      <g id="_64.9" data-name="64.9">
        <path class="cls-8" d="M338.97,211.9c-.27-.25-.65-.37-1.14-.37-.76,0-1.31.33-1.64.99-.33.66-.51,1.7-.52,3.13.29-.47.72-.83,1.27-1.1s1.16-.4,1.83-.4c1.31,0,2.36.41,3.15,1.24.79.83,1.19,1.98,1.19,3.46,0,.97-.2,1.83-.59,2.56s-.97,1.31-1.72,1.72c-.75.41-1.64.62-2.67.62-2.05,0-3.48-.64-4.28-1.93-.8-1.29-1.2-3.14-1.2-5.55,0-2.53.42-4.42,1.27-5.65s2.2-1.85,4.07-1.85c1,0,1.84.2,2.53.59.69.39,1.21.91,1.56,1.55.35.64.56,1.34.63,2.1h-3.18c-.11-.49-.29-.86-.56-1.11ZM336.52,217.36c-.38.34-.57.82-.57,1.45s.18,1.14.53,1.5c.35.36.86.54,1.51.54.59,0,1.05-.18,1.39-.53.34-.35.51-.84.51-1.45s-.17-1.12-.5-1.48c-.33-.36-.81-.54-1.44-.54-.57,0-1.05.17-1.43.51Z"/>
        <path class="cls-8" d="M345.13,221.07v-2.76l6.32-9.04h3.82v8.84h1.64v2.96h-1.64v2.6h-3.42v-2.6h-6.72ZM352.09,213.03l-3.36,5.08h3.36v-5.08Z"/>
        <path class="cls-8" d="M359.06,223.3c-.38-.35-.57-.79-.57-1.31s.19-.98.57-1.34c.38-.36.87-.54,1.47-.54s1.07.18,1.45.54c.38.36.57.81.57,1.34s-.19.96-.57,1.31c-.38.35-.86.53-1.45.53s-1.09-.18-1.47-.53Z"/>
        <path class="cls-8" d="M369.75,220.97c.71,0,1.21-.31,1.5-.94.29-.63.44-1.65.44-3.06-.29.41-.69.73-1.2.96-.51.23-1.07.34-1.7.34-.85,0-1.61-.18-2.28-.53-.67-.35-1.19-.88-1.57-1.58-.38-.7-.57-1.55-.57-2.55s.2-1.85.61-2.58.99-1.3,1.74-1.7c.75-.4,1.64-.6,2.67-.6,1.97,0,3.35.61,4.14,1.84.79,1.23,1.18,3.03,1.18,5.42,0,1.73-.16,3.16-.47,4.29-.31,1.13-.84,1.98-1.58,2.57-.74.59-1.75.88-3.03.88-1.01,0-1.88-.2-2.59-.6s-1.26-.93-1.64-1.58c-.38-.65-.6-1.37-.65-2.16h3.16c.2,1.05.81,1.58,1.84,1.58ZM370.91,215.06c.33-.34.5-.8.5-1.39,0-.64-.17-1.13-.52-1.48-.35-.35-.81-.52-1.4-.52s-1.05.18-1.39.53-.51.84-.51,1.45c0,.57.17,1.04.51,1.39s.83.53,1.47.53c.56,0,1.01-.17,1.34-.51Z"/>
      </g>
    </g>
    <g id="Ikea_1">
      <g id="Red.-4" data-name="Red.">
        <path class="cls-2" d="M217.43,700.52l-2.66-4.56h-1.76v4.56h-1.46v-11.15h3.6c.84,0,1.55.14,2.14.43.58.29,1.02.68,1.3,1.17.29.49.43,1.05.43,1.68,0,.77-.22,1.45-.66,2.03-.44.59-1.11.98-1.99,1.17l2.8,4.67h-1.74ZM213.01,694.79h2.14c.79,0,1.38-.2,1.78-.58.39-.39.59-.91.59-1.56s-.19-1.17-.58-1.54c-.39-.36-.98-.54-1.78-.54h-2.14v4.22Z"/>
        <path class="cls-2" d="M229.24,696.68h-7.01c.05.86.35,1.54.89,2.02.54.49,1.19.73,1.96.73.63,0,1.15-.15,1.58-.44.42-.29.72-.68.89-1.18h1.57c-.23.84-.7,1.53-1.41,2.06-.7.53-1.58.79-2.62.79-.83,0-1.58-.19-2.23-.56-.66-.37-1.17-.9-1.54-1.59-.37-.69-.56-1.49-.56-2.39s.18-1.7.54-2.38.87-1.21,1.53-1.58c.66-.37,1.41-.55,2.26-.55s1.57.18,2.21.54c.64.36,1.13.86,1.48,1.5s.52,1.35.52,2.15c0,.28-.02.57-.05.88ZM227.41,694.06c-.25-.4-.58-.7-1-.91s-.89-.31-1.4-.31c-.74,0-1.36.23-1.88.7-.52.47-.81,1.12-.89,1.95h5.54c0-.55-.12-1.03-.37-1.43Z"/>
        <path class="cls-2" d="M231.2,693.74c.36-.68.86-1.2,1.5-1.58.63-.37,1.35-.56,2.14-.56.68,0,1.32.16,1.9.47.59.32,1.03.73,1.34,1.24v-4.64h1.47v11.84h-1.47v-1.65c-.29.52-.71.95-1.28,1.29s-1.23.5-1.98.5-1.49-.19-2.12-.58c-.63-.38-1.13-.92-1.5-1.62s-.54-1.48-.54-2.37.18-1.68.54-2.36ZM237.68,694.39c-.27-.49-.63-.87-1.08-1.13-.45-.26-.95-.39-1.5-.39s-1.04.13-1.49.38c-.45.26-.81.63-1.07,1.12-.27.49-.4,1.07-.4,1.73s.13,1.26.4,1.75c.27.5.62.88,1.07,1.14.45.26.94.39,1.49.39s1.04-.13,1.5-.39c.45-.26.81-.64,1.08-1.14s.4-1.07.4-1.74-.13-1.24-.4-1.73Z"/>
        <path class="cls-2" d="M241.78,700.32c-.19-.19-.29-.43-.29-.7s.1-.51.29-.7c.19-.19.43-.29.7-.29s.49.1.68.29c.19.19.28.43.28.7s-.09.51-.28.7c-.19.19-.41.29-.68.29s-.51-.1-.7-.29Z"/>
      </g>
      <rect id="IKEA_r_1" class="cls-4" x="185.07" y="559.1" width="84.33" height="116.22"/>
      <g id="_15.8" data-name="15.8">
        <path class="cls-8" d="M208.22,572.33v-3.18h5.54v14.6h-3.56v-11.42h-1.98Z"/>
        <path class="cls-8" d="M226.38,572.13h-6.24v2.76c.27-.29.64-.53,1.12-.72s1-.28,1.56-.28c1,0,1.83.23,2.49.68.66.45,1.14,1.04,1.45,1.76.31.72.46,1.5.46,2.34,0,1.56-.44,2.8-1.32,3.71-.88.91-2.12,1.37-3.72,1.37-1.07,0-1.99-.18-2.78-.55-.79-.37-1.39-.88-1.82-1.53s-.66-1.41-.7-2.26h3.34c.08.41.27.76.58,1.03.31.27.73.41,1.26.41.63,0,1.09-.2,1.4-.6s.46-.93.46-1.6-.16-1.15-.48-1.5c-.32-.35-.79-.52-1.4-.52-.45,0-.83.11-1.12.33-.29.22-.49.51-.58.87h-3.3v-8.7h9.34v3Z"/>
        <path class="cls-8" d="M229.57,583.38c-.38-.35-.57-.79-.57-1.31s.19-.98.57-1.34c.38-.36.87-.54,1.47-.54s1.07.18,1.45.54c.38.36.57.81.57,1.34s-.19.96-.57,1.31c-.38.35-.86.53-1.45.53s-1.09-.18-1.47-.53Z"/>
        <path class="cls-8" d="M235.26,572.77c0-.72.19-1.38.56-1.97.37-.59.94-1.07,1.7-1.42.76-.35,1.69-.53,2.8-.53s2.04.18,2.79.53c.75.35,1.32.83,1.69,1.42.37.59.56,1.25.56,1.97s-.17,1.35-.51,1.88c-.34.53-.8.95-1.37,1.26.72.35,1.27.82,1.66,1.43.39.61.58,1.32.58,2.13,0,.95-.24,1.76-.72,2.45s-1.13,1.21-1.95,1.57c-.82.36-1.73.54-2.73.54s-1.91-.18-2.73-.54c-.82-.36-1.47-.88-1.95-1.57s-.72-1.5-.72-2.45c0-.83.19-1.54.58-2.15.39-.61.93-1.08,1.64-1.41-1.25-.67-1.88-1.71-1.88-3.14ZM238.8,577.9c-.39.34-.58.81-.58,1.41,0,.56.19,1.02.57,1.38.38.36.89.54,1.53.54s1.14-.18,1.51-.54c.37-.36.55-.82.55-1.38s-.19-1.05-.57-1.4c-.38-.35-.88-.52-1.49-.52s-1.13.17-1.52.51ZM241.57,572.02c-.31-.3-.73-.45-1.25-.45s-.94.15-1.25.46c-.31.31-.47.73-.47,1.28s.16.93.48,1.23c.32.3.73.45,1.24.45s.92-.15,1.24-.46c.32-.31.48-.72.48-1.24,0-.55-.16-.97-.47-1.27Z"/>
      </g>
      <g id="IKEA-2" data-name="IKEA">
        <path class="cls-2" d="M121.16,689.23v11.15h-1.46v-11.15h1.46Z"/>
        <path class="cls-2" d="M129.69,700.38l-4.59-5.09v5.09h-1.46v-11.15h1.46v5.17l4.61-5.17h1.84l-5.06,5.58,5.1,5.57h-1.9Z"/>
        <path class="cls-2" d="M134.68,690.41v3.73h4.06v1.2h-4.06v3.84h4.54v1.2h-6v-11.17h6v1.2h-4.54Z"/>
        <path class="cls-2" d="M148.03,697.9h-4.86l-.9,2.48h-1.54l4.03-11.09h1.68l4.02,11.09h-1.54l-.9-2.48ZM147.61,696.71l-2.02-5.63-2.02,5.63h4.03Z"/>
      </g>
      <rect id="IKEA_km_1" class="cls-3" x="93.03" y="152.82" width="84.11" height="522.5"/>
      <g id="_71.2" data-name="71.2">
        <path class="cls-8" d="M127.66,165.58l-5.02,12.04h-3.5l5.08-11.66h-6.22v-2.92h9.66v2.54Z"/>
        <path class="cls-8" d="M128.68,166.2v-3.18h5.54v14.6h-3.56v-11.42h-1.98Z"/>
        <path class="cls-8" d="M137.03,177.25c-.38-.35-.57-.79-.57-1.31s.19-.98.57-1.34c.38-.36.87-.54,1.47-.54s1.07.18,1.45.54c.38.36.57.81.57,1.34s-.19.96-.57,1.31c-.38.35-.86.53-1.45.53s-1.09-.18-1.47-.53Z"/>
        <path class="cls-8" d="M142.7,174.38c1.31-1.08,2.34-1.97,3.09-2.66.75-.69,1.39-1.42,1.91-2.18s.78-1.5.78-2.22c0-.55-.13-.97-.38-1.28s-.63-.46-1.14-.46-.9.19-1.19.57c-.29.38-.43.92-.43,1.61h-3.3c.03-1.13.27-2.08.73-2.84.46-.76,1.07-1.32,1.82-1.68.75-.36,1.59-.54,2.51-.54,1.59,0,2.78.41,3.59,1.22.81.81,1.21,1.87,1.21,3.18,0,1.43-.49,2.75-1.46,3.97-.97,1.22-2.21,2.41-3.72,3.57h5.4v2.78h-10.04v-2.54c.45-.36.66-.53.62-.5Z"/>
      </g>
    </g>
  </g>
  <g id="Info">
    <g id="Red.-5" data-name="Red.">
      <path class="cls-2" d="M98.52,766.67l-2.32-3.99h-1.54v3.99h-1.27v-9.76h3.15c.74,0,1.36.13,1.87.38.51.25.89.59,1.14,1.02.25.43.38.92.38,1.47,0,.67-.19,1.26-.58,1.78-.39.51-.97.85-1.74,1.02l2.45,4.09h-1.53ZM94.65,761.65h1.88c.69,0,1.21-.17,1.55-.51.34-.34.52-.79.52-1.36s-.17-1.03-.51-1.34c-.34-.32-.86-.48-1.56-.48h-1.88v3.7Z"/>
      <path class="cls-2" d="M108.85,763.31h-6.13c.05.76.31,1.35.78,1.77.47.42,1.04.64,1.71.64.55,0,1.01-.13,1.38-.38s.63-.6.78-1.03h1.37c-.21.74-.62,1.34-1.23,1.8-.62.46-1.38.69-2.3.69-.73,0-1.38-.16-1.95-.49-.57-.33-1.02-.79-1.35-1.39-.33-.6-.49-1.3-.49-2.09s.16-1.49.48-2.09c.32-.6.76-1.06,1.34-1.38.57-.32,1.23-.48,1.98-.48s1.37.16,1.93.48.99.75,1.29,1.31c.3.55.46,1.18.46,1.88,0,.24-.01.5-.04.77ZM107.25,761.02c-.21-.35-.51-.62-.88-.8-.37-.18-.78-.27-1.23-.27-.64,0-1.19.21-1.65.62-.45.41-.71.98-.78,1.71h4.84c0-.48-.11-.9-.32-1.25Z"/>
      <path class="cls-2" d="M110.57,760.74c.32-.59.75-1.05,1.31-1.38.56-.33,1.18-.49,1.87-.49.6,0,1.15.14,1.67.41s.91.64,1.18,1.08v-4.06h1.29v10.36h-1.29v-1.44c-.25.46-.63.83-1.12,1.13s-1.07.44-1.74.44-1.3-.17-1.85-.5c-.56-.34-.99-.81-1.31-1.41-.32-.61-.48-1.3-.48-2.07s.16-1.47.48-2.06ZM116.24,761.3c-.23-.43-.55-.76-.94-.99-.4-.23-.83-.34-1.31-.34s-.91.11-1.3.34c-.39.22-.7.55-.94.98s-.35.93-.35,1.51.12,1.1.35,1.53.55.77.94.99.83.34,1.3.34.91-.11,1.31-.34c.4-.23.71-.56.94-.99.23-.43.35-.94.35-1.52s-.12-1.08-.35-1.51Z"/>
      <path class="cls-2" d="M119.82,766.5c-.17-.17-.25-.37-.25-.62s.08-.45.25-.62.37-.25.62-.25.43.08.6.25c.16.17.25.37.25.62s-.08.45-.25.62c-.16.17-.36.25-.6.25s-.45-.08-.62-.25Z"/>
      <path class="cls-2" d="M134.33,759.5v1.08h-7.28v-1.08h7.28ZM134.33,762.51v1.08h-7.28v-1.08h7.28Z"/>
      <path class="cls-2" d="M142.8,759.22c.42-.24.92-.36,1.52-.36v1.32h-.34c-1.43,0-2.14.78-2.14,2.32v4.17h-1.27v-7.67h1.27v1.25c.22-.44.54-.78.96-1.02Z"/>
      <path class="cls-2" d="M152.75,763.31h-6.13c.05.76.31,1.35.78,1.77.47.42,1.04.64,1.71.64.55,0,1.01-.13,1.38-.38s.63-.6.78-1.03h1.37c-.21.74-.62,1.34-1.23,1.8-.62.46-1.38.69-2.3.69-.73,0-1.38-.16-1.95-.49-.57-.33-1.02-.79-1.35-1.39-.33-.6-.49-1.3-.49-2.09s.16-1.49.48-2.09c.32-.6.76-1.06,1.34-1.38.57-.32,1.23-.48,1.98-.48s1.37.16,1.93.48.99.75,1.29,1.31c.3.55.46,1.18.46,1.88,0,.24-.01.5-.04.77ZM151.15,761.02c-.21-.35-.51-.62-.88-.8-.37-.18-.78-.27-1.23-.27-.64,0-1.19.21-1.65.62-.45.41-.71.98-.78,1.71h4.84c0-.48-.11-.9-.32-1.25Z"/>
      <path class="cls-2" d="M154.47,760.74c.32-.59.75-1.05,1.31-1.38.56-.33,1.18-.49,1.87-.49.6,0,1.15.14,1.67.41s.91.64,1.18,1.08v-4.06h1.29v10.36h-1.29v-1.44c-.25.46-.63.83-1.12,1.13s-1.07.44-1.74.44-1.3-.17-1.85-.5c-.56-.34-.99-.81-1.31-1.41-.32-.61-.48-1.3-.48-2.07s.16-1.47.48-2.06ZM160.14,761.3c-.23-.43-.55-.76-.94-.99-.4-.23-.83-.34-1.31-.34s-.91.11-1.3.34c-.39.22-.7.55-.94.98s-.35.93-.35,1.51.12,1.1.35,1.53.55.77.94.99.83.34,1.3.34.91-.11,1.31-.34c.4-.23.71-.56.94-.99.23-.43.35-.94.35-1.52s-.12-1.08-.35-1.51Z"/>
      <path class="cls-2" d="M170.74,758.99v7.67h-1.27v-1.13c-.24.39-.58.7-1.02.92-.43.22-.91.33-1.43.33-.6,0-1.13-.12-1.61-.37s-.85-.62-1.13-1.11c-.28-.49-.41-1.1-.41-1.81v-4.49h1.26v4.33c0,.76.19,1.34.57,1.74.38.41.91.61,1.57.61s1.22-.21,1.61-.63.59-1.03.59-1.83v-4.21h1.27Z"/>
      <path class="cls-2" d="M172.9,760.74c.32-.59.76-1.05,1.32-1.38.56-.33,1.21-.49,1.94-.49.94,0,1.72.23,2.33.69.61.46,1.02,1.09,1.21,1.9h-1.37c-.13-.47-.38-.83-.76-1.11-.38-.27-.85-.41-1.41-.41-.73,0-1.32.25-1.76.75-.45.5-.67,1.21-.67,2.12s.22,1.64.67,2.14c.45.5,1.04.76,1.76.76.56,0,1.03-.13,1.4-.39.37-.26.63-.63.77-1.12h1.37c-.21.78-.62,1.41-1.23,1.88-.62.47-1.39.71-2.31.71-.73,0-1.37-.16-1.94-.49-.56-.33-1.01-.79-1.32-1.39-.32-.6-.48-1.3-.48-2.1s.16-1.49.48-2.08Z"/>
      <path class="cls-2" d="M182.95,760.04v4.52c0,.37.08.64.24.79.16.15.43.23.83.23h.94v1.08h-1.15c-.71,0-1.24-.16-1.6-.49-.35-.33-.53-.86-.53-1.61v-4.52h-.99v-1.05h.99v-1.93h1.27v1.93h2v1.05h-2Z"/>
      <path class="cls-2" d="M186.53,757.5c-.17-.17-.25-.37-.25-.62s.08-.45.25-.62.37-.25.62-.25.43.08.6.25c.16.17.25.37.25.62s-.08.45-.25.62c-.16.17-.36.25-.6.25s-.45-.08-.62-.25ZM187.77,758.99v7.67h-1.27v-7.67h1.27Z"/>
      <path class="cls-2" d="M191.33,766.3c-.58-.33-1.04-.79-1.37-1.39-.33-.6-.5-1.3-.5-2.09s.17-1.48.51-2.08c.34-.6.81-1.06,1.39-1.39.59-.32,1.25-.48,1.97-.48s1.39.16,1.97.48c.59.32,1.05.78,1.39,1.38.34.6.51,1.29.51,2.09s-.17,1.49-.52,2.09c-.35.6-.82,1.07-1.42,1.39-.6.33-1.26.49-1.99.49s-1.37-.16-1.95-.49ZM194.57,765.35c.4-.21.73-.54.97-.97.25-.43.37-.95.37-1.57s-.12-1.14-.36-1.57-.56-.75-.95-.96c-.39-.21-.82-.32-1.27-.32s-.89.11-1.28.32c-.39.21-.7.53-.93.96s-.35.95-.35,1.57.11,1.15.34,1.58c.23.43.53.75.92.96.38.21.8.31,1.26.31s.89-.11,1.29-.32Z"/>
      <path class="cls-2" d="M204.9,759.7c.58.56.87,1.38.87,2.44v4.52h-1.26v-4.34c0-.77-.19-1.35-.57-1.76-.38-.41-.91-.61-1.57-.61s-1.21.21-1.6.63c-.4.42-.59,1.03-.59,1.83v4.24h-1.27v-7.67h1.27v1.09c.25-.39.59-.7,1.03-.91s.91-.32,1.44-.32c.93,0,1.69.28,2.27.85Z"/>
    </g>
    <g id="Before">
      <g id="Line">
        <g>
          <line class="cls-10" x1="74.27" y1="31.95" x2="80.27" y2="31.95"/>
          <line class="cls-9" x1="92.43" y1="31.95" x2="961.85" y2="31.95"/>
          <line class="cls-10" x1="967.93" y1="31.95" x2="973.93" y2="31.95"/>
        </g>
      </g>
      <g id="_87" data-name="87">
        <path class="cls-5" d="M45.52,26.53c0-.58.15-1.1.45-1.58.3-.47.75-.85,1.36-1.14.61-.28,1.35-.42,2.24-.42s1.63.14,2.23.42c.6.28,1.05.66,1.35,1.14.3.48.45,1,.45,1.58s-.14,1.08-.41,1.5c-.27.43-.64.76-1.1,1.01.58.28,1.02.66,1.33,1.14.31.49.46,1.05.46,1.7,0,.76-.19,1.41-.58,1.96-.38.55-.9.97-1.56,1.26-.66.29-1.38.43-2.18.43s-1.53-.14-2.18-.43-1.18-.71-1.56-1.26c-.38-.55-.58-1.2-.58-1.96,0-.66.15-1.23.46-1.72.31-.49.75-.86,1.31-1.13-1-.53-1.5-1.37-1.5-2.51ZM48.35,30.63c-.31.27-.46.65-.46,1.13,0,.45.15.82.46,1.1s.71.43,1.22.43.91-.14,1.21-.43c.29-.29.44-.66.44-1.1s-.15-.84-.46-1.12-.7-.42-1.19-.42-.91.14-1.22.41ZM50.57,25.93c-.25-.24-.58-.36-1-.36s-.75.12-1,.37c-.25.25-.38.59-.38,1.02s.13.74.38.98c.26.24.59.36.99.36s.74-.12.99-.37c.26-.25.38-.58.38-.99,0-.44-.13-.78-.38-1.02Z"/>
        <path class="cls-5" d="M62.93,25.68l-4.02,9.63h-2.8l4.06-9.33h-4.98v-2.34h7.73v2.03Z"/>
      </g>
      <g id="text">
        <path class="cls-5" d="M98.36,18.63c.29.23.53.52.7.87.17.35.26.71.26,1.11,0,.5-.13.94-.38,1.34-.25.4-.62.71-1.1.94-.48.23-1.05.34-1.7.34h-3.64v-9.76h3.5c.66,0,1.23.11,1.69.33.47.22.82.52,1.05.89.23.37.35.79.35,1.26,0,.58-.16,1.06-.47,1.43-.31.38-.73.65-1.24.82.35.06.68.2.97.43ZM93.78,17.68h2.14c.6,0,1.06-.14,1.39-.42.33-.28.49-.67.49-1.16s-.16-.88-.49-1.16c-.33-.28-.8-.42-1.41-.42h-2.11v3.16ZM97.52,21.73c.35-.3.53-.71.53-1.25s-.19-.97-.56-1.28c-.37-.31-.87-.47-1.5-.47h-2.21v3.44h2.25c.63,0,1.13-.15,1.48-.45Z"/>
        <path class="cls-5" d="M108.05,19.86h-6.13c.05.76.31,1.35.78,1.77.47.42,1.04.64,1.71.64.55,0,1.01-.13,1.38-.38s.63-.6.78-1.03h1.37c-.21.74-.62,1.34-1.23,1.8-.62.46-1.38.69-2.3.69-.73,0-1.38-.16-1.95-.49-.57-.33-1.02-.79-1.35-1.39s-.49-1.3-.49-2.09.16-1.49.48-2.09c.32-.6.76-1.06,1.34-1.38.57-.32,1.23-.48,1.98-.48s1.37.16,1.93.48.99.75,1.29,1.31c.3.56.46,1.18.46,1.88,0,.24-.01.5-.04.77ZM106.45,17.57c-.21-.35-.51-.62-.88-.8-.37-.18-.78-.27-1.23-.27-.64,0-1.19.21-1.65.62s-.71.98-.78,1.71h4.84c0-.49-.11-.9-.32-1.25Z"/>
        <path class="cls-5" d="M112.89,16.6h-1.61v6.62h-1.27v-6.62h-.99v-1.05h.99v-.55c0-.86.22-1.49.67-1.88.44-.4,1.16-.59,2.14-.59v1.06c-.56,0-.95.11-1.18.33-.23.22-.34.58-.34,1.09v.55h1.61v1.05Z"/>
        <path class="cls-5" d="M115.77,22.86c-.58-.33-1.04-.79-1.37-1.39-.33-.6-.5-1.3-.5-2.09s.17-1.48.51-2.08c.34-.6.81-1.06,1.39-1.39.59-.32,1.25-.48,1.97-.48s1.39.16,1.97.48c.59.32,1.05.78,1.39,1.38.34.6.51,1.29.51,2.09s-.17,1.49-.52,2.09-.82,1.07-1.42,1.39c-.6.33-1.26.49-1.99.49s-1.37-.16-1.95-.49ZM119.01,21.91c.4-.21.73-.54.97-.97.25-.43.37-.95.37-1.57s-.12-1.14-.36-1.57-.56-.75-.95-.96c-.39-.21-.82-.31-1.27-.31s-.89.1-1.28.31c-.39.21-.7.53-.93.96s-.35.95-.35,1.57.11,1.15.34,1.58c.23.43.53.75.92.96.38.21.8.31,1.26.31s.89-.11,1.29-.32Z"/>
        <path class="cls-5" d="M125.57,15.78c.42-.24.92-.36,1.52-.36v1.32h-.34c-1.43,0-2.14.77-2.14,2.32v4.17h-1.27v-7.67h1.27v1.25c.22-.44.54-.78.96-1.02Z"/>
        <path class="cls-5" d="M135.51,19.86h-6.13c.05.76.31,1.35.78,1.77.47.42,1.04.64,1.71.64.55,0,1.01-.13,1.38-.38s.63-.6.78-1.03h1.37c-.21.74-.62,1.34-1.23,1.8-.62.46-1.38.69-2.3.69-.73,0-1.38-.16-1.95-.49-.57-.33-1.02-.79-1.35-1.39s-.49-1.3-.49-2.09.16-1.49.48-2.09c.32-.6.76-1.06,1.34-1.38.57-.32,1.23-.48,1.98-.48s1.37.16,1.93.48.99.75,1.29,1.31c.3.56.46,1.18.46,1.88,0,.24-.01.5-.04.77ZM133.92,17.57c-.21-.35-.51-.62-.88-.8-.37-.18-.78-.27-1.23-.27-.64,0-1.19.21-1.65.62s-.71.98-.78,1.71h4.84c0-.49-.11-.9-.32-1.25Z"/>
        <path class="cls-5" d="M140.43,14.26v-1.16h2.63v10.12h-1.29v-8.96h-1.34Z"/>
        <path class="cls-5" d="M146.59,23.05c-.47-.2-.84-.48-1.11-.84-.27-.36-.42-.77-.45-1.24h1.32c.04.38.22.7.54.94.32.24.74.36,1.27.36.49,0,.87-.11,1.15-.32.28-.21.42-.49.42-.81s-.15-.59-.45-.75c-.3-.16-.76-.32-1.39-.48-.57-.15-1.03-.3-1.39-.46-.36-.15-.67-.38-.92-.69-.26-.3-.38-.7-.38-1.2,0-.39.12-.75.35-1.08.23-.33.56-.59.99-.78.43-.19.92-.29,1.47-.29.85,0,1.54.21,2.06.64.52.43.8,1.02.84,1.76h-1.27c-.03-.4-.19-.72-.48-.97s-.69-.36-1.18-.36c-.46,0-.82.1-1.09.29-.27.2-.41.45-.41.77,0,.25.08.46.25.62.16.16.37.29.62.39.25.1.59.21,1.03.33.55.15,1,.3,1.34.44.35.15.64.36.89.65.25.29.38.67.39,1.13,0,.42-.12.8-.35,1.13-.23.34-.56.6-.99.79-.42.19-.91.29-1.46.29-.59,0-1.12-.1-1.58-.3Z"/>
        <path class="cls-5" d="M154.32,16.6v4.52c0,.37.08.64.24.79.16.15.43.23.83.23h.94v1.08h-1.15c-.71,0-1.24-.16-1.6-.49-.35-.33-.53-.86-.53-1.61v-4.52h-.99v-1.05h.99v-1.93h1.27v1.93h2v1.05h-2Z"/>
        <path class="cls-5" d="M168.55,19.86h-6.13c.05.76.31,1.35.78,1.77.47.42,1.04.64,1.71.64.55,0,1.01-.13,1.38-.38s.63-.6.78-1.03h1.37c-.21.74-.62,1.34-1.23,1.8-.62.46-1.38.69-2.3.69-.73,0-1.38-.16-1.95-.49-.57-.33-1.02-.79-1.35-1.39s-.49-1.3-.49-2.09.16-1.49.48-2.09c.32-.6.76-1.06,1.34-1.38.57-.32,1.23-.48,1.98-.48s1.37.16,1.93.48.99.75,1.29,1.31c.3.56.46,1.18.46,1.88,0,.24-.01.5-.04.77ZM166.96,17.57c-.21-.35-.51-.62-.88-.8-.37-.18-.78-.27-1.23-.27-.64,0-1.19.21-1.65.62s-.71.98-.78,1.71h4.84c0-.49-.11-.9-.32-1.25Z"/>
        <path class="cls-5" d="M174.28,23.22l-1.82-2.86-1.75,2.86h-1.33l2.48-3.81-2.48-3.86h1.44l1.82,2.84,1.74-2.84h1.33l-2.46,3.79,2.48,3.88h-1.44Z"/>
        <path class="cls-5" d="M179.38,15.87c.5-.29,1.08-.44,1.74-.44s1.3.16,1.85.49c.56.33.99.79,1.31,1.38.32.59.48,1.28.48,2.07s-.16,1.47-.48,2.07c-.32.61-.75,1.08-1.31,1.41-.56.34-1.17.5-1.85.5s-1.23-.15-1.73-.44c-.5-.29-.88-.66-1.14-1.1v5.05h-1.27v-11.31h1.27v1.41c.25-.44.63-.81,1.13-1.1ZM183.11,17.85c-.23-.43-.55-.76-.94-.98-.4-.22-.83-.34-1.31-.34s-.9.11-1.29.34c-.4.23-.71.56-.95.99s-.36.94-.36,1.5.12,1.08.36,1.52.56.77.95.99c.4.23.83.34,1.29.34s.91-.11,1.31-.34c.4-.23.71-.56.94-.99s.35-.94.35-1.53-.12-1.08-.35-1.51Z"/>
        <path class="cls-5" d="M186.44,17.29c.32-.59.75-1.05,1.31-1.38.56-.33,1.17-.49,1.85-.49s1.25.14,1.75.43c.49.29.86.65,1.11,1.09v-1.4h1.29v7.67h-1.29v-1.43c-.25.45-.63.82-1.13,1.11-.5.29-1.08.44-1.74.44s-1.3-.17-1.85-.5-.98-.81-1.3-1.41c-.32-.61-.48-1.3-.48-2.07s.16-1.47.48-2.07ZM192.11,17.86c-.23-.43-.55-.76-.94-.99-.4-.23-.83-.34-1.31-.34s-.91.11-1.3.34-.7.55-.94.98-.35.93-.35,1.51.12,1.1.35,1.53.55.77.94.99.83.34,1.3.34.91-.11,1.31-.34c.4-.23.71-.56.94-.99.23-.43.35-.94.35-1.52s-.12-1.08-.35-1.51Z"/>
        <path class="cls-5" d="M201.91,16.26c.58.56.87,1.38.87,2.44v4.52h-1.26v-4.34c0-.77-.19-1.35-.57-1.76-.38-.41-.91-.61-1.57-.61s-1.21.21-1.6.63c-.4.42-.59,1.03-.59,1.83v4.24h-1.27v-7.67h1.27v1.09c.25-.39.59-.7,1.03-.91.43-.21.91-.32,1.44-.32.93,0,1.69.28,2.27.85Z"/>
        <path class="cls-5" d="M206,23.05c-.47-.2-.84-.48-1.11-.84-.27-.36-.42-.77-.45-1.24h1.32c.04.38.22.7.54.94.32.24.74.36,1.27.36.49,0,.87-.11,1.15-.32.28-.21.42-.49.42-.81s-.15-.59-.45-.75c-.3-.16-.76-.32-1.39-.48-.57-.15-1.03-.3-1.39-.46-.36-.15-.67-.38-.92-.69-.26-.3-.38-.7-.38-1.2,0-.39.12-.75.35-1.08.23-.33.56-.59.99-.78.43-.19.92-.29,1.47-.29.85,0,1.54.21,2.06.64.52.43.8,1.02.84,1.76h-1.27c-.03-.4-.19-.72-.48-.97s-.69-.36-1.18-.36c-.46,0-.82.1-1.09.29-.27.2-.41.45-.41.77,0,.25.08.46.25.62.16.16.37.29.62.39.25.1.59.21,1.03.33.55.15,1,.3,1.34.44.35.15.64.36.89.65.25.29.38.67.39,1.13,0,.42-.12.8-.35,1.13-.23.34-.56.6-.99.79-.42.19-.91.29-1.46.29-.59,0-1.12-.1-1.58-.3Z"/>
        <path class="cls-5" d="M212.22,14.05c-.17-.17-.25-.37-.25-.62s.08-.45.25-.62.37-.25.62-.25.43.08.6.25c.16.17.25.37.25.62s-.08.45-.25.62c-.16.17-.36.25-.6.25s-.45-.08-.62-.25ZM213.45,15.55v7.67h-1.27v-7.67h1.27Z"/>
        <path class="cls-5" d="M217.01,22.86c-.58-.33-1.04-.79-1.37-1.39-.33-.6-.5-1.3-.5-2.09s.17-1.48.51-2.08c.34-.6.81-1.06,1.39-1.39.59-.32,1.25-.48,1.97-.48s1.39.16,1.97.48c.59.32,1.05.78,1.39,1.38.34.6.51,1.29.51,2.09s-.17,1.49-.52,2.09-.82,1.07-1.42,1.39c-.6.33-1.26.49-1.99.49s-1.37-.16-1.95-.49ZM220.25,21.91c.4-.21.73-.54.97-.97.25-.43.37-.95.37-1.57s-.12-1.14-.36-1.57-.56-.75-.95-.96c-.39-.21-.82-.31-1.27-.31s-.89.1-1.28.31c-.39.21-.7.53-.93.96s-.35.95-.35,1.57.11,1.15.34,1.58c.23.43.53.75.92.96.38.21.8.31,1.26.31s.89-.11,1.29-.32Z"/>
        <path class="cls-5" d="M230.59,16.26c.58.56.87,1.38.87,2.44v4.52h-1.26v-4.34c0-.77-.19-1.35-.57-1.76-.38-.41-.91-.61-1.57-.61s-1.21.21-1.6.63c-.4.42-.59,1.03-.59,1.83v4.24h-1.27v-7.67h1.27v1.09c.25-.39.59-.7,1.03-.91.43-.21.91-.32,1.44-.32.93,0,1.69.28,2.27.85Z"/>
      </g>
    </g>
  </g>
  <g id="Reduction">
    <g id="Tot_2">
      <path class="cls-7" d="M1013.87,455.65h-6.13c.05.76.31,1.35.78,1.77s1.04.64,1.71.64c.55,0,1.01-.13,1.38-.38.37-.26.63-.6.78-1.03h1.37c-.21.74-.62,1.34-1.23,1.8-.62.46-1.38.69-2.3.69-.73,0-1.38-.16-1.95-.49-.57-.33-1.02-.79-1.35-1.39-.33-.6-.49-1.3-.49-2.09s.16-1.49.48-2.09c.32-.6.76-1.06,1.34-1.38.57-.32,1.23-.48,1.98-.48s1.37.16,1.93.48c.56.32.99.75,1.29,1.31.3.56.46,1.18.46,1.88,0,.24-.01.5-.04.77ZM1012.27,453.37c-.21-.35-.51-.62-.88-.8-.37-.18-.78-.27-1.22-.27-.64,0-1.19.21-1.65.62-.45.41-.71.98-.78,1.71h4.84c0-.49-.11-.9-.32-1.25Z"/>
      <path class="cls-7" d="M1015.76,451.56c.43-.76,1.01-1.36,1.76-1.79.74-.43,1.57-.64,2.47-.64,1.06,0,1.99.26,2.79.77.79.51,1.37,1.24,1.74,2.18h-1.53c-.27-.59-.66-1.04-1.17-1.36s-1.12-.48-1.83-.48-1.29.16-1.83.48-.97.77-1.27,1.35c-.31.58-.46,1.27-.46,2.05s.15,1.45.46,2.04c.31.58.73,1.03,1.27,1.35s1.15.48,1.83.48,1.32-.16,1.83-.47.9-.76,1.17-1.35h1.53c-.36.93-.94,1.65-1.74,2.16-.79.51-1.72.76-2.79.76-.91,0-1.73-.21-2.47-.64-.74-.42-1.33-1.01-1.76-1.77-.43-.76-.64-1.61-.64-2.56s.21-1.81.64-2.57Z"/>
      <path class="cls-7" d="M1028.34,458.48c-.75-.42-1.34-1.02-1.77-1.78-.43-.76-.65-1.62-.65-2.57s.22-1.81.65-2.57c.43-.76,1.02-1.35,1.77-1.78.75-.42,1.57-.64,2.48-.64s1.75.21,2.49.64c.75.42,1.33,1.02,1.76,1.77.43.76.64,1.61.64,2.58s-.21,1.82-.64,2.58c-.43.76-1.02,1.35-1.76,1.77-.75.42-1.58.64-2.49.64s-1.73-.21-2.48-.64ZM1032.66,457.53c.55-.32.98-.77,1.29-1.36.31-.59.47-1.27.47-2.04s-.16-1.47-.47-2.05c-.31-.58-.74-1.03-1.28-1.35s-1.16-.48-1.85-.48-1.31.16-1.85.48c-.54.32-.97.77-1.28,1.35-.31.58-.47,1.27-.47,2.05s.16,1.46.47,2.04c.31.59.74,1.04,1.29,1.36s1.16.48,1.84.48,1.29-.16,1.84-.48Z"/>
      <path class="cls-7" d="M1048.22,451.57c.47.25.84.62,1.11,1.11s.41,1.1.41,1.81v4.52h-1.26v-4.34c0-.77-.19-1.35-.57-1.76-.38-.41-.89-.61-1.53-.61s-1.19.21-1.58.64-.59,1.04-.59,1.84v4.23h-1.26v-4.34c0-.77-.19-1.35-.57-1.76-.38-.41-.89-.61-1.53-.61s-1.19.21-1.58.64c-.39.42-.59,1.04-.59,1.84v4.23h-1.27v-7.67h1.27v1.11c.25-.4.59-.71,1.02-.92.42-.21.89-.32,1.41-.32.64,0,1.21.15,1.71.43.5.29.86.71,1.11,1.27.21-.54.57-.96,1.06-1.26.5-.3,1.05-.45,1.65-.45s1.13.12,1.6.37Z"/>
      <path class="cls-7" d="M1054.22,451.66c.5-.29,1.08-.44,1.74-.44s1.3.16,1.86.49c.55.33.99.79,1.31,1.38.32.59.48,1.28.48,2.07s-.16,1.47-.48,2.07-.75,1.08-1.31,1.41c-.56.34-1.17.5-1.86.5s-1.23-.15-1.73-.44c-.5-.29-.88-.66-1.14-1.1v5.05h-1.27v-11.31h1.27v1.41c.25-.44.63-.81,1.13-1.1ZM1057.95,453.64c-.23-.43-.55-.76-.95-.98-.4-.22-.83-.34-1.31-.34s-.9.11-1.29.34c-.4.23-.71.56-.95.99-.24.43-.36.94-.36,1.5s.12,1.08.36,1.52c.24.43.55.77.95.99.4.23.83.34,1.29.34s.91-.11,1.31-.34.71-.56.95-.99c.23-.43.35-.95.35-1.53s-.12-1.08-.35-1.51Z"/>
      <path class="cls-7" d="M1061.28,453.09c.32-.59.75-1.05,1.31-1.38.56-.33,1.17-.49,1.86-.49s1.25.14,1.75.43c.49.29.86.65,1.11,1.09v-1.4h1.29v7.67h-1.29v-1.43c-.25.45-.63.82-1.13,1.11s-1.08.44-1.74.44-1.3-.17-1.85-.5-.99-.81-1.3-1.41c-.32-.61-.48-1.3-.48-2.07s.16-1.47.48-2.07ZM1066.95,453.65c-.23-.43-.55-.76-.95-.99-.4-.23-.83-.34-1.31-.34s-.91.11-1.3.34c-.39.22-.7.55-.94.98-.23.43-.35.93-.35,1.51s.12,1.1.35,1.53c.23.43.55.77.94.99.39.23.83.34,1.3.34s.91-.11,1.31-.34.71-.56.95-.99c.23-.43.35-.94.35-1.52s-.12-1.08-.35-1.51Z"/>
      <path class="cls-7" d="M1071.88,458.84c-.47-.2-.84-.48-1.11-.84-.27-.36-.42-.77-.45-1.24h1.32c.04.38.22.7.54.94.32.24.74.36,1.27.36.49,0,.87-.11,1.15-.32s.42-.49.42-.81-.15-.59-.45-.75-.76-.32-1.39-.48c-.57-.15-1.03-.3-1.39-.46-.36-.15-.67-.38-.92-.69-.26-.3-.38-.7-.38-1.2,0-.39.12-.75.35-1.08.23-.33.56-.59.99-.78.43-.19.92-.29,1.47-.29.85,0,1.54.21,2.06.64.52.43.8,1.02.84,1.76h-1.27c-.03-.4-.19-.72-.48-.97-.29-.24-.69-.36-1.18-.36-.46,0-.82.1-1.09.29-.27.2-.41.45-.41.77,0,.25.08.46.25.62.16.16.37.29.62.39.25.1.59.21,1.03.33.55.15,1,.3,1.34.44.35.14.64.36.89.65.25.29.38.67.38,1.13,0,.42-.12.8-.35,1.13-.23.34-.56.6-.99.79s-.91.29-1.46.29c-.59,0-1.12-.1-1.58-.3Z"/>
      <path class="cls-7" d="M1079.19,458.84c-.47-.2-.84-.48-1.11-.84-.27-.36-.42-.77-.45-1.24h1.32c.04.38.22.7.54.94.32.24.74.36,1.27.36.49,0,.87-.11,1.15-.32s.42-.49.42-.81-.15-.59-.45-.75-.76-.32-1.39-.48c-.57-.15-1.03-.3-1.39-.46-.36-.15-.67-.38-.92-.69-.26-.3-.38-.7-.38-1.2,0-.39.12-.75.35-1.08.23-.33.56-.59.99-.78.43-.19.92-.29,1.47-.29.85,0,1.54.21,2.06.64.52.43.8,1.02.84,1.76h-1.27c-.03-.4-.19-.72-.48-.97-.29-.24-.69-.36-1.18-.36-.46,0-.82.1-1.09.29-.27.2-.41.45-.41.77,0,.25.08.46.25.62.16.16.37.29.62.39.25.1.59.21,1.03.33.55.15,1,.3,1.34.44.35.14.64.36.89.65.25.29.38.67.38,1.13,0,.42-.12.8-.35,1.13-.23.34-.56.6-.99.79s-.91.29-1.46.29c-.59,0-1.12-.1-1.58-.3Z"/>
      <path class="cls-7" d="M1085.15,452.85c-.17-.17-.25-.37-.25-.62s.08-.45.25-.62.37-.25.62-.25.43.08.6.25c.16.17.25.37.25.62s-.08.45-.25.62c-.16.17-.36.25-.6.25s-.45-.08-.62-.25ZM1085.15,458.85c-.17-.17-.25-.37-.25-.62s.08-.45.25-.62.37-.25.62-.25.43.08.6.25c.16.17.25.37.25.62s-.08.45-.25.62c-.16.17-.36.25-.6.25s-.45-.08-.62-.25Z"/>
      <path class="cls-7" d="M1012.91,466.06v1.04h-2.66v8.72h-1.27v-8.72h-2.67v-1.04h6.61Z"/>
      <path class="cls-7" d="M1015.88,475.45c-.58-.33-1.04-.79-1.37-1.39-.33-.6-.5-1.3-.5-2.09s.17-1.48.51-2.08c.34-.6.8-1.06,1.39-1.39.59-.32,1.25-.48,1.97-.48s1.39.16,1.97.48,1.05.78,1.39,1.38c.34.6.51,1.29.51,2.09s-.17,1.49-.53,2.09c-.35.6-.82,1.07-1.42,1.39-.6.33-1.26.49-1.99.49s-1.37-.16-1.95-.49ZM1019.12,474.5c.4-.21.73-.54.97-.97.25-.43.37-.95.37-1.57s-.12-1.14-.36-1.57c-.24-.43-.56-.75-.95-.96s-.82-.32-1.27-.32-.89.11-1.28.32c-.39.21-.7.53-.93.96-.23.43-.35.95-.35,1.57s.11,1.15.34,1.58c.23.43.53.75.92.96s.8.32,1.26.32.89-.11,1.29-.32Z"/>
      <path class="cls-7" d="M1025,469.19v4.52c0,.37.08.64.24.79.16.15.43.23.83.23h.94v1.08h-1.15c-.71,0-1.24-.16-1.6-.49-.36-.33-.53-.86-.53-1.61v-4.52h-.99v-1.05h.99v-1.93h1.27v1.93h2v1.05h-2Z"/>
      <path class="cls-7" d="M1028.54,469.89c.32-.59.75-1.05,1.31-1.38.56-.33,1.17-.49,1.86-.49s1.25.14,1.75.43c.49.29.86.65,1.11,1.09v-1.4h1.29v7.67h-1.29v-1.43c-.25.45-.63.82-1.13,1.11s-1.08.44-1.74.44-1.3-.17-1.85-.5-.99-.81-1.3-1.41c-.32-.61-.48-1.3-.48-2.07s.16-1.47.48-2.07ZM1034.21,470.45c-.23-.43-.55-.76-.95-.99-.4-.23-.83-.34-1.31-.34s-.91.11-1.3.34c-.39.22-.7.55-.94.98-.23.43-.35.93-.35,1.51s.12,1.1.35,1.53c.23.43.55.77.94.99.39.23.83.34,1.3.34s.91-.11,1.31-.34.71-.56.95-.99c.23-.43.35-.94.35-1.52s-.12-1.08-.35-1.51Z"/>
      <path class="cls-7" d="M1039.28,465.45v10.36h-1.27v-10.36h1.27Z"/>
      <path class="cls-7" d="M1047.42,468.37c.42-.24.92-.36,1.52-.36v1.32h-.34c-1.43,0-2.14.77-2.14,2.32v4.17h-1.27v-7.67h1.27v1.25c.22-.44.54-.78.96-1.02Z"/>
      <path class="cls-7" d="M1057.36,472.45h-6.13c.05.76.31,1.35.78,1.77s1.04.64,1.71.64c.55,0,1.01-.13,1.38-.38.37-.26.63-.6.78-1.03h1.37c-.21.74-.62,1.34-1.23,1.8-.62.46-1.38.69-2.3.69-.73,0-1.38-.16-1.95-.49-.57-.33-1.02-.79-1.35-1.39-.33-.6-.49-1.3-.49-2.09s.16-1.49.48-2.09c.32-.6.76-1.06,1.34-1.38.57-.32,1.23-.48,1.98-.48s1.37.16,1.93.48c.56.32.99.75,1.29,1.31.3.56.46,1.18.46,1.88,0,.24-.01.5-.04.77ZM1055.77,470.17c-.21-.35-.51-.62-.88-.8-.37-.18-.78-.27-1.22-.27-.64,0-1.19.21-1.65.62-.45.41-.71.98-.78,1.71h4.84c0-.49-.11-.9-.32-1.25Z"/>
      <path class="cls-7" d="M1059.08,469.89c.32-.59.75-1.05,1.31-1.38.56-.33,1.18-.49,1.87-.49.6,0,1.15.14,1.67.41.51.28.91.64,1.18,1.08v-4.06h1.29v10.36h-1.29v-1.44c-.25.46-.62.83-1.12,1.13-.49.29-1.07.44-1.74.44s-1.3-.17-1.86-.5-.99-.81-1.31-1.41c-.32-.61-.48-1.3-.48-2.07s.16-1.47.48-2.07ZM1064.75,470.45c-.23-.43-.55-.76-.95-.99-.4-.23-.83-.34-1.31-.34s-.91.11-1.3.34c-.39.22-.7.55-.94.98-.23.43-.35.93-.35,1.51s.12,1.1.35,1.53c.23.43.55.77.94.99.39.23.83.34,1.3.34s.91-.11,1.31-.34.71-.56.95-.99c.23-.43.35-.94.35-1.52s-.12-1.08-.35-1.51Z"/>
      <path class="cls-7" d="M1075.35,468.14v7.67h-1.27v-1.13c-.24.39-.58.7-1.01.92-.43.22-.91.33-1.43.33-.6,0-1.13-.12-1.61-.37-.48-.25-.85-.62-1.13-1.11s-.41-1.1-.41-1.81v-4.49h1.26v4.33c0,.76.19,1.34.57,1.74.38.41.91.61,1.57.61s1.22-.21,1.61-.63c.39-.42.59-1.03.59-1.83v-4.21h1.27Z"/>
      <path class="cls-7" d="M1077.51,469.89c.32-.59.76-1.05,1.32-1.38.57-.33,1.21-.49,1.94-.49.94,0,1.72.23,2.33.69s1.01,1.09,1.21,1.9h-1.37c-.13-.47-.38-.83-.76-1.11-.38-.27-.85-.41-1.41-.41-.73,0-1.32.25-1.76.75-.45.5-.67,1.21-.67,2.12s.22,1.64.67,2.14c.45.5,1.04.76,1.76.76.56,0,1.03-.13,1.4-.39.37-.26.63-.63.77-1.12h1.37c-.21.78-.62,1.41-1.23,1.88-.62.47-1.39.71-2.31.71-.73,0-1.37-.16-1.94-.49-.56-.33-1.01-.79-1.32-1.39-.32-.6-.48-1.3-.48-2.1s.16-1.49.48-2.08Z"/>
      <path class="cls-7" d="M1087.56,469.19v4.52c0,.37.08.64.24.79.16.15.43.23.83.23h.94v1.08h-1.15c-.71,0-1.24-.16-1.6-.49-.35-.33-.53-.86-.53-1.61v-4.52h-.99v-1.05h.99v-1.93h1.27v1.93h2v1.05h-2Z"/>
      <path class="cls-7" d="M1091.14,466.65c-.17-.17-.25-.37-.25-.62s.08-.45.25-.62.37-.25.62-.25.43.08.59.25.25.37.25.62-.08.45-.25.62-.36.25-.59.25-.45-.08-.62-.25ZM1092.38,468.14v7.67h-1.27v-7.67h1.27Z"/>
      <path class="cls-7" d="M1095.94,475.45c-.58-.33-1.04-.79-1.37-1.39-.33-.6-.5-1.3-.5-2.09s.17-1.48.51-2.08c.34-.6.81-1.06,1.39-1.39s1.25-.48,1.97-.48,1.39.16,1.97.48,1.05.78,1.39,1.38c.34.6.51,1.29.51,2.09s-.17,1.49-.52,2.09c-.35.6-.82,1.07-1.42,1.39-.6.33-1.26.49-1.99.49s-1.37-.16-1.95-.49ZM1099.18,474.5c.4-.21.73-.54.97-.97s.37-.95.37-1.57-.12-1.14-.36-1.57c-.24-.43-.56-.75-.95-.96-.39-.21-.82-.32-1.27-.32s-.89.11-1.28.32-.7.53-.93.96c-.23.43-.35.95-.35,1.57s.11,1.15.34,1.58c.23.43.53.75.92.96.38.21.8.32,1.26.32s.89-.11,1.29-.32Z"/>
      <path class="cls-7" d="M1109.51,468.85c.58.56.87,1.38.87,2.44v4.52h-1.26v-4.34c0-.77-.19-1.35-.57-1.76-.38-.41-.91-.61-1.57-.61s-1.21.21-1.6.63c-.4.42-.59,1.03-.59,1.83v4.24h-1.27v-7.67h1.27v1.09c.25-.39.59-.7,1.03-.91.43-.21.91-.32,1.43-.32.93,0,1.69.28,2.27.85Z"/>
      <path class="cls-7" d="M1117.6,475.45c-.58-.33-1.04-.79-1.37-1.39-.33-.6-.5-1.3-.5-2.09s.17-1.48.51-2.08c.34-.6.8-1.06,1.39-1.39.59-.32,1.25-.48,1.97-.48s1.39.16,1.97.48,1.05.78,1.39,1.38c.34.6.51,1.29.51,2.09s-.17,1.49-.53,2.09c-.35.6-.82,1.07-1.42,1.39-.6.33-1.26.49-1.99.49s-1.37-.16-1.95-.49ZM1120.84,474.5c.4-.21.73-.54.97-.97.25-.43.37-.95.37-1.57s-.12-1.14-.36-1.57c-.24-.43-.56-.75-.95-.96s-.82-.32-1.27-.32-.89.11-1.28.32c-.39.21-.7.53-.93.96-.23.43-.35.95-.35,1.57s.11,1.15.34,1.58c.23.43.53.75.92.96s.8.32,1.26.32.89-.11,1.29-.32Z"/>
      <path class="cls-7" d="M1128.29,469.19h-1.61v6.62h-1.27v-6.62h-.99v-1.05h.99v-.55c0-.86.22-1.49.67-1.88.44-.4,1.16-.59,2.13-.59v1.06c-.56,0-.95.11-1.18.33-.23.22-.34.58-.34,1.09v.55h1.61v1.05Z"/>
      <path class="cls-7" d="M1007.09,494.5c1.18-.97,2.1-1.77,2.78-2.39.68-.62,1.25-1.28,1.72-1.96.47-.68.7-1.35.7-2,0-.49-.11-.88-.34-1.15-.23-.28-.57-.41-1.03-.41s-.81.17-1.07.51c-.26.34-.39.83-.39,1.45h-2.97c.02-1.02.24-1.87.66-2.56.41-.68.96-1.19,1.64-1.51.68-.32,1.43-.49,2.26-.49,1.43,0,2.5.37,3.23,1.1.73.73,1.09,1.69,1.09,2.86,0,1.28-.44,2.47-1.31,3.57-.88,1.1-1.99,2.17-3.35,3.21h4.86v2.5h-9.04v-2.29c.41-.32.59-.47.56-.45Z"/>
      <path class="cls-7" d="M1026.17,486.96h-5.62v2.48c.24-.26.58-.48,1.01-.65.43-.17.9-.25,1.4-.25.9,0,1.65.2,2.24.61.59.41,1.03.94,1.3,1.58.28.65.41,1.35.41,2.11,0,1.4-.4,2.52-1.19,3.34-.79.82-1.91,1.23-3.35,1.23-.96,0-1.79-.17-2.5-.5-.71-.33-1.25-.79-1.64-1.38-.38-.59-.59-1.27-.63-2.03h3.01c.07.37.25.68.52.93s.65.37,1.13.37c.56,0,.98-.18,1.26-.54.28-.36.41-.84.41-1.44s-.14-1.04-.43-1.35c-.29-.31-.71-.47-1.26-.47-.41,0-.74.1-1.01.3-.26.2-.44.46-.52.78h-2.97v-7.83h8.41v2.7Z"/>
      <path class="cls-7" d="M1029.04,497.08c-.34-.32-.51-.71-.51-1.18s.17-.88.51-1.21c.34-.32.78-.49,1.32-.49s.96.16,1.3.49c.34.32.51.73.51,1.21s-.17.86-.51,1.18c-.34.32-.78.48-1.3.48s-.98-.16-1.32-.48Z"/>
      <path class="cls-7" d="M1035.06,485.01c.79-.7,1.87-1.04,3.22-1.04.9,0,1.67.16,2.31.47.64.31,1.13.74,1.46,1.28s.5,1.15.5,1.82c0,.79-.2,1.44-.59,1.94-.4.5-.86.84-1.39,1.02v.07c.68.23,1.22.61,1.62,1.13.4.53.59,1.21.59,2.03,0,.74-.17,1.4-.51,1.97-.34.57-.84,1.02-1.49,1.34s-1.43.49-2.33.49c-1.44,0-2.59-.35-3.45-1.06-.86-.71-1.31-1.78-1.36-3.2h2.99c.01.53.16.95.45,1.25.29.31.71.46,1.26.46.47,0,.83-.13,1.09-.4.26-.27.39-.63.39-1.07,0-.58-.18-.99-.55-1.25s-.95-.39-1.75-.39h-.58v-2.5h.58c.61,0,1.11-.11,1.48-.32s.57-.58.57-1.12c0-.43-.12-.77-.36-1.01s-.57-.36-.99-.36c-.46,0-.8.14-1.02.41-.22.28-.35.62-.39,1.03h-3.01c.05-1.28.47-2.27,1.26-2.97Z"/>
      <path class="cls-7" d="M1051.03,497.41l-3.06-4.21v4.21h-3.08v-13.32h3.08v7.36l3.04-4.09h3.8l-4.18,5.04,4.21,5h-3.82Z"/>
      <path class="cls-7" d="M1071.81,488.4c.74.76,1.11,1.81,1.11,3.15v5.87h-3.06v-5.45c0-.65-.17-1.15-.51-1.5-.34-.35-.81-.53-1.41-.53s-1.07.18-1.41.53c-.34.35-.51.86-.51,1.5v5.45h-3.06v-5.45c0-.65-.17-1.15-.51-1.5-.34-.35-.81-.53-1.41-.53s-1.07.18-1.41.53c-.34.35-.51.86-.51,1.5v5.45h-3.08v-10.04h3.08v1.26c.31-.42.72-.75,1.22-1,.5-.25,1.07-.37,1.71-.37.76,0,1.43.16,2.03.49s1.06.79,1.39,1.39c.35-.55.82-1,1.42-1.35.6-.35,1.25-.52,1.96-.52,1.25,0,2.24.38,2.98,1.13Z"/>
      <line class="cls-14" x1="1006.31" y1="501.57" x2="1072.92" y2="501.57"/>
    </g>
    <g id="Tot_1">
      <path class="cls-4" d="M1008.61,352.68v9.76h-1.27v-9.76h1.27Z"/>
      <path class="cls-4" d="M1016.07,362.44l-4.02-4.45v4.45h-1.27v-9.76h1.27v4.52l4.03-4.52h1.61l-4.42,4.89,4.47,4.87h-1.67Z"/>
      <path class="cls-4" d="M1020.43,353.71v3.26h3.56v1.05h-3.56v3.36h3.98v1.05h-5.25v-9.77h5.25v1.05h-3.98Z"/>
      <path class="cls-4" d="M1032.11,360.27h-4.26l-.78,2.17h-1.34l3.53-9.7h1.47l3.51,9.7h-1.34l-.78-2.17ZM1031.75,359.23l-1.76-4.93-1.76,4.93h3.53Z"/>
      <path class="cls-4" d="M1035.57,356.28c-.17-.17-.25-.37-.25-.62s.08-.45.25-.62.37-.25.62-.25.43.08.6.25c.16.17.24.37.24.62s-.08.45-.24.62c-.16.17-.36.25-.6.25s-.45-.08-.62-.25ZM1035.57,362.27c-.17-.17-.25-.37-.25-.62s.08-.45.25-.62.37-.25.62-.25.43.08.6.25c.16.17.24.37.24.62s-.08.45-.24.62c-.16.17-.36.25-.6.25s-.45-.08-.62-.25Z"/>
      <path class="cls-4" d="M1013.34,369.48v1.04h-2.66v8.72h-1.27v-8.72h-2.67v-1.04h6.61Z"/>
      <path class="cls-4" d="M1016.3,378.87c-.58-.33-1.04-.79-1.37-1.39-.33-.6-.5-1.3-.5-2.09s.17-1.48.51-2.08c.34-.6.8-1.06,1.39-1.39.59-.32,1.25-.48,1.97-.48s1.39.16,1.97.48c.59.32,1.05.78,1.39,1.38.34.6.51,1.29.51,2.09s-.17,1.49-.52,2.09-.82,1.07-1.42,1.39-1.26.49-1.99.49-1.37-.16-1.95-.49ZM1019.54,377.92c.4-.21.73-.54.97-.97.25-.43.37-.95.37-1.57s-.12-1.14-.37-1.57c-.24-.43-.56-.75-.95-.96-.39-.21-.82-.31-1.27-.31s-.89.1-1.28.31c-.39.21-.7.53-.93.96s-.35.95-.35,1.57.11,1.15.34,1.58c.23.43.53.75.92.96s.8.31,1.26.31.89-.11,1.29-.32Z"/>
      <path class="cls-4" d="M1025.42,372.61v4.52c0,.37.08.64.24.79.16.15.43.23.83.23h.94v1.08h-1.15c-.71,0-1.24-.16-1.6-.49-.35-.33-.53-.86-.53-1.61v-4.52h-.99v-1.05h.99v-1.93h1.27v1.93h2v1.05h-2Z"/>
      <path class="cls-4" d="M1028.96,373.31c.32-.59.75-1.05,1.31-1.38.55-.33,1.17-.49,1.86-.49s1.25.14,1.75.43c.49.29.86.65,1.11,1.09v-1.4h1.29v7.67h-1.29v-1.43c-.25.45-.63.82-1.13,1.11-.5.29-1.08.44-1.74.44s-1.3-.17-1.85-.5-.98-.81-1.3-1.41c-.32-.61-.48-1.3-.48-2.07s.16-1.47.48-2.07ZM1034.63,373.88c-.23-.43-.55-.76-.95-.99-.4-.23-.83-.34-1.31-.34s-.91.11-1.3.34-.71.55-.94.98c-.23.43-.35.93-.35,1.51s.12,1.1.35,1.53c.23.43.54.77.94.99s.83.34,1.3.34.91-.11,1.31-.34.71-.56.95-.99c.23-.43.35-.94.35-1.52s-.12-1.08-.35-1.51Z"/>
      <path class="cls-4" d="M1039.7,368.88v10.36h-1.27v-10.36h1.27Z"/>
      <path class="cls-4" d="M1047.84,371.79c.42-.24.92-.36,1.52-.36v1.32h-.34c-1.43,0-2.14.77-2.14,2.32v4.17h-1.27v-7.67h1.27v1.25c.22-.44.54-.78.96-1.02Z"/>
      <path class="cls-4" d="M1057.79,375.88h-6.13c.05.76.31,1.35.78,1.77s1.04.64,1.71.64c.55,0,1.01-.13,1.38-.38s.63-.6.78-1.03h1.37c-.21.74-.62,1.34-1.23,1.8-.62.46-1.38.69-2.3.69-.73,0-1.38-.16-1.95-.49-.57-.33-1.02-.79-1.35-1.39-.33-.6-.49-1.3-.49-2.09s.16-1.49.48-2.09c.32-.6.76-1.06,1.34-1.38.57-.32,1.23-.48,1.98-.48s1.37.16,1.93.48c.56.32.99.75,1.29,1.31.3.56.46,1.18.46,1.88,0,.24-.01.5-.04.77ZM1056.19,373.59c-.21-.35-.51-.62-.88-.8-.37-.18-.78-.27-1.22-.27-.64,0-1.19.21-1.65.62s-.71.98-.78,1.71h4.84c0-.49-.11-.9-.32-1.25Z"/>
      <path class="cls-4" d="M1059.51,373.31c.32-.59.75-1.05,1.31-1.38.56-.33,1.18-.49,1.87-.49.6,0,1.15.14,1.67.41s.91.64,1.18,1.08v-4.06h1.29v10.36h-1.29v-1.44c-.25.46-.62.83-1.12,1.13-.5.29-1.07.44-1.74.44s-1.3-.17-1.86-.5c-.55-.34-.99-.81-1.31-1.41-.32-.61-.48-1.3-.48-2.07s.16-1.47.48-2.07ZM1065.18,373.88c-.23-.43-.55-.76-.95-.99-.4-.23-.83-.34-1.31-.34s-.91.11-1.3.34c-.39.22-.7.55-.94.98s-.35.93-.35,1.51.12,1.1.35,1.53.55.77.94.99c.39.23.83.34,1.3.34s.91-.11,1.31-.34.71-.56.95-.99c.23-.43.35-.94.35-1.52s-.12-1.08-.35-1.51Z"/>
      <path class="cls-4" d="M1075.78,371.56v7.67h-1.27v-1.13c-.24.39-.58.7-1.02.92-.43.22-.91.33-1.43.33-.6,0-1.13-.12-1.61-.37-.48-.25-.85-.62-1.13-1.11-.28-.49-.41-1.1-.41-1.81v-4.49h1.26v4.33c0,.76.19,1.34.57,1.74.38.41.91.61,1.57.61s1.22-.21,1.61-.63c.39-.42.59-1.03.59-1.83v-4.21h1.27Z"/>
      <path class="cls-4" d="M1077.93,373.31c.32-.59.76-1.05,1.32-1.38.57-.33,1.21-.49,1.94-.49.94,0,1.72.23,2.33.69.61.46,1.01,1.09,1.21,1.9h-1.37c-.13-.47-.38-.83-.76-1.11-.38-.27-.85-.41-1.41-.41-.73,0-1.32.25-1.76.75-.45.5-.67,1.21-.67,2.12s.22,1.64.67,2.14c.45.5,1.04.76,1.76.76.56,0,1.03-.13,1.4-.39.37-.26.63-.63.77-1.12h1.37c-.21.78-.62,1.41-1.23,1.88-.62.47-1.39.71-2.31.71-.73,0-1.37-.16-1.94-.49-.56-.33-1.01-.79-1.32-1.39-.32-.6-.48-1.3-.48-2.1s.16-1.49.48-2.08Z"/>
      <path class="cls-4" d="M1087.98,372.61v4.52c0,.37.08.64.24.79.16.15.43.23.83.23h.94v1.08h-1.15c-.71,0-1.24-.16-1.6-.49-.36-.33-.53-.86-.53-1.61v-4.52h-.99v-1.05h.99v-1.93h1.27v1.93h2v1.05h-2Z"/>
      <path class="cls-4" d="M1091.57,370.07c-.17-.17-.25-.37-.25-.62s.08-.45.25-.62.37-.25.62-.25.43.08.6.25c.16.17.24.37.24.62s-.08.45-.24.62c-.16.17-.36.25-.6.25s-.45-.08-.62-.25ZM1092.8,371.56v7.67h-1.27v-7.67h1.27Z"/>
      <path class="cls-4" d="M1096.36,378.87c-.58-.33-1.04-.79-1.37-1.39-.33-.6-.5-1.3-.5-2.09s.17-1.48.51-2.08c.34-.6.81-1.06,1.39-1.39.59-.32,1.25-.48,1.97-.48s1.39.16,1.97.48c.59.32,1.05.78,1.39,1.38.34.6.51,1.29.51,2.09s-.18,1.49-.53,2.09-.82,1.07-1.42,1.39c-.6.33-1.26.49-1.99.49s-1.37-.16-1.95-.49ZM1099.6,377.92c.4-.21.73-.54.97-.97.25-.43.37-.95.37-1.57s-.12-1.14-.36-1.57c-.24-.43-.56-.75-.95-.96s-.82-.31-1.27-.31-.89.1-1.28.31c-.39.21-.7.53-.93.96s-.35.95-.35,1.57.12,1.15.34,1.58c.23.43.53.75.92.96.38.21.8.31,1.26.31s.89-.11,1.29-.32Z"/>
      <path class="cls-4" d="M1109.94,372.27c.58.56.87,1.38.87,2.44v4.52h-1.26v-4.34c0-.77-.19-1.35-.57-1.76-.38-.41-.91-.61-1.57-.61s-1.21.21-1.6.63c-.4.42-.6,1.03-.6,1.83v4.24h-1.27v-7.67h1.27v1.09c.25-.39.6-.7,1.03-.91.43-.21.91-.32,1.44-.32.93,0,1.69.28,2.27.85Z"/>
      <path class="cls-4" d="M1118.02,378.87c-.58-.33-1.04-.79-1.37-1.39-.33-.6-.5-1.3-.5-2.09s.17-1.48.51-2.08c.34-.6.8-1.06,1.39-1.39.59-.32,1.25-.48,1.97-.48s1.39.16,1.97.48c.59.32,1.05.78,1.39,1.38.34.6.51,1.29.51,2.09s-.17,1.49-.52,2.09c-.35.6-.82,1.07-1.42,1.39s-1.26.49-1.99.49-1.37-.16-1.95-.49ZM1121.26,377.92c.4-.21.72-.54.97-.97.25-.43.37-.95.37-1.57s-.12-1.14-.36-1.57-.56-.75-.95-.96c-.39-.21-.82-.31-1.27-.31s-.89.1-1.28.31c-.39.21-.7.53-.93.96-.23.43-.35.95-.35,1.57s.11,1.15.34,1.58c.23.43.53.75.92.96s.8.31,1.26.31.89-.11,1.29-.32Z"/>
      <path class="cls-4" d="M1128.71,372.61h-1.61v6.62h-1.27v-6.62h-.99v-1.05h.99v-.55c0-.86.22-1.49.67-1.88.44-.4,1.16-.59,2.13-.59v1.06c-.56,0-.95.11-1.18.33-.23.22-.34.58-.34,1.09v.55h1.61v1.05Z"/>
      <path class="cls-4" d="M1007.51,397.92c1.18-.97,2.1-1.77,2.78-2.39.68-.62,1.25-1.28,1.72-1.96.47-.68.7-1.35.7-2,0-.49-.12-.88-.34-1.15-.23-.28-.57-.41-1.03-.41s-.81.17-1.07.51c-.26.34-.39.83-.39,1.45h-2.97c.02-1.02.24-1.87.66-2.56.41-.68.96-1.19,1.64-1.51.68-.32,1.43-.49,2.26-.49,1.43,0,2.5.37,3.23,1.1s1.09,1.69,1.09,2.86c0,1.28-.44,2.47-1.31,3.57s-1.99,2.17-3.35,3.21h4.86v2.5h-9.04v-2.29c.41-.32.59-.47.56-.45Z"/>
      <path class="cls-4" d="M1017.02,390.56v-2.86h4.99v13.14h-3.2v-10.28h-1.78Z"/>
      <path class="cls-4" d="M1024.53,400.5c-.34-.32-.51-.71-.51-1.18s.17-.88.51-1.21c.34-.32.78-.49,1.32-.49s.96.16,1.3.49c.34.32.51.73.51,1.21s-.17.86-.51,1.18c-.34.32-.78.48-1.3.48s-.98-.16-1.32-.48Z"/>
      <path class="cls-4" d="M1029.65,390.96c0-.65.17-1.24.5-1.77.34-.53.85-.96,1.53-1.28.68-.32,1.52-.48,2.52-.48s1.83.16,2.51.48c.68.32,1.19.74,1.52,1.28.34.53.5,1.12.5,1.77s-.15,1.21-.46,1.69c-.31.48-.72.86-1.23,1.13.65.31,1.15.74,1.49,1.29.35.55.52,1.19.52,1.92,0,.85-.22,1.59-.65,2.21-.43.62-1.02,1.09-1.75,1.41-.74.32-1.56.49-2.46.49s-1.72-.16-2.46-.49c-.74-.32-1.32-.79-1.76-1.41s-.65-1.35-.65-2.21c0-.74.17-1.39.52-1.94.35-.55.84-.97,1.48-1.27-1.13-.6-1.69-1.54-1.69-2.83ZM1032.84,395.57c-.35.31-.52.73-.52,1.27,0,.5.17.92.51,1.24.34.32.8.49,1.38.49s1.03-.16,1.36-.49c.33-.32.5-.74.5-1.24s-.17-.95-.51-1.26c-.34-.31-.79-.47-1.34-.47s-1.02.15-1.37.46ZM1035.33,390.28c-.28-.27-.66-.4-1.12-.4s-.84.14-1.12.41c-.28.28-.42.66-.42,1.15s.14.84.43,1.11c.29.27.66.41,1.12.41s.83-.14,1.12-.41c.29-.28.43-.65.43-1.12,0-.49-.14-.87-.42-1.14Z"/>
      <path class="cls-4" d="M1047.29,400.84l-3.06-4.21v4.21h-3.08v-13.32h3.08v7.36l3.04-4.09h3.8l-4.18,5.04,4.21,5h-3.82Z"/>
      <path class="cls-4" d="M1068.08,391.82c.74.76,1.11,1.81,1.11,3.15v5.87h-3.06v-5.45c0-.65-.17-1.15-.51-1.5s-.81-.53-1.41-.53-1.07.18-1.41.53-.51.85-.51,1.5v5.45h-3.06v-5.45c0-.65-.17-1.15-.51-1.5s-.81-.53-1.41-.53-1.07.18-1.41.53-.51.85-.51,1.5v5.45h-3.08v-10.04h3.08v1.26c.31-.42.72-.75,1.22-1,.5-.25,1.07-.37,1.71-.37.76,0,1.43.16,2.02.49.59.32,1.06.79,1.4,1.39.35-.55.82-1,1.42-1.35.6-.35,1.25-.52,1.96-.52,1.25,0,2.24.38,2.98,1.13Z"/>
    </g>
  </g>
</svg>