<?xml version="1.0" encoding="UTF-8"?>
<svg id="Linechart" xmlns="http://www.w3.org/2000/svg" viewBox="0 0 1046.12 561.56">
  <defs>
    <style>
      .cls-1 {
        fill: #3d3d3d;
      }

      .cls-1, .cls-2, .cls-3, .cls-4, .cls-5, .cls-6 {
        stroke-width: 0px;
      }

      .cls-2 {
        fill: #595959;
      }

      .cls-3 {
        fill: #405e51;
      }

      .cls-7 {
        stroke: #7b457d;
      }

      .cls-7, .cls-8, .cls-9, .cls-10, .cls-11, .cls-12 {
        fill: none;
        stroke-miterlimit: 10;
      }

      .cls-7, .cls-8, .cls-10, .cls-11 {
        stroke-width: 3px;
      }

      .cls-8 {
        stroke: #405e51;
      }

      .cls-9 {
        stroke-width: 1.35px;
      }

      .cls-9, .cls-12 {
        stroke: #595959;
      }

      .cls-10 {
        stroke: #8a424d;
      }

      .cls-11 {
        stroke: #395889;
      }

      .cls-4 {
        fill: #7b457d;
      }

      .cls-5 {
        fill: #395889;
      }

      .cls-12 {
        stroke-width: 1.28px;
      }

      .cls-6 {
        fill: #8a424d;
      }
    </style>
  </defs>
  <g id="y-axis">
    <g id="Foundation">
      <line class="cls-12" x1="95.89" y1="441.6" x2="108" y2="441.6"/>
      <line class="cls-12" x1="95.89" y1="372.96" x2="108" y2="372.96"/>
      <line class="cls-12" x1="95.89" y1="304.33" x2="108" y2="304.33"/>
      <line class="cls-12" x1="95.89" y1="235.69" x2="108" y2="235.69"/>
      <line class="cls-12" x1="95.89" y1="167.05" x2="108" y2="167.05"/>
      <line class="cls-12" x1="95.89" y1="98.41" x2="108" y2="98.41"/>
      <line class="cls-9" x1="95.26" y1="29.94" x2="108.63" y2="29.94"/>
    </g>
    <g id="_2" data-name="2">
      <path class="cls-2" d="M83.65,443.94c.78-.71,1.43-1.44,1.96-2.21.53-.77.8-1.53.8-2.27,0-.7-.17-1.25-.51-1.66-.34-.4-.89-.61-1.64-.61s-1.3.23-1.7.69c-.4.46-.62,1.07-.65,1.83h-1.42c.04-1.21.41-2.14,1.1-2.79.69-.66,1.58-.99,2.67-.99s1.99.31,2.64.92c.65.61.98,1.46.98,2.54,0,.89-.27,1.76-.8,2.61-.53.85-1.14,1.59-1.82,2.23-.68.64-1.55,1.39-2.6,2.24h5.56v1.23h-7.77v-1.05c1.37-1.1,2.44-2,3.21-2.71Z"/>
    </g>
    <g id="_4" data-name="4">
      <path class="cls-2" d="M79.76,376.58v-1.11l5.67-7.85h1.76v7.69h1.62v1.28h-1.62v2.6h-1.45v-2.6h-5.98ZM85.8,369.15l-4.34,6.15h4.34v-6.15Z"/>
    </g>
    <g id="_6" data-name="6">
      <path class="cls-2" d="M84.41,299.85c-.96,0-1.67.37-2.15,1.11-.47.74-.71,1.95-.69,3.64.25-.56.66-1,1.24-1.32.58-.32,1.22-.48,1.93-.48,1.11,0,1.99.34,2.66,1.03.66.69.99,1.64.99,2.86,0,.73-.14,1.39-.43,1.97s-.72,1.04-1.29,1.39-1.27.52-2.09.52c-1.11,0-1.98-.25-2.6-.74-.62-.5-1.06-1.18-1.31-2.05s-.37-1.95-.37-3.23c0-3.95,1.38-5.93,4.13-5.93,1.06,0,1.88.29,2.49.86s.96,1.29,1.07,2.16h-1.36c-.24-1.2-.97-1.79-2.21-1.79ZM83.12,304.33c-.41.19-.74.47-.99.86-.25.38-.38.85-.38,1.4,0,.82.24,1.48.71,1.99.47.51,1.15.77,2.03.77.75,0,1.35-.23,1.8-.7.45-.47.67-1.1.67-1.9,0-.84-.22-1.5-.65-1.98-.43-.48-1.06-.72-1.89-.72-.46,0-.9.09-1.31.28Z"/>
    </g>
    <g id="_8" data-name="8">
      <path class="cls-2" d="M80.85,234.8c-.32-.45-.48-1-.48-1.65,0-.58.15-1.11.44-1.57.29-.47.72-.84,1.3-1.11.58-.27,1.27-.41,2.09-.41s1.52.14,2.09.41c.58.27,1.01.65,1.31,1.11.3.47.44.99.44,1.57,0,.62-.17,1.17-.5,1.64-.33.47-.79.82-1.37,1.04.67.2,1.2.56,1.59,1.07s.59,1.13.59,1.85-.17,1.31-.52,1.83c-.34.52-.83.93-1.46,1.21s-1.35.43-2.17.43-1.54-.14-2.16-.43-1.1-.69-1.45-1.21c-.34-.52-.52-1.13-.52-1.83s.19-1.34.58-1.86c.39-.52.92-.87,1.58-1.07-.6-.24-1.07-.58-1.39-1.03ZM82.24,237.04c-.51.37-.76.93-.76,1.67,0,.69.25,1.24.73,1.66s1.15.63,1.98.63,1.49-.21,1.97-.63c.48-.42.73-.97.73-1.66s-.25-1.27-.74-1.66c-.5-.38-1.15-.57-1.95-.57s-1.45.19-1.95.56ZM85.97,231.81c-.43-.36-1.02-.53-1.78-.53s-1.33.18-1.76.53c-.43.36-.65.87-.65,1.53,0,.6.22,1.09.67,1.45.45.37,1.03.55,1.74.55s1.31-.19,1.75-.56.67-.86.67-1.46c0-.66-.22-1.16-.65-1.52Z"/>
    </g>
    <g id="_10" data-name="10">
      <path class="cls-2" d="M71.32,162.93v-1.34h3.04v11.68h-1.49v-10.34h-1.55Z"/>
      <path class="cls-2" d="M77.78,162.97c.6-1.04,1.66-1.56,3.17-1.56s2.55.52,3.15,1.56.9,2.48.9,4.34-.3,3.35-.9,4.39-1.65,1.57-3.15,1.57-2.56-.52-3.17-1.57-.9-2.51-.9-4.39.3-3.3.9-4.34ZM83.36,164.93c-.12-.65-.38-1.18-.76-1.57s-.93-.6-1.66-.6-1.29.2-1.67.6c-.38.4-.64.92-.76,1.57-.12.65-.19,1.45-.19,2.38s.06,1.78.19,2.44c.12.66.38,1.18.76,1.58.38.4.94.6,1.67.6s1.27-.2,1.66-.6.64-.93.76-1.58c.12-.66.19-1.47.19-2.44s-.06-1.73-.19-2.38Z"/>
    </g>
    <g id="_12" data-name="12">
      <path class="cls-2" d="M71.32,94.29v-1.34h3.04v11.68h-1.49v-10.34h-1.55Z"/>
      <path class="cls-2" d="M79.91,100.74c.78-.71,1.43-1.44,1.96-2.21.53-.77.8-1.53.8-2.27,0-.7-.17-1.25-.51-1.66-.34-.4-.89-.61-1.64-.61s-1.3.23-1.7.69c-.4.46-.62,1.07-.65,1.83h-1.42c.04-1.21.41-2.14,1.1-2.79.69-.66,1.58-.98,2.67-.98s1.99.31,2.64.92.98,1.46.98,2.54c0,.89-.27,1.76-.8,2.61-.53.85-1.14,1.59-1.82,2.23-.68.64-1.55,1.39-2.6,2.24h5.56v1.23h-7.77v-1.05c1.37-1.1,2.44-2,3.21-2.71Z"/>
    </g>
    <g id="_14" data-name="14">
      <path class="cls-2" d="M71.32,25.82v-1.34h3.04v11.68h-1.49v-10.34h-1.55Z"/>
      <path class="cls-2" d="M76.52,33.55v-1.11l5.67-7.85h1.76v7.69h1.62v1.28h-1.62v2.6h-1.45v-2.6h-5.98ZM82.56,26.12l-4.34,6.15h4.34v-6.15Z"/>
    </g>
    <g id="Unit">
      <path class="cls-1" d="M25.5,321.39h13.04v1.71h-9.72l9.72,4.33v1.21l-9.74,4.35h9.74v1.71h-13.04v-1.85l10.78-4.82-10.78-4.82v-1.83Z"/>
      <path class="cls-1" d="M26.2,318.43c-.23.23-.5.34-.83.34s-.6-.11-.83-.34-.34-.5-.34-.83.11-.58.34-.8.5-.33.83-.33.6.11.83.33.34.49.34.8-.11.6-.34.83ZM28.22,316.77h10.33v1.71h-10.33v-1.71Z"/>
      <path class="cls-1" d="M24.6,312.13h13.94v1.71h-13.94v-1.71Z"/>
      <path class="cls-1" d="M24.6,307.5h13.94v1.71h-13.94v-1.71Z"/>
      <path class="cls-1" d="M26.2,304.52c-.23.23-.5.34-.83.34s-.6-.11-.83-.34-.34-.5-.34-.83.11-.58.34-.8.5-.33.83-.33.6.11.83.33.34.49.34.8-.11.6-.34.83ZM28.22,302.86h10.33v1.71h-10.33v-1.71Z"/>
      <path class="cls-1" d="M38.05,298.07c-.44.79-1.06,1.4-1.88,1.85s-1.75.67-2.82.67-1.99-.23-2.8-.69c-.81-.46-1.43-1.08-1.87-1.87-.43-.79-.65-1.68-.65-2.66s.22-1.87.65-2.66c.43-.79,1.05-1.42,1.86-1.87.8-.46,1.74-.69,2.81-.69s2.01.24,2.82.71c.81.47,1.44,1.11,1.88,1.91.44.8.66,1.7.66,2.68s-.22,1.84-.66,2.63ZM36.77,293.71c-.29-.54-.72-.98-1.3-1.31-.58-.33-1.28-.5-2.11-.5s-1.53.16-2.11.49c-.58.33-1.01.75-1.29,1.28-.28.53-.42,1.1-.42,1.71s.14,1.2.42,1.72c.28.52.71.94,1.29,1.25.58.31,1.28.47,2.11.47s1.55-.15,2.13-.46c.58-.31,1.01-.72,1.29-1.23s.42-1.08.42-1.7-.14-1.19-.43-1.73Z"/>
      <path class="cls-1" d="M29.17,279.8c.76-.78,1.86-1.17,3.29-1.17h6.09v1.7h-5.84c-1.03,0-1.82.26-2.36.77-.55.52-.82,1.22-.82,2.11s.28,1.62.85,2.16c.57.53,1.39.8,2.47.8h5.71v1.71h-10.33v-1.71h1.47c-.53-.34-.94-.8-1.22-1.38-.29-.58-.43-1.23-.43-1.93,0-1.26.38-2.27,1.14-3.05Z"/>
      <path class="cls-1" d="M29.63,268.7h6.09c.5,0,.86-.11,1.06-.32.21-.21.31-.58.31-1.11v-1.26h1.45v1.54c0,.96-.22,1.67-.66,2.15-.44.48-1.16.72-2.17.72h-6.09v1.34h-1.41v-1.34h-2.6v-1.71h2.6v-2.69h1.41v2.69Z"/>
      <path class="cls-1" d="M38.05,262.06c-.44.79-1.06,1.4-1.88,1.85s-1.75.67-2.82.67-1.99-.23-2.8-.69c-.81-.46-1.43-1.08-1.87-1.87-.43-.79-.65-1.68-.65-2.66s.22-1.87.65-2.66c.43-.79,1.05-1.42,1.86-1.87.8-.46,1.74-.69,2.81-.69s2.01.24,2.82.71c.81.47,1.44,1.11,1.88,1.91.44.8.66,1.7.66,2.68s-.22,1.84-.66,2.63ZM36.77,257.7c-.29-.54-.72-.98-1.3-1.31-.58-.33-1.28-.5-2.11-.5s-1.53.16-2.11.49c-.58.33-1.01.75-1.29,1.28-.28.53-.42,1.1-.42,1.71s.14,1.2.42,1.72c.28.52.71.94,1.29,1.25.58.31,1.28.47,2.11.47s1.55-.15,2.13-.46c.58-.31,1.01-.72,1.29-1.23s.42-1.08.42-1.7-.14-1.19-.43-1.73Z"/>
      <path class="cls-1" d="M29.17,243.79c.76-.78,1.86-1.17,3.29-1.17h6.09v1.7h-5.84c-1.03,0-1.82.26-2.36.77-.55.52-.82,1.22-.82,2.11s.28,1.62.85,2.16c.57.53,1.39.8,2.47.8h5.71v1.71h-10.33v-1.71h1.47c-.53-.34-.94-.8-1.22-1.38-.29-.58-.43-1.23-.43-1.93,0-1.26.38-2.27,1.14-3.05Z"/>
      <path class="cls-1" d="M29.17,231.73c.76-.78,1.86-1.17,3.29-1.17h6.09v1.7h-5.84c-1.03,0-1.82.26-2.36.77-.55.52-.82,1.22-.82,2.11s.28,1.62.85,2.16c.57.53,1.39.8,2.47.8h5.71v1.71h-10.33v-1.71h1.47c-.53-.34-.94-.8-1.22-1.38-.29-.58-.43-1.23-.43-1.93,0-1.26.38-2.27,1.14-3.05Z"/>
      <path class="cls-1" d="M34.02,218.39v8.25c1.02-.06,1.81-.41,2.38-1.05.57-.63.86-1.4.86-2.31,0-.74-.17-1.36-.52-1.86-.35-.5-.81-.84-1.39-1.05v-1.85c.99.28,1.8.83,2.42,1.66.62.83.93,1.86.93,3.09,0,.98-.22,1.86-.66,2.63-.44.77-1.06,1.38-1.88,1.82-.81.44-1.75.66-2.82.66s-2-.21-2.81-.64c-.8-.43-1.42-1.03-1.86-1.8-.43-.77-.65-1.66-.65-2.67s.21-1.85.64-2.6c.43-.75,1.01-1.33,1.76-1.74.75-.41,1.59-.61,2.53-.61.33,0,.67.02,1.04.06ZM30.94,220.54c-.47.29-.83.68-1.07,1.18-.25.5-.37,1.05-.37,1.65,0,.87.28,1.6.83,2.21s1.32.96,2.3,1.05v-6.52c-.65,0-1.22.14-1.69.43Z"/>
      <path class="cls-1" d="M38.31,214.55c-.27.63-.65,1.12-1.13,1.49-.48.36-1.04.57-1.67.6v-1.77c.52-.05.94-.29,1.26-.73.33-.43.49-1,.49-1.71,0-.65-.14-1.17-.43-1.54-.29-.38-.65-.57-1.09-.57s-.79.2-1.01.6-.44,1.02-.65,1.87c-.2.77-.4,1.39-.61,1.88-.21.48-.51.9-.92,1.24-.41.35-.94.52-1.61.52-.53,0-1.01-.16-1.45-.47-.44-.31-.79-.76-1.05-1.34-.26-.58-.39-1.24-.39-1.98,0-1.14.29-2.07.87-2.77s1.37-1.08,2.37-1.13v1.71c-.54.04-.97.25-1.3.65-.33.4-.49.93-.49,1.59,0,.62.13,1.11.4,1.47.26.36.61.55,1.04.55.34,0,.62-.11.84-.33.22-.22.4-.5.53-.83.13-.33.28-.79.44-1.38.2-.74.4-1.34.59-1.81.19-.46.49-.86.88-1.2.39-.33.9-.51,1.53-.52.57,0,1.07.16,1.53.47.45.31.81.76,1.06,1.33s.39,1.23.39,1.97c0,.79-.13,1.5-.4,2.13Z"/>
    </g>
  </g>
  <g id="x-axis">
    <g id="Foundation-2" data-name="Foundation">
      <line class="cls-9" x1="95.26" y1="510.24" x2="898.93" y2="510.24"/>
      <line class="cls-9" x1="108.74" y1="510.81" x2="108.74" y2="522.36"/>
      <line class="cls-9" x1="228.65" y1="510.81" x2="228.65" y2="522.36"/>
      <line class="cls-9" x1="348.41" y1="510.81" x2="348.41" y2="522.36"/>
      <line class="cls-9" x1="468.41" y1="510.24" x2="468.41" y2="521.79"/>
      <line class="cls-9" x1="588.07" y1="510.81" x2="588.07" y2="522.36"/>
      <line class="cls-9" x1="707.92" y1="510.24" x2="707.92" y2="521.79"/>
      <line class="cls-9" x1="827.06" y1="510.81" x2="827.06" y2="522.36"/>
    </g>
    <g id="_2020" data-name="2020">
      <path class="cls-2" d="M814.28,533.46c.77-.71,1.43-1.44,1.96-2.21s.8-1.53.8-2.27c0-.7-.17-1.25-.51-1.66-.34-.4-.89-.61-1.64-.61s-1.3.23-1.7.69c-.4.46-.62,1.07-.65,1.83h-1.42c.04-1.21.41-2.14,1.1-2.79.69-.66,1.58-.99,2.66-.99s1.99.31,2.64.92c.65.61.98,1.46.98,2.54,0,.89-.27,1.76-.8,2.61-.53.85-1.14,1.59-1.82,2.23-.68.64-1.54,1.39-2.6,2.24h5.56v1.23h-7.77v-1.05c1.37-1.1,2.44-2,3.21-2.71Z"/>
      <path class="cls-2" d="M821.44,527.04c.6-1.04,1.66-1.56,3.17-1.56s2.55.52,3.15,1.56c.6,1.04.9,2.48.9,4.34s-.3,3.35-.9,4.39c-.6,1.04-1.65,1.57-3.15,1.57s-2.56-.52-3.17-1.57c-.6-1.04-.91-2.51-.91-4.39s.3-3.3.91-4.34ZM827.01,529c-.12-.65-.38-1.18-.76-1.57s-.93-.6-1.66-.6-1.29.2-1.67.6c-.38.4-.63.92-.76,1.57s-.19,1.45-.19,2.38.06,1.78.19,2.44c.12.66.38,1.18.76,1.58.38.4.94.6,1.67.6s1.27-.2,1.66-.6c.38-.4.64-.93.76-1.58.12-.66.19-1.47.19-2.44s-.06-1.73-.19-2.38Z"/>
      <path class="cls-2" d="M833.71,533.46c.77-.71,1.43-1.44,1.96-2.21s.8-1.53.8-2.27c0-.7-.17-1.25-.51-1.66-.34-.4-.89-.61-1.64-.61s-1.3.23-1.7.69c-.4.46-.62,1.07-.65,1.83h-1.42c.04-1.21.41-2.14,1.1-2.79.69-.66,1.58-.99,2.66-.99s1.99.31,2.64.92c.65.61.98,1.46.98,2.54,0,.89-.27,1.76-.8,2.61-.53.85-1.14,1.59-1.82,2.23-.68.64-1.54,1.39-2.6,2.24h5.56v1.23h-7.77v-1.05c1.37-1.1,2.44-2,3.21-2.71Z"/>
      <path class="cls-2" d="M840.86,527.04c.6-1.04,1.66-1.56,3.17-1.56s2.55.52,3.15,1.56c.6,1.04.9,2.48.9,4.34s-.3,3.35-.9,4.39c-.6,1.04-1.65,1.57-3.15,1.57s-2.56-.52-3.17-1.57c-.6-1.04-.91-2.51-.91-4.39s.3-3.3.91-4.34ZM846.44,529c-.12-.65-.38-1.18-.76-1.57s-.93-.6-1.66-.6-1.29.2-1.67.6c-.38.4-.63.92-.76,1.57s-.19,1.45-.19,2.38.06,1.78.19,2.44c.12.66.38,1.18.76,1.58.38.4.94.6,1.67.6s1.27-.2,1.66-.6c.38-.4.64-.93.76-1.58.12-.66.19-1.47.19-2.44s-.06-1.73-.19-2.38Z"/>
    </g>
    <g id="_2015" data-name="2015">
      <path class="cls-2" d="M694.78,533.46c.78-.71,1.43-1.44,1.96-2.21s.8-1.53.8-2.27c0-.7-.17-1.25-.51-1.66s-.89-.61-1.64-.61-1.3.23-1.7.69c-.4.46-.62,1.07-.65,1.83h-1.42c.04-1.21.41-2.14,1.1-2.79.69-.66,1.58-.99,2.67-.99s1.99.31,2.64.92c.65.61.98,1.46.98,2.54,0,.89-.27,1.76-.8,2.61-.53.85-1.14,1.59-1.82,2.23s-1.54,1.39-2.6,2.24h5.56v1.23h-7.77v-1.05c1.37-1.1,2.44-2,3.21-2.71Z"/>
      <path class="cls-2" d="M701.93,527.04c.6-1.04,1.66-1.56,3.17-1.56s2.55.52,3.15,1.56c.6,1.04.9,2.48.9,4.34s-.3,3.35-.9,4.39c-.6,1.04-1.65,1.57-3.15,1.57s-2.56-.52-3.17-1.57c-.6-1.04-.91-2.51-.91-4.39s.3-3.3.91-4.34ZM707.51,529c-.12-.65-.38-1.18-.76-1.57s-.93-.6-1.66-.6-1.29.2-1.67.6c-.38.4-.63.92-.76,1.57s-.19,1.45-.19,2.38.06,1.78.19,2.44c.12.66.38,1.18.76,1.58.38.4.94.6,1.67.6s1.27-.2,1.66-.6c.38-.4.64-.93.76-1.58.12-.66.19-1.47.19-2.44s-.06-1.73-.19-2.38Z"/>
      <path class="cls-2" d="M710.78,527v-1.34h3.04v11.68h-1.49v-10.34h-1.55Z"/>
      <path class="cls-2" d="M723.78,526.94h-5.67v3.68c.25-.34.61-.63,1.1-.85s1.01-.33,1.57-.33c.89,0,1.62.19,2.18.56.56.37.96.85,1.2,1.44s.36,1.21.36,1.87c0,.78-.15,1.47-.44,2.08-.29.61-.74,1.1-1.33,1.45s-1.34.53-2.22.53c-1.13,0-2.05-.29-2.75-.87-.7-.58-1.12-1.36-1.28-2.33h1.44c.14.61.44,1.09.89,1.44.45.34,1.02.52,1.71.52.85,0,1.49-.26,1.92-.77.43-.51.65-1.19.65-2.03s-.21-1.49-.65-1.95c-.43-.46-1.07-.69-1.91-.69-.57,0-1.07.14-1.49.41-.43.28-.74.65-.93,1.12h-1.39v-6.59h7.03v1.29Z"/>
    </g>
    <g id="_2010" data-name="2010">
      <path class="cls-2" d="M575.27,533.46c.78-.71,1.43-1.44,1.96-2.21.53-.77.8-1.53.8-2.27,0-.7-.17-1.25-.51-1.66-.34-.4-.89-.61-1.64-.61s-1.3.23-1.7.69c-.4.46-.62,1.07-.65,1.83h-1.42c.04-1.21.41-2.14,1.1-2.79.69-.66,1.58-.99,2.67-.99s1.99.31,2.64.92c.65.61.98,1.46.98,2.54,0,.89-.27,1.76-.8,2.61-.53.85-1.14,1.59-1.82,2.23-.68.64-1.55,1.39-2.6,2.24h5.56v1.23h-7.77v-1.05c1.37-1.1,2.44-2,3.21-2.71Z"/>
      <path class="cls-2" d="M582.43,527.04c.6-1.04,1.66-1.56,3.17-1.56s2.55.52,3.15,1.56.9,2.48.9,4.34-.3,3.35-.9,4.39c-.6,1.04-1.65,1.57-3.15,1.57s-2.56-.52-3.17-1.57c-.6-1.04-.9-2.51-.9-4.39s.3-3.3.9-4.34ZM588.01,529c-.12-.65-.38-1.18-.76-1.57s-.93-.6-1.66-.6-1.29.2-1.67.6c-.38.4-.64.92-.76,1.57-.12.65-.19,1.45-.19,2.38s.06,1.78.19,2.44c.12.66.38,1.18.76,1.58.38.4.94.6,1.67.6s1.27-.2,1.66-.6c.38-.4.64-.93.76-1.58.12-.66.19-1.47.19-2.44s-.06-1.73-.19-2.38Z"/>
      <path class="cls-2" d="M591.28,527v-1.34h3.04v11.68h-1.49v-10.34h-1.55Z"/>
      <path class="cls-2" d="M597.74,527.04c.6-1.04,1.66-1.56,3.17-1.56s2.55.52,3.15,1.56.9,2.48.9,4.34-.3,3.35-.9,4.39c-.6,1.04-1.65,1.57-3.15,1.57s-2.56-.52-3.17-1.57c-.6-1.04-.9-2.51-.9-4.39s.3-3.3.9-4.34ZM603.32,529c-.12-.65-.38-1.18-.76-1.57s-.93-.6-1.66-.6-1.29.2-1.67.6c-.38.4-.64.92-.76,1.57-.12.65-.19,1.45-.19,2.38s.06,1.78.19,2.44c.12.66.38,1.18.76,1.58.38.4.94.6,1.67.6s1.27-.2,1.66-.6c.38-.4.64-.93.76-1.58.12-.66.19-1.47.19-2.44s-.06-1.73-.19-2.38Z"/>
    </g>
    <g id="_2005" data-name="2005">
      <path class="cls-2" d="M454.83,533.46c.78-.71,1.43-1.44,1.96-2.21.53-.77.8-1.53.8-2.27,0-.7-.17-1.25-.51-1.66-.34-.4-.89-.61-1.64-.61s-1.3.23-1.7.69c-.4.46-.62,1.07-.65,1.83h-1.42c.04-1.21.41-2.14,1.1-2.79.69-.66,1.58-.99,2.67-.99s1.99.31,2.64.92c.65.61.98,1.46.98,2.54,0,.89-.27,1.76-.8,2.61-.53.85-1.14,1.59-1.82,2.23-.68.64-1.55,1.39-2.6,2.24h5.56v1.23h-7.77v-1.05c1.37-1.1,2.44-2,3.21-2.71Z"/>
      <path class="cls-2" d="M461.99,527.04c.6-1.04,1.66-1.56,3.17-1.56s2.55.52,3.15,1.56.9,2.48.9,4.34-.3,3.35-.9,4.39c-.6,1.04-1.65,1.57-3.15,1.57s-2.56-.52-3.17-1.57c-.6-1.04-.9-2.51-.9-4.39s.3-3.3.9-4.34ZM467.57,529c-.12-.65-.38-1.18-.76-1.57s-.93-.6-1.66-.6-1.29.2-1.67.6c-.38.4-.64.92-.76,1.57-.12.65-.19,1.45-.19,2.38s.06,1.78.19,2.44c.12.66.38,1.18.76,1.58.38.4.94.6,1.67.6s1.27-.2,1.66-.6c.38-.4.64-.93.76-1.58.12-.66.19-1.47.19-2.44s-.06-1.73-.19-2.38Z"/>
      <path class="cls-2" d="M472.13,527.04c.6-1.04,1.66-1.56,3.17-1.56s2.55.52,3.15,1.56.9,2.48.9,4.34-.3,3.35-.9,4.39c-.6,1.04-1.65,1.57-3.15,1.57s-2.56-.52-3.17-1.57c-.6-1.04-.9-2.51-.9-4.39s.3-3.3.9-4.34ZM477.71,529c-.12-.65-.38-1.18-.76-1.57s-.93-.6-1.66-.6-1.29.2-1.67.6c-.38.4-.64.92-.76,1.57-.12.65-.19,1.45-.19,2.38s.06,1.78.19,2.44c.12.66.38,1.18.76,1.58.38.4.94.6,1.67.6s1.27-.2,1.66-.6c.38-.4.64-.93.76-1.58.12-.66.19-1.47.19-2.44s-.06-1.73-.19-2.38Z"/>
      <path class="cls-2" d="M488.81,526.94h-5.67v3.68c.25-.34.61-.63,1.1-.85.48-.22,1.01-.33,1.57-.33.89,0,1.62.19,2.18.56.56.37.96.85,1.2,1.44s.36,1.21.36,1.87c0,.78-.15,1.47-.44,2.08-.29.61-.73,1.1-1.33,1.45-.6.36-1.34.53-2.22.53-1.13,0-2.05-.29-2.75-.87-.7-.58-1.13-1.36-1.28-2.33h1.44c.14.61.44,1.09.89,1.44.45.34,1.02.52,1.71.52.85,0,1.49-.26,1.92-.77.43-.51.65-1.19.65-2.03s-.22-1.49-.65-1.95c-.43-.46-1.07-.69-1.91-.69-.57,0-1.07.14-1.49.41-.43.28-.73.65-.93,1.12h-1.39v-6.59h7.03v1.29Z"/>
    </g>
    <g id="_2000" data-name="2000">
      <path class="cls-2" d="M335.47,533.46c.78-.71,1.43-1.44,1.96-2.21.53-.77.8-1.53.8-2.27,0-.7-.17-1.25-.51-1.66-.34-.4-.89-.61-1.64-.61s-1.3.23-1.7.69c-.4.46-.62,1.07-.65,1.83h-1.42c.04-1.21.41-2.14,1.1-2.79.69-.66,1.58-.99,2.67-.99s1.99.31,2.64.92c.65.61.98,1.46.98,2.54,0,.89-.27,1.76-.8,2.61-.53.85-1.14,1.59-1.82,2.23-.68.64-1.55,1.39-2.6,2.24h5.56v1.23h-7.77v-1.05c1.37-1.1,2.44-2,3.21-2.71Z"/>
      <path class="cls-2" d="M342.63,527.04c.6-1.04,1.66-1.56,3.17-1.56s2.55.52,3.15,1.56.9,2.48.9,4.34-.3,3.35-.9,4.39c-.6,1.04-1.65,1.57-3.15,1.57s-2.56-.52-3.17-1.57c-.6-1.04-.9-2.51-.9-4.39s.3-3.3.9-4.34ZM348.21,529c-.12-.65-.38-1.18-.76-1.57s-.93-.6-1.66-.6-1.29.2-1.67.6c-.38.4-.64.92-.76,1.57-.12.65-.19,1.45-.19,2.38s.06,1.78.19,2.44c.12.66.38,1.18.76,1.58.38.4.94.6,1.67.6s1.27-.2,1.66-.6c.38-.4.64-.93.76-1.58.12-.66.19-1.47.19-2.44s-.06-1.73-.19-2.38Z"/>
      <path class="cls-2" d="M352.77,527.04c.6-1.04,1.66-1.56,3.17-1.56s2.55.52,3.15,1.56.9,2.48.9,4.34-.3,3.35-.9,4.39c-.6,1.04-1.65,1.57-3.15,1.57s-2.56-.52-3.17-1.57c-.6-1.04-.9-2.51-.9-4.39s.3-3.3.9-4.34ZM358.35,529c-.12-.65-.38-1.18-.76-1.57s-.93-.6-1.66-.6-1.29.2-1.67.6c-.38.4-.64.92-.76,1.57-.12.65-.19,1.45-.19,2.38s.06,1.78.19,2.44c.12.66.38,1.18.76,1.58.38.4.94.6,1.67.6s1.27-.2,1.66-.6c.38-.4.64-.93.76-1.58.12-.66.19-1.47.19-2.44s-.06-1.73-.19-2.38Z"/>
      <path class="cls-2" d="M362.91,527.04c.6-1.04,1.66-1.56,3.17-1.56s2.55.52,3.15,1.56.9,2.48.9,4.34-.3,3.35-.9,4.39c-.6,1.04-1.65,1.57-3.15,1.57s-2.56-.52-3.17-1.57c-.6-1.04-.9-2.51-.9-4.39s.3-3.3.9-4.34ZM368.49,529c-.12-.65-.38-1.18-.76-1.57s-.93-.6-1.66-.6-1.29.2-1.67.6c-.38.4-.64.92-.76,1.57-.12.65-.19,1.45-.19,2.38s.06,1.78.19,2.44c.12.66.38,1.18.76,1.58.38.4.94.6,1.67.6s1.27-.2,1.66-.6c.38-.4.64-.93.76-1.58.12-.66.19-1.47.19-2.44s-.06-1.73-.19-2.38Z"/>
    </g>
    <g id="_1995" data-name="1995">
      <path class="cls-2" d="M213.33,527v-1.34h3.04v11.68h-1.49v-10.34h-1.55Z"/>
      <path class="cls-2" d="M221.53,535.63c.39.33.92.5,1.59.5.89,0,1.55-.35,1.98-1.05.43-.7.63-1.88.61-3.54-.23.48-.6.86-1.13,1.14-.53.27-1.11.41-1.76.41-.72,0-1.36-.15-1.93-.44-.57-.3-1.01-.73-1.33-1.3-.32-.57-.48-1.26-.48-2.07,0-1.15.33-2.08,1-2.79s1.62-1.06,2.84-1.06c1.51,0,2.56.49,3.17,1.47.61.98.91,2.44.91,4.38,0,1.36-.12,2.48-.36,3.36s-.65,1.56-1.23,2.02c-.58.46-1.36.7-2.37.7-1.1,0-1.95-.3-2.57-.89s-.96-1.35-1.05-2.26h1.36c.11.61.36,1.09.75,1.42ZM224.83,531.18c.46-.45.69-1.05.69-1.82,0-.81-.23-1.46-.68-1.95s-1.09-.74-1.91-.74c-.75,0-1.35.24-1.8.71s-.67,1.1-.67,1.87.22,1.42.66,1.89c.44.47,1.08.71,1.92.71.72,0,1.31-.22,1.78-.67Z"/>
      <path class="cls-2" d="M231.7,535.63c.39.33.92.5,1.59.5.89,0,1.55-.35,1.98-1.05.43-.7.63-1.88.61-3.54-.23.48-.6.86-1.13,1.14-.53.27-1.11.41-1.76.41-.72,0-1.36-.15-1.93-.44-.57-.3-1.01-.73-1.33-1.3-.32-.57-.48-1.26-.48-2.07,0-1.15.33-2.08,1-2.79s1.62-1.06,2.84-1.06c1.51,0,2.56.49,3.17,1.47.61.98.91,2.44.91,4.38,0,1.36-.12,2.48-.36,3.36s-.65,1.56-1.23,2.02c-.58.46-1.36.7-2.37.7-1.1,0-1.95-.3-2.57-.89s-.96-1.35-1.05-2.26h1.36c.11.61.36,1.09.75,1.42ZM235.01,531.18c.46-.45.69-1.05.69-1.82,0-.81-.23-1.46-.68-1.95s-1.09-.74-1.91-.74c-.75,0-1.35.24-1.8.71s-.67,1.1-.67,1.87.22,1.42.66,1.89c.44.47,1.08.71,1.92.71.72,0,1.31-.22,1.78-.67Z"/>
      <path class="cls-2" d="M246.68,526.94h-5.67v3.68c.25-.34.61-.63,1.1-.85.48-.22,1.01-.33,1.57-.33.89,0,1.62.19,2.18.56.56.37.96.85,1.2,1.44s.36,1.21.36,1.87c0,.78-.15,1.47-.44,2.08-.29.61-.73,1.1-1.33,1.45-.6.36-1.34.53-2.22.53-1.13,0-2.05-.29-2.75-.87-.7-.58-1.13-1.36-1.28-2.33h1.44c.14.61.44,1.09.89,1.44.45.34,1.02.52,1.71.52.85,0,1.49-.26,1.92-.77.43-.51.65-1.19.65-2.03s-.22-1.49-.65-1.95c-.43-.46-1.07-.69-1.91-.69-.57,0-1.07.14-1.49.41-.43.28-.73.65-.93,1.12h-1.39v-6.59h7.03v1.29Z"/>
    </g>
    <g id="_1990" data-name="1990">
      <path class="cls-2" d="M93.83,527v-1.34h3.04v11.68h-1.49v-10.34h-1.55Z"/>
      <path class="cls-2" d="M102.03,535.63c.39.33.92.5,1.59.5.89,0,1.55-.35,1.98-1.05.43-.7.63-1.88.61-3.54-.23.48-.6.86-1.13,1.14-.53.27-1.11.41-1.76.41-.72,0-1.36-.15-1.93-.44-.57-.3-1.01-.73-1.33-1.3-.32-.57-.48-1.26-.48-2.07,0-1.15.33-2.08,1-2.79s1.62-1.06,2.84-1.06c1.51,0,2.56.49,3.17,1.47.61.98.91,2.44.91,4.38,0,1.36-.12,2.48-.36,3.36s-.65,1.56-1.23,2.02c-.58.46-1.36.7-2.37.7-1.1,0-1.95-.3-2.57-.89s-.96-1.35-1.05-2.26h1.36c.11.61.36,1.09.75,1.42ZM105.33,531.18c.46-.45.69-1.05.69-1.82,0-.81-.23-1.46-.68-1.95s-1.09-.74-1.91-.74c-.75,0-1.35.24-1.8.71s-.67,1.1-.67,1.87.22,1.42.66,1.89c.44.47,1.08.71,1.92.71.72,0,1.31-.22,1.78-.67Z"/>
      <path class="cls-2" d="M112.2,535.63c.39.33.92.5,1.59.5.89,0,1.55-.35,1.98-1.05.43-.7.63-1.88.61-3.54-.23.48-.6.86-1.13,1.14-.53.27-1.11.41-1.76.41-.72,0-1.36-.15-1.93-.44-.57-.3-1.01-.73-1.33-1.3-.32-.57-.48-1.26-.48-2.07,0-1.15.33-2.08,1-2.79s1.62-1.06,2.84-1.06c1.51,0,2.56.49,3.17,1.47.61.98.91,2.44.91,4.38,0,1.36-.12,2.48-.36,3.36s-.65,1.56-1.23,2.02c-.58.46-1.36.7-2.37.7-1.1,0-1.95-.3-2.57-.89s-.96-1.35-1.05-2.26h1.36c.11.61.36,1.09.75,1.42ZM115.5,531.18c.46-.45.69-1.05.69-1.82,0-.81-.23-1.46-.68-1.95s-1.09-.74-1.91-.74c-.75,0-1.35.24-1.8.71s-.67,1.1-.67,1.87.22,1.42.66,1.89c.44.47,1.08.71,1.92.71.72,0,1.31-.22,1.78-.67Z"/>
      <path class="cls-2" d="M120.64,527.04c.6-1.04,1.66-1.56,3.17-1.56s2.55.52,3.15,1.56.9,2.48.9,4.34-.3,3.35-.9,4.39c-.6,1.04-1.65,1.57-3.15,1.57s-2.56-.52-3.17-1.57c-.6-1.04-.9-2.51-.9-4.39s.3-3.3.9-4.34ZM126.22,529c-.12-.65-.38-1.18-.76-1.57s-.93-.6-1.66-.6-1.29.2-1.67.6c-.38.4-.64.92-.76,1.57-.12.65-.19,1.45-.19,2.38s.06,1.78.19,2.44c.12.66.38,1.18.76,1.58.38.4.94.6,1.67.6s1.27-.2,1.66-.6c.38-.4.64-.93.76-1.58.12-.66.19-1.47.19-2.44s-.06-1.73-.19-2.38Z"/>
    </g>
  </g>
  <g id="Data">
    <polyline id="Busses" class="cls-11" points="108.74 482.6 132.93 484.17 157.23 479.53 180.75 479.96 204.98 477.97 228.49 479.32 252.72 480.32 276.31 479.25 300.68 478.54 324.84 480.39 348.36 483.74 372.66 483.74 396.25 482.6 420.34 482.03 443.99 481.39 468.22 480.32 491.81 480.74 516.04 481.39 540.13 482.24 563.79 482.95 587.95 483.1 611.53 485.16 635.76 488.3 659.28 491.22 683.58 492.72 707.74 494.36 731.33 497.85 755.63 499.56 779.15 500.27 803.45 501.27 826.89 502.55 851.26 503.41 874.78 504.19 898.97 503.62"/>
    <polyline id="LW_trucks" class="cls-10" points="108.74 474.51 132.89 472.58 157.01 470.37 180.58 472.44 204.87 471.25 228.51 471.16 252.61 471.34 276.34 471.16 300.52 470.51 324.78 469.97 348.13 471.6 372.42 468.04 396.14 465.21 420.26 463.19 443.83 460.37 468.18 460.37 491.73 458.04 515.94 455.52 540.23 455.52 563.79 455.52 588.02 452.45 611.48 450.13 635.77 451.52 659.23 452.91 683.43 454.12 707.72 453.28 731.28 456.25 755.57 456.25 779.03 457.36 803.41 456.25 826.87 456.53 851.16 455.97 874.71 463.48 899.03 462.14"/>
    <polyline id="HW_trucks" class="cls-8" points="108.74 396.25 132.91 405.86 157.05 393.26 180.7 393.26 204.95 382.08 228.37 385.53 252.74 389.57 276.28 384.34 300.53 376.73 324.9 372.22 348.32 370.31 372.69 370.31 396.11 366.63 420.48 362.35 443.9 352.72 468.15 343.69 491.69 341.31 516.06 335.01 540.07 337.98 563.61 350.1 588.1 338.81 611.52 343.69 635.65 359.14 659.31 366.39 683.56 374 707.69 378.16 731.23 389.33 755.6 395.52 779.14 401.46 803.39 401.22 826.93 403.84 851.18 399.68 874.72 414.77 898.99 414.21"/>
    <polyline id="Private_cars" class="cls-7" points="108.74 68.66 132.9 62.54 157.07 51.83 180.72 74.37 204.88 67.64 228.43 60.6 252.49 64.37 276.25 69.57 300.41 75.9 324.78 69.27 348.23 70.39 372.6 67.94 396.05 59.79 420.31 60.7 443.86 64.78 468.13 65.19 491.58 71.31 515.95 68.86 540.11 80.69 563.86 80.69 587.82 90.27 611.37 100.87 635.54 117.7 659.29 121.67 683.56 125.04 707.72 116.78 731.17 124.32 755.54 129.01 779.09 146.45 803.25 149.81 826.91 181.93 850.97 185.9 874.72 220.06 898.89 226.38"/>
  </g>
  <g id="Categories_data" data-name="Categories/data">
    <g id="Private">
      <path class="cls-4" d="M921.18,211.83c-.3.54-.76.98-1.39,1.32-.62.33-1.4.5-2.33.5h-1.71v4.07h-2.76v-11.34h4.47c.91,0,1.67.16,2.29.47.62.31,1.09.74,1.41,1.29.31.55.47,1.18.47,1.89,0,.66-.15,1.26-.45,1.8ZM918.44,211.08c.26-.25.39-.6.39-1.05s-.13-.8-.39-1.05c-.26-.25-.65-.37-1.18-.37h-1.5v2.84h1.5c.53,0,.92-.12,1.18-.37Z"/>
      <path class="cls-4" d="M927.05,209.03c.48-.29,1.02-.43,1.62-.43v2.92h-.76c-.69,0-1.21.15-1.55.44-.34.3-.52.82-.52,1.56v4.18h-2.76v-9.01h2.76v1.5c.32-.5.73-.89,1.21-1.17Z"/>
      <path class="cls-4" d="M930.19,207.34c-.31-.29-.46-.64-.46-1.06s.15-.79.46-1.07c.31-.29.7-.43,1.19-.43s.86.14,1.17.43c.31.29.46.64.46,1.07s-.15.77-.46,1.06c-.31.29-.7.43-1.17.43s-.88-.14-1.19-.43ZM932.75,208.7v9.01h-2.76v-9.01h2.76Z"/>
      <path class="cls-4" d="M938.8,215.13l1.96-6.43h2.94l-3.2,9.01h-3.41l-3.2-9.01h2.96l1.95,6.43Z"/>
      <path class="cls-4" d="M944.84,210.75c.35-.7.83-1.24,1.43-1.62.6-.38,1.28-.56,2.02-.56.64,0,1.19.13,1.67.39.48.26.85.6,1.11,1.02v-1.28h2.76v9.01h-2.76v-1.28c-.27.42-.64.76-1.12,1.02-.48.26-1.04.39-1.67.39-.73,0-1.4-.19-2-.57-.6-.38-1.08-.93-1.43-1.63-.35-.71-.53-1.52-.53-2.45s.17-1.74.53-2.44ZM950.49,211.58c-.38-.4-.85-.6-1.4-.6s-1.01.2-1.4.59c-.38.39-.57.93-.57,1.62s.19,1.24.57,1.64c.38.4.85.61,1.4.61s1.01-.2,1.4-.6c.38-.4.57-.94.57-1.63s-.19-1.23-.57-1.63Z"/>
      <path class="cls-4" d="M960.85,215.37v2.34h-1.41c-1,0-1.78-.24-2.34-.73-.56-.49-.84-1.29-.84-2.4v-3.59h-1.1v-2.29h1.1v-2.2h2.76v2.2h1.81v2.29h-1.81v3.62c0,.27.06.46.19.58.13.12.34.18.65.18h.99Z"/>
      <path class="cls-4" d="M970.83,213.87h-6.25c.04.56.22.99.54,1.28.32.3.71.44,1.17.44.69,0,1.17-.29,1.44-.87h2.94c-.15.59-.42,1.12-.82,1.6-.39.47-.89.85-1.48,1.11s-1.25.4-1.99.4c-.88,0-1.67-.19-2.36-.57-.69-.38-1.23-.92-1.62-1.62-.39-.7-.58-1.52-.58-2.45s.19-1.75.57-2.46c.38-.7.92-1.24,1.61-1.62.69-.38,1.48-.56,2.37-.56s1.65.18,2.33.55c.68.37,1.21.89,1.59,1.57.38.68.57,1.47.57,2.37,0,.26-.02.53-.05.81ZM968.05,212.34c0-.47-.16-.85-.48-1.13-.32-.28-.73-.42-1.21-.42s-.85.13-1.17.4c-.32.27-.51.65-.59,1.15h3.46Z"/>
      <path class="cls-4" d="M975.78,210.75c.38-.7.92-1.24,1.6-1.62.68-.38,1.47-.56,2.35-.56,1.13,0,2.08.3,2.83.89.76.59,1.26,1.43,1.49,2.5h-2.94c-.25-.69-.73-1.03-1.44-1.03-.51,0-.91.2-1.21.59-.3.39-.45.96-.45,1.69s.15,1.29.45,1.69c.3.39.71.59,1.21.59.71,0,1.19-.34,1.44-1.03h2.94c-.24,1.06-.74,1.88-1.5,2.49-.76.6-1.71.9-2.83.9-.88,0-1.67-.19-2.35-.57-.68-.38-1.22-.92-1.6-1.62-.38-.7-.57-1.52-.57-2.45s.19-1.75.57-2.46Z"/>
      <path class="cls-4" d="M985.5,210.75c.35-.7.83-1.24,1.43-1.62.6-.38,1.28-.56,2.02-.56.64,0,1.19.13,1.67.39.48.26.85.6,1.11,1.02v-1.28h2.76v9.01h-2.76v-1.28c-.27.42-.64.76-1.12,1.02-.48.26-1.04.39-1.67.39-.73,0-1.4-.19-2-.57-.6-.38-1.08-.93-1.43-1.63-.35-.71-.53-1.52-.53-2.45s.17-1.74.53-2.44ZM991.16,211.58c-.38-.4-.85-.6-1.4-.6s-1.01.2-1.4.59c-.38.39-.57.93-.57,1.62s.19,1.24.57,1.64c.38.4.85.61,1.4.61s1.01-.2,1.4-.6c.38-.4.57-.94.57-1.63s-.19-1.23-.57-1.63Z"/>
      <path class="cls-4" d="M1000.47,209.03c.48-.29,1.02-.43,1.62-.43v2.92h-.76c-.69,0-1.21.15-1.55.44-.34.3-.52.82-.52,1.56v4.18h-2.76v-9.01h2.76v1.5c.32-.5.73-.89,1.21-1.17Z"/>
      <path class="cls-4" d="M1004.97,217.44c-.61-.27-1.1-.64-1.45-1.11s-.55-.99-.6-1.57h2.73c.03.31.18.57.44.76.26.19.58.29.95.29.34,0,.61-.07.8-.2.19-.13.28-.31.28-.52,0-.26-.13-.45-.4-.57-.27-.12-.71-.26-1.31-.41-.65-.15-1.18-.31-1.61-.48s-.8-.43-1.11-.79c-.31-.36-.47-.85-.47-1.46,0-.52.14-.99.43-1.41s.71-.76,1.26-1.01c.55-.25,1.21-.37,1.98-.37,1.13,0,2.02.28,2.67.84.65.56,1.03,1.3,1.12,2.23h-2.55c-.04-.31-.18-.56-.41-.74s-.54-.27-.91-.27c-.32,0-.57.06-.74.19-.17.12-.26.29-.26.51,0,.26.14.45.41.58.27.13.7.26,1.28.39.67.17,1.21.34,1.63.51.42.17.79.44,1.11.81.32.37.48.87.49,1.49,0,.53-.15,1-.44,1.41-.3.41-.72.74-1.28.98s-1.2.36-1.93.36c-.79,0-1.49-.13-2.1-.4Z"/>
      <path class="cls-4" d="M913.74,229.45c-.32-.45-.48-1-.48-1.65,0-.58.15-1.11.44-1.57.29-.47.72-.84,1.3-1.11.58-.27,1.27-.41,2.09-.41s1.51.14,2.09.41c.58.27,1.01.65,1.31,1.11.3.47.44.99.44,1.57,0,.62-.17,1.17-.5,1.64s-.79.82-1.37,1.04c.67.2,1.2.56,1.59,1.07.39.51.59,1.13.59,1.85s-.17,1.31-.52,1.83c-.34.52-.83.93-1.46,1.21s-1.35.43-2.17.43-1.54-.14-2.16-.43-1.1-.69-1.45-1.21c-.34-.52-.52-1.13-.52-1.83s.19-1.34.58-1.86c.39-.52.92-.87,1.58-1.07-.6-.24-1.07-.58-1.39-1.03ZM915.13,231.69c-.51.37-.76.93-.76,1.67,0,.69.25,1.24.74,1.66.49.42,1.15.63,1.98.63s1.49-.21,1.97-.63.73-.97.73-1.66-.25-1.27-.74-1.66c-.5-.38-1.15-.57-1.95-.57s-1.45.19-1.96.56ZM918.86,226.46c-.43-.36-1.02-.53-1.78-.53s-1.33.18-1.76.53-.65.87-.65,1.53c0,.6.22,1.09.67,1.45.45.37,1.03.55,1.74.55s1.3-.19,1.75-.56c.45-.37.67-.86.67-1.46,0-.66-.21-1.16-.65-1.52Z"/>
      <path class="cls-4" d="M923.19,236.36c-.19-.19-.29-.43-.29-.71s.1-.52.29-.71c.19-.19.43-.29.71-.29s.5.1.69.29.28.43.28.71-.09.52-.28.71-.42.29-.69.29-.52-.1-.71-.29Z"/>
      <path class="cls-4" d="M929.62,232.67c.77-.71,1.43-1.44,1.96-2.21.53-.77.8-1.53.8-2.27,0-.7-.17-1.25-.51-1.66-.34-.4-.89-.61-1.64-.61s-1.3.23-1.7.69c-.4.46-.62,1.07-.65,1.83h-1.42c.04-1.21.41-2.14,1.1-2.79.69-.66,1.58-.98,2.66-.98s1.99.31,2.64.92.98,1.46.98,2.54c0,.89-.27,1.76-.8,2.61-.53.85-1.14,1.59-1.82,2.23-.68.64-1.54,1.39-2.6,2.24h5.56v1.23h-7.77v-1.05c1.37-1.1,2.44-2,3.21-2.71Z"/>
      <path class="cls-4" d="M943.05,226.03l-4.49,10.53h-1.49l4.55-10.38h-6.23v-1.26h7.66v1.11Z"/>
    </g>
    <g id="Heavyweight">
      <path class="cls-3" d="M923.22,366.5v11.34h-2.76v-4.67h-4.3v4.67h-2.76v-11.34h2.76v4.44h4.3v-4.44h2.76Z"/>
      <path class="cls-3" d="M933.65,373.99h-6.25c.04.56.22.99.54,1.28.32.3.71.44,1.17.44.69,0,1.17-.29,1.44-.87h2.94c-.15.59-.42,1.12-.82,1.6-.39.47-.89.85-1.48,1.11s-1.25.4-1.99.4c-.88,0-1.67-.19-2.36-.57-.69-.38-1.23-.92-1.62-1.62-.39-.7-.58-1.52-.58-2.45s.19-1.75.57-2.46c.38-.7.92-1.24,1.61-1.62.69-.38,1.48-.56,2.37-.56s1.65.18,2.33.55c.68.37,1.21.89,1.59,1.57.38.68.57,1.47.57,2.37,0,.26-.02.53-.05.81ZM930.87,372.46c0-.47-.16-.85-.48-1.13-.32-.28-.73-.42-1.21-.42s-.85.13-1.17.4c-.32.27-.51.65-.59,1.15h3.46Z"/>
      <path class="cls-3" d="M935.13,370.88c.35-.7.83-1.24,1.43-1.62.6-.38,1.28-.56,2.02-.56.64,0,1.19.13,1.67.39.48.26.85.6,1.11,1.02v-1.28h2.76v9.01h-2.76v-1.28c-.27.42-.64.76-1.12,1.02-.48.26-1.04.39-1.67.39-.73,0-1.4-.19-2-.57-.6-.38-1.08-.93-1.43-1.63-.35-.71-.53-1.52-.53-2.45s.17-1.74.53-2.44ZM940.78,371.7c-.38-.4-.85-.6-1.4-.6s-1.01.2-1.4.59c-.38.39-.57.93-.57,1.62s.19,1.24.57,1.64c.38.4.85.61,1.4.61s1.01-.2,1.4-.6c.38-.4.57-.94.57-1.63s-.19-1.23-.57-1.63Z"/>
      <path class="cls-3" d="M950.17,375.25l1.96-6.43h2.94l-3.2,9.01h-3.41l-3.2-9.01h2.96l1.95,6.43Z"/>
      <path class="cls-3" d="M965.44,368.83l-5.65,13.29h-2.97l2.07-4.59-3.67-8.71h3.08l2.08,5.64,2.07-5.64h2.99Z"/>
      <path class="cls-3" d="M979.38,368.83l-2.44,9.01h-3.05l-1.42-5.85-1.47,5.85h-3.04l-2.46-9.01h2.76l1.28,6.44,1.52-6.44h2.92l1.53,6.41,1.26-6.41h2.6Z"/>
      <path class="cls-3" d="M988.87,373.99h-6.25c.04.56.22.99.54,1.28.32.3.71.44,1.17.44.69,0,1.17-.29,1.44-.87h2.94c-.15.59-.42,1.12-.82,1.6-.39.47-.89.85-1.48,1.11s-1.25.4-1.99.4c-.88,0-1.67-.19-2.36-.57-.69-.38-1.23-.92-1.62-1.62-.39-.7-.58-1.52-.58-2.45s.19-1.75.57-2.46c.38-.7.92-1.24,1.61-1.62.69-.38,1.48-.56,2.37-.56s1.65.18,2.33.55c.68.37,1.21.89,1.59,1.57.38.68.57,1.47.57,2.37,0,.26-.02.53-.05.81ZM986.09,372.46c0-.47-.16-.85-.48-1.13-.32-.28-.73-.42-1.21-.42s-.85.13-1.17.4c-.32.27-.51.65-.59,1.15h3.46Z"/>
      <path class="cls-3" d="M990.58,367.46c-.31-.29-.46-.64-.46-1.06s.15-.79.46-1.07c.31-.29.7-.43,1.19-.43s.86.14,1.17.43c.31.29.46.64.46,1.07s-.15.77-.46,1.06c-.31.29-.7.43-1.17.43s-.88-.14-1.19-.43ZM993.14,368.83v9.01h-2.76v-9.01h2.76Z"/>
      <path class="cls-3" d="M1000.23,369.08c.48.26.85.6,1.11,1.02v-1.28h2.76v9c0,.83-.16,1.58-.49,2.25-.33.67-.83,1.21-1.5,1.61-.67.4-1.51.6-2.51.6-1.33,0-2.42-.31-3.25-.94s-1.3-1.48-1.42-2.56h2.73c.09.34.29.62.61.82s.72.3,1.2.3c.57,0,1.03-.16,1.36-.49.34-.33.51-.85.51-1.57v-1.28c-.27.42-.64.76-1.11,1.03-.47.26-1.03.4-1.66.4-.74,0-1.42-.19-2.02-.57-.6-.38-1.08-.93-1.43-1.63-.35-.71-.53-1.52-.53-2.45s.17-1.74.53-2.44c.35-.7.83-1.24,1.43-1.62.6-.38,1.28-.56,2.02-.56.64,0,1.19.13,1.67.39ZM1000.77,371.7c-.38-.4-.85-.6-1.4-.6s-1.01.2-1.4.59c-.38.39-.57.93-.57,1.62s.19,1.24.57,1.64c.38.4.85.61,1.4.61s1.01-.2,1.4-.6c.38-.4.57-.94.57-1.63s-.19-1.23-.57-1.63Z"/>
      <path class="cls-3" d="M1014.13,369.75c.62.68.94,1.62.94,2.82v5.27h-2.75v-4.89c0-.6-.16-1.07-.47-1.41-.31-.33-.73-.5-1.26-.5s-.95.17-1.26.5c-.31.33-.47.8-.47,1.41v4.89h-2.76v-11.95h2.76v4.15c.28-.4.66-.72,1.15-.95.48-.24,1.03-.36,1.63-.36,1.03,0,1.86.34,2.49,1.03Z"/>
      <path class="cls-3" d="M1022.01,375.5v2.34h-1.41c-1,0-1.78-.24-2.34-.73-.56-.49-.84-1.29-.84-2.4v-3.59h-1.1v-2.29h1.1v-2.2h2.76v2.2h1.81v2.29h-1.81v3.62c0,.27.06.46.19.58.13.12.34.18.65.18h.99Z"/>
      <path class="cls-3" d="M918.42,394.34v2.34h-1.41c-1,0-1.78-.24-2.34-.73-.56-.49-.84-1.29-.84-2.4v-3.59h-1.1v-2.29h1.1v-2.2h2.76v2.2h1.81v2.29h-1.81v3.62c0,.27.06.46.19.58.13.12.34.18.65.18h.99Z"/>
      <path class="cls-3" d="M923.93,388c.48-.29,1.02-.43,1.62-.43v2.92h-.76c-.69,0-1.21.15-1.55.44-.34.3-.52.82-.52,1.56v4.18h-2.76v-9.01h2.76v1.5c.32-.5.73-.89,1.21-1.17Z"/>
      <path class="cls-3" d="M935.77,387.67v9.01h-2.76v-1.23c-.28.4-.66.72-1.14.96-.48.24-1.01.36-1.59.36-.69,0-1.3-.15-1.83-.46-.53-.31-.94-.75-1.23-1.33-.29-.58-.44-1.27-.44-2.05v-5.27h2.75v4.89c0,.6.16,1.07.47,1.41.31.33.73.5,1.26.5s.96-.17,1.28-.5c.31-.33.47-.8.47-1.41v-4.89h2.76Z"/>
      <path class="cls-3" d="M937.78,389.72c.38-.7.92-1.24,1.6-1.62.68-.38,1.47-.56,2.35-.56,1.13,0,2.08.3,2.83.89.76.59,1.26,1.43,1.49,2.5h-2.94c-.25-.69-.73-1.03-1.44-1.03-.51,0-.91.2-1.21.59-.3.39-.45.96-.45,1.69s.15,1.29.45,1.69c.3.39.71.59,1.21.59.71,0,1.19-.34,1.44-1.03h2.94c-.24,1.06-.74,1.88-1.5,2.49-.76.6-1.71.9-2.83.9-.88,0-1.67-.19-2.35-.57-.68-.38-1.22-.92-1.6-1.62-.38-.7-.57-1.52-.57-2.45s.19-1.75.57-2.46Z"/>
      <path class="cls-3" d="M953.03,396.68l-2.75-3.78v3.78h-2.76v-11.95h2.76v6.61l2.73-3.67h3.41l-3.75,4.52,3.78,4.49h-3.42Z"/>
      <path class="cls-3" d="M959.07,396.41c-.61-.27-1.1-.64-1.45-1.11s-.55-.99-.6-1.57h2.73c.03.31.18.57.44.76.26.19.58.29.95.29.34,0,.61-.07.8-.2.19-.13.28-.31.28-.52,0-.26-.13-.45-.4-.57-.27-.12-.71-.26-1.31-.41-.65-.15-1.18-.31-1.61-.48s-.8-.43-1.11-.79c-.31-.36-.47-.85-.47-1.46,0-.52.14-.99.43-1.41s.71-.76,1.26-1.01c.55-.25,1.21-.37,1.98-.37,1.13,0,2.02.28,2.67.84.65.56,1.03,1.3,1.12,2.23h-2.55c-.04-.31-.18-.56-.41-.74s-.54-.27-.91-.27c-.32,0-.57.06-.74.19-.17.12-.26.29-.26.51,0,.26.14.45.41.58.27.13.7.26,1.28.39.67.17,1.21.34,1.63.51.42.17.79.44,1.11.81.32.37.48.87.49,1.49,0,.53-.15,1-.44,1.41-.3.41-.72.74-1.28.98s-1.2.36-1.93.36c-.79,0-1.49-.13-2.1-.4Z"/>
      <path class="cls-3" d="M916.44,411.64c.77-.71,1.43-1.44,1.96-2.21.53-.77.8-1.53.8-2.27,0-.7-.17-1.25-.51-1.66-.34-.4-.89-.61-1.64-.61s-1.3.23-1.7.69c-.4.46-.62,1.07-.65,1.83h-1.42c.04-1.21.41-2.14,1.1-2.79.69-.66,1.58-.98,2.66-.98s1.99.31,2.64.92.98,1.46.98,2.54c0,.89-.27,1.76-.8,2.61-.53.85-1.14,1.59-1.82,2.23-.68.64-1.54,1.39-2.6,2.24h5.56v1.23h-7.77v-1.05c1.37-1.1,2.44-2,3.21-2.71Z"/>
      <path class="cls-3" d="M922.69,415.33c-.19-.19-.29-.43-.29-.71s.1-.52.29-.71c.19-.19.43-.29.71-.29s.5.1.69.29.28.43.28.71-.09.52-.28.71-.42.29-.69.29-.52-.1-.71-.29Z"/>
      <path class="cls-3" d="M926.82,408.42c-.32-.45-.48-1-.48-1.65,0-.58.15-1.11.44-1.57.29-.47.72-.84,1.3-1.11.58-.27,1.27-.41,2.09-.41s1.51.14,2.09.41c.58.27,1.01.65,1.31,1.11.3.47.44.99.44,1.57,0,.62-.17,1.17-.5,1.64s-.79.82-1.37,1.04c.67.2,1.2.56,1.59,1.07.39.51.59,1.13.59,1.85s-.17,1.31-.52,1.83c-.34.52-.83.93-1.46,1.21s-1.35.43-2.17.43-1.54-.14-2.16-.43-1.1-.69-1.45-1.21c-.34-.52-.52-1.13-.52-1.83s.19-1.34.58-1.86c.39-.52.92-.87,1.58-1.07-.6-.24-1.07-.58-1.39-1.03ZM928.21,410.65c-.51.37-.76.93-.76,1.67,0,.69.25,1.24.74,1.66.49.42,1.15.63,1.98.63s1.49-.21,1.97-.63.73-.97.73-1.66-.25-1.27-.74-1.66c-.5-.38-1.15-.57-1.95-.57s-1.45.19-1.96.56ZM931.94,405.43c-.43-.36-1.02-.53-1.78-.53s-1.33.18-1.76.53-.65.87-.65,1.53c0,.6.22,1.09.67,1.45.45.37,1.03.55,1.74.55s1.3-.19,1.75-.56c.45-.37.67-.86.67-1.46,0-.66-.21-1.16-.65-1.52Z"/>
    </g>
    <g id="Lightweight">
      <path class="cls-6" d="M916.16,438.31h3.62v2.13h-6.38v-11.34h2.76v9.21Z"/>
      <path class="cls-6" d="M921.31,430.06c-.31-.29-.46-.64-.46-1.06s.15-.79.46-1.07c.31-.29.7-.43,1.19-.43s.86.14,1.17.43c.31.29.46.64.46,1.07s-.15.77-.46,1.06c-.31.29-.7.43-1.17.43s-.88-.14-1.19-.43ZM923.87,431.43v9.01h-2.76v-9.01h2.76Z"/>
      <path class="cls-6" d="M930.96,431.69c.48.26.85.6,1.11,1.02v-1.28h2.76v9c0,.83-.16,1.58-.49,2.25-.33.67-.83,1.21-1.5,1.61-.67.4-1.51.6-2.51.6-1.33,0-2.42-.31-3.25-.94s-1.3-1.48-1.42-2.56h2.73c.09.34.29.62.61.82s.72.3,1.2.3c.57,0,1.03-.17,1.36-.49s.51-.85.51-1.57v-1.28c-.27.42-.64.76-1.11,1.03-.47.26-1.03.4-1.66.4-.74,0-1.42-.19-2.02-.57-.6-.38-1.08-.93-1.43-1.63-.35-.71-.53-1.52-.53-2.45s.17-1.74.53-2.44c.35-.7.83-1.24,1.43-1.62.6-.38,1.28-.56,2.02-.56.64,0,1.19.13,1.67.39ZM931.5,434.3c-.38-.4-.85-.6-1.4-.6s-1.01.2-1.4.59c-.38.39-.57.93-.57,1.62s.19,1.24.57,1.64c.38.4.85.61,1.4.61s1.01-.2,1.4-.6c.38-.4.57-.94.57-1.63s-.19-1.23-.57-1.63Z"/>
      <path class="cls-6" d="M944.86,432.36c.62.68.94,1.62.94,2.82v5.26h-2.75v-4.89c0-.6-.16-1.07-.47-1.41-.31-.33-.73-.5-1.26-.5s-.95.17-1.26.5c-.31.33-.47.8-.47,1.41v4.89h-2.76v-11.95h2.76v4.15c.28-.4.66-.72,1.15-.95.48-.24,1.03-.36,1.63-.36,1.03,0,1.86.34,2.49,1.03Z"/>
      <path class="cls-6" d="M952.74,438.1v2.34h-1.41c-1,0-1.78-.24-2.34-.73-.56-.49-.84-1.29-.84-2.4v-3.59h-1.1v-2.29h1.1v-2.2h2.76v2.2h1.81v2.29h-1.81v3.62c0,.27.06.46.19.58.13.12.34.18.65.18h.99Z"/>
      <path class="cls-6" d="M967.21,431.43l-2.44,9.01h-3.05l-1.42-5.85-1.47,5.85h-3.04l-2.46-9.01h2.76l1.28,6.44,1.52-6.44h2.92l1.53,6.41,1.26-6.41h2.6Z"/>
      <path class="cls-6" d="M976.71,436.6h-6.25c.04.56.22.99.54,1.28.32.3.71.44,1.17.44.69,0,1.17-.29,1.44-.87h2.94c-.15.59-.42,1.12-.82,1.6-.39.47-.89.85-1.48,1.11-.59.27-1.25.4-1.99.4-.88,0-1.67-.19-2.36-.57-.69-.38-1.23-.92-1.62-1.62-.39-.7-.58-1.52-.58-2.46s.19-1.75.57-2.46c.38-.7.92-1.24,1.61-1.62.69-.38,1.48-.56,2.37-.56s1.65.18,2.33.55c.68.37,1.21.89,1.59,1.57.38.68.57,1.47.57,2.37,0,.26-.02.53-.05.81ZM973.93,435.06c0-.47-.16-.85-.48-1.13-.32-.28-.73-.42-1.21-.42s-.85.13-1.17.4c-.32.27-.51.65-.59,1.15h3.46Z"/>
      <path class="cls-6" d="M978.41,430.06c-.31-.29-.46-.64-.46-1.06s.15-.79.46-1.07c.31-.29.7-.43,1.19-.43s.86.14,1.17.43c.31.29.46.64.46,1.07s-.15.77-.46,1.06c-.31.29-.7.43-1.17.43s-.88-.14-1.19-.43ZM980.97,431.43v9.01h-2.76v-9.01h2.76Z"/>
      <path class="cls-6" d="M988.07,431.69c.48.26.85.6,1.11,1.02v-1.28h2.76v9c0,.83-.16,1.58-.49,2.25-.33.67-.83,1.21-1.5,1.61-.67.4-1.51.6-2.51.6-1.33,0-2.42-.31-3.25-.94s-1.3-1.48-1.42-2.56h2.73c.09.34.29.62.61.82s.72.3,1.2.3c.57,0,1.03-.17,1.36-.49s.51-.85.51-1.57v-1.28c-.27.42-.64.76-1.11,1.03-.47.26-1.03.4-1.66.4-.74,0-1.42-.19-2.02-.57-.6-.38-1.08-.93-1.43-1.63-.35-.71-.53-1.52-.53-2.45s.17-1.74.53-2.44c.35-.7.83-1.24,1.43-1.62.6-.38,1.28-.56,2.02-.56.64,0,1.19.13,1.67.39ZM988.61,434.3c-.38-.4-.85-.6-1.4-.6s-1.01.2-1.4.59c-.38.39-.57.93-.57,1.62s.19,1.24.57,1.64c.38.4.85.61,1.4.61s1.01-.2,1.4-.6c.38-.4.57-.94.57-1.63s-.19-1.23-.57-1.63Z"/>
      <path class="cls-6" d="M1001.97,432.36c.62.68.94,1.62.94,2.82v5.26h-2.75v-4.89c0-.6-.16-1.07-.47-1.41-.31-.33-.73-.5-1.26-.5s-.95.17-1.26.5c-.31.33-.47.8-.47,1.41v4.89h-2.76v-11.95h2.76v4.15c.28-.4.66-.72,1.15-.95.48-.24,1.03-.36,1.63-.36,1.03,0,1.86.34,2.49,1.03Z"/>
      <path class="cls-6" d="M1009.85,438.1v2.34h-1.41c-1,0-1.78-.24-2.34-.73-.56-.49-.84-1.29-.84-2.4v-3.59h-1.1v-2.29h1.1v-2.2h2.76v2.2h1.81v2.29h-1.81v3.62c0,.27.06.46.19.58.13.12.34.18.65.18h.99Z"/>
      <path class="cls-6" d="M918.42,456.94v2.34h-1.41c-1,0-1.78-.24-2.34-.73-.56-.49-.84-1.29-.84-2.4v-3.59h-1.1v-2.29h1.1v-2.2h2.76v2.2h1.81v2.29h-1.81v3.62c0,.27.06.46.19.58.13.12.34.18.65.18h.99Z"/>
      <path class="cls-6" d="M923.93,450.6c.48-.29,1.02-.43,1.62-.43v2.92h-.76c-.69,0-1.21.15-1.55.44-.34.3-.52.82-.52,1.56v4.18h-2.76v-9.01h2.76v1.5c.32-.5.73-.89,1.21-1.17Z"/>
      <path class="cls-6" d="M935.77,450.27v9.01h-2.76v-1.23c-.28.4-.66.72-1.14.96-.48.24-1.01.36-1.59.36-.69,0-1.3-.15-1.83-.46s-.94-.75-1.23-1.33c-.29-.58-.44-1.27-.44-2.05v-5.26h2.75v4.89c0,.6.16,1.07.47,1.41.31.33.73.5,1.26.5s.96-.17,1.28-.5.47-.8.47-1.41v-4.89h2.76Z"/>
      <path class="cls-6" d="M937.78,452.32c.38-.7.92-1.24,1.6-1.62.68-.38,1.47-.56,2.35-.56,1.13,0,2.08.3,2.83.89.76.59,1.26,1.43,1.49,2.5h-2.94c-.25-.69-.73-1.03-1.44-1.03-.51,0-.91.2-1.21.59-.3.39-.45.96-.45,1.69s.15,1.29.45,1.69c.3.39.71.59,1.21.59.71,0,1.19-.34,1.44-1.03h2.94c-.24,1.05-.74,1.88-1.5,2.49-.76.6-1.71.91-2.83.91-.88,0-1.67-.19-2.35-.57-.68-.38-1.22-.92-1.6-1.62s-.57-1.52-.57-2.46.19-1.75.57-2.46Z"/>
      <path class="cls-6" d="M953.03,459.28l-2.75-3.78v3.78h-2.76v-11.95h2.76v6.61l2.73-3.67h3.41l-3.75,4.52,3.78,4.49h-3.42Z"/>
      <path class="cls-6" d="M959.07,459.01c-.61-.27-1.1-.64-1.45-1.11-.36-.47-.55-.99-.6-1.57h2.73c.03.31.18.57.44.76.26.19.58.29.95.29.34,0,.61-.07.8-.2s.28-.31.28-.52c0-.26-.13-.45-.4-.57-.27-.12-.71-.26-1.31-.41-.65-.15-1.18-.31-1.61-.48s-.8-.43-1.11-.79c-.31-.36-.47-.85-.47-1.46,0-.52.14-.99.43-1.41.29-.43.71-.76,1.26-1.01s1.21-.37,1.98-.37c1.13,0,2.02.28,2.67.84.65.56,1.03,1.3,1.12,2.23h-2.55c-.04-.31-.18-.56-.41-.74-.23-.18-.54-.27-.91-.27-.32,0-.57.06-.74.19-.17.12-.26.29-.26.51,0,.26.14.45.41.58.27.13.7.26,1.28.39.67.17,1.21.34,1.63.51.42.17.79.44,1.11.81.32.37.48.87.49,1.49,0,.53-.15,1-.44,1.41-.3.42-.72.74-1.28.98-.55.24-1.2.36-1.93.36-.79,0-1.49-.13-2.1-.4Z"/>
      <path class="cls-6" d="M913.01,467.79v-1.34h3.04v11.68h-1.49v-10.34h-1.55Z"/>
      <path class="cls-6" d="M918.57,477.93c-.19-.19-.29-.43-.29-.71s.1-.52.29-.71c.19-.19.43-.29.71-.29s.5.1.69.29c.19.19.28.43.28.71s-.09.52-.28.71c-.19.19-.42.29-.69.29s-.52-.1-.71-.29Z"/>
      <path class="cls-6" d="M921.61,475.52v-1.11l5.67-7.85h1.76v7.69h1.62v1.28h-1.62v2.6h-1.45v-2.6h-5.98ZM927.65,468.1l-4.34,6.15h4.34v-6.15Z"/>
    </g>
    <g id="Busses-2" data-name="Busses">
      <path class="cls-5" d="M921.85,497.24c.4.51.6,1.1.6,1.75,0,.95-.33,1.7-.99,2.25-.66.55-1.59.83-2.77.83h-5.28v-11.34h5.1c1.15,0,2.05.26,2.71.79.65.53.98,1.24.98,2.15,0,.67-.17,1.22-.52,1.66-.35.44-.82.75-1.4.92.66.14,1.18.47,1.58.98ZM916.16,495.33h1.81c.45,0,.8-.1,1.04-.3s.36-.49.36-.88-.12-.68-.36-.89c-.24-.2-.59-.31-1.04-.31h-1.81v2.37ZM919.27,499.53c.25-.21.38-.51.38-.91s-.13-.71-.4-.94c-.26-.23-.63-.34-1.09-.34h-2v2.5h2.04c.46,0,.82-.11,1.07-.32Z"/>
      <path class="cls-5" d="M932.94,493.06v9.01h-2.76v-1.23c-.28.4-.66.72-1.14.96-.48.24-1.01.36-1.59.36-.69,0-1.3-.15-1.83-.46s-.94-.75-1.23-1.33c-.29-.58-.44-1.26-.44-2.05v-5.26h2.75v4.89c0,.6.16,1.07.47,1.41.31.33.73.5,1.26.5s.96-.17,1.28-.5c.31-.33.47-.8.47-1.41v-4.89h2.76Z"/>
      <path class="cls-5" d="M936.5,501.8c-.61-.27-1.1-.64-1.45-1.11s-.55-.99-.6-1.58h2.73c.03.31.18.57.44.76.26.19.58.29.95.29.34,0,.61-.07.8-.2s.28-.31.28-.53c0-.26-.13-.45-.4-.57-.27-.12-.71-.26-1.31-.41-.65-.15-1.18-.31-1.61-.48s-.8-.43-1.11-.79c-.31-.36-.47-.85-.47-1.46,0-.52.14-.99.43-1.41.29-.42.71-.76,1.26-1.01.55-.25,1.21-.37,1.98-.37,1.13,0,2.02.28,2.67.84.65.56,1.03,1.3,1.12,2.23h-2.55c-.04-.31-.18-.56-.41-.74s-.54-.27-.91-.27c-.32,0-.57.06-.74.19-.17.12-.26.29-.26.51,0,.26.14.45.41.58.27.13.7.26,1.28.39.67.17,1.21.34,1.63.51s.79.44,1.11.81c.32.37.48.87.49,1.49,0,.53-.15,1-.44,1.41-.3.41-.72.74-1.28.98-.55.24-1.2.36-1.93.36-.79,0-1.49-.13-2.1-.4Z"/>
      <path class="cls-5" d="M952.4,498.23h-6.25c.04.56.22.99.54,1.28.32.3.71.44,1.17.44.69,0,1.17-.29,1.44-.87h2.94c-.15.59-.42,1.13-.82,1.6-.39.47-.89.84-1.48,1.11s-1.25.4-1.99.4c-.88,0-1.67-.19-2.36-.57-.69-.38-1.23-.92-1.62-1.61-.39-.7-.58-1.52-.58-2.46s.19-1.75.57-2.46.92-1.24,1.61-1.62c.69-.38,1.48-.57,2.37-.57s1.65.18,2.33.55c.68.37,1.21.89,1.59,1.57.38.68.57,1.47.57,2.37,0,.26-.02.53-.05.81ZM949.62,496.7c0-.47-.16-.85-.48-1.13-.32-.28-.73-.42-1.21-.42s-.85.13-1.17.4c-.32.27-.51.65-.59,1.15h3.46Z"/>
      <path class="cls-5" d="M955.47,501.8c-.61-.27-1.1-.64-1.45-1.11s-.55-.99-.6-1.58h2.73c.03.31.18.57.44.76.26.19.58.29.95.29.34,0,.61-.07.8-.2s.28-.31.28-.53c0-.26-.13-.45-.4-.57-.27-.12-.71-.26-1.31-.41-.65-.15-1.18-.31-1.61-.48s-.8-.43-1.11-.79c-.31-.36-.47-.85-.47-1.46,0-.52.14-.99.43-1.41.29-.42.71-.76,1.26-1.01.55-.25,1.21-.37,1.98-.37,1.13,0,2.02.28,2.67.84.65.56,1.03,1.3,1.12,2.23h-2.55c-.04-.31-.18-.56-.41-.74s-.54-.27-.91-.27c-.32,0-.57.06-.74.19-.17.12-.26.29-.26.51,0,.26.14.45.41.58.27.13.7.26,1.28.39.67.17,1.21.34,1.63.51s.79.44,1.11.81c.32.37.48.87.49,1.49,0,.53-.15,1-.44,1.41-.3.41-.72.74-1.28.98-.55.24-1.2.36-1.93.36-.79,0-1.49-.13-2.1-.4Z"/>
      <path class="cls-5" d="M914.31,510.62c.6-1.04,1.66-1.56,3.17-1.56s2.55.52,3.15,1.56c.6,1.04.9,2.48.9,4.34s-.3,3.35-.9,4.39c-.6,1.04-1.65,1.57-3.15,1.57s-2.56-.52-3.17-1.57c-.6-1.04-.91-2.51-.91-4.39s.3-3.3.91-4.34ZM919.88,512.58c-.12-.65-.38-1.18-.76-1.57s-.93-.6-1.66-.6-1.29.2-1.67.6c-.38.4-.63.92-.76,1.57s-.19,1.45-.19,2.38.06,1.78.19,2.44c.12.66.38,1.18.76,1.58.38.4.94.6,1.67.6s1.27-.2,1.66-.6c.38-.4.64-.93.76-1.58.12-.66.19-1.47.19-2.44s-.06-1.73-.19-2.38Z"/>
      <path class="cls-5" d="M923.54,520.73c-.19-.19-.29-.43-.29-.71s.1-.52.29-.71c.19-.19.43-.29.71-.29s.5.1.69.29c.19.19.28.43.28.71s-.09.52-.28.71c-.19.19-.42.29-.69.29s-.52-.1-.71-.29Z"/>
      <path class="cls-5" d="M926.55,510.58v-1.34h3.04v11.68h-1.49v-10.34h-1.55Z"/>
      <path class="cls-5" d="M934.74,519.21c.39.33.92.5,1.59.5.89,0,1.55-.35,1.98-1.05.43-.7.63-1.88.61-3.54-.23.48-.6.86-1.13,1.14s-1.11.41-1.76.41c-.72,0-1.36-.15-1.93-.44s-1.01-.73-1.33-1.3c-.32-.57-.48-1.26-.48-2.07,0-1.15.33-2.08,1-2.79.67-.71,1.61-1.06,2.84-1.06,1.51,0,2.57.49,3.17,1.47.61.98.91,2.44.91,4.38,0,1.36-.12,2.48-.36,3.36-.24.88-.65,1.56-1.23,2.02-.58.46-1.37.7-2.37.7-1.1,0-1.95-.3-2.57-.89-.61-.59-.96-1.35-1.05-2.26h1.36c.11.61.36,1.09.75,1.42ZM938.05,514.76c.46-.45.7-1.05.7-1.82,0-.81-.23-1.46-.68-1.95s-1.09-.74-1.91-.74c-.75,0-1.35.24-1.8.71-.45.47-.67,1.1-.67,1.87s.22,1.42.66,1.89c.44.47,1.08.71,1.92.71.72,0,1.31-.22,1.78-.67Z"/>
    </g>
  </g>
</svg>