<?xml version="1.0" encoding="UTF-8"?>
<svg id="Lager_1" xmlns="http://www.w3.org/2000/svg" version="1.1" viewBox="0 0 1655.86 667.11">
  <!-- Generator: Adobe Illustrator 29.4.0, SVG Export Plug-In . SVG Version: 2.1.0 Build 152)  -->
  <defs>
    <style>
      .st0 {
        fill: #595959;
      }

      .st1 {
        stroke-width: .28px;
      }

      .st1, .st2, .st3, .st4, .st5 {
        stroke-miterlimit: 10;
      }

      .st1, .st2, .st5 {
        fill: none;
      }

      .st1, .st5 {
        stroke: #595959;
      }

      .st6 {
        fill: #db790f;
      }

      .st7 {
        fill: #778e51;
      }

      .st2 {
        stroke: #db790f;
        stroke-width: 2px;
      }

      .st3 {
        fill: #fefefe;
      }

      .st3, .st4 {
        fill-rule: evenodd;
        stroke: #3d3d3d;
        stroke-width: .5px;
      }

      .st4 {
        fill: #fff;
      }

      .st5 {
        stroke-width: 1.42px;
      }

      .st8 {
        display: none;
      }

      .st9 {
        fill: #4c4c4c;
      }
    </style>
  </defs>
  <g id="Plan_1">
    <path class="st1" d="M0,191.25c1.42.68,2.72,1.76,4.25,2.07.88.17,3.86,1.39,4.96,1.64,3.23.79,6.8-.65,9.64,1.25,3.17,2.13,6.92,3.66,10.4,5.22,1.79.79,2.55,1.28,3.2,2.98.57,1.47-2.55,3.66,1.05,4.08,2.69.31,5.3,4.2,8.7,4.34,3.54.14,5.19-2.61,8.16-2.83l11.74-.94c4.93-.4,3.23-7.43,6.58-7.57.4-.03,8.84.37,9.58.65,4.08,1.56,8.16,3.12,12.22,4.68,4.37,1.67,6.89,4.42,8.99,8.73,2.86,5.84,6.83,11.06,10.23,16.58,2.27,3.66,4.37,7.17,9.04,7.37,4.14.2,7.8-1.98,9.98,2.49.28.6.6,4.2.91,4.71,1.45,2.27,3.54,4.03,5.3,6.01,3.15,3.57,1.67,7.71,6.12,10.52,3.37,2.13,3.66,6.58,5.87,9.72,1.22,1.73,2.83,5.92,4.2,7.94,1.22,1.81,3.4,2.13,4.56,3.86,1.76,2.64.85,6.43,2.86,9.55,2.21,3.4,3.83,5.39,5.47,9.24,2.49,5.84,7.37,18.94,14.03,21.29,3.54,1.25,7.06,2.49,10.6,3.74,2.24.79,3.94,4.99,5.87,6.52.45.37.34-.14.4.06.94,3.03,8.02,3.74,10.01,1.28,1.25-1.53,3.32-.23,4.76.37,1.64.68,4.11-.11,5.33-.11,1.62.03,7.88,3.63,7.99,5.75l.34,6.12c.06,1.22,3.32,5.16,3.49,5.41.74,1.22,1.42,2.52,2.35,3.63,1.3,1.47,2.01,3.69,4.08,4.39,4.93,1.73,8.73,8.62,13.8,10.54,5.92,2.24,9.04,7.34,14.51,10.69,1.39.85,4.9,2.58,6.41,3.46,3.37,1.93,8.16.96,10.69,4.73,1.3,1.96,1.53,3.32,3.34,5.02,1.42,1.3,3.91.82,5.67,1.11,2.72.45,5.27,2.18,7.74,3.49,2.72,1.45,3,5.47,5.16,7.88,2.41,2.69,4.14,4.62,7.54,6.43,2.27,1.22,4.96,1.73,7.4,2.47,4.28,1.3,7.06,2.38,11.51,2.95,3.6.45,7.2-.45,10.71-1.11,2.3-.43,4.22,2.52,6.04,3.88,4.62,3.43-1.19,6.55,1.81,10.54,1.47,1.98,5.3,1.42,7.54,1.79,2.52.43,4.68,1.9,6.35,3.91,2.1,2.58,2.47,6.01,4.56,8.25,1.87,1.98,3.03,2.78,4.37,5.27,3.88,7.37,13.27,3.12,15.31,13.41.4,2.04,1.9,3.74,3.29,5.44,2.18,2.72,5.67,3.17,7.71,6.46,1.25,1.98,2.47,4,3.71,5.98.71,1.16,1.64,1.42,2.66,1.5"/>
    <path class="st1" d="M0,244.31c.68,1.13,1.45,2.21,2.01,3.37.2.4.31,2.44.23,2.64-.54,1.25-.03,4.42.71,5.39.88,1.13,0,3.46.37,4.08.03.06,0,.48-.03.54-.4.88.06,3.09.4,3.97,1.02,2.47,2.49,4.71,3.74,7.03.99,1.87,1.25,3.23,1.25,5.39,0,3,1.64,5.13,2.41,8.02.74,2.89,4.11,3.74,3.88,7.11-.09,1.33-.23,2.32.2,3.69.79,2.55.31,3.74.51,6.26.11,1.39,1.87,2.3,2.64,3.37.6.82,1.25,2.15,1.64,3.09.71,1.56,2.55,2.75,2.95,4.25.31,1.25.62,3.74.57,4.9-.09,2.47-.71,6.04.94,8.16.57.74,1.45,1.28,2.04,1.98.99,1.22.4,3.12,1.7,4.59.45.51,1.19,2.04,1.45,2.75.68,1.79,2.3,2.49,2.81,4.42.54,2.07-1.59,5.39-3.32,6.18-3.26,1.5-4.99,5.05-6.63,8.11-1.39,2.64-2.81,5.61-5.64,6.89-3.12,1.39-3.94,5.07-5.5,7.74-.68,1.13-1.33,2.72-2.52,3.46-1.36.85-3.15.03-4.45,1.11-.68.6-.91,1.39-1.79,1.59-.4.09-.77.14-1.11.4-.37.28-.74.71-1.08,1.02-.2.17-.26.45-.37.68"/>
    <path class="st1" d="M29.62,334.94c1.7.91,3.51,1.59,5.07,2.75,2.55,1.87,6.72,1.25,9.92,1.25,3.51,0,5.87-2.58,8.76.11,3.51,3.29,10.23,4.73,14.83,5.92,2.15.57,3.77,2.21,5.78,2.83,1.28.4,4.22-2.3,5.7-2.27,3.09.06,5.9-.09,7.91-2.41,1.59-1.81,3.17-3.66,4.76-5.47,1.33-1.53.54,2.75.54,3.8,0,3.23,1.98,18.62,6.89,17.94,1.39-.2,1.9-1.73,3.77-1.36,3.51.68,4.56,0,7.8-1.05,2.69-.88,3.49.77,5.58,2.1,1.16.74,5.27,4.14,6.58,4.34,3.09.45,5.36-3.6,9.18-.57,1.9,1.5,6.55,1.45,8.08,3.15,1.84,2.04,1.36,5.33,2.07,7.99.79,3.12,4.2,3.51,4.37,7.57.11,2.41.03,4.25.6,6.6,1.02,4.14.03,6.12-.71,9.95-.82,4.28,3.03,7.11,2.04,11.76-.45,2.15,1.56,5.24,2.32,7.31l4.42,11.99c.62,1.67,1.28,2.92.82,4.71-.4,1.53-1.08,4.25-.14,5.64,2.35,3.49.94,5.61,4.96,8.84,1.93,1.53,3,4.11,5.07,5.9,3.29,2.83,5.19,6.43,9.04,8.73,3.63,2.15,8.76,3.63,11.82,6.43.99.88,2.21,1.47,3.32,2.21"/>
    <path class="st1" d="M0,487.21c.88.34,1.87.43,2.61,1.02,2.83,2.32,1.16,6.07,1.98,9.3.43,1.64,1.67,2.66,1.22,4.48-.54,2.15-1.28,3.15-.54,5.39.79,2.44,1.73,4.42,1.73,7.03,0,1.59.09,3.97-1.05,5.19-2.47,2.66-2.47,7.99-2.52,11.48,0,.54-.2,2.89,0,3.88.23,1.19,1.02,2.27.77,3.49-.91,4.68,2.55,7.37-.51,11.57-1.73,2.38-1.22,5.81-1.53,8.87-.23,2.47,1.33,4.39,1.96,6.77.91,3.37-2.49,6.26-.94,9.21,1.36,2.58-.94,5.24-.94,7.68"/>
    <path class="st1" d="M0,585.29c.34.54.74,1.08,1.05,1.64.82,1.5.31,3.12.65,4.85.2,1.11.4,1.96,1.08,2.92.43.6,1.22,1.05,1.45,1.76.48,1.42.54,2.92.85,4.39.43,2.07,1.3,3.37,2.24,5.13,1.11,2.13,3.2,3.51,4.56,5.47,1.79,2.58-.57,8.76-1.05,11.65-.45,2.72.03,4.82,1.05,6.77.79,1.53,1.7,3.2,3.2,4.59,2.35,2.18,3.8,4.54,7.03,5.98,2.15.96,4.22.43,6.15,2.21,2.38,2.21,1.64,6.15,2.27,9.13.68,3.37,2.81,6.32,3.03,9.92.11,1.76.65,3.46.99,5.19"/>
    <path class="st1" d="M0,636.77c.77-.62,1.5-1.3,2.32-1.87.74-.51,1.59-.62,1.81-1.59.4-1.56,1.11-3.46,2.86-3.88,1.76-.45,3.09.79,4.85.48"/>
    <path class="st1" d="M195.76,89.17c.71,1.39,1.25,2.86,2.13,4.17.79,1.16,1.96,2.04,2.83,3.15.43.54,2.35,3.83,2.58,4.2,1.05,1.87,1.45,3.51,1.62,5.24.17,1.47.28,4.68.91,5.92,1.33,2.69,1.42,4.68,1.59,7.71.17,3.54.57,6.52,2.18,9.81,1.59,3.15,4.54,2.1,7.29,2.24,2.52.11,3.23,2.86,6.35,2.41,3.69-.54,5.22,2.98,9.52,2.32,4.25-.62,7.34,1.28,10.35,4.17,1.79,1.73,4.11,3.2,5.58,5.36,2.13,3.12,4.11,5.75,7.63,7.31,1.25.57,2.61.62,3.66,1.64.74.77,1.59,3,2.69,3.23"/>
    <path class="st1" d="M292.85,153.77c.09,1.28.09,2.55.23,3.8.34,2.95,7.34.85,9.04.6,5.58-.82,12.25,2.47,16.87,5.3,2.86,1.76,5.41,2.75,8.79,2.75s5.75,1.25,8.79,2.64c3.94,1.81,7.82,3.4,11.74.57,5.78-4.17,12.73-1.28,18.2,1.73,1.81.99,4.37,1.02,5.22,3.32.34.94.65,1.9,1.02,2.81.31.74.43,1.64,1.02,2.21,3.17,2.95,5.61,1.93,9.67,1.45.2-.03,1.81-.28,3.69.06,4.99.96,13.24,2.64,16.33,6.77,1.98,2.64,2.47,4.82,5.84,5.84,2.83.88,5.22,2.69,5.67,5.53.34,2.13,2.92,10.2,4.2,12.36,1.73,2.95,6.21,3.63,9.3,3.12,2.49-.43,5.87-2.92,8.05-2.55,4.68.82,6.97-3.12,10.97-3.74,4.08-.65,6.46,2.32,8.93,5.02,1.59,1.73,3.88,4.31,4.48,6.58.88,3.26.09,6.43,1.59,9.64,1.45,3.06-.82,6.46-1.45,9.58-1.56,7.6,2.75,9.86,9.01,12.39,2.92,1.16,6.43,2.52,7.09,5.92.68,3.49-1.3,5.58,1.98,8.84.23.2.68.68.71.85.28,1.36,1.96,5.33,2.78,6.58,1.05,1.62,2.04,1.98,2.04,4,0,3.23-1.45,5.05-.23,8.42.43,1.22.6,2.69.37,3.97-.28,1.56.71,2.81,1.39,4.05,1.25,2.3,3.37,7.06,3.06,9.67-.2,1.73-2.1,2.75-2.47,4.65-.31,1.67.45,6.21.94,7.91.48,1.73-.03,1.56-.03,3.2s1.25,2.52,2.07,3.69c.45.65,1.13,1.13,1.7,1.7,3.43,3.43,7.71,6.32,10.74,10.09,3.26,4.05,3.46,4.37,4.11,9.55,1.53,11.88,15.28,1.93,20.15,7.14.68.71,1.64,1.9,2.3,2.78,2.58,3.43,4.99,7.14,9.92,7.14"/>
    <path class="st1" d="M234.54,439.87c1.08,1.47,2.92,2.61,3.26,4.42.96,5.13.82,8.93-2.1,13.66-2.61,4.25-2.95,9.47.06,13.66,1.42,1.96,2.95,6.38,3.12,8.87.11,1.62.74,3.69.48,5.36-.4,2.38,1.11,4.51,1.7,6.63.82,3.03.71,5.9,2.49,8.59,1.11,1.67,2.32,4.85,2.44,6.83.09,1.56,1.11,2.89,1.62,4.25.26.68.71,3.09.68,3.51-.06.57-.54,3.91-.54,4.68,0,2.38,2.07,6.01.94,7.8-1.79,2.81-1.64,5.87-3.17,9.13-.6,1.28-1.62,2.49-1.7,4-.11,2.38.34,4.54.34,6.89,0,2.55-.91,4.82-1.42,7.29-.99,4.88-2.24,8.05-1.64,13.32.51,4.65,1.11,10.06,2.1,14.63.31,1.42.99,2.52.99,4.25,0,5.73,1.73,10.69-3.94,14.14-4.48,2.75-2.98,7.2-2.95,11.65,0,.14.03.48.11.65.54,1.13.74,5.02,1.11,6.52.91,3.74,1.08,7.4,3.06,10.94,1.98,3.49,3.77,7.06,5.92,10.46.17.26,1.25,1.76,1.47,2.49,1.36,4.11,1.96,7.03,1.96,11.31,0,2.86-1.56,5.39-1.56,8.56v2.58"/>
    <path class="st1" d="M379.84,516.95c-1.28,1.64-3,3-3.83,4.9-1.81,4.31-6.6,7.2-8.45,11.88-1.25,3.17,1.39,5.02,1.25,7.85-.14,2.86-.11,5.75-.4,8.59-.2,2.01-1.3,4.76-2.66,6.35-2.21,2.61-6.52,5.36-6.86,8.84-.4,4.22-.51,7.54-1.62,11.74-.54,2.01-1.05,5.92-2.07,7.85-1.16,2.21.14,4.05-.51,6.01-.48,1.47-1.36,2.35-1.76,4.05-.82,3.51-4.08-.2-5.84,2.61-1.64,2.58-3.34,4.62-6.09,6.46-.94.62-1.45,1.98-2.52,2.75-2.15,1.5-6.21,1.05-7.37,3.46-.31.62.48,1.13.06,1.81-.91,1.56-2.44,2.41-2.44,4.42,0,1.13.77,2.1,1.25,3.12.99,2.1.17,3.77,2.13,5.56,1.05.96,2.3,2.38,2.3,4.34.03,5.3,1.11,11.31-.17,16.47-.28,1.11-.2,2.49.28,3.66.28.68.74,1.3,1.36,1.73,1.62,1.13,2.38,4.2,3.2,5.95.4.88.85,1.79,1.53,2.64.74.96,2.01,2.15,3.06,2.75,1.16.62,3.43,1.64,3.77,3.12.09.37.31.71.48,1.08"/>
    <path class="st1" d="M326.98,666.93c1.11-.62,2.27-1.19,3.34-1.9.91-.62,1.76-1.16,1.76-2.41,0-2.21-.4-3.43.71-5.44.4-.74.03-1.84.03-2.64,0-1.64,1.05-3.46,1.76-4.85"/>
    <path class="st1" d="M415.62,546.85c.99.88,1.7,2.27,2.98,2.64,1.47.43,4.11.71,5.75,1.02,1.47.28,2.95.54,4.42.82,2.27.43,4.08,1.47,5.92,2.69,1.11.74,3.26,2.55,4.42,3.43,2.61,1.93,3.77,4.96,5.24,7.63,2.24,4.08,3.74,9.78,7.4,12.87,1.28,1.08,2.13,2.32,3.57,3.32,2.04,1.42,3.17,2.58,4.59,4.65,1.9,2.75,5.02,4.11,7.26,6.12,2.66,2.38,7.06,4.45,9.33,7.11,1.05,1.22,2.21,4.08,2.98,5.61,1.13,2.3,1.87,4.96,1.98,7.51.09,1.87.85,5.87,1.76,7.51,2.86,5.19,7,3.94,10.43,7.65,1.62,1.73,1.19,3.86,2.04,5.81.88,2.07,2.78,3.66,4.51,5.1,2.01,1.73,2.66,3.63,3.46,6.29.74,2.55,1.98,4,1.79,6.18-.06.51-.17,1.05-.4,1.64-1.16,3.06-.82,7.31-1.56,10.63-.28,1.33.82,2.58,1.25,3.88"/>
    <path class="st1" d="M505.42,650.77c2.64.03,5.27.09,7.91.11"/>
    <path class="st1" d="M531.24,666.93c-.54-.43-1.13-.77-1.62-1.25-1.25-1.16-3.69-1.33-5.13-2.24-1.36-.85-2.66-1.13-4.08-1.81-2.04-1.02-6.43-4.71-6.55-7.17-.06-1.19-.45-2.35-.54-3.54-.11-1.73-.57-3.46.03-5.05.96-2.55,8.53-4.2,10.94-5.36,4.05-1.96,8.36-.94,12.7-1.25.54-.03,1.05,0,1.59,0"/>
    <path class="st1" d="M391.24,666.93c.57-.85,1.05-1.79,1.73-2.58.54-.62,2.18-1.22,2.52-1.9,1.16-2.21,3.12-5.95,5.33-7.17,2.07-1.16,5.07-2.44,6.8-4.22,1.62-1.67,5.44-2.83,5.84-5.27.26-1.53-1.22-3.37-.14-4.65,1.33-1.56,2.13-3.26,2.86-5.1,1.19-2.95,5.56-3.97,6.32-7.2.45-1.84-2.98-4.25-1.96-5.95,2.35-4,2.81-7.29,7.26-9.13,2.32-.96,4.05-.82,6.21-2.3,2.47-1.67,2.92-1.59,5.67-2.3,1.73-.45,2.07-2.1,3.06-3.37,4.51-5.67,14.54-6.86,20.07-10.63,3.09-2.1,7.03-1.81,9.69-4.51,3-3.03,2.78-8.28,5.92-10.8,1.59-1.28.65-2.07,1.05-3.37.37-1.19,1.84-1.9,2.32-3.15.37-.88.2-2.27.85-2.92,3-3,6.09-4.76,6.38-9.47.09-1.3.48-2.72.57-4.05.14-1.76-.79-3.46-.6-5.27.26-2.38.68-3.26,1.62-5.56.71-1.7.65-2.92,1.73-4.37,3-4.03.82-10.12,1.39-14.74.4-3.37-.65-8.93-1.22-12.25-.85-5.13,1.79-8.96,3.86-13.46.6-1.28,2.04-1.93,3.06-2.92"/>
    <path class="st1" d="M422.5,628.8c.54.85,1.36,1.59,1.59,2.58.37,1.45,3.91,6.29,5.41,6.66,2.38.6,2.95.03,4.28,2.47,1.13,2.01,3.91,3.74,5.36,5.9,1.96,2.83,5.02,4.37,7.11,7.23,1.59,2.15,2.27,4.93,4.17,7.06,1.81,2.07,4.79,3.06,6.32,5.39.2.31.51.54.77.82"/>
    <path class="st1" d="M401.19,486.14c.79-1.28,1.53-2.58,2.41-3.8,1.11-1.5.62-4.51,1.53-6.32.99-1.98,2.72-2.64,4.62-3.32,3.49-1.25,3.97-4.31,7.43-5.64,5.7-2.21-.37-4.73.65-7.54.06-.17,0-.31.03-.48.31-1.02-.85-4.85-.88-6.29-.06-3.43-.14-6.86-.2-10.29-.03-1.81-.09-3.86-.45-5.61-.4-1.96-1.13-3.91-.85-6.01.71-4.99-.91-6.55-3.4-10.49-1.13-1.79-2.89-3.69-3.32-5.84-.45-2.41-.94-7.09.34-9.21,1.5-2.49,3.29-1.33,3.74-5.02.4-3.17,1.96-1.79,2.81-3.49.68-1.36.88-3.51,1.81-4.71,1.3-1.64,3.66-2.1,4.22-4.48.54-2.32-1.16-5.33.88-7.23.94-.88,4.22-2.69,4.99-3.71,1.3-1.79.45-4.45,1.87-5.95,2.61-2.81,1.87-4.17,1.56-7.68-.28-3.4-.14-7.29-.54-10.54-.57-4.76,1.59-8.93,1.59-13.66,0-7.2,9.3-6.83,10.6-12.42,1.47-6.35,6.69-4.56,12.05-5.95,3.54-.91,4.34,1.56,7.11,2.66,2.58,1.02,7.57,1.02,10.09,0,.6-.23,3.83-.11,4.76-.4,1.42-.43,2.95-1.79,4.37-1.79,3.26,0,3.34-1.5,5.47-3.34,2.75-2.35,6.52,1.56,9.69,1.42,5.24-.26,10.49-.37,15.73-.74,5.19-.37,10.71,1.19,14.91,4.37,1.67,1.28,3.34,2.52,4.99,3.8,1.53,1.16,2.95,3.12,4.76,3.8.68.26,1.3.6,1.96.88"/>
    <path class="st1" d="M405.98,89.17c.48.57,1.13.99,1.42,1.67.77,1.81,1.02,2.35.54,4.39-.28,1.16-.94,2.44-.82,3.66.17,1.84,1.13,3.8.4,5.73-.34.88-1.11,1.42-1.42,2.3-.43,1.19-.88,2.35-1.3,3.54,0,.03-.09.34-.11.45-.09,2.49-.82,4.22.91,6.75,1.08,1.56.11,4.73,1.39,5.95,1.36,1.3,2.04,5.44,2.47,6.83,1.33,4.31,2.27,4.65,5.78,7.37,5.47,4.28,9.27,9.13,13.52,14.8,1.59,2.1,5.56,6.18,6.15,8.5,1.08,4.34-8.7,2.01-9.01,5.05-.57,5.19,5.81,8.93,4.73,14.34-1.28,6.43,3.49,9.89,8.05,13.83,2.47,2.15,3.8,5.33,5.7,7.99,1.11,1.56,1.96,2.69,3.94,2.58,4.08-.23,7.4,2.32,11.51,3.09,5.84,1.08,10.4,2.35,16.55,3.37,5.24.88,5.81,2.64,11.34,1.45,3.63-.77,4.05-1.16,7.63.28,4.11,1.64,8.08.43,12.05,1.93,4.25,1.62,8.7,2.78,12.73,4.85,2.86,1.45,5.33,1.79,8.28,2.24,1.42.23,2.49.4,3.83.91,1.64.62,3.32,1.79,4.93,2.38.51.17.94.51,1.42.74"/>
    <path class="st1" d="M499.46,498.27c-2.38.11-4.79.2-7.17.34-1.64.11-3.32.11-4.96.4-1.93.34-3.86.71-5.67,1.42-2.83,1.13-4.65,3.37-7.82,3.71-1.45.17-10.54-.03-11.57-.68-.11-.09-.26.09-.4.06-3.8-.26-6.49-2.07-10.69-1.96-4.51.11-5.81-1.42-9.69-2.92-2.21-.85-3.88-.34-6.12-.2-3.34.2-5.95-.65-9.16-1.62-2.98-.91-6.04-1.64-8.96-2.75-2.89-1.08-5.95-.77-8.31-2.32-2.01-1.36-2.64-3.88-4.71-5.05-1.02-.57-2.92-1.59-3.09-.6-.28,1.53.94,4.85.57,6.35-.43,1.67-1.47,2.47-2.49,3.74-1.59,1.96.2,3.51-2.32,5.27-1.73,1.19-2.21,3.49-2.47,5.53-.2,1.59-.23,2.98-2.04,3.71-2.15.91-.99,3.88-4.03,4.9-2.86.96-5.22.68-4.9,2.49.11.62.54,1.53,1.39,2.81,2.75,4.22,6.04,9.33,10.52,11.85,1.56.88,3.51,2.41,5.1,3.32,3.06,1.76,6.09,3.51,9.16,5.27,1.45.82,4.65,4.85,5.78,5.22.11.03.11.17.2.23"/>
    <path class="st1" d="M0,584.53c.74-.65,1.45-1.36,2.24-1.98,1.87-1.53,2.55-.65,3.83,1.08,1.5,2.07,3.63,1.9,5.87,1.98,3.06.14,6.92,3.54,10.2,4.22,2.83.6,5.05.51,7.63,1.93,4.62,2.52,4.65-2.55,4.79-6.15.11-2.35,1.93-2.44,2.69-4.25,1.13-2.66,1.87-2.66,4.56-3.37,2.44-.65,1.81,1.25,3.15-2.69.62-1.87,1.33-3.26,3-4.42,1.33-.91,1.87.77,3.29.23,3.17-1.16,2.52-2.81,6.01-.85,3.2,1.79,3.88,4.76,5.87,7.54.74,1.02.99,2.52,2.04,3.29,1.08.79,1.93,2.01,3.2,2.41,2.55.77,4.82,1.96,6.8,4,2.52,2.61,3.97,8.96,8.42,8.96,1.64,0,3.09-1.13,4.76-1.36,2.89-.4,6.83,2.27,10.2,2.27,3.77,0,7-1.42,9.86-.03.88.43,1.7,1.13,2.49,2.21,1.08,1.45.77,2.81.77,4.51,0,2.24.96,3.94,1.98,5.84.28.54.85,1.13.99,1.7.2.94,3.15,5.75,3.69,7.17,1.16,3.03.06,6.41,1.22,9.75,1.13,3.2,2.13,5.58,2.75,8.96.68,3.74,3.66,10.32,2.86,14.09-.37,1.76-1.19,3.34-1.56,5.19-.51,2.52.34,4.9.34,7.46v2.83"/>
    <path class="st1" d="M108.4,597.28c.23-1.19.23-2.47.68-3.6.74-1.79,1.36-2.81,1.81-4.71.74-3,2.13-6.07,1.45-9.27-.6-2.81-1.3-7.6-.06-10.26,1.36-2.95.77-4.71,3.77-7,3.71-2.83,6.18-7.88,9.04-11.51,3.23-4.08,7.54-7.97,11.62-11.31,1.13-.94,1.56-2.3,1.9-3.91.68-3.26-.82-5.53,1.62-7.99,1.98-2.01,1.7-2.49,2.32-5.02,1.96-7.91,10.52-.03,13.52-7.11,1.42-3.34,1.08-4.62,5.61-5.13,7.34-.82,5.41-7.34,9.86-11.2,4.11-3.57,1.79-6.97,5.3-11,2.15-2.47,1.33-5.78,5.3-7.31,3.88-1.5,3.46-2.47,4.96-5.98.82-1.96,1.96-2.47,3.66-3.46,1.25-.71,1.7-1.84,2.52-2.95,1.05-1.36,3.34-1.79,4.62-3.09,1.42-1.42,2.3-2.98,3.4-4.54.74-1.05.85-4.25,1.47-5.75,1.7-4,1.79-9.92,5.27-12.87,4.68-3.91,15.76-2.32,21.12-1.02,3.03.74,4.25-.11,5.33-1.5.71-.94,1.36-2.13,2.41-3.2,1.76-1.76,4.96-.91,7.03-3.03,3.23-3.37,5.7,1.02,8.96.71,1.56-.14,2.38-1.59,4.2-1.53,9.58.37,2.32-8.87,8.48-10.77,5.13-1.59,8.31-3.34,7.94-8.96-.23-3.49,3.69-5.64,5.33-7.94,1.25-1.73,0-4.39,1.22-6.01,1.59-2.1,7.06-.51,7.26-3.15.11-1.62.26-3.23.37-4.85.14-1.67.74-3.51,1.25-5.05.54-1.59,1.3-4.62,1.59-6.32.28-1.84,1.76-3.32,1.42-5.27-.2-1.13-1.25-2.69-.23-3.74,3.6-3.83.82-8.5,3.4-12.27,2.24-3.23,4.51-10.52,2.86-14.17-1.05-2.32-1.81-4.65-.2-7s1.7-5.07,3.03-7.57c2.38-4.39,2.92-10.15,5.67-14.34,2.92-4.45,5.58-9.1,8.79-13.35,2.55-3.43,4.71-10.6,2.32-14.46-1.36-2.21-2.92-3.34-1.87-6.15.99-2.64.43-4.62.17-7.31-.26-2.66-1.13-4.56-2.13-7.14-1.11-2.86.06-4.03.06-6.83,0-2.21-.6-6.26-1.81-8.08-1.39-2.1-3.37-4.37-4.17-6.77-.74-2.24-2.55-4.71-4.25-6.29-3-2.78-6.01-7.37-7.88-11.08-1.22-2.41-2.04-3.2.54-4.65,1.47-.82.99-4.39,1.53-5.78.65-1.73-.11-4.51-.68-6.07-.74-2.01-1.59-3.94-1.93-6.07-.54-3.23-.71-4.76-2.81-7.37-1.9-2.32-1.59-5.53-2.04-8.36-.43-2.72-1.08-5.07-2.75-7.31-3.43-4.59-1.7-7.51-1.7-12.56,0-5.56-5.58-6.92-9.84-8.67-.14-.06-.4.09-.48-.06-.37-.74-8.99-.48-10.37-.77-2.89-.6-3.86-1.33-2.66-2.18.43-.31,1.13-.62,2.1-.96,2.58-.88,5.16.48,7.71-.85,4.9-2.58,8.93-3.86,14.49-4.08,1.96-.09,3.86.77,5.9,1.64,2.01.88,4.14,2.07,6.41,1.79,1.42-.2,4.11-.45,5.7-.65l10.46-1.19c1.81-.2,4.68,2.27,5.64-.11.45-1.11,1.3-2.92,2.44-3.34,2.89-1.11,1.45-3.46,3.17-5.19.88-.88,1.76-.77,2.13-2.21.34-1.42.4-3.12.51-4.54.23-2.55-.48-5.07-.71-7.63-.09-1.05-.09-1.93-.31-2.92-.17-.74-.94-1.36-1.19-1.76-.09-.14-.34-.03-.43-.14-.2-.2-2.07.2-2.52.14-.91-.11-1.36-.85-1.56-1.64-.37-1.47-2.83-.99-3.94-2.47-.68-.91-1.36-1.81-2.04-2.69-.88-1.16-.57-2.69-1.05-3.91-.82-2.1-1.39-4.25-2.1-6.41-.45-1.36-1.28-2.69-2.07-3.86-1.42-2.07-1.08-4.34-1.96-6.49-.88-2.13-3.09-3.06-3.86-4.9-.6-1.47-1.05-3-1.59-4.48"/>
    <path class="st1" d="M190.8,471.57c.45,1.73,1.08,3.4,1.39,5.19.4,2.44,1.53,5.16,2.75,7.37,1.11,2.01,2.95,2.3,4.39,3.74,2.66,2.66,2.61,6.89,4.71,9.84,1.11,1.56,2.69,1.96,3.74,3.26,1.22,1.47,2.89,3.32,4.45,4.48,3.51,2.58,2.52,8.25,7.91,10.12,3.2,1.11,6.41,2.21,9.64,3.32,4.34,1.5,4.93-.62,7.34-3.69,1.19-1.5,2.98-.68,4.39-1.9,2.24-1.93,2.86-3.29,5.92-2.27,2.64.88,3.34-2.55,5.7-2.44,1.81.09,1.79-6.86,6.86-6.86,1.84,0,5.05,2.24,6.89,3,3.03,1.28,5.75,5.07,6.12,8.33.2,1.73,1.36,3.74,2.49,4.96,1.33,1.45-.11,4.68,1.53,5.98,3.17,2.58,4.56,2.69,7.51-.48,4.62-4.96,8.39-3.83,14.6-2.44,1.76.4,5.39,1.5,6.46-.48.45-.82.4-2.38.51-3.32.14-1.39.94-2.47,1.42-3.54,1.64-3.74,7.31-2.89,10.35-1.5,1.67.79,5.47,3.06,7.11,1.53,1.73-1.62,2.07-4,4.9-3.32,1.7.4,2.15-1.3,3-2.44,1.5-1.98,4.05-1.05,5.13-3.17,1.59-3.06,3.57-3.26,6.52-3.74.88-.14,2.1-.34,3-.48,2.1-.34,3.94,1.28,6.21.94,3.26-.48,6.26-1.3,9.1,1.11,3,2.58,7.88,6.07,11.62,7.74,2.07.94,2.64,2.69,3.66,4.51.62,1.08,1.16,1.7,1.81,2.07.94.57,2.01.65,3.66,1.16"/>
    <path class="st5" d="M499.46,498.27c1.73-1.45,3.29-3.15,5.22-4.34,2.83-1.76,5.92-3.12,8.99-4.39,1.81-.77,3.88-.94,5.67-1.76,1.56-.71,2.78-2.1,4.34-2.83,1.62-.77,3.34-1.53,5.13-1.62,3.29-.14,6.52.62,9.81.94"/>
    <path class="st3" d="M270.85,261.77l25.6.68c.65,2.89-.34,2.83-1.53,5.19-1.11,2.18.31,5.9.82,8.39.31,1.53-1.33,7.91-.2,8.19-.03.06,1.16,2.41,1.42,2.66.74.74,1.05-.91,1.81-.91s1.13.88,2.1.23c3.26-2.18,3.88-.2,7.26-.45,1.56-.11,2.21-1.62,4-.68,1.87.99,2.81-.37,4.82-.37,1.33.4,2.55.14,3.91.23,1.93.14,4.03,2.07,5.87,1.42,2.15-.74,1.96-1.16,4.22-.23,1.33.54,4.39.31,5.92.57,1.39.23,4.59.23,5.75.91l7.11-25.65,6.01,21.46,12.16,20.38,15.19,20.78,23.05,25.46,2.44,23.81,9.18,14.63,17.63,9.55,23.5,3.71,13.72,30.1,14.8,16.92c-.51,5.22-.37,12.19-6.32,13.66-.51,2.1-2.58,5.73-1.08,8.19-1.33,1.76-2.75,4.34-4.39,6.6l-5.39,8.96-4.25,1.9-6.49.74,2.44,5.84.94,2.78.11,2.64,2.86,5.7,6.35,7.68c.4.74.14,1.36.34,2.13.06,0,.11.03.17.06.94-.57.99-.14,1.56.23-.09.37-.48.88-.37,1.25.09.4.79.57.85.82.91.23.48,1.36.77,1.98l1.62,3.46c2.58,5.19,6.09,13.29,10.69,16.89,1.62,1.28,3.17.17,4.39,1.05,4.56,3.29,8.59,3.77,12.53,8.25.99,2.61,2.52,5.1,3.4,7.68,1.36,3.88,5.36,5.22,5.36,9.75,0,5.56,1.96,7.09,6.63,10.03.43.54.94,1.02,1.19,1.64.11.31.28.57.37.88.09.34.17.77.34,1.08l.77,1.87h0c-1.9,0-1.79-.48-3.66-.17-1.3.23-2.44,1.05-3.66,1.59-1.25.57-2.49,1.19-3.74,1.79-.99,0-3.23.11-4.14.51-.94.4-1.5,1.73-2.58,1.73-.51,0-.79-.28-1.25,0,.03.09-.37,1.19-.37,1.53,0,.65.23.99.43,1.59.34.94-.65,1.3-.4,1.98,1.02,2.81-1.42,2.27-3.23,2.44-2.49.94-12.25,3.63-11.23,7.82.6,2.35.62,2.38-1.64,2.38-1.13,4.65-4.73,1.28-7.37,3.03-3.74,2.49-6.86-.17-10.52-1.02-1.19-.28-1.42,1.3-2.35,1.59-1.98.62-4.59-3.34-6.86-4.08,0-1.9,2.58-5.3,1.36-6.89-1.98-2.55-3.51-3.97-6.83-4.51-4.68-1.19-4.76-.23-6.8-4.51-1.39-2.95-.54-3.63-3.91-4.34-6.75-1.39-8.7,5.33-15.68,2.86-8.02-2.83-4.34-2.27-8.62,3-2.04,2.49-3.09,2.15-5.95,2.81-.51.11-.37,2.15-.77,2.66.74.96,4.54-.26,4.62,1.33.14,2.41-2.3,4.39-4,5.75-.45.62-1.73,3.8-1.73,4.42.6.2,2.24,1.08,1.98,1.81-.37,1.08-.82,2.83-1.96,3.12,0,.6.4,1.93.14,2.32-.31.51-2.81-.06-3.15-.28-1.13,1.13,2.04,4.48,3.49,4.56,4.39.28-1.93,3-1.79,3.63.34,1.67,1.47,2.55,1.64,4.31-.14,1.08-.11,3.2.23,4.2.54,1.47-1.25,1.76-1.56,2.41-.43.82-.06,1.93-.6,2.78-.68,1.08-2.27.37-2.35,1.96-.06.77-3.23,1.56-3.94,1.59-3.32.2-3.12-1.87-5.64-2.83-3.15-1.19-6.04-2.72-8.7-.03-.45.45-2.3,2.89-2.15,3.46.62,2.83-1.79,3.46-1.45,5.13.2,1.08,1.05,1.96.28,3-.77,1.02-2.15.68-2.98,1.36l-3.86,7.99h0c-1.22-1.22-3.12-4.59-4.96-4.59s-1.53-3.2-2.49-4.39c-.88-1.08-2.07-2.04-2.78-3.32-.43-.77-.88-1.59-1.47-2.21-4.11-4.65-9.81-10.43-11.59-16.44l-.48-1.59c0-.45-3.29-.57-3.77-.57-1.36,0-3.15-.11-4.37-.6-2.38-.99-3.83-5.87-5.58-6.26-.82-1.64-2.32-3.54-4.37-3.03-1.93.48-3.29,1.3-4.03-1.64-2.81-.71-6.41,1.9-9.98,1.22-1.76-.34-5.92-3.54-5.92-5.39,0-2.47-2.86-1.7-3.15-3.83-.09-.6.77-2.3,1.25-2.47,0-.14.03-.26.06-.45l-4.88-1.33-7.82,6.6,1.76,18.48-35.06-6.43h0l-25.2-15.36-.37-4.71c0-2.41-.91-3.51-1.42-5.56-.43-1.7,1.08-3.06.11-4.54-.62-.94-1.02-1.53-1.02-2.75,0-.6-.2-3.32-.88-3.49-.14-1.08-2.41-2.27-2.69-3.8-.34-1.79.65-3.86-.6-5.36l-13.35.4c-1.67-.62-.26-2.55-1.28-3.43-1.25-1.05-2.81-.88-4.34-1.28-.91-.23-2.1-.79-3.03-.6l6.83,13.58-5.33,3.66-9.64-10.97c-.96-2.13-2.27-3.51-2.83-5.78-2.3-.57-3.34-3.83-3.34-5.84,0-3.03-3.86-1.45-4.9-4.03-.51-1.22-1.81-3.49-1.81-4.73-.14-.06-.09-.4-.11-.48l-2.58-6.77-7.51-12.39-4.65-2.58-9.13-1.62-9.04-9.07-3.66-12.19-4.39-7.51-7.71-13.66-5.27-7.8-3.12-9.75-5.33.14-.94-4.88-3.17-11.03-8.59-10.77-17.38-16.78-26.19-28.52-3.17-12.95h0l1.53-1.36,2.49-18.88,2.69-3.32,7.03-9.47,4.73-14.83,3.83-21.71-33.62-49.63-13.89.48-2.61.94-8.05-11.71-7.43-5.36-16.21-20.75L31.75,102.15h0l29.96,11.37,4.34,1.62,22.17-1.5,11.08,19.16,5.13,1.7,5.95,15.9,3.46-1.36,1.42,2.92,8.39,4.68,4.11,4.93,7.03-5.9,6.89-3.37,1.42,10.83,10.46,2.83-20.66,17.26,6.83,4.48,12.56,17.32,3.66,8.33,8.05,14.54,1.42,3.8-.82,8.19,7.91,10.63,4.2-3.26,16.75,3.66,9.86-.4,8.65,2.64,5.61,1.81,22.31,1.16,17.83,4,7.43,8.59,5.61-7.03h0l.11.09h-.02ZM0,89.17h538.58v577.76H0V89.17Z"/>
  </g>
  <circle class="st7" cx="408.9" cy="487.86" r="12.06"/>
  <circle class="st7" cx="381.54" cy="514.26" r="10.41"/>
  <circle class="st7" cx="418.92" cy="545.9" r="6.48"/>
  <circle class="st7" cx="464.71" cy="592.49" r="5.14"/>
  <circle class="st7" cx="359.49" cy="588.95" r="6.32"/>
  <circle class="st7" cx="332.34" cy="461.32" r="4.93"/>
  <circle class="st7" cx="345.61" cy="425.68" r="5.32"/>
  <circle class="st7" cx="328.72" cy="537.4" r="5.03"/>
  <circle class="st7" cx="284.16" cy="400.99" r="6.57"/>
  <circle class="st7" cx="191.58" cy="470.63" r="5.16"/>
  <circle class="st7" cx="139.58" cy="367.01" r="5.75"/>
  <g id="Plan_1-2">
    <path class="st1" d="M561.99,191.4c1.42.68,2.72,1.76,4.25,2.07.88.17,3.86,1.39,4.96,1.64,3.23.79,6.8-.65,9.64,1.25,3.17,2.13,6.92,3.66,10.4,5.22,1.79.79,2.55,1.28,3.2,2.98.57,1.47-2.55,3.66,1.05,4.08,2.69.31,5.3,4.2,8.7,4.34,3.54.14,5.19-2.61,8.16-2.83l11.74-.94c4.93-.4,3.23-7.43,6.58-7.57.4-.03,8.84.37,9.58.65,4.08,1.56,8.16,3.12,12.22,4.68,4.37,1.67,6.89,4.42,8.99,8.73,2.86,5.84,6.83,11.06,10.23,16.58,2.27,3.66,4.37,7.17,9.04,7.37,4.14.2,7.8-1.98,9.98,2.49.28.6.6,4.2.91,4.71,1.45,2.27,3.54,4.03,5.3,6.01,3.15,3.57,1.67,7.71,6.12,10.52,3.37,2.13,3.66,6.58,5.87,9.72,1.22,1.73,2.83,5.92,4.2,7.94,1.22,1.81,3.4,2.13,4.56,3.86,1.76,2.64.85,6.43,2.86,9.55,2.21,3.4,3.83,5.39,5.47,9.24,2.49,5.84,7.37,18.94,14.03,21.29,3.54,1.25,7.06,2.49,10.6,3.74,2.24.79,3.94,4.99,5.87,6.52.45.37.34-.14.4.06.94,3.03,8.02,3.74,10.01,1.28,1.25-1.53,3.32-.23,4.76.37,1.64.68,4.11-.11,5.33-.11,1.62.03,7.88,3.63,7.99,5.75l.34,6.12c.06,1.22,3.32,5.16,3.49,5.41.74,1.22,1.42,2.52,2.35,3.63,1.3,1.47,2.01,3.69,4.08,4.39,4.93,1.73,8.73,8.62,13.8,10.54,5.92,2.24,9.04,7.34,14.51,10.69,1.39.85,4.9,2.58,6.41,3.46,3.37,1.93,8.16.96,10.69,4.73,1.3,1.96,1.53,3.32,3.34,5.02,1.42,1.3,3.91.82,5.67,1.11,2.72.45,5.27,2.18,7.74,3.49,2.72,1.45,3,5.47,5.16,7.88,2.41,2.69,4.14,4.62,7.54,6.43,2.27,1.22,4.96,1.73,7.4,2.47,4.28,1.3,7.06,2.38,11.51,2.95,3.6.45,7.2-.45,10.71-1.11,2.3-.43,4.22,2.52,6.04,3.88,4.62,3.43-1.19,6.55,1.81,10.54,1.47,1.98,5.3,1.42,7.54,1.79,2.52.43,4.68,1.9,6.35,3.91,2.1,2.58,2.47,6.01,4.56,8.25,1.87,1.98,3.03,2.78,4.37,5.27,3.88,7.37,13.27,3.12,15.31,13.41.4,2.04,1.9,3.74,3.29,5.44,2.18,2.72,5.67,3.17,7.71,6.46,1.25,1.98,2.47,4,3.71,5.98.71,1.16,1.64,1.42,2.66,1.5"/>
    <path class="st1" d="M561.99,244.47c.68,1.13,1.45,2.21,2.01,3.37.2.4.31,2.44.23,2.64-.54,1.25-.03,4.42.71,5.39.88,1.13,0,3.46.37,4.08.03.06,0,.48-.03.54-.4.88.06,3.09.4,3.97,1.02,2.47,2.49,4.71,3.74,7.03.99,1.87,1.25,3.23,1.25,5.39,0,3,1.64,5.13,2.41,8.02.74,2.89,4.11,3.74,3.88,7.11-.09,1.33-.23,2.32.2,3.69.79,2.55.31,3.74.51,6.26.11,1.39,1.87,2.3,2.64,3.37.6.82,1.25,2.15,1.64,3.09.71,1.56,2.55,2.75,2.95,4.25.31,1.25.62,3.74.57,4.9-.09,2.47-.71,6.04.94,8.16.57.74,1.45,1.28,2.04,1.98.99,1.22.4,3.12,1.7,4.59.45.51,1.19,2.04,1.45,2.75.68,1.79,2.3,2.49,2.81,4.42.54,2.07-1.59,5.39-3.32,6.18-3.26,1.5-4.99,5.05-6.63,8.11-1.39,2.64-2.81,5.61-5.64,6.89-3.12,1.39-3.94,5.07-5.5,7.74-.68,1.13-1.33,2.72-2.52,3.46-1.36.85-3.15.03-4.45,1.11-.68.6-.91,1.39-1.79,1.59-.4.09-.77.14-1.11.4-.37.28-.74.71-1.08,1.02-.2.17-.26.45-.37.68"/>
    <path class="st1" d="M591.61,335.09c1.7.91,3.51,1.59,5.07,2.75,2.55,1.87,6.72,1.25,9.92,1.25,3.51,0,5.87-2.58,8.76.11,3.51,3.29,10.23,4.73,14.83,5.92,2.15.57,3.77,2.21,5.78,2.83,1.28.4,4.22-2.3,5.7-2.27,3.09.06,5.9-.09,7.91-2.41,1.59-1.81,3.17-3.66,4.76-5.47,1.33-1.53.54,2.75.54,3.8,0,3.23,1.98,18.62,6.89,17.94,1.39-.2,1.9-1.73,3.77-1.36,3.51.68,4.56,0,7.8-1.05,2.69-.88,3.49.77,5.58,2.1,1.16.74,5.27,4.14,6.58,4.34,3.09.45,5.36-3.6,9.18-.57,1.9,1.5,6.55,1.45,8.08,3.15,1.84,2.04,1.36,5.33,2.07,7.99.79,3.12,4.2,3.51,4.37,7.57.11,2.41.03,4.25.6,6.6,1.02,4.14.03,6.12-.71,9.95-.82,4.28,3.03,7.11,2.04,11.76-.45,2.15,1.56,5.24,2.32,7.31l4.42,11.99c.62,1.67,1.28,2.92.82,4.71-.4,1.53-1.08,4.25-.14,5.64,2.35,3.49.94,5.61,4.96,8.84,1.93,1.53,3,4.11,5.07,5.9,3.29,2.83,5.19,6.43,9.04,8.73,3.63,2.15,8.76,3.63,11.82,6.43.99.88,2.21,1.47,3.32,2.21"/>
    <path class="st1" d="M561.99,487.37c.88.34,1.87.43,2.61,1.02,2.83,2.32,1.16,6.07,1.98,9.3.43,1.64,1.67,2.66,1.22,4.48-.54,2.15-1.28,3.15-.54,5.39.79,2.44,1.73,4.42,1.73,7.03,0,1.59.09,3.97-1.05,5.19-2.47,2.66-2.47,7.99-2.52,11.48,0,.54-.2,2.89,0,3.88.23,1.19,1.02,2.27.77,3.49-.91,4.68,2.55,7.37-.51,11.57-1.73,2.38-1.22,5.81-1.53,8.87-.23,2.47,1.33,4.39,1.96,6.77.91,3.37-2.49,6.26-.94,9.21,1.36,2.58-.94,5.24-.94,7.68"/>
    <path class="st1" d="M561.99,585.45c.34.54.74,1.08,1.05,1.64.82,1.5.31,3.12.65,4.85.2,1.11.4,1.96,1.08,2.92.43.6,1.22,1.05,1.45,1.76.48,1.42.54,2.92.85,4.39.43,2.07,1.3,3.37,2.24,5.13,1.11,2.13,3.2,3.51,4.56,5.47,1.79,2.58-.57,8.76-1.05,11.65-.45,2.72.03,4.82,1.05,6.77.79,1.53,1.7,3.2,3.2,4.59,2.35,2.18,3.8,4.54,7.03,5.98,2.15.96,4.22.43,6.15,2.21,2.38,2.21,1.64,6.15,2.27,9.13.68,3.37,2.81,6.32,3.03,9.92.11,1.76.65,3.46.99,5.19"/>
    <path class="st1" d="M561.99,636.92c.77-.62,1.5-1.3,2.32-1.87.74-.51,1.59-.62,1.81-1.59.4-1.56,1.11-3.46,2.86-3.88,1.76-.45,3.09.79,4.85.48"/>
    <path class="st1" d="M757.75,89.33c.71,1.39,1.25,2.86,2.13,4.17.79,1.16,1.96,2.04,2.83,3.15.43.54,2.35,3.83,2.58,4.2,1.05,1.87,1.45,3.51,1.62,5.24.17,1.47.28,4.68.91,5.92,1.33,2.69,1.42,4.68,1.59,7.71.17,3.54.57,6.52,2.18,9.81,1.59,3.15,4.54,2.1,7.29,2.24,2.52.11,3.23,2.86,6.35,2.41,3.69-.54,5.22,2.98,9.52,2.32,4.25-.62,7.34,1.28,10.35,4.17,1.79,1.73,4.11,3.2,5.58,5.36,2.13,3.12,4.11,5.75,7.63,7.31,1.25.57,2.61.62,3.66,1.64.74.77,1.59,3,2.69,3.23"/>
    <path class="st1" d="M854.84,153.93c.09,1.28.09,2.55.23,3.8.34,2.95,7.34.85,9.04.6,5.58-.82,12.25,2.47,16.87,5.3,2.86,1.76,5.41,2.75,8.79,2.75s5.75,1.25,8.79,2.64c3.94,1.81,7.82,3.4,11.74.57,5.78-4.17,12.73-1.28,18.2,1.73,1.81.99,4.37,1.02,5.22,3.32.34.94.65,1.9,1.02,2.81.31.74.43,1.64,1.02,2.21,3.17,2.95,5.61,1.93,9.67,1.45.2-.03,1.81-.28,3.69.06,4.99.96,13.24,2.64,16.33,6.77,1.98,2.64,2.47,4.82,5.84,5.84,2.83.88,5.22,2.69,5.67,5.53.34,2.13,2.92,10.2,4.2,12.36,1.73,2.95,6.21,3.63,9.3,3.12,2.49-.43,5.87-2.92,8.05-2.55,4.68.82,6.97-3.12,10.97-3.74,4.08-.65,6.46,2.32,8.93,5.02,1.59,1.73,3.88,4.31,4.48,6.58.88,3.26.09,6.43,1.59,9.64,1.45,3.06-.82,6.46-1.45,9.58-1.56,7.6,2.75,9.86,9.01,12.39,2.92,1.16,6.43,2.52,7.09,5.92.68,3.49-1.3,5.58,1.98,8.84.23.2.68.68.71.85.28,1.36,1.96,5.33,2.78,6.58,1.05,1.62,2.04,1.98,2.04,4,0,3.23-1.45,5.05-.23,8.42.43,1.22.6,2.69.37,3.97-.28,1.56.71,2.81,1.39,4.05,1.25,2.3,3.37,7.06,3.06,9.67-.2,1.73-2.1,2.75-2.47,4.65-.31,1.67.45,6.21.94,7.91.48,1.73-.03,1.56-.03,3.2s1.25,2.52,2.07,3.69c.45.65,1.13,1.13,1.7,1.7,3.43,3.43,7.71,6.32,10.74,10.09,3.26,4.05,3.46,4.37,4.11,9.55,1.53,11.88,15.28,1.93,20.15,7.14.68.71,1.64,1.9,2.3,2.78,2.58,3.43,4.99,7.14,9.92,7.14"/>
    <path class="st1" d="M796.53,440.03c1.08,1.47,2.92,2.61,3.26,4.42.96,5.13.82,8.93-2.1,13.66-2.61,4.25-2.95,9.47.06,13.66,1.42,1.96,2.95,6.38,3.12,8.87.11,1.62.74,3.69.48,5.36-.4,2.38,1.11,4.51,1.7,6.63.82,3.03.71,5.9,2.49,8.59,1.11,1.67,2.32,4.85,2.44,6.83.09,1.56,1.11,2.89,1.62,4.25.26.68.71,3.09.68,3.51-.06.57-.54,3.91-.54,4.68,0,2.38,2.07,6.01.94,7.8-1.79,2.81-1.64,5.87-3.17,9.13-.6,1.28-1.62,2.49-1.7,4-.11,2.38.34,4.54.34,6.89,0,2.55-.91,4.82-1.42,7.29-.99,4.88-2.24,8.05-1.64,13.32.51,4.65,1.11,10.06,2.1,14.63.31,1.42.99,2.52.99,4.25,0,5.73,1.73,10.69-3.94,14.14-4.48,2.75-2.98,7.2-2.95,11.65,0,.14.03.48.11.65.54,1.13.74,5.02,1.11,6.52.91,3.74,1.08,7.4,3.06,10.94,1.98,3.49,3.77,7.06,5.92,10.46.17.26,1.25,1.76,1.47,2.49,1.36,4.11,1.96,7.03,1.96,11.31,0,2.86-1.56,5.39-1.56,8.56v2.58"/>
    <path class="st1" d="M941.83,517.1c-1.28,1.64-3,3-3.83,4.9-1.81,4.31-6.6,7.2-8.45,11.88-1.25,3.17,1.39,5.02,1.25,7.85-.14,2.86-.11,5.75-.4,8.59-.2,2.01-1.3,4.76-2.66,6.35-2.21,2.61-6.52,5.36-6.86,8.84-.4,4.22-.51,7.54-1.62,11.74-.54,2.01-1.05,5.92-2.07,7.85-1.16,2.21.14,4.05-.51,6.01-.48,1.47-1.36,2.35-1.76,4.05-.82,3.51-4.08-.2-5.84,2.61-1.64,2.58-3.34,4.62-6.09,6.46-.94.62-1.45,1.98-2.52,2.75-2.15,1.5-6.21,1.05-7.37,3.46-.31.62.48,1.13.06,1.81-.91,1.56-2.44,2.41-2.44,4.42,0,1.13.77,2.1,1.25,3.12.99,2.1.17,3.77,2.13,5.56,1.05.96,2.3,2.38,2.3,4.34.03,5.3,1.11,11.31-.17,16.47-.28,1.11-.2,2.49.28,3.66.28.68.74,1.3,1.36,1.73,1.62,1.13,2.38,4.2,3.2,5.95.4.88.85,1.79,1.53,2.64.74.96,2.01,2.15,3.06,2.75,1.16.62,3.43,1.64,3.77,3.12.09.37.31.71.48,1.08"/>
    <path class="st1" d="M888.97,667.08c1.11-.62,2.27-1.19,3.34-1.9.91-.62,1.76-1.16,1.76-2.41,0-2.21-.4-3.43.71-5.44.4-.74.03-1.84.03-2.64,0-1.64,1.05-3.46,1.76-4.85"/>
    <path class="st1" d="M977.61,547.01c.99.88,1.7,2.27,2.98,2.64,1.47.43,4.11.71,5.75,1.02,1.47.28,2.95.54,4.42.82,2.27.43,4.08,1.47,5.92,2.69,1.11.74,3.26,2.55,4.42,3.43,2.61,1.93,3.77,4.96,5.24,7.63,2.24,4.08,3.74,9.78,7.4,12.87,1.28,1.08,2.13,2.32,3.57,3.32,2.04,1.42,3.17,2.58,4.59,4.65,1.9,2.75,5.02,4.11,7.26,6.12,2.66,2.38,7.06,4.45,9.33,7.11,1.05,1.22,2.21,4.08,2.98,5.61,1.13,2.3,1.87,4.96,1.98,7.51.09,1.87.85,5.87,1.76,7.51,2.86,5.19,7,3.94,10.43,7.65,1.62,1.73,1.19,3.86,2.04,5.81.88,2.07,2.78,3.66,4.51,5.1,2.01,1.73,2.66,3.63,3.46,6.29.74,2.55,1.98,4,1.79,6.18-.06.51-.17,1.05-.4,1.64-1.16,3.06-.82,7.31-1.56,10.63-.28,1.33.82,2.58,1.25,3.88"/>
    <path class="st1" d="M1067.41,650.93c2.64.03,5.27.09,7.91.11"/>
    <path class="st1" d="M1093.23,667.08c-.54-.43-1.13-.77-1.62-1.25-1.25-1.16-3.69-1.33-5.13-2.24-1.36-.85-2.66-1.13-4.08-1.81-2.04-1.02-6.43-4.71-6.55-7.17-.06-1.19-.45-2.35-.54-3.54-.11-1.73-.57-3.46.03-5.05.96-2.55,8.53-4.2,10.94-5.36,4.05-1.96,8.36-.94,12.7-1.25.54-.03,1.05,0,1.59,0"/>
    <path class="st1" d="M953.23,667.08c.57-.85,1.05-1.79,1.73-2.58.54-.62,2.18-1.22,2.52-1.9,1.16-2.21,3.12-5.95,5.33-7.17,2.07-1.16,5.07-2.44,6.8-4.22,1.62-1.67,5.44-2.83,5.84-5.27.26-1.53-1.22-3.37-.14-4.65,1.33-1.56,2.13-3.26,2.86-5.1,1.19-2.95,5.56-3.97,6.32-7.2.45-1.84-2.98-4.25-1.96-5.95,2.35-4,2.81-7.29,7.26-9.13,2.32-.96,4.05-.82,6.21-2.3,2.47-1.67,2.92-1.59,5.67-2.3,1.73-.45,2.07-2.1,3.06-3.37,4.51-5.67,14.54-6.86,20.07-10.63,3.09-2.1,7.03-1.81,9.69-4.51,3-3.03,2.78-8.28,5.92-10.8,1.59-1.28.65-2.07,1.05-3.37.37-1.19,1.84-1.9,2.32-3.15.37-.88.2-2.27.85-2.92,3-3,6.09-4.76,6.38-9.47.09-1.3.48-2.72.57-4.05.14-1.76-.79-3.46-.6-5.27.26-2.38.68-3.26,1.62-5.56.71-1.7.65-2.92,1.73-4.37,3-4.03.82-10.12,1.39-14.74.4-3.37-.65-8.93-1.22-12.25-.85-5.13,1.79-8.96,3.86-13.46.6-1.28,2.04-1.93,3.06-2.92"/>
    <path class="st1" d="M984.5,628.96c.54.85,1.36,1.59,1.59,2.58.37,1.45,3.91,6.29,5.41,6.66,2.38.6,2.95.03,4.28,2.47,1.13,2.01,3.91,3.74,5.36,5.9,1.96,2.83,5.02,4.37,7.11,7.23,1.59,2.15,2.27,4.93,4.17,7.06,1.81,2.07,4.79,3.06,6.32,5.39.2.31.51.54.77.82"/>
    <path class="st1" d="M963.18,486.29c.79-1.28,1.53-2.58,2.41-3.8,1.11-1.5.62-4.51,1.53-6.32.99-1.98,2.72-2.64,4.62-3.32,3.49-1.25,3.97-4.31,7.43-5.64,5.7-2.21-.37-4.73.65-7.54.06-.17,0-.31.03-.48.31-1.02-.85-4.85-.88-6.29-.06-3.43-.14-6.86-.2-10.29-.03-1.81-.09-3.86-.45-5.61-.4-1.96-1.13-3.91-.85-6.01.71-4.99-.91-6.55-3.4-10.49-1.13-1.79-2.89-3.69-3.32-5.84-.45-2.41-.94-7.09.34-9.21,1.5-2.49,3.29-1.33,3.74-5.02.4-3.17,1.96-1.79,2.81-3.49.68-1.36.88-3.51,1.81-4.71,1.3-1.64,3.66-2.1,4.22-4.48.54-2.32-1.16-5.33.88-7.23.94-.88,4.22-2.69,4.99-3.71,1.3-1.79.45-4.45,1.87-5.95,2.61-2.81,1.87-4.17,1.56-7.68-.28-3.4-.14-7.29-.54-10.54-.57-4.76,1.59-8.93,1.59-13.66,0-7.2,9.3-6.83,10.6-12.42,1.47-6.35,6.69-4.56,12.05-5.95,3.54-.91,4.34,1.56,7.11,2.66,2.58,1.02,7.57,1.02,10.09,0,.6-.23,3.83-.11,4.76-.4,1.42-.43,2.95-1.79,4.37-1.79,3.26,0,3.34-1.5,5.47-3.34,2.75-2.35,6.52,1.56,9.69,1.42,5.24-.26,10.49-.37,15.73-.74,5.19-.37,10.71,1.19,14.91,4.37,1.67,1.28,3.34,2.52,4.99,3.8,1.53,1.16,2.95,3.12,4.76,3.8.68.26,1.3.6,1.96.88"/>
    <path class="st1" d="M967.97,89.33c.48.57,1.13.99,1.42,1.67.77,1.81,1.02,2.35.54,4.39-.28,1.16-.94,2.44-.82,3.66.17,1.84,1.13,3.8.4,5.73-.34.88-1.11,1.42-1.42,2.3-.43,1.19-.88,2.35-1.3,3.54,0,.03-.09.34-.11.45-.09,2.49-.82,4.22.91,6.75,1.08,1.56.11,4.73,1.39,5.95,1.36,1.3,2.04,5.44,2.47,6.83,1.33,4.31,2.27,4.65,5.78,7.37,5.47,4.28,9.27,9.13,13.52,14.8,1.59,2.1,5.56,6.18,6.15,8.5,1.08,4.34-8.7,2.01-9.01,5.05-.57,5.19,5.81,8.93,4.73,14.34-1.28,6.43,3.49,9.89,8.05,13.83,2.47,2.15,3.8,5.33,5.7,7.99,1.11,1.56,1.96,2.69,3.94,2.58,4.08-.23,7.4,2.32,11.51,3.09,5.84,1.08,10.4,2.35,16.55,3.37,5.24.88,5.81,2.64,11.34,1.45,3.63-.77,4.05-1.16,7.63.28,4.11,1.64,8.08.43,12.05,1.93,4.25,1.62,8.7,2.78,12.73,4.85,2.86,1.45,5.33,1.79,8.28,2.24,1.42.23,2.49.4,3.83.91,1.64.62,3.32,1.79,4.93,2.38.51.17.94.51,1.42.74"/>
    <path class="st1" d="M1061.46,498.42c-2.38.11-4.79.2-7.17.34-1.64.11-3.32.11-4.96.4-1.93.34-3.86.71-5.67,1.42-2.83,1.13-4.65,3.37-7.82,3.71-1.45.17-10.54-.03-11.57-.68-.11-.09-.26.09-.4.06-3.8-.26-6.49-2.07-10.69-1.96-4.51.11-5.81-1.42-9.69-2.92-2.21-.85-3.88-.34-6.12-.2-3.34.2-5.95-.65-9.16-1.62-2.98-.91-6.04-1.64-8.96-2.75-2.89-1.08-5.95-.77-8.31-2.32-2.01-1.36-2.64-3.88-4.71-5.05-1.02-.57-2.92-1.59-3.09-.6-.28,1.53.94,4.85.57,6.35-.43,1.67-1.47,2.47-2.49,3.74-1.59,1.96.2,3.51-2.32,5.27-1.73,1.19-2.21,3.49-2.47,5.53-.2,1.59-.23,2.98-2.04,3.71-2.15.91-.99,3.88-4.03,4.9-2.86.96-5.22.68-4.9,2.49.11.62.54,1.53,1.39,2.81,2.75,4.22,6.04,9.33,10.52,11.85,1.56.88,3.51,2.41,5.1,3.32,3.06,1.76,6.09,3.51,9.16,5.27,1.45.82,4.65,4.85,5.78,5.22.11.03.11.17.2.23"/>
    <path class="st1" d="M561.99,584.68c.74-.65,1.45-1.36,2.24-1.98,1.87-1.53,2.55-.65,3.83,1.08,1.5,2.07,3.63,1.9,5.87,1.98,3.06.14,6.92,3.54,10.2,4.22,2.83.6,5.05.51,7.63,1.93,4.62,2.52,4.65-2.55,4.79-6.15.11-2.35,1.93-2.44,2.69-4.25,1.13-2.66,1.87-2.66,4.56-3.37,2.44-.65,1.81,1.25,3.15-2.69.62-1.87,1.33-3.26,3-4.42,1.33-.91,1.87.77,3.29.23,3.17-1.16,2.52-2.81,6.01-.85,3.2,1.79,3.88,4.76,5.87,7.54.74,1.02.99,2.52,2.04,3.29,1.08.79,1.93,2.01,3.2,2.41,2.55.77,4.82,1.96,6.8,4,2.52,2.61,3.97,8.96,8.42,8.96,1.64,0,3.09-1.13,4.76-1.36,2.89-.4,6.83,2.27,10.2,2.27,3.77,0,7-1.42,9.86-.03.88.43,1.7,1.13,2.49,2.21,1.08,1.45.77,2.81.77,4.51,0,2.24.96,3.94,1.98,5.84.28.54.85,1.13.99,1.7.2.94,3.15,5.75,3.69,7.17,1.16,3.03.06,6.41,1.22,9.75,1.13,3.2,2.13,5.58,2.75,8.96.68,3.74,3.66,10.32,2.86,14.09-.37,1.76-1.19,3.34-1.56,5.19-.51,2.52.34,4.9.34,7.46v2.83"/>
    <path class="st1" d="M670.39,597.44c.23-1.19.23-2.47.68-3.6.74-1.79,1.36-2.81,1.81-4.71.74-3,2.13-6.07,1.45-9.27-.6-2.81-1.3-7.6-.06-10.26,1.36-2.95.77-4.71,3.77-7,3.71-2.83,6.18-7.88,9.04-11.51,3.23-4.08,7.54-7.97,11.62-11.31,1.13-.94,1.56-2.3,1.9-3.91.68-3.26-.82-5.53,1.62-7.99,1.98-2.01,1.7-2.49,2.32-5.02,1.96-7.91,10.52-.03,13.52-7.11,1.42-3.34,1.08-4.62,5.61-5.13,7.34-.82,5.41-7.34,9.86-11.2,4.11-3.57,1.79-6.97,5.3-11,2.15-2.47,1.33-5.78,5.3-7.31,3.88-1.5,3.46-2.47,4.96-5.98.82-1.96,1.96-2.47,3.66-3.46,1.25-.71,1.7-1.84,2.52-2.95,1.05-1.36,3.34-1.79,4.62-3.09,1.42-1.42,2.3-2.98,3.4-4.54.74-1.05.85-4.25,1.47-5.75,1.7-4,1.79-9.92,5.27-12.87,4.68-3.91,15.76-2.32,21.12-1.02,3.03.74,4.25-.11,5.33-1.5.71-.94,1.36-2.13,2.41-3.2,1.76-1.76,4.96-.91,7.03-3.03,3.23-3.37,5.7,1.02,8.96.71,1.56-.14,2.38-1.59,4.2-1.53,9.58.37,2.32-8.87,8.48-10.77,5.13-1.59,8.31-3.34,7.94-8.96-.23-3.49,3.69-5.64,5.33-7.94,1.25-1.73,0-4.39,1.22-6.01,1.59-2.1,7.06-.51,7.26-3.15.11-1.62.26-3.23.37-4.85.14-1.67.74-3.51,1.25-5.05.54-1.59,1.3-4.62,1.59-6.32.28-1.84,1.76-3.32,1.42-5.27-.2-1.13-1.25-2.69-.23-3.74,3.6-3.83.82-8.5,3.4-12.27,2.24-3.23,4.51-10.52,2.86-14.17-1.05-2.32-1.81-4.65-.2-7s1.7-5.07,3.03-7.57c2.38-4.39,2.92-10.15,5.67-14.34,2.92-4.45,5.58-9.1,8.79-13.35,2.55-3.43,4.71-10.6,2.32-14.46-1.36-2.21-2.92-3.34-1.87-6.15.99-2.64.43-4.62.17-7.31-.26-2.66-1.13-4.56-2.13-7.14-1.11-2.86.06-4.03.06-6.83,0-2.21-.6-6.26-1.81-8.08-1.39-2.1-3.37-4.37-4.17-6.77-.74-2.24-2.55-4.71-4.25-6.29-3-2.78-6.01-7.37-7.88-11.08-1.22-2.41-2.04-3.2.54-4.65,1.47-.82.99-4.39,1.53-5.78.65-1.73-.11-4.51-.68-6.07-.74-2.01-1.59-3.94-1.93-6.07-.54-3.23-.71-4.76-2.81-7.37-1.9-2.32-1.59-5.53-2.04-8.36-.43-2.72-1.08-5.07-2.75-7.31-3.43-4.59-1.7-7.51-1.7-12.56,0-5.56-5.58-6.92-9.84-8.67-.14-.06-.4.09-.48-.06-.37-.74-8.99-.48-10.37-.77-2.89-.6-3.86-1.33-2.66-2.18.43-.31,1.13-.62,2.1-.96,2.58-.88,5.16.48,7.71-.85,4.9-2.58,8.93-3.86,14.49-4.08,1.96-.09,3.86.77,5.9,1.64,2.01.88,4.14,2.07,6.41,1.79,1.42-.2,4.11-.45,5.7-.65l10.46-1.19c1.81-.2,4.68,2.27,5.64-.11.45-1.11,1.3-2.92,2.44-3.34,2.89-1.11,1.45-3.46,3.17-5.19.88-.88,1.76-.77,2.13-2.21.34-1.42.4-3.12.51-4.54.23-2.55-.48-5.07-.71-7.63-.09-1.05-.09-1.93-.31-2.92-.17-.74-.94-1.36-1.19-1.76-.09-.14-.34-.03-.43-.14-.2-.2-2.07.2-2.52.14-.91-.11-1.36-.85-1.56-1.64-.37-1.47-2.83-.99-3.94-2.47-.68-.91-1.36-1.81-2.04-2.69-.88-1.16-.57-2.69-1.05-3.91-.82-2.1-1.39-4.25-2.1-6.41-.45-1.36-1.28-2.69-2.07-3.86-1.42-2.07-1.08-4.34-1.96-6.49-.88-2.13-3.09-3.06-3.86-4.9-.6-1.47-1.05-3-1.59-4.48"/>
    <path class="st1" d="M752.79,471.72c.45,1.73,1.08,3.4,1.39,5.19.4,2.44,1.53,5.16,2.75,7.37,1.11,2.01,2.95,2.3,4.39,3.74,2.66,2.66,2.61,6.89,4.71,9.84,1.11,1.56,2.69,1.96,3.74,3.26,1.22,1.47,2.89,3.32,4.45,4.48,3.51,2.58,2.52,8.25,7.91,10.12,3.2,1.11,6.41,2.21,9.64,3.32,4.34,1.5,4.93-.62,7.34-3.69,1.19-1.5,2.98-.68,4.39-1.9,2.24-1.93,2.86-3.29,5.92-2.27,2.64.88,3.34-2.55,5.7-2.44,1.81.09,1.79-6.86,6.86-6.86,1.84,0,5.05,2.24,6.89,3,3.03,1.28,5.75,5.07,6.12,8.33.2,1.73,1.36,3.74,2.49,4.96,1.33,1.45-.11,4.68,1.53,5.98,3.17,2.58,4.56,2.69,7.51-.48,4.62-4.96,8.39-3.83,14.6-2.44,1.76.4,5.39,1.5,6.46-.48.45-.82.4-2.38.51-3.32.14-1.39.94-2.47,1.42-3.54,1.64-3.74,7.31-2.89,10.35-1.5,1.67.79,5.47,3.06,7.11,1.53,1.73-1.62,2.07-4,4.9-3.32,1.7.4,2.15-1.3,3-2.44,1.5-1.98,4.05-1.05,5.13-3.17,1.59-3.06,3.57-3.26,6.52-3.74.88-.14,2.1-.34,3-.48,2.1-.34,3.94,1.28,6.21.94,3.26-.48,6.26-1.3,9.1,1.11,3,2.58,7.88,6.07,11.62,7.74,2.07.94,2.64,2.69,3.66,4.51.62,1.08,1.16,1.7,1.81,2.07.94.57,2.01.65,3.66,1.16"/>
    <path class="st5" d="M1061.46,498.42c1.73-1.45,3.29-3.15,5.22-4.34,2.83-1.76,5.92-3.12,8.99-4.39,1.81-.77,3.88-.94,5.67-1.76,1.56-.71,2.78-2.1,4.34-2.83,1.62-.77,3.34-1.53,5.13-1.62,3.29-.14,6.52.62,9.81.94"/>
    <path class="st3" d="M832.84,261.93l25.6.68c.65,2.89-.34,2.83-1.53,5.19-1.11,2.18.31,5.9.82,8.39.31,1.53-1.33,7.91-.2,8.19-.03.06,1.16,2.41,1.42,2.66.74.74,1.05-.91,1.81-.91s1.13.88,2.1.23c3.26-2.18,3.88-.2,7.26-.45,1.56-.11,2.21-1.62,4-.68,1.87.99,2.81-.37,4.82-.37,1.33.4,2.55.14,3.91.23,1.93.14,4.03,2.07,5.87,1.42,2.15-.74,1.96-1.16,4.22-.23,1.33.54,4.39.31,5.92.57,1.39.23,4.59.23,5.75.91l7.11-25.65,6.01,21.46,12.16,20.38,15.19,20.78,23.05,25.46,2.44,23.81,9.18,14.63,17.63,9.55,23.5,3.71,13.72,30.1,14.8,16.92c-.51,5.22-.37,12.19-6.32,13.66-.51,2.1-2.58,5.73-1.08,8.19-1.33,1.76-2.75,4.34-4.39,6.6l-5.39,8.96-4.25,1.9-6.49.74,2.44,5.84.94,2.78.11,2.64,2.86,5.7,6.35,7.68c.4.74.14,1.36.34,2.13.06,0,.11.03.17.06.94-.57.99-.14,1.56.23-.09.37-.48.88-.37,1.25.09.4.79.57.85.82.91.23.48,1.36.77,1.98l1.62,3.46c2.58,5.19,6.09,13.29,10.69,16.89,1.62,1.28,3.17.17,4.39,1.05,4.56,3.29,8.59,3.77,12.53,8.25.99,2.61,2.52,5.1,3.4,7.68,1.36,3.88,5.36,5.22,5.36,9.75,0,5.56,1.96,7.09,6.63,10.03.43.54.94,1.02,1.19,1.64.11.31.28.57.37.88.09.34.17.77.34,1.08l.77,1.87h0c-1.9,0-1.79-.48-3.66-.17-1.3.23-2.44,1.05-3.66,1.59-1.25.57-2.49,1.19-3.74,1.79-.99,0-3.23.11-4.14.51-.94.4-1.5,1.73-2.58,1.73-.51,0-.79-.28-1.25,0,.03.09-.37,1.19-.37,1.53,0,.65.23.99.43,1.59.34.94-.65,1.3-.4,1.98,1.02,2.81-1.42,2.27-3.23,2.44-2.49.94-12.25,3.63-11.23,7.82.6,2.35.62,2.38-1.64,2.38-1.13,4.65-4.73,1.28-7.37,3.03-3.74,2.49-6.86-.17-10.52-1.02-1.19-.28-1.42,1.3-2.35,1.59-1.98.62-4.59-3.34-6.86-4.08,0-1.9,2.58-5.3,1.36-6.89-1.98-2.55-3.51-3.97-6.83-4.51-4.68-1.19-4.76-.23-6.8-4.51-1.39-2.95-.54-3.63-3.91-4.34-6.75-1.39-8.7,5.33-15.68,2.86-8.02-2.83-4.34-2.27-8.62,3-2.04,2.49-3.09,2.15-5.95,2.81-.51.11-.37,2.15-.77,2.66.74.96,4.54-.26,4.62,1.33.14,2.41-2.3,4.39-4,5.75-.45.62-1.73,3.8-1.73,4.42.6.2,2.24,1.08,1.98,1.81-.37,1.08-.82,2.83-1.96,3.12,0,.6.4,1.93.14,2.32-.31.51-2.81-.06-3.15-.28-1.13,1.13,2.04,4.48,3.49,4.56,4.39.28-1.93,3-1.79,3.63.34,1.67,1.47,2.55,1.64,4.31-.14,1.08-.11,3.2.23,4.2.54,1.47-1.25,1.76-1.56,2.41-.43.82-.06,1.93-.6,2.78-.68,1.08-2.27.37-2.35,1.96-.06.77-3.23,1.56-3.94,1.59-3.32.2-3.12-1.87-5.64-2.83-3.15-1.19-6.04-2.72-8.7-.03-.45.45-2.3,2.89-2.15,3.46.62,2.83-1.79,3.46-1.45,5.13.2,1.08,1.05,1.96.28,3-.77,1.02-2.15.68-2.98,1.36l-3.86,7.99h0c-1.22-1.22-3.12-4.59-4.96-4.59s-1.53-3.2-2.49-4.39c-.88-1.08-2.07-2.04-2.78-3.32-.43-.77-.88-1.59-1.47-2.21-4.11-4.65-9.81-10.43-11.59-16.44l-.48-1.59c0-.45-3.29-.57-3.77-.57-1.36,0-3.15-.11-4.37-.6-2.38-.99-3.83-5.87-5.58-6.26-.82-1.64-2.32-3.54-4.37-3.03-1.93.48-3.29,1.3-4.03-1.64-2.81-.71-6.41,1.9-9.98,1.22-1.76-.34-5.92-3.54-5.92-5.39,0-2.47-2.86-1.7-3.15-3.83-.09-.6.77-2.3,1.25-2.47,0-.14.03-.26.06-.45l-4.88-1.33-7.82,6.6,1.76,18.48-35.06-6.43h0l-25.2-15.36-.37-4.71c0-2.41-.91-3.51-1.42-5.56-.43-1.7,1.08-3.06.11-4.54-.62-.94-1.02-1.53-1.02-2.75,0-.6-.2-3.32-.88-3.49-.14-1.08-2.41-2.27-2.69-3.8-.34-1.79.65-3.86-.6-5.36l-13.35.4c-1.67-.62-.26-2.55-1.28-3.43-1.25-1.05-2.81-.88-4.34-1.28-.91-.23-2.1-.79-3.03-.6l6.83,13.58-5.33,3.66-9.64-10.97c-.96-2.13-2.27-3.51-2.83-5.78-2.3-.57-3.34-3.83-3.34-5.84,0-3.03-3.86-1.45-4.9-4.03-.51-1.22-1.81-3.49-1.81-4.73-.14-.06-.09-.4-.11-.48l-2.58-6.77-7.51-12.39-4.65-2.58-9.13-1.62-9.04-9.07-3.66-12.19-4.39-7.51-7.71-13.66-5.27-7.8-3.12-9.75-5.33.14-.94-4.88-3.17-11.03-8.59-10.77-17.38-16.78-26.19-28.52-3.17-12.95h0l1.53-1.36,2.49-18.88,2.69-3.32,7.03-9.47,4.73-14.83,3.83-21.71-33.62-49.63-13.89.48-2.61.94-8.05-11.71-7.43-5.36-16.21-20.75,18.34-129.12h0l29.96,11.37,4.34,1.62,22.17-1.5,11.08,19.16,5.13,1.7,5.95,15.9,3.46-1.36,1.42,2.92,8.39,4.68,4.11,4.93,7.03-5.9,6.89-3.37,1.42,10.83,10.46,2.83-20.66,17.26,6.83,4.48,12.56,17.32,3.66,8.33,8.05,14.54,1.42,3.8-.82,8.19,7.91,10.63,4.2-3.26,16.75,3.66,9.86-.4,8.65,2.64,5.61,1.81,22.31,1.16,17.83,4,7.43,8.59,5.61-7.03h0l.11.09v.04ZM561.99,89.33h538.58v577.76h-538.58V89.33h0Z"/>
  </g>
  <line class="st2" x1="701.57" y1="369.17" x2="973.89" y2="514.57"/>
  <line class="st2" x1="846.16" y1="403.14" x2="973.89" y2="514.57"/>
  <line class="st2" x1="907.61" y1="427.83" x2="973.89" y2="514.57"/>
  <line class="st2" x1="894.33" y1="463.47" x2="973.89" y2="514.57"/>
  <line class="st2" x1="753.57" y1="472.79" x2="973.89" y2="514.57"/>
  <line class="st2" x1="970.89" y1="490.01" x2="973.89" y2="514.57"/>
  <line class="st2" x1="943.53" y1="516.41" x2="973.89" y2="514.57"/>
  <line class="st2" x1="890.71" y1="539.56" x2="973.89" y2="514.57"/>
  <line class="st2" x1="921.48" y1="591.11" x2="973.89" y2="514.57"/>
  <line class="st2" x1="980.91" y1="548.06" x2="973.89" y2="514.57"/>
  <line class="st2" x1="1026.7" y1="594.65" x2="973.89" y2="514.57"/>
  <circle class="st7" cx="970.89" cy="490.01" r="12.06"/>
  <circle class="st7" cx="943.53" cy="516.41" r="10.41"/>
  <circle class="st7" cx="980.91" cy="548.06" r="6.48"/>
  <circle class="st7" cx="1026.7" cy="594.65" r="5.14"/>
  <circle class="st7" cx="921.48" cy="591.11" r="6.32"/>
  <circle class="st7" cx="894.33" cy="463.47" r="4.93"/>
  <circle class="st7" cx="907.61" cy="427.83" r="5.32"/>
  <circle class="st7" cx="890.71" cy="539.56" r="5.03"/>
  <circle class="st7" cx="846.16" cy="403.14" r="6.57"/>
  <circle class="st7" cx="753.57" cy="472.79" r="5.16"/>
  <circle class="st7" cx="701.57" cy="369.17" r="5.75"/>
  <rect class="st6" x="965.34" y="506.02" width="17.1" height="17.1"/>
  <g id="Plan_1-3">
    <path class="st1" d="M1117.22,191.39c1.42.68,2.72,1.76,4.25,2.07.88.17,3.86,1.39,4.96,1.64,3.23.79,6.8-.65,9.64,1.25,3.17,2.13,6.92,3.66,10.4,5.22,1.79.79,2.55,1.28,3.2,2.98.57,1.47-2.55,3.66,1.05,4.08,2.69.31,5.3,4.2,8.7,4.34,3.54.14,5.19-2.61,8.16-2.83l11.74-.94c4.93-.4,3.23-7.43,6.58-7.57.4-.03,8.84.37,9.58.65,4.08,1.56,8.16,3.12,12.22,4.68,4.37,1.67,6.89,4.42,8.99,8.73,2.86,5.84,6.83,11.06,10.23,16.58,2.27,3.66,4.37,7.17,9.04,7.37,4.14.2,7.8-1.98,9.98,2.49.28.6.6,4.2.91,4.71,1.45,2.27,3.54,4.03,5.3,6.01,3.15,3.57,1.67,7.71,6.12,10.52,3.37,2.13,3.66,6.58,5.87,9.72,1.22,1.73,2.83,5.92,4.2,7.94,1.22,1.81,3.4,2.13,4.56,3.86,1.76,2.64.85,6.43,2.86,9.55,2.21,3.4,3.83,5.39,5.47,9.24,2.49,5.84,7.37,18.94,14.03,21.29,3.54,1.25,7.06,2.49,10.6,3.74,2.24.79,3.94,4.99,5.87,6.52.45.37.34-.14.4.06.94,3.03,8.02,3.74,10.01,1.28,1.25-1.53,3.32-.23,4.76.37,1.64.68,4.11-.11,5.33-.11,1.62.03,7.88,3.63,7.99,5.75l.34,6.12c.06,1.22,3.32,5.16,3.49,5.41.74,1.22,1.42,2.52,2.35,3.63,1.3,1.47,2.01,3.69,4.08,4.39,4.93,1.73,8.73,8.62,13.8,10.54,5.92,2.24,9.04,7.34,14.51,10.69,1.39.85,4.9,2.58,6.41,3.46,3.37,1.93,8.16.96,10.69,4.73,1.3,1.96,1.53,3.32,3.34,5.02,1.42,1.3,3.91.82,5.67,1.11,2.72.45,5.27,2.18,7.74,3.49,2.72,1.45,3,5.47,5.16,7.88,2.41,2.69,4.14,4.62,7.54,6.43,2.27,1.22,4.96,1.73,7.4,2.47,4.28,1.3,7.06,2.38,11.51,2.95,3.6.45,7.2-.45,10.71-1.11,2.3-.43,4.22,2.52,6.04,3.88,4.62,3.43-1.19,6.55,1.81,10.54,1.47,1.98,5.3,1.42,7.54,1.79,2.52.43,4.68,1.9,6.35,3.91,2.1,2.58,2.47,6.01,4.56,8.25,1.87,1.98,3.03,2.78,4.37,5.27,3.88,7.37,13.27,3.12,15.31,13.41.4,2.04,1.9,3.74,3.29,5.44,2.18,2.72,5.67,3.17,7.71,6.46,1.25,1.98,2.47,4,3.71,5.98.71,1.16,1.64,1.42,2.66,1.5"/>
    <path class="st1" d="M1117.22,244.45c.68,1.13,1.45,2.21,2.01,3.37.2.4.31,2.44.23,2.64-.54,1.25-.03,4.42.71,5.39.88,1.13,0,3.46.37,4.08.03.06,0,.48-.03.54-.4.88.06,3.09.4,3.97,1.02,2.47,2.49,4.71,3.74,7.03.99,1.87,1.25,3.23,1.25,5.39,0,3,1.64,5.13,2.41,8.02.74,2.89,4.11,3.74,3.88,7.11-.09,1.33-.23,2.32.2,3.69.79,2.55.31,3.74.51,6.26.11,1.39,1.87,2.3,2.64,3.37.6.82,1.25,2.15,1.64,3.09.71,1.56,2.55,2.75,2.95,4.25.31,1.25.62,3.74.57,4.9-.09,2.47-.71,6.04.94,8.16.57.74,1.45,1.28,2.04,1.98.99,1.22.4,3.12,1.7,4.59.45.51,1.19,2.04,1.45,2.75.68,1.79,2.3,2.49,2.81,4.42.54,2.07-1.59,5.39-3.32,6.18-3.26,1.5-4.99,5.05-6.63,8.11-1.39,2.64-2.81,5.61-5.64,6.89-3.12,1.39-3.94,5.07-5.5,7.74-.68,1.13-1.33,2.72-2.52,3.46-1.36.85-3.15.03-4.45,1.11-.68.6-.91,1.39-1.79,1.59-.4.09-.77.14-1.11.4-.37.28-.74.71-1.08,1.02-.2.17-.26.45-.37.68"/>
    <path class="st1" d="M1146.84,335.08c1.7.91,3.51,1.59,5.07,2.75,2.55,1.87,6.72,1.25,9.92,1.25,3.51,0,5.87-2.58,8.76.11,3.51,3.29,10.23,4.73,14.83,5.92,2.15.57,3.77,2.21,5.78,2.83,1.28.4,4.22-2.3,5.7-2.27,3.09.06,5.9-.09,7.91-2.41,1.59-1.81,3.17-3.66,4.76-5.47,1.33-1.53.54,2.75.54,3.8,0,3.23,1.98,18.62,6.89,17.94,1.39-.2,1.9-1.73,3.77-1.36,3.51.68,4.56,0,7.8-1.05,2.69-.88,3.49.77,5.58,2.1,1.16.74,5.27,4.14,6.58,4.34,3.09.45,5.36-3.6,9.18-.57,1.9,1.5,6.55,1.45,8.08,3.15,1.84,2.04,1.36,5.33,2.07,7.99.79,3.12,4.2,3.51,4.37,7.57.11,2.41.03,4.25.6,6.6,1.02,4.14.03,6.12-.71,9.95-.82,4.28,3.03,7.11,2.04,11.76-.45,2.15,1.56,5.24,2.32,7.31l4.42,11.99c.62,1.67,1.28,2.92.82,4.71-.4,1.53-1.08,4.25-.14,5.64,2.35,3.49.94,5.61,4.96,8.84,1.93,1.53,3,4.11,5.07,5.9,3.29,2.83,5.19,6.43,9.04,8.73,3.63,2.15,8.76,3.63,11.82,6.43.99.88,2.21,1.47,3.32,2.21"/>
    <path class="st1" d="M1117.22,487.35c.88.34,1.87.43,2.61,1.02,2.83,2.32,1.16,6.07,1.98,9.3.43,1.64,1.67,2.66,1.22,4.48-.54,2.15-1.28,3.15-.54,5.39.79,2.44,1.73,4.42,1.73,7.03,0,1.59.09,3.97-1.05,5.19-2.47,2.66-2.47,7.99-2.52,11.48,0,.54-.2,2.89,0,3.88.23,1.19,1.02,2.27.77,3.49-.91,4.68,2.55,7.37-.51,11.57-1.73,2.38-1.22,5.81-1.53,8.87-.23,2.47,1.33,4.39,1.96,6.77.91,3.37-2.49,6.26-.94,9.21,1.36,2.58-.94,5.24-.94,7.68"/>
    <path class="st1" d="M1117.22,585.43c.34.54.74,1.08,1.05,1.64.82,1.5.31,3.12.65,4.85.2,1.11.4,1.96,1.08,2.92.43.6,1.22,1.05,1.45,1.76.48,1.42.54,2.92.85,4.39.43,2.07,1.3,3.37,2.24,5.13,1.11,2.13,3.2,3.51,4.56,5.47,1.79,2.58-.57,8.76-1.05,11.65-.45,2.72.03,4.82,1.05,6.77.79,1.53,1.7,3.2,3.2,4.59,2.35,2.18,3.8,4.54,7.03,5.98,2.15.96,4.22.43,6.15,2.21,2.38,2.21,1.64,6.15,2.27,9.13.68,3.37,2.81,6.32,3.03,9.92.11,1.76.65,3.46.99,5.19"/>
    <path class="st1" d="M1117.22,636.91c.77-.62,1.5-1.3,2.32-1.87.74-.51,1.59-.62,1.81-1.59.4-1.56,1.11-3.46,2.86-3.88,1.76-.45,3.09.79,4.85.48"/>
    <path class="st1" d="M1312.98,89.31c.71,1.39,1.25,2.86,2.13,4.17.79,1.16,1.96,2.04,2.83,3.15.43.54,2.35,3.83,2.58,4.2,1.05,1.87,1.45,3.51,1.62,5.24.17,1.47.28,4.68.91,5.92,1.33,2.69,1.42,4.68,1.59,7.71.17,3.54.57,6.52,2.18,9.81,1.59,3.15,4.54,2.1,7.29,2.24,2.52.11,3.23,2.86,6.35,2.41,3.69-.54,5.22,2.98,9.52,2.32,4.25-.62,7.34,1.28,10.35,4.17,1.79,1.73,4.11,3.2,5.58,5.36,2.13,3.12,4.11,5.75,7.63,7.31,1.25.57,2.61.62,3.66,1.64.74.77,1.59,3,2.69,3.23"/>
    <path class="st1" d="M1410.07,153.91c.09,1.28.09,2.55.23,3.8.34,2.95,7.34.85,9.04.6,5.58-.82,12.25,2.47,16.87,5.3,2.86,1.76,5.41,2.75,8.79,2.75s5.75,1.25,8.79,2.64c3.94,1.81,7.82,3.4,11.74.57,5.78-4.17,12.73-1.28,18.2,1.73,1.81.99,4.37,1.02,5.22,3.32.34.94.65,1.9,1.02,2.81.31.74.43,1.64,1.02,2.21,3.17,2.95,5.61,1.93,9.67,1.45.2-.03,1.81-.28,3.69.06,4.99.96,13.24,2.64,16.33,6.77,1.98,2.64,2.47,4.82,5.84,5.84,2.83.88,5.22,2.69,5.67,5.53.34,2.13,2.92,10.2,4.2,12.36,1.73,2.95,6.21,3.63,9.3,3.12,2.49-.43,5.87-2.92,8.05-2.55,4.68.82,6.97-3.12,10.97-3.74,4.08-.65,6.46,2.32,8.93,5.02,1.59,1.73,3.88,4.31,4.48,6.58.88,3.26.09,6.43,1.59,9.64,1.45,3.06-.82,6.46-1.45,9.58-1.56,7.6,2.75,9.86,9.01,12.39,2.92,1.16,6.43,2.52,7.09,5.92.68,3.49-1.3,5.58,1.98,8.84.23.2.68.68.71.85.28,1.36,1.96,5.33,2.78,6.58,1.05,1.62,2.04,1.98,2.04,4,0,3.23-1.45,5.05-.23,8.42.43,1.22.6,2.69.37,3.97-.28,1.56.71,2.81,1.39,4.05,1.25,2.3,3.37,7.06,3.06,9.67-.2,1.73-2.1,2.75-2.47,4.65-.31,1.67.45,6.21.94,7.91.48,1.73-.03,1.56-.03,3.2s1.25,2.52,2.07,3.69c.45.65,1.13,1.13,1.7,1.7,3.43,3.43,7.71,6.32,10.74,10.09,3.26,4.05,3.46,4.37,4.11,9.55,1.53,11.88,15.28,1.93,20.15,7.14.68.71,1.64,1.9,2.3,2.78,2.58,3.43,4.99,7.14,9.92,7.14"/>
    <path class="st1" d="M1351.76,440.01c1.08,1.47,2.92,2.61,3.26,4.42.96,5.13.82,8.93-2.1,13.66-2.61,4.25-2.95,9.47.06,13.66,1.42,1.96,2.95,6.38,3.12,8.87.11,1.62.74,3.69.48,5.36-.4,2.38,1.11,4.51,1.7,6.63.82,3.03.71,5.9,2.49,8.59,1.11,1.67,2.32,4.85,2.44,6.83.09,1.56,1.11,2.89,1.62,4.25.26.68.71,3.09.68,3.51-.06.57-.54,3.91-.54,4.68,0,2.38,2.07,6.01.94,7.8-1.79,2.81-1.64,5.87-3.17,9.13-.6,1.28-1.62,2.49-1.7,4-.11,2.38.34,4.54.34,6.89,0,2.55-.91,4.82-1.42,7.29-.99,4.88-2.24,8.05-1.64,13.32.51,4.65,1.11,10.06,2.1,14.63.31,1.42.99,2.52.99,4.25,0,5.73,1.73,10.69-3.94,14.14-4.48,2.75-2.98,7.2-2.95,11.65,0,.14.03.48.11.65.54,1.13.74,5.02,1.11,6.52.91,3.74,1.08,7.4,3.06,10.94,1.98,3.49,3.77,7.06,5.92,10.46.17.26,1.25,1.76,1.47,2.49,1.36,4.11,1.96,7.03,1.96,11.31,0,2.86-1.56,5.39-1.56,8.56v2.58"/>
    <path class="st1" d="M1497.06,517.09c-1.28,1.64-3,3-3.83,4.9-1.81,4.31-6.6,7.2-8.45,11.88-1.25,3.17,1.39,5.02,1.25,7.85-.14,2.86-.11,5.75-.4,8.59-.2,2.01-1.3,4.76-2.66,6.35-2.21,2.61-6.52,5.36-6.86,8.84-.4,4.22-.51,7.54-1.62,11.74-.54,2.01-1.05,5.92-2.07,7.85-1.16,2.21.14,4.05-.51,6.01-.48,1.47-1.36,2.35-1.76,4.05-.82,3.51-4.08-.2-5.84,2.61-1.64,2.58-3.34,4.62-6.09,6.46-.94.62-1.45,1.98-2.52,2.75-2.15,1.5-6.21,1.05-7.37,3.46-.31.62.48,1.13.06,1.81-.91,1.56-2.44,2.41-2.44,4.42,0,1.13.77,2.1,1.25,3.12.99,2.1.17,3.77,2.13,5.56,1.05.96,2.3,2.38,2.3,4.34.03,5.3,1.11,11.31-.17,16.47-.28,1.11-.2,2.49.28,3.66.28.68.74,1.3,1.36,1.73,1.62,1.13,2.38,4.2,3.2,5.95.4.88.85,1.79,1.53,2.64.74.96,2.01,2.15,3.06,2.75,1.16.62,3.43,1.64,3.77,3.12.09.37.31.71.48,1.08"/>
    <path class="st1" d="M1444.2,667.07c1.11-.62,2.27-1.19,3.34-1.9.91-.62,1.76-1.16,1.76-2.41,0-2.21-.4-3.43.71-5.44.4-.74.03-1.84.03-2.64,0-1.64,1.05-3.46,1.76-4.85"/>
    <path class="st1" d="M1532.84,546.99c.99.88,1.7,2.27,2.98,2.64,1.47.43,4.11.71,5.75,1.02,1.47.28,2.95.54,4.42.82,2.27.43,4.08,1.47,5.92,2.69,1.11.74,3.26,2.55,4.42,3.43,2.61,1.93,3.77,4.96,5.24,7.63,2.24,4.08,3.74,9.78,7.4,12.87,1.28,1.08,2.13,2.32,3.57,3.32,2.04,1.42,3.17,2.58,4.59,4.65,1.9,2.75,5.02,4.11,7.26,6.12,2.66,2.38,7.06,4.45,9.33,7.11,1.05,1.22,2.21,4.08,2.98,5.61,1.13,2.3,1.87,4.96,1.98,7.51.09,1.87.85,5.87,1.76,7.51,2.86,5.19,7,3.94,10.43,7.65,1.62,1.73,1.19,3.86,2.04,5.81.88,2.07,2.78,3.66,4.51,5.1,2.01,1.73,2.66,3.63,3.46,6.29.74,2.55,1.98,4,1.79,6.18-.06.51-.17,1.05-.4,1.64-1.16,3.06-.82,7.31-1.56,10.63-.28,1.33.82,2.58,1.25,3.88"/>
    <path class="st1" d="M1622.64,650.91c2.64.03,5.27.09,7.91.11"/>
    <path class="st1" d="M1648.46,667.07c-.54-.43-1.13-.77-1.62-1.25-1.25-1.16-3.69-1.33-5.13-2.24-1.36-.85-2.66-1.13-4.08-1.81-2.04-1.02-6.43-4.71-6.55-7.17-.06-1.19-.45-2.35-.54-3.54-.11-1.73-.57-3.46.03-5.05.96-2.55,8.53-4.2,10.94-5.36,4.05-1.96,8.36-.94,12.7-1.25.54-.03,1.05,0,1.59,0"/>
    <path class="st1" d="M1508.46,667.07c.57-.85,1.05-1.79,1.73-2.58.54-.62,2.18-1.22,2.52-1.9,1.16-2.21,3.12-5.95,5.33-7.17,2.07-1.16,5.07-2.44,6.8-4.22,1.62-1.67,5.44-2.83,5.84-5.27.26-1.53-1.22-3.37-.14-4.65,1.33-1.56,2.13-3.26,2.86-5.1,1.19-2.95,5.56-3.97,6.32-7.2.45-1.84-2.98-4.25-1.96-5.95,2.35-4,2.81-7.29,7.26-9.13,2.32-.96,4.05-.82,6.21-2.3,2.47-1.67,2.92-1.59,5.67-2.3,1.73-.45,2.07-2.1,3.06-3.37,4.51-5.67,14.54-6.86,20.07-10.63,3.09-2.1,7.03-1.81,9.69-4.51,3-3.03,2.78-8.28,5.92-10.8,1.59-1.28.65-2.07,1.05-3.37.37-1.19,1.84-1.9,2.32-3.15.37-.88.2-2.27.85-2.92,3-3,6.09-4.76,6.38-9.47.09-1.3.48-2.72.57-4.05.14-1.76-.79-3.46-.6-5.27.26-2.38.68-3.26,1.62-5.56.71-1.7.65-2.92,1.73-4.37,3-4.03.82-10.12,1.39-14.74.4-3.37-.65-8.93-1.22-12.25-.85-5.13,1.79-8.96,3.86-13.46.6-1.28,2.04-1.93,3.06-2.92"/>
    <path class="st1" d="M1539.72,628.94c.54.85,1.36,1.59,1.59,2.58.37,1.45,3.91,6.29,5.41,6.66,2.38.6,2.95.03,4.28,2.47,1.13,2.01,3.91,3.74,5.36,5.9,1.96,2.83,5.02,4.37,7.11,7.23,1.59,2.15,2.27,4.93,4.17,7.06,1.81,2.07,4.79,3.06,6.32,5.39.2.31.51.54.77.82"/>
    <path class="st1" d="M1518.41,486.28c.79-1.28,1.53-2.58,2.41-3.8,1.11-1.5.62-4.51,1.53-6.32.99-1.98,2.72-2.64,4.62-3.32,3.49-1.25,3.97-4.31,7.43-5.64,5.7-2.21-.37-4.73.65-7.54.06-.17,0-.31.03-.48.31-1.02-.85-4.85-.88-6.29-.06-3.43-.14-6.86-.2-10.29-.03-1.81-.09-3.86-.45-5.61-.4-1.96-1.13-3.91-.85-6.01.71-4.99-.91-6.55-3.4-10.49-1.13-1.79-2.89-3.69-3.32-5.84-.45-2.41-.94-7.09.34-9.21,1.5-2.49,3.29-1.33,3.74-5.02.4-3.17,1.96-1.79,2.81-3.49.68-1.36.88-3.51,1.81-4.71,1.3-1.64,3.66-2.1,4.22-4.48.54-2.32-1.16-5.33.88-7.23.94-.88,4.22-2.69,4.99-3.71,1.3-1.79.45-4.45,1.87-5.95,2.61-2.81,1.87-4.17,1.56-7.68-.28-3.4-.14-7.29-.54-10.54-.57-4.76,1.59-8.93,1.59-13.66,0-7.2,9.3-6.83,10.6-12.42,1.47-6.35,6.69-4.56,12.05-5.95,3.54-.91,4.34,1.56,7.11,2.66,2.58,1.02,7.57,1.02,10.09,0,.6-.23,3.83-.11,4.76-.4,1.42-.43,2.95-1.79,4.37-1.79,3.26,0,3.34-1.5,5.47-3.34,2.75-2.35,6.52,1.56,9.69,1.42,5.24-.26,10.49-.37,15.73-.74,5.19-.37,10.71,1.19,14.91,4.37,1.67,1.28,3.34,2.52,4.99,3.8,1.53,1.16,2.95,3.12,4.76,3.8.68.26,1.3.6,1.96.88"/>
    <path class="st1" d="M1523.2,89.31c.48.57,1.13.99,1.42,1.67.77,1.81,1.02,2.35.54,4.39-.28,1.16-.94,2.44-.82,3.66.17,1.84,1.13,3.8.4,5.73-.34.88-1.11,1.42-1.42,2.3-.43,1.19-.88,2.35-1.3,3.54,0,.03-.09.34-.11.45-.09,2.49-.82,4.22.91,6.75,1.08,1.56.11,4.73,1.39,5.95,1.36,1.3,2.04,5.44,2.47,6.83,1.33,4.31,2.27,4.65,5.78,7.37,5.47,4.28,9.27,9.13,13.52,14.8,1.59,2.1,5.56,6.18,6.15,8.5,1.08,4.34-8.7,2.01-9.01,5.05-.57,5.19,5.81,8.93,4.73,14.34-1.28,6.43,3.49,9.89,8.05,13.83,2.47,2.15,3.8,5.33,5.7,7.99,1.11,1.56,1.96,2.69,3.94,2.58,4.08-.23,7.4,2.32,11.51,3.09,5.84,1.08,10.4,2.35,16.55,3.37,5.24.88,5.81,2.64,11.34,1.45,3.63-.77,4.05-1.16,7.63.28,4.11,1.64,8.08.43,12.05,1.93,4.25,1.62,8.7,2.78,12.73,4.85,2.86,1.45,5.33,1.79,8.28,2.24,1.42.23,2.49.4,3.83.91,1.64.62,3.32,1.79,4.93,2.38.51.17.94.51,1.42.74"/>
    <path class="st1" d="M1616.68,498.41c-2.38.11-4.79.2-7.17.34-1.64.11-3.32.11-4.96.4-1.93.34-3.86.71-5.67,1.42-2.83,1.13-4.65,3.37-7.82,3.71-1.45.17-10.54-.03-11.57-.68-.11-.09-.26.09-.4.06-3.8-.26-6.49-2.07-10.69-1.96-4.51.11-5.81-1.42-9.69-2.92-2.21-.85-3.88-.34-6.12-.2-3.34.2-5.95-.65-9.16-1.62-2.98-.91-6.04-1.64-8.96-2.75-2.89-1.08-5.95-.77-8.31-2.32-2.01-1.36-2.64-3.88-4.71-5.05-1.02-.57-2.92-1.59-3.09-.6-.28,1.53.94,4.85.57,6.35-.43,1.67-1.47,2.47-2.49,3.74-1.59,1.96.2,3.51-2.32,5.27-1.73,1.19-2.21,3.49-2.47,5.53-.2,1.59-.23,2.98-2.04,3.71-2.15.91-.99,3.88-4.03,4.9-2.86.96-5.22.68-4.9,2.49.11.62.54,1.53,1.39,2.81,2.75,4.22,6.04,9.33,10.52,11.85,1.56.88,3.51,2.41,5.1,3.32,3.06,1.76,6.09,3.51,9.16,5.27,1.45.82,4.65,4.85,5.78,5.22.11.03.11.17.2.23"/>
    <path class="st1" d="M1117.22,584.67c.74-.65,1.45-1.36,2.24-1.98,1.87-1.53,2.55-.65,3.83,1.08,1.5,2.07,3.63,1.9,5.87,1.98,3.06.14,6.92,3.54,10.2,4.22,2.83.6,5.05.51,7.63,1.93,4.62,2.52,4.65-2.55,4.79-6.15.11-2.35,1.93-2.44,2.69-4.25,1.13-2.66,1.87-2.66,4.56-3.37,2.44-.65,1.81,1.25,3.15-2.69.62-1.87,1.33-3.26,3-4.42,1.33-.91,1.87.77,3.29.23,3.17-1.16,2.52-2.81,6.01-.85,3.2,1.79,3.88,4.76,5.87,7.54.74,1.02.99,2.52,2.04,3.29,1.08.79,1.93,2.01,3.2,2.41,2.55.77,4.82,1.96,6.8,4,2.52,2.61,3.97,8.96,8.42,8.96,1.64,0,3.09-1.13,4.76-1.36,2.89-.4,6.83,2.27,10.2,2.27,3.77,0,7-1.42,9.86-.03.88.43,1.7,1.13,2.49,2.21,1.08,1.45.77,2.81.77,4.51,0,2.24.96,3.94,1.98,5.84.28.54.85,1.13.99,1.7.2.94,3.15,5.75,3.69,7.17,1.16,3.03.06,6.41,1.22,9.75,1.13,3.2,2.13,5.58,2.75,8.96.68,3.74,3.66,10.32,2.86,14.09-.37,1.76-1.19,3.34-1.56,5.19-.51,2.52.34,4.9.34,7.46v2.83"/>
    <path class="st1" d="M1225.62,597.42c.23-1.19.23-2.47.68-3.6.74-1.79,1.36-2.81,1.81-4.71.74-3,2.13-6.07,1.45-9.27-.6-2.81-1.3-7.6-.06-10.26,1.36-2.95.77-4.71,3.77-7,3.71-2.83,6.18-7.88,9.04-11.51,3.23-4.08,7.54-7.97,11.62-11.31,1.13-.94,1.56-2.3,1.9-3.91.68-3.26-.82-5.53,1.62-7.99,1.98-2.01,1.7-2.49,2.32-5.02,1.96-7.91,10.52-.03,13.52-7.11,1.42-3.34,1.08-4.62,5.61-5.13,7.34-.82,5.41-7.34,9.86-11.2,4.11-3.57,1.79-6.97,5.3-11,2.15-2.47,1.33-5.78,5.3-7.31,3.88-1.5,3.46-2.47,4.96-5.98.82-1.96,1.96-2.47,3.66-3.46,1.25-.71,1.7-1.84,2.52-2.95,1.05-1.36,3.34-1.79,4.62-3.09,1.42-1.42,2.3-2.98,3.4-4.54.74-1.05.85-4.25,1.47-5.75,1.7-4,1.79-9.92,5.27-12.87,4.68-3.91,15.76-2.32,21.12-1.02,3.03.74,4.25-.11,5.33-1.5.71-.94,1.36-2.13,2.41-3.2,1.76-1.76,4.96-.91,7.03-3.03,3.23-3.37,5.7,1.02,8.96.71,1.56-.14,2.38-1.59,4.2-1.53,9.58.37,2.32-8.87,8.48-10.77,5.13-1.59,8.31-3.34,7.94-8.96-.23-3.49,3.69-5.64,5.33-7.94,1.25-1.73,0-4.39,1.22-6.01,1.59-2.1,7.06-.51,7.26-3.15.11-1.62.26-3.23.37-4.85.14-1.67.74-3.51,1.25-5.05.54-1.59,1.3-4.62,1.59-6.32.28-1.84,1.76-3.32,1.42-5.27-.2-1.13-1.25-2.69-.23-3.74,3.6-3.83.82-8.5,3.4-12.27,2.24-3.23,4.51-10.52,2.86-14.17-1.05-2.32-1.81-4.65-.2-7s1.7-5.07,3.03-7.57c2.38-4.39,2.92-10.15,5.67-14.34,2.92-4.45,5.58-9.1,8.79-13.35,2.55-3.43,4.71-10.6,2.32-14.46-1.36-2.21-2.92-3.34-1.87-6.15.99-2.64.43-4.62.17-7.31-.26-2.66-1.13-4.56-2.13-7.14-1.11-2.86.06-4.03.06-6.83,0-2.21-.6-6.26-1.81-8.08-1.39-2.1-3.37-4.37-4.17-6.77-.74-2.24-2.55-4.71-4.25-6.29-3-2.78-6.01-7.37-7.88-11.08-1.22-2.41-2.04-3.2.54-4.65,1.47-.82.99-4.39,1.53-5.78.65-1.73-.11-4.51-.68-6.07-.74-2.01-1.59-3.94-1.93-6.07-.54-3.23-.71-4.76-2.81-7.37-1.9-2.32-1.59-5.53-2.04-8.36-.43-2.72-1.08-5.07-2.75-7.31-3.43-4.59-1.7-7.51-1.7-12.56,0-5.56-5.58-6.92-9.84-8.67-.14-.06-.4.09-.48-.06-.37-.74-8.99-.48-10.37-.77-2.89-.6-3.86-1.33-2.66-2.18.43-.31,1.13-.62,2.1-.96,2.58-.88,5.16.48,7.71-.85,4.9-2.58,8.93-3.86,14.49-4.08,1.96-.09,3.86.77,5.9,1.64,2.01.88,4.14,2.07,6.41,1.79,1.42-.2,4.11-.45,5.7-.65l10.46-1.19c1.81-.2,4.68,2.27,5.64-.11.45-1.11,1.3-2.92,2.44-3.34,2.89-1.11,1.45-3.46,3.17-5.19.88-.88,1.76-.77,2.13-2.21.34-1.42.4-3.12.51-4.54.23-2.55-.48-5.07-.71-7.63-.09-1.05-.09-1.93-.31-2.92-.17-.74-.94-1.36-1.19-1.76-.09-.14-.34-.03-.43-.14-.2-.2-2.07.2-2.52.14-.91-.11-1.36-.85-1.56-1.64-.37-1.47-2.83-.99-3.94-2.47-.68-.91-1.36-1.81-2.04-2.69-.88-1.16-.57-2.69-1.05-3.91-.82-2.1-1.39-4.25-2.1-6.41-.45-1.36-1.28-2.69-2.07-3.86-1.42-2.07-1.08-4.34-1.96-6.49-.88-2.13-3.09-3.06-3.86-4.9-.6-1.47-1.05-3-1.59-4.48"/>
    <path class="st1" d="M1308.02,471.71c.45,1.73,1.08,3.4,1.39,5.19.4,2.44,1.53,5.16,2.75,7.37,1.11,2.01,2.95,2.3,4.39,3.74,2.66,2.66,2.61,6.89,4.71,9.84,1.11,1.56,2.69,1.96,3.74,3.26,1.22,1.47,2.89,3.32,4.45,4.48,3.51,2.58,2.52,8.25,7.91,10.12,3.2,1.11,6.41,2.21,9.64,3.32,4.34,1.5,4.93-.62,7.34-3.69,1.19-1.5,2.98-.68,4.39-1.9,2.24-1.93,2.86-3.29,5.92-2.27,2.64.88,3.34-2.55,5.7-2.44,1.81.09,1.79-6.86,6.86-6.86,1.84,0,5.05,2.24,6.89,3,3.03,1.28,5.75,5.07,6.12,8.33.2,1.73,1.36,3.74,2.49,4.96,1.33,1.45-.11,4.68,1.53,5.98,3.17,2.58,4.56,2.69,7.51-.48,4.62-4.96,8.39-3.83,14.6-2.44,1.76.4,5.39,1.5,6.46-.48.45-.82.4-2.38.51-3.32.14-1.39.94-2.47,1.42-3.54,1.64-3.74,7.31-2.89,10.35-1.5,1.67.79,5.47,3.06,7.11,1.53,1.73-1.62,2.07-4,4.9-3.32,1.7.4,2.15-1.3,3-2.44,1.5-1.98,4.05-1.05,5.13-3.17,1.59-3.06,3.57-3.26,6.52-3.74.88-.14,2.1-.34,3-.48,2.1-.34,3.94,1.28,6.21.94,3.26-.48,6.26-1.3,9.1,1.11,3,2.58,7.88,6.07,11.62,7.74,2.07.94,2.64,2.69,3.66,4.51.62,1.08,1.16,1.7,1.81,2.07.94.57,2.01.65,3.66,1.16"/>
    <path class="st5" d="M1616.68,498.41c1.73-1.45,3.29-3.15,5.22-4.34,2.83-1.76,5.92-3.12,8.99-4.39,1.81-.77,3.88-.94,5.67-1.76,1.56-.71,2.78-2.1,4.34-2.83,1.62-.77,3.34-1.53,5.13-1.62,3.29-.14,6.52.62,9.81.94"/>
    <path class="st4" d="M1388.07,261.91l25.6.68c.65,2.89-.34,2.83-1.53,5.19-1.11,2.18.31,5.9.82,8.39.31,1.53-1.33,7.91-.2,8.19-.03.06,1.16,2.41,1.42,2.66.74.74,1.05-.91,1.81-.91s1.13.88,2.1.23c3.26-2.18,3.88-.2,7.26-.45,1.56-.11,2.21-1.62,4-.68,1.87.99,2.81-.37,4.82-.37,1.33.4,2.55.14,3.91.23,1.93.14,4.03,2.07,5.87,1.42,2.15-.74,1.96-1.16,4.22-.23,1.33.54,4.39.31,5.92.57,1.39.23,4.59.23,5.75.91l7.11-25.65,6.01,21.46,12.16,20.38,15.19,20.78,23.05,25.46,2.44,23.81,9.18,14.63,17.63,9.55,23.5,3.71,13.72,30.1,14.8,16.92c-.51,5.22-.37,12.19-6.32,13.66-.51,2.1-2.58,5.73-1.08,8.19-1.33,1.76-2.75,4.34-4.39,6.6l-5.39,8.96-4.25,1.9-6.49.74,2.44,5.84.94,2.78.11,2.64,2.86,5.7,6.35,7.68c.4.74.14,1.36.34,2.13.06,0,.11.03.17.06.94-.57.99-.14,1.56.23-.09.37-.48.88-.37,1.25.09.4.79.57.85.82.91.23.48,1.36.77,1.98l1.62,3.46c2.58,5.19,6.09,13.29,10.69,16.89,1.62,1.28,3.17.17,4.39,1.05,4.56,3.29,8.59,3.77,12.53,8.25.99,2.61,2.52,5.1,3.4,7.68,1.36,3.88,5.36,5.22,5.36,9.75,0,5.56,1.96,7.09,6.63,10.03.43.54.94,1.02,1.19,1.64.11.31.28.57.37.88.09.34.17.77.34,1.08l.77,1.87h0c-1.9,0-1.79-.48-3.66-.17-1.3.23-2.44,1.05-3.66,1.59-1.25.57-2.49,1.19-3.74,1.79-.99,0-3.23.11-4.14.51-.94.4-1.5,1.73-2.58,1.73-.51,0-.79-.28-1.25,0,.03.09-.37,1.19-.37,1.53,0,.65.23.99.43,1.59.34.94-.65,1.3-.4,1.98,1.02,2.81-1.42,2.27-3.23,2.44-2.49.94-12.25,3.63-11.23,7.82.6,2.35.62,2.38-1.64,2.38-1.13,4.65-4.73,1.28-7.37,3.03-3.74,2.49-6.86-.17-10.52-1.02-1.19-.28-1.42,1.3-2.35,1.59-1.98.62-4.59-3.34-6.86-4.08,0-1.9,2.58-5.3,1.36-6.89-1.98-2.55-3.51-3.97-6.83-4.51-4.68-1.19-4.76-.23-6.8-4.51-1.39-2.95-.54-3.63-3.91-4.34-6.75-1.39-8.7,5.33-15.68,2.86-8.02-2.83-4.34-2.27-8.62,3-2.04,2.49-3.09,2.15-5.95,2.81-.51.11-.37,2.15-.77,2.66.74.96,4.54-.26,4.62,1.33.14,2.41-2.3,4.39-4,5.75-.45.62-1.73,3.8-1.73,4.42.6.2,2.24,1.08,1.98,1.81-.37,1.08-.82,2.83-1.96,3.12,0,.6.4,1.93.14,2.32-.31.51-2.81-.06-3.15-.28-1.13,1.13,2.04,4.48,3.49,4.56,4.39.28-1.93,3-1.79,3.63.34,1.67,1.47,2.55,1.64,4.31-.14,1.08-.11,3.2.23,4.2.54,1.47-1.25,1.76-1.56,2.41-.43.82-.06,1.93-.6,2.78-.68,1.08-2.27.37-2.35,1.96-.06.77-3.23,1.56-3.94,1.59-3.32.2-3.12-1.87-5.64-2.83-3.15-1.19-6.04-2.72-8.7-.03-.45.45-2.3,2.89-2.15,3.46.62,2.83-1.79,3.46-1.45,5.13.2,1.08,1.05,1.96.28,3-.77,1.02-2.15.68-2.98,1.36l-3.86,7.99h0c-1.22-1.22-3.12-4.59-4.96-4.59s-1.53-3.2-2.49-4.39c-.88-1.08-2.07-2.04-2.78-3.32-.43-.77-.88-1.59-1.47-2.21-4.11-4.65-9.81-10.43-11.59-16.44l-.48-1.59c0-.45-3.29-.57-3.77-.57-1.36,0-3.15-.11-4.37-.6-2.38-.99-3.83-5.87-5.58-6.26-.82-1.64-2.32-3.54-4.37-3.03-1.93.48-3.29,1.3-4.03-1.64-2.81-.71-6.41,1.9-9.98,1.22-1.76-.34-5.92-3.54-5.92-5.39,0-2.47-2.86-1.7-3.15-3.83-.09-.6.77-2.3,1.25-2.47,0-.14.03-.26.06-.45l-4.88-1.33-7.82,6.6,1.76,18.48-35.06-6.43h0l-25.2-15.36-.37-4.71c0-2.41-.91-3.51-1.42-5.56-.43-1.7,1.08-3.06.11-4.54-.62-.94-1.02-1.53-1.02-2.75,0-.6-.2-3.32-.88-3.49-.14-1.08-2.41-2.27-2.69-3.8-.34-1.79.65-3.86-.6-5.36l-13.35.4c-1.67-.62-.26-2.55-1.28-3.43-1.25-1.05-2.81-.88-4.34-1.28-.91-.23-2.1-.79-3.03-.6l6.83,13.58-5.33,3.66-9.64-10.97c-.96-2.13-2.27-3.51-2.83-5.78-2.3-.57-3.34-3.83-3.34-5.84,0-3.03-3.86-1.45-4.9-4.03-.51-1.22-1.81-3.49-1.81-4.73-.14-.06-.09-.4-.11-.48l-2.58-6.77-7.51-12.39-4.65-2.58-9.13-1.62-9.04-9.07-3.66-12.19-4.39-7.51-7.71-13.66-5.27-7.8-3.12-9.75-5.33.14-.94-4.88-3.17-11.03-8.59-10.77-17.38-16.78-26.19-28.52-3.17-12.95h0l1.53-1.36,2.49-18.88,2.69-3.32,7.03-9.47,4.73-14.83,3.83-21.71-33.62-49.63-13.89.48-2.61.94-8.05-11.71-7.43-5.36-16.21-20.75,18.34-129.12h0l29.96,11.37,4.34,1.62,22.17-1.5,11.08,19.16,5.13,1.7,5.95,15.9,3.46-1.36,1.42,2.92,8.39,4.68,4.11,4.93,7.03-5.9,6.89-3.37,1.42,10.83,10.46,2.83-20.66,17.26,6.83,4.48,12.56,17.32,3.66,8.33,8.05,14.54,1.42,3.8-.82,8.19,7.91,10.63,4.2-3.26,16.75,3.66,9.86-.4,8.65,2.64,5.61,1.81,22.31,1.16,17.83,4,7.43,8.59,5.61-7.03h0l.11.09v.04ZM1117.22,89.31h538.58v577.76h-538.58V89.31Z"/>
  </g>
  <line class="st2" x1="1256.8" y1="369.15" x2="1393.91" y2="378.2"/>
  <line class="st2" x1="1308.8" y1="472.77" x2="1393.91" y2="378.2"/>
  <line class="st2" x1="1401.38" y1="403.13" x2="1393.91" y2="378.2"/>
  <line class="st2" x1="1462.83" y1="427.82" x2="1393.91" y2="378.2"/>
  <line class="st2" x1="1449.56" y1="463.46" x2="1522.12" y2="518.56"/>
  <line class="st2" x1="1526.11" y1="490" x2="1522.12" y2="518.56"/>
  <line class="st2" x1="1498.76" y1="516.4" x2="1522.12" y2="518.56"/>
  <line class="st2" x1="1445.94" y1="539.54" x2="1522.12" y2="518.56"/>
  <line class="st2" x1="1476.71" y1="591.09" x2="1522.12" y2="518.56"/>
  <line class="st2" x1="1536.14" y1="548.04" x2="1522.12" y2="518.56"/>
  <line class="st2" x1="1581.93" y1="594.63" x2="1522.12" y2="518.56"/>
  <circle class="st7" cx="1526.11" cy="490" r="12.06"/>
  <circle class="st7" cx="1498.76" cy="516.4" r="10.41"/>
  <circle class="st7" cx="1536.14" cy="548.04" r="6.48"/>
  <circle class="st7" cx="1581.93" cy="594.63" r="5.14"/>
  <circle class="st7" cx="1476.71" cy="591.09" r="6.32"/>
  <circle class="st7" cx="1449.56" cy="463.46" r="4.93"/>
  <circle class="st7" cx="1462.83" cy="427.82" r="5.32"/>
  <circle class="st7" cx="1445.94" cy="539.54" r="5.03"/>
  <circle class="st7" cx="1401.38" cy="403.13" r="6.57"/>
  <circle class="st7" cx="1308.8" cy="472.77" r="5.16"/>
  <circle class="st7" cx="1256.8" cy="369.15" r="5.75"/>
  <rect class="st6" x="1513.57" y="510.01" width="17.1" height="17.1"/>
  <rect class="st6" x="1385.36" y="369.66" width="17.1" height="17.1"/>
  <g>
    <path class="st9" d="M455.77,157.92c-.95.92-2.4,1.38-4.36,1.38h-3.22v6.98h-2.18v-16.73h5.4c1.89,0,3.32.46,4.31,1.37.98.91,1.48,2.09,1.48,3.53s-.48,2.55-1.43,3.47h0ZM454.1,156.71c.58-.53.86-1.28.86-2.26,0-2.06-1.18-3.1-3.55-3.1h-3.22v6.14h3.22c1.22,0,2.11-.26,2.69-.79h0Z"/>
    <path class="st9" d="M472.97,154v1.85h-12.48v-1.85h12.48ZM472.97,159.16v1.85h-12.48v-1.85h12.48Z"/>
    <path class="st9" d="M478.25,150.99c.9-1.54,2.46-2.32,4.7-2.32s3.78.77,4.68,2.32,1.34,3.69,1.34,6.44-.45,4.98-1.34,6.53c-.9,1.55-2.46,2.33-4.68,2.33s-3.81-.78-4.7-2.33c-.9-1.55-1.34-3.73-1.34-6.53s.45-4.9,1.34-6.44ZM486.54,153.89c-.18-.97-.56-1.75-1.13-2.34s-1.39-.89-2.46-.89-1.92.3-2.48.89-.94,1.37-1.13,2.34c-.18.97-.28,2.15-.28,3.54s.09,2.65.28,3.62c.18.98.56,1.76,1.13,2.35s1.4.89,2.48.89,1.89-.3,2.46-.89c.57-.59.94-1.38,1.13-2.35.18-.98.28-2.18.28-3.62s-.09-2.57-.28-3.54Z"/>
  </g>
  <g>
    <path class="st9" d="M1017.79,158.36c-.95.92-2.4,1.38-4.36,1.38h-3.22v6.98h-2.18v-16.73h5.4c1.89,0,3.32.46,4.31,1.37.98.91,1.48,2.09,1.48,3.53s-.48,2.55-1.43,3.47h0ZM1016.12,157.15c.58-.53.86-1.28.86-2.26,0-2.06-1.18-3.1-3.55-3.1h-3.22v6.14h3.22c1.22,0,2.11-.26,2.69-.79h0Z"/>
    <path class="st9" d="M1034.99,154.44v1.85h-12.48v-1.85h12.48ZM1034.99,159.6v1.85h-12.48v-1.85h12.48Z"/>
    <path class="st9" d="M1038.34,151.37v-1.99h4.51v17.35h-2.21v-15.36h-2.3Z"/>
  </g>
  <g>
    <path class="st9" d="M1573.37,158.92c-.95.92-2.4,1.38-4.36,1.38h-3.22v6.98h-2.18v-16.73h5.4c1.89,0,3.32.46,4.31,1.37.98.91,1.48,2.09,1.48,3.53s-.48,2.55-1.43,3.47ZM1571.7,157.71c.58-.53.86-1.28.86-2.26,0-2.06-1.18-3.1-3.55-3.1h-3.22v6.14h3.22c1.22,0,2.11-.26,2.69-.79h0Z"/>
    <path class="st9" d="M1590.57,155v1.85h-12.48v-1.85h12.48ZM1590.57,160.16v1.85h-12.48v-1.85h12.48Z"/>
    <path class="st9" d="M1599.01,161.52c1.15-1.05,2.12-2.14,2.92-3.29.79-1.14,1.19-2.27,1.19-3.37,0-1.04-.25-1.86-.76-2.46s-1.32-.9-2.44-.9-1.93.34-2.53,1.02c-.6.68-.92,1.59-.97,2.72h-2.11c.06-1.79.61-3.18,1.63-4.15,1.02-.98,2.34-1.46,3.96-1.46s2.96.46,3.92,1.37c.97.91,1.45,2.17,1.45,3.77,0,1.33-.4,2.62-1.19,3.88-.79,1.26-1.69,2.36-2.7,3.31s-2.3,2.06-3.86,3.32h8.26v1.82h-11.54v-1.56c2.03-1.63,3.62-2.97,4.78-4.02h-.01Z"/>
  </g>
  <g>
    <g>
      <circle class="st7" cx="597.27" cy="30.64" r="12"/>
      <g>
        <path class="st0" d="M639.93,23.36l-4.11,14.17h-2.07l-3.29-11.41-3.42,11.41-2.05.02-3.96-14.19h1.97l3.09,12.02,3.42-12.02h2.07l3.25,11.98,3.11-11.98h1.99Z"/>
        <path class="st0" d="M652.07,32.66h-8.9c.07,1.1.44,1.96,1.13,2.57.68.62,1.52.92,2.49.92.8,0,1.47-.19,2-.56.54-.37.91-.87,1.13-1.49h1.99c-.3,1.07-.89,1.94-1.79,2.61s-2.01,1.01-3.33,1.01c-1.06,0-2-.24-2.84-.71-.83-.47-1.49-1.15-1.96-2.02-.47-.87-.71-1.89-.71-3.04s.23-2.16.69-3.03c.46-.87,1.11-1.54,1.94-2,.83-.47,1.79-.7,2.88-.7s1.99.23,2.81.69c.81.46,1.44,1.09,1.88,1.9.44.81.66,1.72.66,2.73,0,.35-.02.73-.06,1.12ZM649.75,29.33c-.31-.51-.74-.89-1.27-1.16s-1.13-.4-1.78-.4c-.94,0-1.73.3-2.39.89-.66.6-1.03,1.42-1.13,2.48h7.03c0-.7-.16-1.31-.47-1.82Z"/>
        <path class="st0" d="M654.63,24.22c-.24-.24-.37-.54-.37-.89s.12-.65.37-.89.54-.37.89-.37.63.12.86.37.36.54.36.89-.12.65-.36.89-.53.37-.86.37-.65-.12-.89-.37ZM656.42,26.39v11.14h-1.85v-11.14h1.85Z"/>
        <path class="st0" d="M666.7,26.84c.73.42,1.26.95,1.62,1.59v-2.03h1.87v11.38c0,1.02-.22,1.92-.65,2.71-.43.79-1.05,1.41-1.86,1.86-.81.45-1.75.67-2.82.67-1.46,0-2.68-.35-3.66-1.04-.98-.69-1.55-1.63-1.73-2.83h1.83c.2.68.62,1.22,1.26,1.64.64.41,1.4.62,2.3.62,1.02,0,1.85-.32,2.49-.96.64-.64.97-1.53.97-2.68v-2.34c-.37.65-.91,1.19-1.63,1.63-.72.43-1.56.65-2.52.65s-1.89-.24-2.69-.73c-.81-.49-1.44-1.17-1.9-2.05-.46-.88-.69-1.88-.69-3.01s.23-2.14.69-3c.46-.86,1.09-1.53,1.9-2,.81-.47,1.7-.71,2.69-.71s1.81.21,2.53.63ZM667.81,29.75c-.34-.62-.8-1.1-1.37-1.43-.58-.33-1.21-.5-1.9-.5s-1.32.16-1.89.49-1.02.8-1.36,1.42c-.34.62-.51,1.36-.51,2.2s.17,1.6.51,2.23.79,1.11,1.36,1.44c.57.33,1.2.5,1.89.5s1.32-.17,1.9-.5c.58-.33,1.03-.81,1.37-1.44s.51-1.37.51-2.21-.17-1.57-.51-2.2Z"/>
        <path class="st0" d="M681.12,26.73c.68.36,1.21.9,1.6,1.62.39.72.58,1.59.58,2.62v6.57h-1.83v-6.3c0-1.11-.28-1.96-.83-2.55-.56-.59-1.31-.88-2.28-.88s-1.75.3-2.33.91c-.58.61-.86,1.5-.86,2.66v6.16h-1.85v-15.04h1.85v5.49c.37-.57.87-1.01,1.52-1.32.64-.31,1.37-.47,2.17-.47.84,0,1.6.18,2.28.54Z"/>
        <path class="st0" d="M688.59,27.92v6.57c0,.54.12.93.35,1.15.23.22.63.34,1.2.34h1.36v1.57h-1.67c-1.03,0-1.8-.24-2.32-.71-.52-.47-.77-1.25-.77-2.34v-6.57h-1.44v-1.52h1.44v-2.81h1.85v2.81h2.91v1.52h-2.91Z"/>
        <path class="st0" d="M703.83,32.66h-8.9c.07,1.1.44,1.96,1.13,2.57.68.62,1.52.92,2.49.92.8,0,1.47-.19,2-.56.54-.37.91-.87,1.13-1.49h1.99c-.3,1.07-.89,1.94-1.79,2.61s-2.01,1.01-3.33,1.01c-1.06,0-2-.24-2.84-.71-.83-.47-1.49-1.15-1.96-2.02-.47-.87-.71-1.89-.71-3.04s.23-2.16.69-3.03c.46-.87,1.11-1.54,1.94-2,.83-.47,1.79-.7,2.88-.7s1.99.23,2.81.69c.81.46,1.44,1.09,1.88,1.9.44.81.66,1.72.66,2.73,0,.35-.02.73-.06,1.12ZM701.52,29.33c-.31-.51-.74-.89-1.27-1.16s-1.13-.4-1.78-.4c-.94,0-1.73.3-2.39.89-.66.6-1.03,1.42-1.13,2.48h7.03c0-.7-.16-1.31-.47-1.82Z"/>
        <path class="st0" d="M706.33,28.93c.46-.86,1.09-1.53,1.9-2,.81-.47,1.71-.71,2.71-.71.87,0,1.67.2,2.42.6.75.4,1.31.93,1.71,1.58v-5.9h1.87v15.04h-1.87v-2.09c-.37.66-.91,1.21-1.63,1.64-.72.43-1.56.64-2.52.64s-1.89-.24-2.69-.73c-.81-.49-1.44-1.17-1.9-2.05-.46-.88-.69-1.88-.69-3.01s.23-2.14.69-3ZM714.57,29.75c-.34-.62-.8-1.1-1.37-1.43-.58-.33-1.21-.5-1.9-.5s-1.32.16-1.89.49-1.02.8-1.36,1.42c-.34.62-.51,1.36-.51,2.2s.17,1.6.51,2.23.79,1.11,1.36,1.44c.57.33,1.2.5,1.89.5s1.32-.17,1.9-.5c.58-.33,1.03-.81,1.37-1.44s.51-1.37.51-2.21-.17-1.57-.51-2.2Z"/>
        <path class="st0" d="M725.51,28.93c.46-.86,1.09-1.53,1.9-2,.81-.47,1.71-.71,2.71-.71.87,0,1.67.2,2.42.6.75.4,1.31.93,1.71,1.58v-5.9h1.87v15.04h-1.87v-2.09c-.37.66-.91,1.21-1.63,1.64-.72.43-1.56.64-2.52.64s-1.89-.24-2.69-.73c-.81-.49-1.44-1.17-1.9-2.05-.46-.88-.69-1.88-.69-3.01s.23-2.14.69-3ZM733.74,29.75c-.34-.62-.8-1.1-1.37-1.43-.58-.33-1.21-.5-1.9-.5s-1.32.16-1.89.49-1.02.8-1.36,1.42c-.34.62-.51,1.36-.51,2.2s.17,1.6.51,2.23.79,1.11,1.36,1.44c.57.33,1.2.5,1.89.5s1.32-.17,1.9-.5c.58-.33,1.03-.81,1.37-1.44s.51-1.37.51-2.21-.17-1.57-.51-2.2Z"/>
        <path class="st0" d="M749.35,32.66h-8.9c.07,1.1.44,1.96,1.13,2.57.68.62,1.52.92,2.49.92.8,0,1.47-.19,2-.56.54-.37.91-.87,1.13-1.49h1.99c-.3,1.07-.89,1.94-1.79,2.61s-2.01,1.01-3.33,1.01c-1.06,0-2-.24-2.84-.71-.83-.47-1.49-1.15-1.96-2.02-.47-.87-.71-1.89-.71-3.04s.23-2.16.69-3.03c.46-.87,1.11-1.54,1.94-2,.83-.47,1.79-.7,2.88-.7s1.99.23,2.81.69c.81.46,1.44,1.09,1.88,1.9.44.81.66,1.72.66,2.73,0,.35-.02.73-.06,1.12ZM747.04,29.33c-.31-.51-.74-.89-1.27-1.16s-1.13-.4-1.78-.4c-.94,0-1.73.3-2.39.89-.66.6-1.03,1.42-1.13,2.48h7.03c0-.7-.16-1.31-.47-1.82Z"/>
        <path class="st0" d="M767.57,26.73c.68.36,1.21.9,1.61,1.62.39.72.59,1.59.59,2.62v6.57h-1.83v-6.3c0-1.11-.27-1.96-.82-2.55s-1.29-.88-2.23-.88-1.73.31-2.3.92c-.57.62-.85,1.51-.85,2.67v6.14h-1.83v-6.3c0-1.11-.27-1.96-.82-2.55-.55-.59-1.29-.88-2.23-.88s-1.73.31-2.3.92c-.57.62-.85,1.51-.85,2.67v6.14h-1.85v-11.14h1.85v1.61c.37-.58.86-1.03,1.47-1.34.62-.31,1.3-.47,2.04-.47.93,0,1.76.21,2.48.63.72.42,1.25,1.04,1.61,1.85.31-.79.83-1.4,1.55-1.83.72-.43,1.52-.65,2.4-.65s1.64.18,2.32.54Z"/>
        <path class="st0" d="M772.8,28.93c.46-.86,1.09-1.53,1.9-2,.81-.47,1.7-.71,2.69-.71s1.82.21,2.54.63c.72.42,1.25.95,1.61,1.59v-2.03h1.87v11.14h-1.87v-2.07c-.37.65-.91,1.19-1.64,1.62-.73.43-1.57.64-2.53.64s-1.88-.24-2.68-.73c-.8-.49-1.43-1.17-1.89-2.05-.46-.88-.69-1.88-.69-3.01s.23-2.14.69-3ZM781.03,29.75c-.34-.62-.8-1.1-1.37-1.43-.58-.33-1.21-.5-1.9-.5s-1.32.16-1.89.49-1.02.8-1.36,1.42c-.34.62-.51,1.36-.51,2.2s.17,1.6.51,2.23.79,1.11,1.36,1.44c.57.33,1.2.5,1.89.5s1.32-.17,1.9-.5c.58-.33,1.03-.81,1.37-1.44s.51-1.37.51-2.21-.17-1.57-.51-2.2Z"/>
        <path class="st0" d="M795.26,27.42c.84.82,1.26,2,1.26,3.55v6.57h-1.83v-6.3c0-1.11-.28-1.96-.83-2.55-.56-.59-1.31-.88-2.28-.88s-1.75.3-2.33.91c-.58.61-.86,1.5-.86,2.66v6.16h-1.85v-11.14h1.85v1.59c.37-.57.86-1.01,1.49-1.32.63-.31,1.32-.47,2.08-.47,1.36,0,2.45.41,3.29,1.23Z"/>
        <path class="st0" d="M799.55,28.93c.46-.86,1.09-1.53,1.9-2,.81-.47,1.71-.71,2.71-.71.87,0,1.67.2,2.42.6.74.4,1.31.93,1.71,1.58v-5.9h1.87v15.04h-1.87v-2.09c-.37.66-.91,1.21-1.63,1.64-.72.43-1.56.64-2.52.64s-1.89-.24-2.69-.73c-.81-.49-1.44-1.17-1.9-2.05-.46-.88-.69-1.88-.69-3.01s.23-2.14.69-3ZM807.79,29.75c-.34-.62-.8-1.1-1.37-1.43-.58-.33-1.21-.5-1.9-.5s-1.32.16-1.89.49c-.57.33-1.02.8-1.36,1.42-.34.62-.51,1.36-.51,2.2s.17,1.6.51,2.23c.34.63.79,1.11,1.36,1.44.57.33,1.2.5,1.89.5s1.32-.17,1.9-.5c.58-.33,1.03-.81,1.37-1.44s.51-1.37.51-2.21-.17-1.57-.51-2.2Z"/>
        <path class="st0" d="M827.45,27.42c.84.82,1.26,2,1.26,3.55v6.57h-1.83v-6.3c0-1.11-.28-1.96-.83-2.55-.56-.59-1.31-.88-2.28-.88s-1.75.3-2.33.91-.86,1.5-.86,2.66v6.16h-1.85v-11.14h1.85v1.59c.37-.57.86-1.01,1.49-1.32.63-.31,1.32-.47,2.08-.47,1.35,0,2.45.41,3.29,1.23Z"/>
        <path class="st0" d="M833.76,37.01c-.85-.47-1.51-1.15-1.99-2.02-.48-.87-.72-1.89-.72-3.04s.25-2.14.74-3.02c.5-.87,1.17-1.55,2.02-2.01.85-.47,1.81-.7,2.87-.7s2.01.23,2.87.7c.85.47,1.53,1.14,2.02,2s.74,1.88.74,3.03-.25,2.17-.76,3.04c-.51.87-1.2,1.55-2.06,2.02-.87.47-1.83.71-2.89.71s-1.99-.24-2.84-.71ZM838.46,35.62c.58-.31,1.05-.78,1.41-1.4.36-.62.54-1.38.54-2.28s-.18-1.65-.53-2.28c-.35-.62-.81-1.09-1.38-1.39s-1.19-.46-1.85-.46-1.3.15-1.86.46-1.01.77-1.35,1.39c-.34.62-.51,1.38-.51,2.28s.17,1.67.5,2.3c.33.62.78,1.09,1.33,1.39.55.3,1.16.46,1.83.46s1.29-.16,1.87-.47Z"/>
        <path class="st0" d="M844.75,28.93c.46-.86,1.09-1.53,1.9-2,.81-.47,1.71-.71,2.71-.71.87,0,1.67.2,2.42.6.74.4,1.31.93,1.71,1.58v-5.9h1.87v15.04h-1.87v-2.09c-.37.66-.91,1.21-1.63,1.64-.72.43-1.56.64-2.52.64s-1.89-.24-2.69-.73c-.81-.49-1.44-1.17-1.9-2.05-.46-.88-.69-1.88-.69-3.01s.23-2.14.69-3ZM852.98,29.75c-.34-.62-.8-1.1-1.37-1.43-.58-.33-1.21-.5-1.9-.5s-1.32.16-1.89.49c-.57.33-1.02.8-1.36,1.42-.34.62-.51,1.36-.51,2.2s.17,1.6.51,2.23c.34.63.79,1.11,1.36,1.44.57.33,1.2.5,1.89.5s1.32-.17,1.9-.5c.58-.33,1.03-.81,1.37-1.44s.51-1.37.51-2.21-.17-1.57-.51-2.2Z"/>
        <path class="st0" d="M868.59,32.66h-8.9c.07,1.1.44,1.96,1.13,2.57.68.62,1.51.92,2.49.92.8,0,1.47-.19,2-.56.53-.37.91-.87,1.13-1.49h1.99c-.3,1.07-.89,1.94-1.79,2.61-.89.67-2.01,1.01-3.33,1.01-1.06,0-2-.24-2.84-.71-.83-.47-1.49-1.15-1.96-2.02-.48-.87-.71-1.89-.71-3.04s.23-2.16.69-3.03,1.11-1.54,1.94-2c.83-.47,1.79-.7,2.88-.7s1.99.23,2.81.69c.81.46,1.44,1.09,1.88,1.9s.66,1.72.66,2.73c0,.35-.02.73-.06,1.12ZM866.28,29.33c-.31-.51-.74-.89-1.27-1.16-.54-.26-1.13-.4-1.78-.4-.94,0-1.73.3-2.39.89-.66.6-1.03,1.42-1.13,2.48h7.04c0-.7-.16-1.31-.47-1.82Z"/>
      </g>
    </g>
    <g class="st8">
      <path class="st0" d="M728.48,24.02c1.17.59,2.07,1.45,2.69,2.55.62,1.11.93,2.41.93,3.91s-.31,2.8-.93,3.9c-.62,1.1-1.52,1.94-2.69,2.52s-2.55.87-4.15.87h-4.56v-14.64h4.56c1.6,0,2.98.3,4.15.89ZM728.66,34.69c.99-1,1.49-2.41,1.49-4.21s-.5-3.24-1.5-4.26-2.44-1.53-4.32-1.53h-2.65v11.51h2.65c1.89,0,3.33-.5,4.33-1.5h0Z"/>
      <path class="st0" d="M745.07,32.73h-9.2c.07,1.13.46,2.02,1.17,2.66.71.64,1.56.96,2.57.96.83,0,1.52-.19,2.07-.58.55-.38.94-.9,1.17-1.54h2.06c-.31,1.11-.92,2-1.85,2.7s-2.07,1.04-3.44,1.04c-1.09,0-2.07-.25-2.93-.74s-1.54-1.19-2.03-2.09c-.49-.9-.73-1.95-.73-3.14s.24-2.23.71-3.13c.48-.9,1.14-1.58,2-2.07.86-.48,1.85-.72,2.97-.72s2.06.24,2.9.71c.84.48,1.49,1.13,1.94,1.96s.68,1.77.68,2.82c0,.36-.02.75-.06,1.16ZM742.66,29.29c-.32-.52-.76-.92-1.31-1.2-.55-.27-1.17-.41-1.84-.41-.97,0-1.79.31-2.47.92-.68.62-1.07,1.47-1.17,2.56h7.27c0-.73-.16-1.35-.48-1.88h0Z"/>
      <path class="st0" d="M763.88,26.61c.7.37,1.25.93,1.66,1.67s.61,1.65.61,2.71v6.78h-1.89v-6.51c0-1.15-.28-2.03-.85-2.64-.57-.61-1.33-.91-2.3-.91s-1.79.32-2.37.96c-.59.64-.88,1.56-.88,2.76v6.34h-1.89v-6.51c0-1.15-.28-2.03-.85-2.64-.57-.61-1.33-.91-2.3-.91s-1.79.32-2.37.96c-.59.64-.88,1.56-.88,2.76v6.34h-1.91v-11.51h1.91v1.66c.38-.6.88-1.06,1.52-1.39.64-.32,1.34-.48,2.11-.48.97,0,1.82.22,2.56.65s1.29,1.07,1.66,1.91c.32-.81.85-1.44,1.6-1.89s1.57-.67,2.48-.67,1.69.19,2.39.56h0Z"/>
      <path class="st0" d="M769.28,28.87c.48-.89,1.13-1.58,1.96-2.07s1.76-.74,2.78-.74,1.88.22,2.62.65,1.29.98,1.66,1.64v-2.1h1.93v11.51h-1.93v-2.14c-.38.67-.94,1.23-1.69,1.67s-1.62.66-2.61.66-1.95-.25-2.77-.76c-.83-.5-1.48-1.21-1.95-2.12-.48-.91-.71-1.95-.71-3.11s.24-2.21.71-3.1h0ZM777.78,29.72c-.35-.64-.82-1.14-1.42-1.48-.59-.34-1.25-.51-1.96-.51s-1.37.17-1.95.5-1.06.83-1.41,1.47-.52,1.4-.52,2.27.17,1.65.52,2.3c.35.65.82,1.15,1.41,1.49.59.34,1.24.51,1.95.51s1.37-.17,1.96-.51c.6-.34,1.07-.84,1.42-1.49s.53-1.41.53-2.28-.18-1.62-.53-2.27Z"/>
      <path class="st0" d="M792.47,27.32c.87.85,1.3,2.07,1.3,3.66v6.78h-1.89v-6.51c0-1.15-.29-2.03-.86-2.64s-1.36-.91-2.35-.91-1.81.31-2.4.94c-.6.63-.89,1.55-.89,2.75v6.36h-1.91v-11.51h1.91v1.64c.38-.59.89-1.04,1.54-1.37.65-.32,1.37-.48,2.15-.48,1.4,0,2.53.42,3.4,1.27v.02Z"/>
      <path class="st0" d="M796.91,28.87c.48-.89,1.13-1.58,1.96-2.07s1.77-.74,2.8-.74c.9,0,1.73.21,2.5.62s1.36.96,1.76,1.63v-6.09h1.93v15.54h-1.93v-2.16c-.38.69-.94,1.25-1.68,1.69s-1.61.66-2.6.66-1.95-.25-2.78-.76-1.49-1.21-1.96-2.12c-.48-.91-.71-1.95-.71-3.11s.24-2.21.71-3.1h0ZM805.41,29.72c-.35-.64-.82-1.14-1.42-1.48-.59-.34-1.25-.51-1.96-.51s-1.37.17-1.95.5-1.06.83-1.41,1.47-.52,1.4-.52,2.27.17,1.65.52,2.3c.35.65.82,1.15,1.41,1.49.59.34,1.24.51,1.95.51s1.37-.17,1.96-.51c.6-.34,1.07-.84,1.42-1.49s.53-1.41.53-2.28-.18-1.62-.53-2.27Z"/>
      <path class="st0" d="M825.72,27.32c.87.85,1.3,2.07,1.3,3.66v6.78h-1.89v-6.51c0-1.15-.29-2.03-.86-2.64s-1.36-.91-2.35-.91-1.81.31-2.4.94c-.6.63-.89,1.55-.89,2.75v6.36h-1.91v-11.51h1.91v1.64c.38-.59.89-1.04,1.54-1.37.65-.32,1.37-.48,2.15-.48,1.4,0,2.53.42,3.4,1.27v.02Z"/>
      <path class="st0" d="M832.24,37.22c-.88-.49-1.56-1.19-2.06-2.09s-.75-1.95-.75-3.14.25-2.21.77-3.12c.51-.9,1.21-1.6,2.09-2.08s1.87-.72,2.96-.72,2.08.24,2.96.72,1.58,1.17,2.09,2.07.77,1.94.77,3.13-.26,2.24-.79,3.14c-.52.9-1.24,1.6-2.13,2.09-.9.49-1.89.74-2.98.74s-2.05-.25-2.93-.74h0ZM837.1,35.79c.6-.32,1.09-.81,1.46-1.45s.56-1.43.56-2.35-.18-1.71-.55-2.35c-.36-.64-.84-1.12-1.43-1.44-.59-.32-1.23-.47-1.91-.47s-1.34.16-1.92.47c-.58.31-1.05.79-1.4,1.44-.35.64-.52,1.43-.52,2.35s.17,1.73.51,2.37.8,1.12,1.38,1.44c.57.32,1.2.47,1.89.47s1.33-.16,1.93-.48h0Z"/>
      <path class="st0" d="M843.59,28.87c.48-.89,1.13-1.58,1.96-2.07s1.77-.74,2.8-.74c.9,0,1.73.21,2.5.62s1.36.96,1.76,1.63v-6.09h1.93v15.54h-1.93v-2.16c-.38.69-.94,1.25-1.68,1.69s-1.61.66-2.6.66-1.95-.25-2.78-.76-1.49-1.21-1.96-2.12c-.48-.91-.71-1.95-.71-3.11s.24-2.21.71-3.1h0ZM852.1,29.72c-.35-.64-.82-1.14-1.42-1.48-.59-.34-1.25-.51-1.96-.51s-1.37.17-1.95.5-1.06.83-1.41,1.47-.52,1.4-.52,2.27.17,1.65.52,2.3c.35.65.82,1.15,1.41,1.49.59.34,1.24.51,1.95.51s1.37-.17,1.96-.51c.6-.34,1.07-.84,1.42-1.49s.53-1.41.53-2.28-.18-1.62-.53-2.27Z"/>
      <path class="st0" d="M868.22,32.73h-9.2c.07,1.13.46,2.02,1.17,2.66.71.64,1.56.96,2.57.96.83,0,1.52-.19,2.07-.58.55-.38.94-.9,1.17-1.54h2.06c-.31,1.11-.92,2-1.85,2.7s-2.07,1.04-3.44,1.04c-1.09,0-2.07-.25-2.93-.74s-1.54-1.19-2.03-2.09c-.49-.9-.73-1.95-.73-3.14s.24-2.23.71-3.13c.48-.9,1.14-1.58,2-2.07.86-.48,1.85-.72,2.97-.72s2.06.24,2.9.71c.84.48,1.49,1.13,1.94,1.96s.68,1.77.68,2.82c0,.36-.02.75-.06,1.16ZM865.84,29.29c-.32-.52-.76-.92-1.31-1.2-.55-.27-1.17-.41-1.84-.41-.97,0-1.79.31-2.47.92-.68.62-1.07,1.47-1.17,2.56h7.27c0-.73-.16-1.35-.48-1.88h0Z"/>
    </g>
    <g>
      <rect class="st6" x="946.34" y="18.17" width="24" height="24"/>
      <g>
        <path class="st0" d="M987.3,24.04v1.33h-5.45v4.23h4.43v1.33h-4.43v5.65h-1.64v-12.55h7.09Z"/>
        <path class="st0" d="M989.28,28.96c.41-.76.97-1.35,1.68-1.77s1.51-.63,2.38-.63,1.61.19,2.25.56c.64.37,1.11.84,1.42,1.4v-1.8h1.66v9.86h-1.66v-1.84c-.32.58-.81,1.05-1.45,1.43s-1.39.57-2.24.57-1.67-.22-2.38-.65-1.27-1.04-1.67-1.82-.61-1.67-.61-2.66.2-1.89.61-2.66h.01ZM996.58,29.69c-.3-.55-.71-.98-1.21-1.27s-1.07-.44-1.68-.44-1.17.14-1.67.43-.91.71-1.21,1.26c-.3.55-.45,1.2-.45,1.94s.15,1.41.45,1.97.7.98,1.21,1.28c.5.29,1.06.44,1.67.44s1.17-.15,1.68-.44.92-.72,1.21-1.28.45-1.21.45-1.95-.15-1.39-.45-1.94Z"/>
        <path class="st0" d="M1001.45,28.96c.41-.76.97-1.35,1.7-1.77.73-.42,1.56-.63,2.49-.63,1.21,0,2.21.29,3,.88s1.3,1.4,1.56,2.45h-1.76c-.17-.6-.5-1.07-.98-1.42-.49-.35-1.09-.52-1.81-.52-.94,0-1.69.32-2.27.96s-.86,1.55-.86,2.73.29,2.11.86,2.75c.58.65,1.33.97,2.27.97.72,0,1.32-.17,1.8-.5s.81-.82.99-1.44h1.76c-.26,1.01-.79,1.82-1.58,2.42-.79.61-1.78.91-2.97.91-.94,0-1.77-.21-2.49-.63-.73-.42-1.29-1.01-1.7-1.78-.41-.77-.61-1.67-.61-2.7s.2-1.91.61-2.67h-.01Z"/>
        <path class="st0" d="M1012.42,24.79c-.22-.22-.32-.48-.32-.79s.11-.58.32-.79c.22-.22.48-.32.79-.32s.55.11.76.32.31.48.31.79-.1.58-.31.79-.46.32-.76.32-.58-.11-.79-.32ZM1014.02,26.72v9.86h-1.64v-9.86s1.64,0,1.64,0Z"/>
        <path class="st0" d="M1018.45,23.26v13.32h-1.64v-13.32s1.64,0,1.64,0Z"/>
        <path class="st0" d="M1021.28,24.79c-.22-.22-.32-.48-.32-.79s.11-.58.32-.79c.22-.22.48-.32.79-.32s.55.11.76.32.31.48.31.79-.1.58-.31.79-.46.32-.76.32-.58-.11-.79-.32ZM1022.86,26.72v9.86h-1.64v-9.86s1.64,0,1.64,0Z"/>
        <path class="st0" d="M1027.65,28.07v5.81c0,.48.1.82.31,1.02.2.2.56.3,1.06.3h1.21v1.39h-1.48c-.91,0-1.6-.21-2.05-.63s-.68-1.11-.68-2.07v-5.81h-1.28v-1.35h1.28v-2.48h1.64v2.48h2.57v1.35h-2.58Z"/>
        <path class="st0" d="M1040.71,26.72l-5.94,14.51h-1.69l1.94-4.75-3.98-9.76h1.82l3.1,7.99,3.06-7.99h1.69Z"/>
        <path class="st0" d="M1048.67,35.63c-.64-1.74-.96-3.62-.96-5.63s.34-3.99,1.02-5.79,1.65-3.27,2.91-4.44h1.71v.16c-1.34,1.26-2.36,2.78-3.03,4.54-.68,1.77-1.02,3.61-1.02,5.52s.32,3.64.96,5.33c.64,1.69,1.58,3.17,2.82,4.45v.16h-1.71c-1.15-1.13-2.05-2.56-2.69-4.3h0Z"/>
        <path class="st0" d="M1062.64,30.31c-.71.69-1.8,1.04-3.27,1.04h-2.41v5.24h-1.64v-12.55h4.05c1.42,0,2.49.34,3.23,1.03.74.68,1.11,1.57,1.11,2.65s-.36,1.91-1.07,2.6h0ZM1061.39,29.4c.43-.4.65-.96.65-1.69,0-1.55-.89-2.32-2.66-2.32h-2.41v4.61h2.41c.91,0,1.58-.2,2.02-.59h-.01Z"/>
        <path class="st0" d="M1065.22,39.93v-.16c1.24-1.27,2.17-2.75,2.82-4.45.64-1.69.96-3.47.96-5.33s-.34-3.75-1.02-5.52-1.69-3.28-3.03-4.54v-.16h1.71c1.26,1.16,2.23,2.64,2.91,4.44s1.02,3.72,1.02,5.79-.32,3.89-.96,5.63-1.54,3.17-2.69,4.3h-1.72Z"/>
      </g>
    </g>
  </g>
</svg>