<?xml version="1.0" encoding="UTF-8"?>
<svg id="Piechart" xmlns="http://www.w3.org/2000/svg" version="1.1" viewBox="0 0 1007.84 638.56">
  <!-- Generator: Adobe Illustrator 29.4.0, SVG Export Plug-In . SVG Version: 2.1.0 Build 152)  -->
  <defs>
    <style>
      .st0 {
        fill: #3c4a80;
      }

      .st1 {
        fill: #8690c6;
      }

      .st2 {
        fill: none;
        stroke: #3c4a80;
        stroke-linecap: square;
        stroke-linejoin: bevel;
        stroke-width: 1.48px;
      }

      .st3 {
        fill: #fff;
      }

      .st4 {
        fill: #6371b6;
      }
    </style>
  </defs>
  <g id="Other">
    <g id="Pie4">
      <path class="st1" d="M348.76,105.27c35.52-17.11,73.63-25.89,113.33-26.1v258.53l-113.33-232.43h0Z"/>
      <path class="st3" d="M460.6,80.67v250.61l-109.86-225.31c34.49-16.38,71.42-24.88,109.86-25.3M463.57,77.69c-41.89,0-81.53,9.67-116.79,26.9l116.79,239.54h0V77.69h0Z"/>
    </g>
    <g id="Arrow3">
      <g>
        <polyline class="st2" points="417.07 142.83 384.97 59.82 190.33 59.82"/>
        <circle class="st0" cx="416.97" cy="142.57" r="5.57"/>
      </g>
    </g>
    <g id="Cat">
      <path class="st4" d="M65.06,42.47c-.98-.54-1.75-1.31-2.33-2.29s-.86-2.08-.86-3.3.29-2.32.86-3.29,1.35-1.73,2.33-2.28,2.05-.82,3.23-.82,2.25.27,3.23.82,1.75,1.3,2.31,2.28c.56.97.84,2.07.84,3.29s-.28,2.32-.85,3.3-1.34,1.74-2.31,2.29-2.05.82-3.22.82-2.25-.27-3.23-.82ZM70.68,39.52c.6-.66.9-1.54.9-2.63s-.3-1.98-.9-2.64-1.4-.99-2.39-.99-1.81.33-2.41.98c-.6.65-.9,1.54-.9,2.65s.3,1.98.9,2.64,1.4.99,2.41.99,1.79-.33,2.39-1Z"/>
      <path class="st4" d="M81.89,40.58v2.58h-1.55c-1.1,0-1.96-.27-2.58-.81s-.92-1.42-.92-2.64v-3.95h-1.21v-2.53h1.21v-2.42h3.04v2.42h1.99v2.53h-1.99v3.98c0,.3.07.51.21.64s.38.2.71.2h1.09Z"/>
      <path class="st4" d="M92.42,34.26c.69.75,1.03,1.79,1.03,3.1v5.8h-3.02v-5.39c0-.66-.17-1.18-.52-1.55-.34-.37-.81-.55-1.39-.55s-1.04.18-1.39.55c-.34.37-.52.88-.52,1.55v5.39h-3.04v-13.16h3.04v4.57c.31-.44.73-.79,1.26-1.05s1.13-.39,1.8-.39c1.14,0,2.05.38,2.74,1.13h0Z"/>
      <path class="st4" d="M104.87,38.93h-6.88c.05.62.25,1.09.6,1.41s.78.49,1.29.49c.76,0,1.29-.32,1.58-.96h3.24c-.17.65-.47,1.24-.9,1.76-.43.52-.98.93-1.63,1.23-.65.3-1.38.44-2.19.44-.97,0-1.84-.21-2.6-.62s-1.35-1.01-1.78-1.78-.64-1.67-.64-2.7.21-1.93.63-2.7,1.01-1.36,1.77-1.78c.76-.42,1.63-.62,2.61-.62s1.81.2,2.56.6c.75.4,1.33.98,1.75,1.73s.63,1.62.63,2.61c0,.28-.02.58-.05.89h.01ZM101.82,37.24c0-.52-.18-.94-.53-1.25-.36-.31-.8-.46-1.33-.46s-.94.15-1.29.44c-.35.3-.57.72-.65,1.26h3.81,0Z"/>
      <path class="st4" d="M110.9,33.6c.53-.31,1.13-.47,1.78-.47v3.22h-.84c-.76,0-1.33.16-1.71.49s-.57.9-.57,1.72v4.61h-3.04v-9.93h3.04v1.65c.36-.55.8-.98,1.33-1.29h0Z"/>
      <path class="st4" d="M122.18,33.52c.52-.28,1.13-.43,1.83-.43.82,0,1.56.21,2.22.62s1.19,1.01,1.57,1.78c.39.77.58,1.67.58,2.69s-.19,1.92-.58,2.69c-.39.78-.91,1.38-1.57,1.8-.66.42-1.41.63-2.22.63-.69,0-1.3-.14-1.82-.43-.53-.28-.94-.65-1.24-1.1v6.12h-3.04v-14.66h3.04v1.41c.3-.46.71-.84,1.23-1.12ZM124.66,36.39c-.42-.43-.94-.65-1.56-.65s-1.12.22-1.54.66-.63,1.04-.63,1.8.21,1.36.63,1.8.93.66,1.54.66,1.12-.22,1.55-.67c.43-.44.64-1.05.64-1.81s-.21-1.35-.63-1.79Z"/>
      <path class="st4" d="M139.79,33.24v9.93h-3.04v-1.35c-.31.44-.73.79-1.25,1.06-.53.27-1.11.4-1.75.4-.76,0-1.43-.17-2.01-.51s-1.03-.83-1.35-1.47-.48-1.39-.48-2.26v-5.8h3.02v5.39c0,.66.17,1.18.52,1.55.34.37.81.55,1.39.55s1.06-.18,1.41-.55c.34-.37.52-.88.52-1.55v-5.39h3.04-.02Z"/>
      <path class="st4" d="M146.35,33.6c.53-.31,1.13-.47,1.78-.47v3.22h-.84c-.76,0-1.33.16-1.71.49s-.57.9-.57,1.72v4.61h-3.04v-9.93h3.04v1.65c.36-.55.8-.98,1.33-1.29h.01Z"/>
      <path class="st4" d="M153.86,33.52c.52-.28,1.13-.43,1.83-.43.82,0,1.56.21,2.22.62s1.19,1.01,1.57,1.78c.39.77.58,1.67.58,2.69s-.19,1.92-.58,2.69c-.39.78-.91,1.38-1.57,1.8s-1.41.63-2.22.63c-.69,0-1.3-.14-1.82-.43-.53-.28-.94-.65-1.24-1.1v6.12h-3.04v-14.66h3.04v1.41c.3-.46.71-.84,1.23-1.12h0ZM156.34,36.39c-.42-.43-.94-.65-1.56-.65s-1.12.22-1.54.66-.63,1.04-.63,1.8.21,1.36.63,1.8.93.66,1.54.66,1.12-.22,1.55-.67c.43-.44.64-1.05.64-1.81s-.21-1.35-.63-1.79Z"/>
      <path class="st4" d="M163.56,42.68c-.78-.41-1.39-1.01-1.83-1.78s-.67-1.67-.67-2.7.23-1.92.68-2.69,1.07-1.37,1.85-1.79,1.66-.62,2.63-.62,1.85.21,2.63.62c.78.42,1.4,1.01,1.85,1.79s.68,1.67.68,2.69-.23,1.92-.68,2.69c-.46.78-1.08,1.37-1.87,1.79-.79.42-1.67.62-2.64.62s-1.85-.21-2.62-.62h-.01ZM167.67,40.03c.41-.43.61-1.04.61-1.83s-.2-1.41-.6-1.83c-.4-.43-.89-.64-1.47-.64s-1.08.21-1.48.63c-.39.42-.59,1.03-.59,1.84s.19,1.4.58,1.83.87.64,1.45.64,1.08-.21,1.49-.64h0Z"/>
      <path class="st4" d="M174.72,42.86c-.68-.3-1.21-.7-1.6-1.22s-.61-1.09-.66-1.73h3.01c.04.34.2.62.48.84.28.21.63.32,1.05.32.38,0,.67-.07.88-.22s.31-.34.31-.58c0-.28-.15-.5-.44-.63s-.78-.29-1.44-.45c-.71-.17-1.3-.34-1.78-.52-.47-.18-.88-.47-1.23-.87-.34-.4-.52-.93-.52-1.61,0-.57.16-1.09.47-1.56s.78-.84,1.39-1.11,1.34-.41,2.18-.41c1.25,0,2.23.31,2.94.92.72.62,1.13,1.44,1.24,2.45h-2.81c-.05-.34-.2-.62-.45-.82-.26-.2-.59-.3-1.01-.3-.36,0-.63.07-.82.2-.19.14-.28.32-.28.56,0,.28.15.5.45.64s.77.28,1.41.43c.73.19,1.33.38,1.8.56.46.18.87.48,1.22.89s.53.96.54,1.65c0,.58-.16,1.1-.49,1.56-.33.46-.79.82-1.41,1.08-.61.26-1.32.39-2.13.39-.87,0-1.64-.15-2.31-.44v-.02Z"/>
      <path class="st4" d="M192.23,38.93h-6.88c.05.62.25,1.09.6,1.41s.78.49,1.29.49c.76,0,1.29-.32,1.58-.96h3.24c-.17.65-.47,1.24-.9,1.76-.43.52-.98.93-1.63,1.23-.65.3-1.38.44-2.19.44-.97,0-1.84-.21-2.6-.62-.76-.41-1.35-1.01-1.78-1.78s-.64-1.67-.64-2.7.21-1.93.63-2.7,1.01-1.36,1.77-1.78c.76-.42,1.63-.62,2.61-.62s1.81.2,2.56.6c.75.4,1.33.98,1.75,1.73s.63,1.62.63,2.61c0,.28-.02.58-.05.89h0ZM189.17,37.24c0-.52-.18-.94-.53-1.25-.36-.31-.8-.46-1.33-.46s-.94.15-1.29.44c-.35.3-.57.72-.65,1.26h3.81-.01Z"/>
    </g>
    <g id="Data">
      <path class="st4" d="M65.73,60.23c.85-.78,1.57-1.59,2.16-2.44.59-.85.88-1.68.88-2.5,0-.77-.19-1.38-.56-1.82-.37-.44-.98-.67-1.81-.67s-1.43.25-1.88.76c-.44.5-.68,1.18-.72,2.02h-1.57c.05-1.33.45-2.35,1.21-3.08.76-.72,1.74-1.08,2.94-1.08s2.19.34,2.91,1.01c.72.68,1.08,1.61,1.08,2.79,0,.98-.29,1.94-.88,2.87s-1.25,1.75-2,2.45-1.7,1.53-2.86,2.46h6.12v1.35h-8.56v-1.16c1.51-1.21,2.69-2.2,3.54-2.98v.02Z"/>
      <path class="st4" d="M77.34,52.73c-1.06,0-1.84.41-2.37,1.22-.52.81-.78,2.15-.76,4.01.27-.62.73-1.1,1.36-1.45.63-.35,1.34-.52,2.13-.52,1.22,0,2.2.38,2.93,1.14s1.09,1.81,1.09,3.15c0,.81-.16,1.53-.47,2.17s-.79,1.15-1.42,1.53-1.4.57-2.3.57c-1.22,0-2.18-.27-2.86-.82-.69-.55-1.17-1.3-1.44-2.26-.27-.96-.41-2.15-.41-3.56,0-4.35,1.52-6.53,4.55-6.53,1.16,0,2.07.31,2.74.94.66.63,1.06,1.42,1.17,2.38h-1.49c-.26-1.32-1.07-1.97-2.44-1.97h0ZM75.92,57.67c-.45.21-.82.52-1.09.94-.28.42-.42.93-.42,1.54,0,.9.26,1.63.78,2.2.52.56,1.27.84,2.24.84.83,0,1.49-.26,1.98-.77.49-.52.74-1.21.74-2.09s-.24-1.65-.71-2.18-1.17-.79-2.08-.79c-.51,0-.99.1-1.44.31Z"/>
      <path class="st4" d="M86.81,62.62c.43.37,1.02.55,1.75.55.98,0,1.71-.39,2.18-1.16s.69-2.07.67-3.9c-.25.53-.66.95-1.25,1.25-.58.3-1.23.45-1.94.45-.79,0-1.5-.16-2.13-.49s-1.11-.8-1.47-1.43-.53-1.39-.53-2.28c0-1.27.37-2.29,1.1-3.07.73-.78,1.78-1.17,3.13-1.17,1.66,0,2.83.54,3.5,1.62.67,1.08,1.01,2.69,1.01,4.82,0,1.49-.13,2.73-.4,3.7-.27.97-.72,1.71-1.35,2.22-.63.51-1.5.76-2.61.76-1.21,0-2.15-.33-2.83-.98-.68-.65-1.06-1.48-1.16-2.49h1.49c.12.68.39,1.2.83,1.57v.03ZM90.45,57.72c.51-.49.77-1.16.77-2,0-.89-.25-1.61-.75-2.15s-1.2-.82-2.1-.82c-.83,0-1.49.26-1.98.78s-.74,1.21-.74,2.06.24,1.56.73,2.08,1.19.78,2.12.78c.79,0,1.45-.25,1.96-.74h-.01Z"/>
      <path class="st4" d="M95.11,64.29c-.21-.21-.32-.47-.32-.78s.11-.57.32-.78.47-.32.78-.32.55.11.76.32.31.47.31.78-.1.57-.31.78-.46.32-.76.32-.57-.11-.78-.32Z"/>
      <path class="st4" d="M98.42,53.12v-1.48h3.34v12.86h-1.64v-11.38h-1.71.01Z"/>
      <path class="st4" d="M104.11,53.12v-1.48h3.34v12.86h-1.64v-11.38h-1.71.01Z"/>
      <path class="st4" d="M123.07,52.2v12.31h-1.62v-9.18l-4.09,9.18h-1.14l-4.11-9.2v9.2h-1.62v-12.31h1.74l4.55,10.17,4.55-10.17h1.74Z"/>
    </g>
  </g>
  <g id="Shopping">
    <g id="Pie3">
      <path class="st1" d="M202.76,297.19c14.72-82.3,68.16-153.37,143.33-190.62l114.87,235.59-258.2-44.97h0Z"/>
      <path class="st3" d="M345.42,108.57l112.94,231.64-253.87-44.22c14.91-80.73,67.32-150.43,140.93-187.42M346.78,104.59c-75.48,36.87-130.95,108.37-145.73,193.81l262.52,45.73-116.79-239.54h0Z"/>
    </g>
    <g id="Arrow2">
      <g>
        <polyline class="st2" points="300.47 221.91 229.02 166.52 162.19 166.52"/>
        <path class="st0" d="M303.66,217.33c2.43,1.89,2.88,5.39.99,7.82-1.89,2.43-5.39,2.88-7.82.99s-2.88-5.39-.99-7.82c1.89-2.43,5.39-2.88,7.82-.99Z"/>
      </g>
    </g>
    <g id="Cat-2">
      <path class="st4" d="M32.31,160.61c-.72-.3-1.3-.73-1.73-1.32-.43-.58-.66-1.28-.68-2.1h3.24c.05.46.21.82.48,1.06.27.24.63.36,1.07.36s.81-.1,1.07-.31c.26-.21.39-.5.39-.86,0-.31-.1-.56-.31-.76-.21-.2-.46-.37-.77-.5-.3-.13-.73-.28-1.29-.44-.81-.25-1.46-.5-1.97-.75s-.95-.62-1.32-1.1c-.37-.49-.55-1.12-.55-1.9,0-1.16.42-2.07,1.26-2.73s1.94-.99,3.29-.99,2.48.33,3.33.99c.84.66,1.29,1.57,1.35,2.75h-3.29c-.02-.4-.17-.72-.44-.95s-.62-.35-1.05-.35c-.37,0-.66.1-.89.29-.23.2-.34.48-.34.84,0,.4.19.72.57.94.38.23.97.47,1.78.73.81.27,1.46.53,1.97.78s.94.61,1.31,1.08c.37.47.55,1.09.55,1.83s-.18,1.36-.54,1.94-.89,1.04-1.57,1.39c-.69.34-1.5.52-2.44.52s-1.73-.15-2.45-.44h-.03Z"/>
      <path class="st4" d="M50.48,156.69h-6.88c.05.62.25,1.09.6,1.41s.78.49,1.29.49c.76,0,1.29-.32,1.58-.96h3.24c-.17.65-.47,1.24-.9,1.76-.43.52-.98.93-1.63,1.23s-1.38.44-2.19.44c-.97,0-1.84-.21-2.6-.62-.76-.41-1.35-1.01-1.78-1.78s-.64-1.67-.64-2.7.21-1.93.63-2.7c.42-.77,1.01-1.36,1.77-1.78.76-.42,1.63-.62,2.61-.62s1.81.2,2.56.6c.75.4,1.33.98,1.75,1.73s.63,1.62.63,2.61c0,.28-.02.58-.05.89h0ZM47.42,155c0-.52-.18-.94-.53-1.25-.36-.31-.8-.46-1.33-.46s-.94.15-1.29.44c-.35.3-.57.72-.65,1.26h3.81,0Z"/>
      <path class="st4" d="M56.51,151.37c.53-.31,1.13-.47,1.78-.47v3.22h-.84c-.76,0-1.33.16-1.71.49s-.57.9-.57,1.72v4.61h-3.04v-9.93h3.04v1.65c.36-.55.8-.98,1.33-1.29h0Z"/>
      <path class="st4" d="M64.22,158.08l2.15-7.08h3.24l-3.52,9.93h-3.75l-3.52-9.93h3.25l2.15,7.08Z"/>
      <path class="st4" d="M71.11,149.5c-.34-.31-.51-.7-.51-1.17s.17-.87.51-1.18c.34-.31.77-.47,1.31-.47s.95.16,1.29.47c.34.31.51.71.51,1.18s-.17.85-.51,1.17c-.34.31-.77.47-1.29.47s-.97-.16-1.31-.47ZM73.93,151v9.93h-3.04v-9.93h3.04Z"/>
      <path class="st4" d="M76.16,153.26c.42-.77,1.01-1.36,1.76-1.78s1.62-.62,2.59-.62c1.25,0,2.29.33,3.12.98.84.65,1.38,1.57,1.65,2.76h-3.24c-.27-.76-.8-1.14-1.58-1.14-.56,0-1,.22-1.33.65s-.5,1.05-.5,1.86.17,1.43.5,1.86c.33.43.78.65,1.33.65.78,0,1.31-.38,1.58-1.14h3.24c-.26,1.16-.81,2.08-1.65,2.74-.84.66-1.88,1-3.11,1-.97,0-1.83-.21-2.59-.62-.75-.41-1.34-1.01-1.76-1.78s-.63-1.67-.63-2.7.21-1.93.63-2.7v-.02Z"/>
      <path class="st4" d="M96.2,156.69h-6.88c.05.62.25,1.09.6,1.41s.78.49,1.29.49c.76,0,1.29-.32,1.58-.96h3.24c-.17.65-.47,1.24-.9,1.76-.43.52-.98.93-1.63,1.23-.65.3-1.38.44-2.19.44-.97,0-1.84-.21-2.6-.62-.76-.41-1.35-1.01-1.78-1.78s-.64-1.67-.64-2.7.21-1.93.63-2.7,1.01-1.36,1.77-1.78c.76-.42,1.63-.62,2.61-.62s1.81.2,2.56.6c.75.4,1.33.98,1.75,1.73s.63,1.62.63,2.61c0,.28-.02.58-.05.89h.01ZM93.14,155c0-.52-.18-.94-.53-1.25-.36-.31-.8-.46-1.33-.46s-.94.15-1.29.44c-.35.3-.57.72-.65,1.26h3.81,0Z"/>
      <path class="st4" d="M101.6,153.26c.39-.77.91-1.36,1.57-1.78.66-.42,1.41-.62,2.22-.62.7,0,1.31.14,1.84.43.53.28.93.66,1.22,1.12v-1.41h3.04v9.93h-3.04v-1.41c-.3.46-.71.84-1.24,1.12s-1.14.43-1.84.43c-.81,0-1.54-.21-2.21-.63-.66-.42-1.19-1.02-1.57-1.8-.39-.78-.58-1.67-.58-2.69s.19-1.92.58-2.69h0ZM107.82,154.17c-.42-.44-.93-.66-1.54-.66s-1.12.22-1.54.65-.63,1.03-.63,1.79.21,1.36.63,1.81c.42.44.93.67,1.54.67s1.12-.22,1.54-.66.63-1.04.63-1.8-.21-1.36-.63-1.8h0Z"/>
      <path class="st4" d="M122.53,152.02c.69.75,1.04,1.79,1.04,3.1v5.8h-3.02v-5.39c0-.66-.17-1.18-.52-1.55-.34-.37-.81-.55-1.39-.55s-1.04.18-1.39.55c-.34.37-.52.88-.52,1.55v5.39h-3.04v-9.93h3.04v1.32c.31-.44.72-.79,1.25-1.04.52-.25,1.11-.38,1.76-.38,1.16,0,2.09.38,2.78,1.13h0Z"/>
      <path class="st4" d="M125.66,153.26c.39-.77.91-1.36,1.57-1.78.66-.42,1.41-.62,2.22-.62.65,0,1.25.14,1.79.41s.96.64,1.27,1.1v-4.61h3.04v13.16h-3.04v-1.42c-.28.47-.69.85-1.22,1.14-.53.28-1.14.43-1.84.43-.82,0-1.56-.21-2.22-.63s-1.19-1.02-1.57-1.8c-.39-.78-.58-1.67-.58-2.69s.19-1.92.58-2.69ZM131.89,154.17c-.42-.44-.93-.66-1.54-.66s-1.12.22-1.54.65-.63,1.03-.63,1.79.21,1.36.63,1.81c.42.44.93.67,1.54.67s1.12-.22,1.54-.66.63-1.04.63-1.8-.21-1.36-.63-1.8h0Z"/>
      <path class="st4" d="M31.97,181.97c-.68-.3-1.21-.7-1.6-1.22s-.61-1.09-.66-1.73h3.01c.04.34.2.62.48.84.28.21.63.32,1.05.32.38,0,.67-.07.88-.22.21-.15.31-.34.31-.58,0-.28-.15-.5-.44-.63s-.78-.29-1.44-.45c-.71-.17-1.3-.34-1.78-.52-.47-.18-.88-.47-1.23-.87-.34-.4-.52-.93-.52-1.61,0-.57.16-1.09.47-1.56s.78-.84,1.39-1.11c.61-.27,1.34-.41,2.18-.41,1.25,0,2.23.31,2.94.92.72.62,1.13,1.44,1.24,2.45h-2.81c-.05-.34-.2-.62-.45-.82-.26-.2-.59-.3-1.01-.3-.36,0-.63.07-.82.2-.19.14-.28.32-.28.56,0,.28.15.5.45.64s.77.28,1.41.43c.73.19,1.33.38,1.8.56.46.18.87.48,1.22.89.35.41.53.96.54,1.65,0,.58-.16,1.1-.49,1.56-.33.46-.79.82-1.41,1.08-.61.26-1.32.39-2.13.39-.87,0-1.64-.15-2.31-.44v-.02Z"/>
      <path class="st4" d="M49.01,173.37c.69.75,1.03,1.79,1.03,3.1v5.8h-3.02v-5.39c0-.66-.17-1.18-.52-1.55-.34-.37-.81-.55-1.39-.55s-1.04.18-1.39.55c-.34.37-.52.88-.52,1.55v5.39h-3.04v-13.16h3.04v4.57c.31-.44.73-.79,1.26-1.05s1.13-.39,1.8-.39c1.14,0,2.05.38,2.74,1.13h.01Z"/>
      <path class="st4" d="M54.05,181.79c-.78-.41-1.39-1.01-1.83-1.78s-.67-1.67-.67-2.7.23-1.92.68-2.69,1.07-1.37,1.85-1.79,1.66-.62,2.63-.62,1.85.21,2.63.62c.78.42,1.4,1.01,1.85,1.79s.68,1.67.68,2.69-.23,1.92-.68,2.69c-.46.78-1.08,1.37-1.87,1.79-.79.42-1.67.62-2.64.62s-1.85-.21-2.62-.62h-.01ZM58.16,179.14c.41-.43.61-1.04.61-1.83s-.2-1.41-.6-1.83c-.4-.43-.89-.64-1.47-.64s-1.08.21-1.48.63c-.39.42-.59,1.03-.59,1.84s.19,1.4.58,1.83c.39.43.87.64,1.45.64s1.08-.21,1.49-.64h0Z"/>
      <path class="st4" d="M67.76,172.63c.52-.28,1.13-.43,1.83-.43.82,0,1.56.21,2.22.62s1.19,1.01,1.57,1.78c.39.77.58,1.67.58,2.69s-.19,1.92-.58,2.69c-.39.78-.91,1.38-1.57,1.8-.66.42-1.41.63-2.22.63-.69,0-1.3-.14-1.82-.43-.53-.28-.94-.65-1.24-1.1v6.12h-3.04v-14.66h3.04v1.41c.3-.46.71-.84,1.23-1.12h0ZM70.24,175.5c-.42-.43-.94-.65-1.56-.65s-1.12.22-1.54.66-.63,1.04-.63,1.8.21,1.36.63,1.8.93.66,1.54.66,1.12-.22,1.55-.67c.43-.44.64-1.05.64-1.81s-.21-1.35-.63-1.79h0Z"/>
      <path class="st4" d="M79.83,172.63c.52-.28,1.13-.43,1.83-.43.82,0,1.56.21,2.22.62s1.19,1.01,1.57,1.78c.39.77.58,1.67.58,2.69s-.19,1.92-.58,2.69c-.39.78-.91,1.38-1.57,1.8-.66.42-1.41.63-2.22.63-.69,0-1.3-.14-1.82-.43-.53-.28-.94-.65-1.24-1.1v6.12h-3.04v-14.66h3.04v1.41c.3-.46.71-.84,1.23-1.12h0ZM82.31,175.5c-.42-.43-.94-.65-1.56-.65s-1.12.22-1.54.66-.63,1.04-.63,1.8.21,1.36.63,1.8.93.66,1.54.66,1.12-.22,1.55-.67c.43-.44.64-1.05.64-1.81s-.21-1.35-.63-1.79h0Z"/>
      <path class="st4" d="M87.86,170.84c-.34-.31-.51-.7-.51-1.17s.17-.87.51-1.18c.34-.31.77-.47,1.31-.47s.95.16,1.29.47c.34.31.51.71.51,1.18s-.17.85-.51,1.17c-.34.31-.77.47-1.29.47s-.97-.16-1.31-.47ZM90.68,172.35v9.93h-3.04v-9.93h3.04Z"/>
      <path class="st4" d="M101.72,173.37c.69.75,1.04,1.79,1.04,3.1v5.8h-3.02v-5.39c0-.66-.17-1.18-.52-1.55-.34-.37-.81-.55-1.39-.55s-1.04.18-1.39.55c-.34.37-.52.88-.52,1.55v5.39h-3.04v-9.93h3.04v1.32c.31-.44.72-.79,1.25-1.04.52-.25,1.11-.38,1.76-.38,1.16,0,2.09.38,2.78,1.13h0Z"/>
      <path class="st4" d="M110.49,172.63c.53.28.93.66,1.22,1.12v-1.41h3.04v9.91c0,.91-.18,1.74-.54,2.48s-.91,1.33-1.65,1.77-1.66.66-2.77.66c-1.47,0-2.66-.35-3.58-1.04-.91-.69-1.44-1.63-1.57-2.82h3.01c.09.38.32.68.68.9s.79.33,1.32.33c.63,0,1.13-.18,1.5-.54s.56-.94.56-1.73v-1.41c-.3.46-.71.84-1.23,1.13s-1.13.44-1.83.44c-.82,0-1.56-.21-2.22-.63s-1.19-1.02-1.57-1.8c-.39-.78-.58-1.67-.58-2.69s.19-1.92.58-2.69.91-1.36,1.57-1.78c.66-.42,1.41-.62,2.22-.62.7,0,1.31.14,1.84.43h0ZM111.07,175.51c-.42-.44-.93-.66-1.54-.66s-1.12.22-1.54.65-.63,1.03-.63,1.79.21,1.36.63,1.81c.42.44.93.67,1.54.67s1.12-.22,1.54-.66.63-1.04.63-1.8-.21-1.36-.63-1.8h0Z"/>
    </g>
    <g id="Data-2">
      <path class="st4" d="M38.44,192.16h-6.24v4.06c.27-.38.68-.69,1.21-.93.53-.24,1.11-.36,1.73-.36.98,0,1.78.2,2.4.61.62.41,1.06.94,1.33,1.58.27.65.4,1.33.4,2.05,0,.85-.16,1.62-.48,2.29s-.81,1.21-1.47,1.6-1.47.59-2.45.59c-1.25,0-2.25-.32-3.02-.96s-1.24-1.49-1.41-2.56h1.58c.15.68.48,1.2.98,1.58s1.13.57,1.89.57c.94,0,1.64-.28,2.12-.84.47-.56.71-1.31.71-2.23s-.24-1.64-.71-2.14c-.47-.5-1.17-.76-2.1-.76-.63,0-1.18.15-1.65.45s-.81.71-1.02,1.24h-1.53v-7.26h7.74v1.42h0Z"/>
      <path class="st4" d="M46.14,191.84c-1.06,0-1.84.41-2.37,1.22-.52.81-.78,2.15-.76,4.01.27-.62.73-1.1,1.36-1.45.63-.35,1.34-.52,2.13-.52,1.22,0,2.2.38,2.93,1.14s1.09,1.81,1.09,3.15c0,.81-.16,1.53-.47,2.17s-.79,1.15-1.42,1.53c-.63.38-1.4.57-2.3.57-1.22,0-2.18-.27-2.86-.82-.69-.55-1.17-1.3-1.44-2.26-.27-.96-.41-2.15-.41-3.56,0-4.35,1.52-6.53,4.55-6.53,1.16,0,2.07.31,2.74.94.66.63,1.06,1.42,1.17,2.38h-1.49c-.26-1.32-1.07-1.97-2.44-1.97h-.01ZM44.72,196.78c-.45.21-.82.52-1.09.94-.28.42-.42.93-.42,1.54,0,.9.26,1.63.78,2.2.52.56,1.27.84,2.24.84.83,0,1.49-.26,1.98-.77.49-.52.74-1.21.74-2.09s-.24-1.65-.71-2.18c-.47-.53-1.17-.79-2.08-.79-.51,0-.99.1-1.44.31Z"/>
      <path class="st4" d="M56.05,199.34c.85-.78,1.57-1.59,2.16-2.44s.88-1.68.88-2.5c0-.77-.19-1.38-.56-1.82-.37-.44-.98-.67-1.81-.67s-1.43.25-1.88.76c-.44.5-.68,1.18-.72,2.02h-1.57c.05-1.33.45-2.35,1.21-3.08.76-.72,1.74-1.08,2.94-1.08s2.19.34,2.91,1.01c.72.68,1.08,1.61,1.08,2.79,0,.98-.29,1.94-.88,2.87s-1.25,1.75-2,2.45-1.7,1.53-2.86,2.46h6.12v1.35h-8.56v-1.16c1.51-1.21,2.69-2.2,3.54-2.98v.02Z"/>
      <path class="st4" d="M62.94,203.4c-.21-.21-.32-.47-.32-.78s.11-.57.32-.78c.21-.21.47-.32.78-.32s.55.11.76.32.31.47.31.78-.1.57-.31.78c-.21.21-.46.32-.76.32s-.57-.11-.78-.32Z"/>
      <path class="st4" d="M67.67,192.28c.66-1.14,1.83-1.72,3.49-1.72s2.8.57,3.47,1.72c.66,1.14,1,2.74,1,4.78s-.33,3.69-1,4.84c-.66,1.15-1.82,1.73-3.47,1.73s-2.82-.58-3.49-1.73c-.66-1.15-1-2.76-1-4.84s.33-3.63,1-4.78ZM73.81,194.43c-.14-.72-.42-1.3-.84-1.73-.42-.44-1.03-.66-1.82-.66s-1.42.22-1.84.66-.7,1.02-.84,1.73-.2,1.59-.2,2.62.07,1.96.2,2.69.42,1.3.84,1.74,1.03.66,1.84.66,1.4-.22,1.82-.66.7-1.02.84-1.74.2-1.62.2-2.69-.07-1.91-.2-2.62Z"/>
      <path class="st4" d="M78.66,195.79c-.36-.5-.53-1.1-.53-1.81,0-.64.16-1.22.48-1.73.32-.52.8-.92,1.43-1.23.63-.3,1.4-.45,2.3-.45s1.67.15,2.3.45c.63.3,1.11.71,1.44,1.23.33.52.49,1.09.49,1.73,0,.69-.18,1.29-.55,1.81s-.87.9-1.51,1.15c.74.23,1.32.62,1.75,1.18s.65,1.24.65,2.04-.19,1.44-.57,2.02-.92,1.02-1.61,1.33-1.49.47-2.39.47-1.69-.16-2.37-.47-1.21-.76-1.59-1.33-.57-1.25-.57-2.02.21-1.48.64-2.05,1.01-.96,1.74-1.17c-.66-.26-1.17-.64-1.53-1.14h0ZM80.19,198.25c-.56.41-.84,1.02-.84,1.84,0,.76.27,1.37.81,1.83s1.27.69,2.18.69,1.64-.23,2.17-.69.8-1.07.8-1.83-.27-1.4-.82-1.82c-.55-.42-1.26-.63-2.15-.63s-1.6.2-2.15.61h0ZM84.3,192.5c-.47-.39-1.13-.59-1.96-.59s-1.46.2-1.94.59c-.47.39-.71.96-.71,1.69,0,.66.25,1.2.74,1.6.49.4,1.13.6,1.91.6s1.44-.2,1.93-.61.74-.95.74-1.61c0-.72-.24-1.28-.71-1.67h0Z"/>
      <path class="st4" d="M101.91,191.31v12.31h-1.62v-9.18l-4.09,9.18h-1.14l-4.11-9.2v9.2h-1.62v-12.31h1.74l4.55,10.17,4.55-10.17h1.74Z"/>
    </g>
  </g>
  <g id="Leisure">
    <g id="Pie2">
      <path class="st1" d="M367.41,591.09c-48.93-19.06-90.76-51.94-121.03-95.17-31.25-44.63-47.77-97.12-47.77-151.8,0-14.74,1.23-29.54,3.64-44.01l259.28,45.16-94.13,245.81h.01Z"/>
      <path class="st3" d="M203.48,301.83l256.04,44.6-92.95,242.73c-23.47-9.3-45.47-21.93-65.43-37.58-20.55-16.12-38.56-35.13-53.54-56.51-31.08-44.38-47.5-96.57-47.5-150.95,0-14.16,1.14-28.38,3.38-42.29M201.04,298.4c-2.57,14.86-3.91,30.13-3.91,45.73,0,113.57,71.05,210.53,171.13,248.88l95.31-248.88h0l-262.52-45.73h-.01Z"/>
    </g>
    <g id="Arrow1">
      <g>
        <polyline class="st2" points="284.21 447.02 207.92 490.14 162.19 490.14"/>
        <path class="st0" d="M281.23,442.31c2.68-1.51,6.08-.57,7.59,2.11s.57,6.08-2.11,7.59-6.08.57-7.59-2.11-.57-6.08,2.11-7.59Z"/>
      </g>
    </g>
    <g id="Data-3">
      <path class="st4" d="M80.52,509.88c-.36-.5-.53-1.1-.53-1.81,0-.64.16-1.22.48-1.73s.8-.92,1.43-1.23c.63-.3,1.4-.45,2.3-.45s1.67.15,2.3.45c.63.3,1.11.71,1.44,1.23s.49,1.09.49,1.73c0,.69-.18,1.29-.55,1.81s-.87.9-1.51,1.15c.74.22,1.32.62,1.75,1.18.43.56.65,1.24.65,2.04s-.19,1.44-.57,2.02-.92,1.02-1.61,1.33-1.49.47-2.39.47-1.69-.16-2.37-.47-1.21-.76-1.59-1.33-.57-1.25-.57-2.02.21-1.48.64-2.04c.43-.57,1.01-.96,1.74-1.17-.66-.26-1.17-.64-1.53-1.14v-.02ZM82.05,512.34c-.56.41-.84,1.02-.84,1.84,0,.76.27,1.37.81,1.83s1.27.69,2.18.69,1.64-.23,2.17-.69.8-1.07.8-1.83-.27-1.4-.82-1.82c-.55-.42-1.26-.63-2.15-.63s-1.6.21-2.15.61ZM86.16,506.58c-.47-.39-1.13-.59-1.96-.59s-1.46.2-1.94.59-.71.96-.71,1.69c0,.66.25,1.2.74,1.6s1.13.6,1.91.6,1.44-.2,1.93-.61.74-.95.74-1.61c0-.72-.24-1.28-.71-1.67h0Z"/>
      <path class="st4" d="M94.27,513.42c.85-.78,1.57-1.59,2.16-2.44s.88-1.68.88-2.5c0-.77-.19-1.38-.56-1.82-.37-.44-.98-.67-1.81-.67s-1.43.25-1.88.76-.68,1.18-.72,2.02h-1.57c.05-1.33.45-2.35,1.21-3.08.76-.72,1.74-1.08,2.94-1.08s2.19.34,2.91,1.01c.72.68,1.08,1.61,1.08,2.79,0,.98-.29,1.94-.88,2.87-.59.93-1.25,1.75-2,2.45-.75.71-1.7,1.53-2.86,2.46h6.12v1.35h-8.56v-1.16c1.51-1.21,2.69-2.2,3.54-2.98v.02Z"/>
      <path class="st4" d="M100.72,506.32v-1.48h3.34v12.86h-1.64v-11.38h-1.71.01Z"/>
      <path class="st4" d="M106.84,517.49c-.21-.21-.32-.47-.32-.78s.11-.57.32-.78.47-.32.78-.32.55.11.76.32.31.47.31.78-.1.57-.31.78-.46.32-.76.32-.57-.11-.78-.32Z"/>
      <path class="st4" d="M115.31,505.93c-1.06,0-1.84.41-2.37,1.22-.52.81-.78,2.15-.76,4.01.27-.62.73-1.1,1.36-1.45s1.34-.53,2.13-.53c1.22,0,2.2.38,2.93,1.14s1.09,1.81,1.09,3.15c0,.81-.16,1.53-.47,2.17-.31.64-.79,1.15-1.42,1.53s-1.4.57-2.3.57c-1.22,0-2.18-.27-2.86-.82-.69-.55-1.17-1.3-1.44-2.26-.27-.96-.41-2.15-.41-3.56,0-4.35,1.52-6.53,4.55-6.53,1.16,0,2.07.31,2.74.94.66.63,1.06,1.42,1.17,2.38h-1.49c-.26-1.32-1.07-1.97-2.44-1.97h0ZM113.89,510.86c-.45.21-.82.52-1.09.94-.28.42-.42.93-.42,1.54,0,.9.26,1.63.78,2.2.52.56,1.27.84,2.24.84.83,0,1.49-.26,1.98-.77s.74-1.21.74-2.09-.24-1.65-.71-2.18-1.17-.79-2.08-.79c-.51,0-.99.1-1.44.31h0Z"/>
      <path class="st4" d="M126.6,505.93c-1.06,0-1.84.41-2.37,1.22-.52.81-.78,2.15-.76,4.01.27-.62.73-1.1,1.36-1.45s1.34-.53,2.13-.53c1.22,0,2.2.38,2.93,1.14s1.09,1.81,1.09,3.15c0,.81-.16,1.53-.47,2.17-.31.64-.79,1.15-1.42,1.53s-1.4.57-2.3.57c-1.22,0-2.18-.27-2.86-.82-.69-.55-1.17-1.3-1.44-2.26-.27-.96-.41-2.15-.41-3.56,0-4.35,1.52-6.53,4.55-6.53,1.16,0,2.07.31,2.74.94.66.63,1.06,1.42,1.17,2.38h-1.49c-.26-1.32-1.07-1.97-2.44-1.97h0ZM125.18,510.86c-.45.21-.82.52-1.09.94-.28.42-.42.93-.42,1.54,0,.9.26,1.63.78,2.2.52.56,1.27.84,2.24.84.83,0,1.49-.26,1.98-.77s.74-1.21.74-2.09-.24-1.65-.71-2.18-1.17-.79-2.08-.79c-.51,0-.99.1-1.44.31h0Z"/>
      <path class="st4" d="M146.01,505.39v12.31h-1.62v-9.18l-4.09,9.18h-1.14l-4.11-9.2v9.2h-1.62v-12.31h1.74l4.55,10.17,4.55-10.17h1.74Z"/>
    </g>
    <g id="Cat-3">
      <path class="st4" d="M82.74,494.01h3.98v2.35h-7.03v-12.49h3.04v10.14h0Z"/>
      <path class="st4" d="M97.49,492.12h-6.88c.05.62.25,1.09.6,1.41s.78.49,1.29.49c.76,0,1.29-.32,1.58-.96h3.24c-.17.65-.47,1.24-.9,1.76-.43.52-.98.93-1.63,1.23-.65.3-1.38.45-2.19.45-.97,0-1.84-.21-2.6-.62s-1.35-1.01-1.78-1.78-.64-1.67-.64-2.7.21-1.93.63-2.7,1.01-1.36,1.77-1.78c.76-.42,1.63-.62,2.61-.62s1.81.2,2.56.6,1.33.98,1.75,1.73.63,1.62.63,2.61c0,.29-.02.58-.05.89h.01ZM94.43,490.43c0-.52-.18-.94-.53-1.25s-.8-.46-1.33-.46-.94.15-1.29.45c-.35.3-.57.72-.65,1.26h3.81,0Z"/>
      <path class="st4" d="M99.36,484.93c-.34-.31-.51-.7-.51-1.17s.17-.87.51-1.18c.34-.31.77-.47,1.31-.47s.95.16,1.29.47c.34.31.51.71.51,1.18s-.17.85-.51,1.17c-.34.31-.77.47-1.29.47s-.97-.16-1.31-.47ZM102.18,486.43v9.92h-3.04v-9.92h3.04Z"/>
      <path class="st4" d="M106.11,496.05c-.68-.3-1.21-.7-1.6-1.22s-.61-1.09-.66-1.73h3.01c.04.34.2.62.48.84.28.21.63.32,1.05.32.38,0,.67-.07.88-.22s.31-.34.31-.58c0-.28-.15-.5-.44-.63-.3-.14-.78-.29-1.44-.45-.71-.17-1.3-.34-1.78-.52s-.88-.47-1.23-.87c-.34-.4-.52-.93-.52-1.61,0-.57.16-1.09.47-1.56s.78-.84,1.39-1.11,1.34-.41,2.18-.41c1.25,0,2.23.31,2.94.92.72.62,1.13,1.43,1.24,2.46h-2.81c-.05-.34-.2-.62-.45-.82-.26-.2-.59-.3-1.01-.3-.36,0-.63.07-.82.2-.19.14-.28.32-.28.56,0,.29.15.5.45.64s.77.28,1.41.43c.73.19,1.33.38,1.8.56s.87.48,1.22.89.53.96.54,1.64c0,.58-.16,1.1-.49,1.56-.33.46-.79.82-1.41,1.08-.61.26-1.32.39-2.13.39-.87,0-1.64-.15-2.31-.45h0Z"/>
      <path class="st4" d="M124.11,486.43v9.92h-3.04v-1.35c-.31.44-.73.79-1.25,1.06-.53.27-1.11.4-1.75.4-.76,0-1.43-.17-2.01-.51s-1.03-.83-1.35-1.47-.48-1.39-.48-2.26v-5.8h3.02v5.39c0,.67.17,1.18.52,1.55.34.37.81.55,1.39.55s1.06-.18,1.41-.55c.34-.37.52-.88.52-1.55v-5.39h3.04-.02Z"/>
      <path class="st4" d="M130.68,486.8c.53-.31,1.13-.47,1.78-.47v3.22h-.84c-.76,0-1.33.16-1.71.49s-.57.9-.57,1.72v4.61h-3.04v-9.92h3.04v1.65c.36-.54.8-.97,1.33-1.29h.01Z"/>
      <path class="st4" d="M143.22,492.12h-6.88c.05.62.25,1.09.6,1.41s.78.49,1.29.49c.76,0,1.29-.32,1.58-.96h3.24c-.17.65-.47,1.24-.9,1.76-.43.52-.98.93-1.63,1.23-.65.3-1.38.45-2.19.45-.97,0-1.84-.21-2.6-.62s-1.35-1.01-1.78-1.78-.64-1.67-.64-2.7.21-1.93.63-2.7,1.01-1.36,1.77-1.78c.76-.42,1.63-.62,2.61-.62s1.81.2,2.56.6,1.33.98,1.75,1.73.63,1.62.63,2.61c0,.29-.02.58-.05.89h0ZM140.16,490.43c0-.52-.18-.94-.53-1.25s-.8-.46-1.33-.46-.94.15-1.29.45c-.35.3-.57.72-.65,1.26h3.81-.01Z"/>
    </g>
  </g>
  <g id="Work">
    <g id="Pie1">
      <path class="st1" d="M463.57,609.08c-32.16,0-63.57-5.7-93.39-16.93l94.77-247.49.1-.53V79.17c70.22.38,136.17,27.9,185.87,77.6,50.04,50.04,77.6,116.58,77.6,187.35s-27.56,137.31-77.6,187.35-116.58,77.6-187.35,77.6h0Z"/>
      <path class="st3" d="M466.53,80.67c34.52.38,68.01,7.33,99.59,20.69,31.37,13.27,59.55,32.27,83.75,56.47s43.2,52.38,56.47,83.75c13.74,32.48,20.7,66.98,20.7,102.55s-6.97,70.07-20.7,102.55c-13.27,31.37-32.27,59.55-56.47,83.75-24.2,24.2-52.38,43.2-83.75,56.47-32.48,13.74-66.98,20.7-102.55,20.7-31.48,0-62.24-5.49-91.47-16.31l94.24-246.1.2-1.06V80.67M463.57,77.69v266.44l-95.31,248.88c29.59,11.34,61.72,17.56,95.31,17.56,147.15,0,266.44-119.29,266.44-266.44S610.72,77.69,463.57,77.69h0Z"/>
    </g>
    <g id="Arrow">
      <g>
        <polyline class="st2" points="626.85 263.61 737.95 177.04 785.17 177.04"/>
        <path class="st0" d="M630.5,267.83c-2.43,1.89-5.93,1.46-7.82-.97s-1.46-5.93.97-7.82,5.93-1.46,7.82.97,1.46,5.93-.97,7.82Z"/>
      </g>
    </g>
    <g id="Data-4">
      <path class="st4" d="M807.1,200.44c.85-.78,1.57-1.59,2.16-2.44.59-.85.88-1.68.88-2.5,0-.77-.19-1.38-.56-1.82s-.98-.67-1.8-.67-1.43.25-1.88.76c-.44.5-.68,1.18-.72,2.02h-1.56c.05-1.33.45-2.35,1.21-3.08.76-.72,1.74-1.08,2.93-1.08s2.19.34,2.91,1.01c.72.68,1.08,1.61,1.08,2.79,0,.98-.29,1.94-.88,2.87s-1.25,1.75-2,2.45-1.7,1.53-2.86,2.46h6.12v1.35h-8.56v-1.16c1.51-1.21,2.69-2.2,3.54-2.98v.02Z"/>
      <path class="st4" d="M813.99,204.51c-.21-.21-.32-.47-.32-.78s.11-.57.32-.78c.21-.21.47-.32.78-.32s.55.11.76.32.31.47.31.78-.1.57-.31.78c-.21.21-.46.32-.76.32s-.57-.11-.78-.32Z"/>
      <path class="st4" d="M818.72,193.38c.66-1.14,1.83-1.72,3.49-1.72s2.8.57,3.47,1.72c.66,1.14,1,2.74,1,4.78s-.33,3.69-1,4.84c-.66,1.15-1.82,1.73-3.47,1.73s-2.82-.58-3.49-1.73c-.66-1.15-1-2.76-1-4.84s.33-3.63,1-4.78ZM824.86,195.53c-.14-.72-.42-1.3-.84-1.73-.42-.44-1.03-.66-1.82-.66s-1.42.22-1.84.66c-.42.44-.7,1.02-.84,1.73-.14.72-.2,1.59-.2,2.62s.07,1.96.2,2.69c.14.72.42,1.3.84,1.74.42.44,1.03.66,1.84.66s1.4-.22,1.82-.66.7-1.02.84-1.74.21-1.62.21-2.69-.07-1.91-.21-2.62Z"/>
      <path class="st4" d="M831.8,202.83c.43.37,1.02.55,1.75.55.98,0,1.71-.39,2.18-1.16s.69-2.07.67-3.9c-.25.53-.67.95-1.25,1.25s-1.23.45-1.94.45c-.79,0-1.5-.16-2.12-.49s-1.11-.8-1.47-1.43c-.36-.63-.53-1.39-.53-2.28,0-1.27.37-2.29,1.1-3.07.74-.78,1.78-1.17,3.13-1.17,1.66,0,2.82.54,3.5,1.62.67,1.08,1,2.69,1,4.82,0,1.49-.13,2.73-.4,3.7s-.72,1.71-1.35,2.22-1.5.76-2.61.76c-1.21,0-2.15-.33-2.83-.98s-1.06-1.48-1.16-2.49h1.49c.12.68.39,1.2.83,1.57v.03ZM835.44,197.93c.51-.49.76-1.16.76-2,0-.89-.25-1.61-.75-2.15s-1.2-.82-2.1-.82c-.83,0-1.49.26-1.98.78s-.74,1.21-.74,2.06.24,1.56.73,2.08,1.19.78,2.12.78c.79,0,1.45-.25,1.96-.74h0Z"/>
      <path class="st4" d="M847.81,198.89c.37.3.67.66.89,1.1.22.44.33.91.33,1.41,0,.63-.16,1.19-.48,1.7s-.79.9-1.4,1.19-1.33.44-2.16.44h-4.62v-12.4h4.45c.84,0,1.56.14,2.15.42s1.04.66,1.33,1.13c.3.47.44,1.01.44,1.6,0,.74-.2,1.34-.6,1.82-.4.48-.92.83-1.57,1.04.45.07.86.26,1.24.55h0ZM841.98,197.68h2.72c.76,0,1.35-.18,1.76-.53.42-.36.62-.85.62-1.48s-.21-1.12-.62-1.48c-.42-.36-1.01-.53-1.8-.53h-2.69v4.02h.01ZM846.73,202.82c.45-.38.68-.91.68-1.58s-.24-1.23-.71-1.63c-.47-.4-1.11-.6-1.9-.6h-2.81v4.38h2.86c.81,0,1.44-.19,1.89-.57h0Z"/>
    </g>
    <g id="Cat-4">
      <path class="st4" d="M813.06,156.7c.44.56.66,1.21.66,1.93,0,1.04-.36,1.87-1.09,2.48s-1.75.92-3.05.92h-5.82v-12.49h5.62c1.27,0,2.26.29,2.98.87s1.08,1.37,1.08,2.37c0,.74-.19,1.35-.58,1.83-.39.49-.9.82-1.54,1.01.72.15,1.3.51,1.74,1.08h0ZM806.8,154.6h1.99c.5,0,.88-.11,1.15-.33s.4-.54.4-.97-.13-.75-.4-.98-.65-.34-1.15-.34h-1.99v2.61h0ZM810.23,159.23c.28-.23.42-.57.42-1.01s-.15-.78-.44-1.03-.69-.37-1.2-.37h-2.21v2.76h2.24c.51,0,.9-.12,1.18-.35h.01Z"/>
      <path class="st4" d="M825.28,152.11v9.93h-3.04v-1.35c-.31.44-.73.79-1.25,1.06-.53.27-1.11.4-1.75.4-.76,0-1.43-.17-2.01-.51s-1.03-.83-1.35-1.47-.48-1.39-.48-2.26v-5.8h3.02v5.39c0,.66.17,1.18.52,1.55.34.37.81.55,1.39.55s1.06-.18,1.4-.55c.34-.37.52-.88.52-1.55v-5.39h3.04-.01Z"/>
      <path class="st4" d="M829.2,161.73c-.68-.3-1.21-.7-1.6-1.22-.39-.52-.61-1.09-.66-1.73h3.01c.04.34.2.62.48.84.28.21.63.32,1.05.32.38,0,.67-.07.88-.22s.31-.34.31-.58c0-.28-.15-.5-.45-.63-.3-.14-.78-.29-1.44-.45-.71-.17-1.3-.34-1.78-.52-.47-.18-.88-.47-1.23-.87-.34-.4-.52-.93-.52-1.61,0-.57.16-1.09.47-1.56s.78-.84,1.39-1.11,1.34-.41,2.18-.41c1.25,0,2.23.31,2.94.92.72.62,1.13,1.44,1.24,2.45h-2.81c-.05-.34-.2-.62-.45-.82-.25-.2-.59-.3-1-.3-.36,0-.63.07-.82.2s-.28.32-.28.56c0,.28.15.5.45.64s.77.28,1.41.43c.74.19,1.33.38,1.8.56.46.18.87.48,1.22.89s.53.96.54,1.65c0,.58-.16,1.1-.49,1.56s-.79.82-1.41,1.08c-.61.26-1.32.39-2.12.39-.87,0-1.64-.15-2.31-.44v-.02Z"/>
      <path class="st4" d="M837.62,150.6c-.34-.31-.51-.7-.51-1.17s.17-.87.51-1.18.77-.47,1.31-.47.95.16,1.29.47c.34.31.51.71.51,1.18s-.17.85-.51,1.17c-.34.31-.77.47-1.29.47s-.97-.16-1.31-.47ZM840.44,152.11v9.93h-3.04v-9.93h3.04Z"/>
      <path class="st4" d="M851.47,153.13c.69.75,1.04,1.79,1.04,3.1v5.8h-3.02v-5.39c0-.66-.17-1.18-.52-1.55-.34-.37-.81-.55-1.39-.55s-1.04.18-1.39.55c-.34.37-.52.88-.52,1.55v5.39h-3.04v-9.93h3.04v1.32c.31-.44.72-.79,1.25-1.04.52-.25,1.11-.38,1.76-.38,1.16,0,2.09.38,2.78,1.13h.01Z"/>
      <path class="st4" d="M863.93,157.8h-6.88c.05.62.25,1.09.6,1.41.35.33.78.49,1.29.49.76,0,1.29-.32,1.58-.96h3.24c-.17.65-.47,1.24-.9,1.76-.43.52-.98.93-1.63,1.23s-1.38.44-2.19.44c-.97,0-1.84-.21-2.6-.62-.76-.41-1.35-1.01-1.78-1.78s-.64-1.67-.64-2.7.21-1.93.63-2.7,1.01-1.36,1.77-1.78,1.63-.62,2.61-.62,1.81.2,2.56.6c.75.4,1.33.98,1.75,1.73s.63,1.62.63,2.61c0,.28-.02.58-.05.89h.01ZM860.87,156.11c0-.52-.18-.94-.53-1.25-.36-.31-.8-.46-1.33-.46s-.94.15-1.29.44-.57.72-.65,1.26h3.81,0Z"/>
      <path class="st4" d="M867.31,161.73c-.68-.3-1.21-.7-1.6-1.22-.39-.52-.61-1.09-.66-1.73h3.01c.04.34.2.62.48.84.28.21.63.32,1.05.32.38,0,.67-.07.88-.22s.31-.34.31-.58c0-.28-.15-.5-.45-.63-.3-.14-.78-.29-1.44-.45-.71-.17-1.3-.34-1.78-.52-.47-.18-.88-.47-1.23-.87-.34-.4-.52-.93-.52-1.61,0-.57.16-1.09.47-1.56s.78-.84,1.39-1.11,1.34-.41,2.18-.41c1.25,0,2.23.31,2.94.92.72.62,1.13,1.44,1.24,2.45h-2.81c-.05-.34-.2-.62-.45-.82-.25-.2-.59-.3-1-.3-.36,0-.63.07-.82.2s-.28.32-.28.56c0,.28.15.5.45.64s.77.28,1.41.43c.74.19,1.33.38,1.8.56.46.18.87.48,1.22.89s.53.96.54,1.65c0,.58-.16,1.1-.49,1.56s-.79.82-1.41,1.08c-.61.26-1.32.39-2.12.39-.87,0-1.64-.15-2.31-.44v-.02Z"/>
      <path class="st4" d="M877.24,161.73c-.68-.3-1.21-.7-1.6-1.22-.39-.52-.61-1.09-.66-1.73h3.01c.04.34.2.62.48.84.28.21.63.32,1.05.32.38,0,.67-.07.88-.22s.31-.34.31-.58c0-.28-.15-.5-.45-.63-.3-.14-.78-.29-1.44-.45-.71-.17-1.3-.34-1.78-.52-.47-.18-.88-.47-1.23-.87-.34-.4-.52-.93-.52-1.61,0-.57.16-1.09.47-1.56s.78-.84,1.39-1.11,1.34-.41,2.18-.41c1.25,0,2.23.31,2.94.92.72.62,1.13,1.44,1.24,2.45h-2.81c-.05-.34-.2-.62-.45-.82-.25-.2-.59-.3-1-.3-.36,0-.63.07-.82.2s-.28.32-.28.56c0,.28.15.5.45.64s.77.28,1.41.43c.74.19,1.33.38,1.8.56.46.18.87.48,1.22.89s.53.96.54,1.65c0,.58-.16,1.1-.49,1.56s-.79.82-1.41,1.08c-.61.26-1.32.39-2.12.39-.87,0-1.64-.15-2.31-.44v-.02Z"/>
      <path class="st4" d="M888.71,159.22l-1.97,5.1h-1.94l1.03-5.1h2.88,0Z"/>
      <path class="st4" d="M908.56,152.11l-2.69,9.93h-3.36l-1.57-6.44-1.62,6.44h-3.34l-2.7-9.93h3.04l1.41,7.1,1.67-7.1h3.22l1.69,7.06,1.39-7.06h2.86Z"/>
      <path class="st4" d="M911.61,161.55c-.78-.41-1.39-1.01-1.83-1.78s-.67-1.67-.67-2.7.23-1.92.68-2.69,1.07-1.37,1.85-1.79c.78-.42,1.66-.62,2.63-.62s1.85.21,2.63.62c.78.42,1.4,1.01,1.85,1.79.45.78.68,1.67.68,2.69s-.23,1.92-.68,2.69c-.46.78-1.08,1.37-1.87,1.79s-1.67.62-2.64.62-1.85-.21-2.62-.62h0ZM915.72,158.9c.41-.43.61-1.04.61-1.83s-.2-1.41-.6-1.83c-.4-.43-.89-.64-1.47-.64s-1.08.21-1.48.63c-.39.42-.59,1.03-.59,1.84s.19,1.4.58,1.83c.39.43.87.64,1.45.64s1.08-.21,1.49-.64h0Z"/>
      <path class="st4" d="M925.42,152.47c.53-.31,1.13-.47,1.78-.47v3.22h-.84c-.76,0-1.33.16-1.71.49s-.57.9-.57,1.72v4.61h-3.04v-9.93h3.04v1.65c.36-.55.8-.98,1.33-1.29h.01Z"/>
      <path class="st4" d="M934.72,162.03l-3.02-4.16v4.16h-3.04v-13.16h3.04v7.27l3.01-4.04h3.75l-4.13,4.98,4.16,4.94h-3.77,0Z"/>
      <path class="st4" d="M943.39,154.36c.38-.77.91-1.36,1.57-1.78s1.41-.62,2.22-.62c.7,0,1.31.14,1.84.43.53.28.93.66,1.22,1.12v-1.41h3.04v9.93h-3.04v-1.41c-.3.46-.71.84-1.24,1.12-.53.28-1.14.43-1.84.43-.81,0-1.54-.21-2.21-.63-.66-.42-1.19-1.02-1.57-1.8-.39-.78-.58-1.67-.58-2.69s.19-1.92.58-2.69h.01ZM949.62,155.27c-.42-.44-.93-.66-1.54-.66s-1.12.22-1.54.65-.63,1.03-.63,1.79.21,1.36.63,1.81c.42.44.93.67,1.54.67s1.12-.22,1.54-.66.63-1.04.63-1.8-.21-1.36-.63-1.8h0Z"/>
      <path class="st4" d="M964.33,153.13c.69.75,1.04,1.79,1.04,3.1v5.8h-3.02v-5.39c0-.66-.17-1.18-.52-1.55-.34-.37-.81-.55-1.39-.55s-1.04.18-1.39.55c-.34.37-.52.88-.52,1.55v5.39h-3.04v-9.93h3.04v1.32c.31-.44.72-.79,1.25-1.04.52-.25,1.11-.38,1.76-.38,1.16,0,2.09.38,2.78,1.13h.01Z"/>
      <path class="st4" d="M967.46,154.36c.38-.77.91-1.36,1.57-1.78s1.41-.62,2.22-.62c.65,0,1.25.14,1.79.41s.96.64,1.27,1.1v-4.61h3.04v13.16h-3.04v-1.42c-.28.47-.69.85-1.22,1.14-.53.28-1.14.43-1.84.43-.82,0-1.56-.21-2.22-.63s-1.19-1.02-1.57-1.8c-.39-.78-.58-1.67-.58-2.69s.19-1.92.58-2.69ZM973.69,155.27c-.42-.44-.93-.66-1.54-.66s-1.12.22-1.54.65-.63,1.03-.63,1.79.21,1.36.63,1.81c.42.44.93.67,1.54.67s1.12-.22,1.54-.66.63-1.04.63-1.8-.21-1.36-.63-1.8h0Z"/>
      <path class="st4" d="M805.49,183.07c-.68-.3-1.21-.7-1.6-1.22-.39-.52-.61-1.09-.66-1.73h3.01c.04.34.2.62.48.84.28.21.63.32,1.05.32.38,0,.67-.07.88-.22s.31-.34.31-.58c0-.28-.15-.5-.45-.63-.3-.14-.78-.29-1.44-.45-.71-.17-1.3-.34-1.78-.52-.47-.18-.88-.47-1.23-.87-.34-.4-.52-.93-.52-1.61,0-.57.16-1.09.47-1.56s.78-.84,1.39-1.11,1.34-.41,2.18-.41c1.25,0,2.23.31,2.94.92.72.62,1.13,1.44,1.24,2.45h-2.81c-.05-.34-.2-.62-.45-.82-.25-.2-.59-.3-1-.3-.36,0-.63.07-.82.2s-.28.32-.28.56c0,.28.15.5.45.64s.77.28,1.41.43c.74.19,1.33.38,1.8.56.46.18.87.48,1.22.89s.53.96.54,1.65c0,.58-.16,1.1-.49,1.56s-.79.82-1.41,1.08c-.61.26-1.32.39-2.12.39-.87,0-1.64-.15-2.31-.44v-.02Z"/>
      <path class="st4" d="M819.22,180.8v2.58h-1.55c-1.1,0-1.96-.27-2.58-.81s-.92-1.42-.92-2.64v-3.95h-1.21v-2.53h1.21v-2.42h3.04v2.42h1.99v2.53h-1.99v3.98c0,.3.07.51.21.64s.38.2.71.2h1.09Z"/>
      <path class="st4" d="M830.71,173.45v9.93h-3.04v-1.35c-.31.44-.73.79-1.25,1.06-.53.27-1.11.4-1.75.4-.76,0-1.43-.17-2.01-.51s-1.03-.83-1.35-1.47-.48-1.39-.48-2.26v-5.8h3.02v5.39c0,.66.17,1.18.52,1.55.34.37.81.55,1.39.55s1.06-.18,1.4-.55c.34-.37.52-.88.52-1.55v-5.39h3.04-.01Z"/>
      <path class="st4" d="M832.87,175.71c.38-.77.91-1.36,1.57-1.78s1.41-.62,2.22-.62c.65,0,1.25.14,1.79.41s.96.64,1.27,1.1v-4.61h3.04v13.16h-3.04v-1.42c-.28.47-.69.85-1.22,1.14-.53.28-1.14.43-1.84.43-.82,0-1.56-.21-2.22-.63s-1.19-1.02-1.57-1.8c-.39-.78-.58-1.67-.58-2.69s.19-1.92.58-2.69ZM839.09,176.62c-.42-.44-.93-.66-1.54-.66s-1.12.22-1.54.65-.63,1.03-.63,1.79.21,1.36.63,1.81c.42.44.93.67,1.54.67s1.12-.22,1.54-.66.63-1.04.63-1.8-.21-1.36-.63-1.8h0Z"/>
      <path class="st4" d="M855.11,173.45l-6.23,14.64h-3.27l2.28-5.05-4.04-9.59h3.4l2.29,6.21,2.28-6.21h3.29,0Z"/>
      <path class="st4" d="M864.36,173.81c.53-.31,1.13-.47,1.78-.47v3.22h-.84c-.76,0-1.33.16-1.71.49s-.57.9-.57,1.72v4.61h-3.04v-9.93h3.04v1.65c.36-.55.8-.98,1.33-1.29h.01Z"/>
      <path class="st4" d="M876.9,179.14h-6.88c.05.62.25,1.09.6,1.41.35.33.78.49,1.29.49.76,0,1.29-.32,1.58-.96h3.24c-.17.65-.47,1.24-.9,1.76-.43.52-.98.93-1.63,1.23s-1.38.44-2.19.44c-.97,0-1.84-.21-2.6-.62-.76-.41-1.35-1.01-1.78-1.78s-.64-1.67-.64-2.7.21-1.93.63-2.7,1.01-1.36,1.77-1.78,1.63-.62,2.61-.62,1.81.2,2.56.6c.75.4,1.33.98,1.75,1.73s.63,1.62.63,2.61c0,.28-.02.58-.05.89h.01ZM873.84,177.45c0-.52-.18-.94-.53-1.25-.36-.31-.8-.46-1.33-.46s-.94.15-1.29.44-.57.72-.65,1.26h3.81,0Z"/>
      <path class="st4" d="M881.6,170.21v13.16h-3.04v-13.16h3.04Z"/>
      <path class="st4" d="M883.77,175.71c.38-.77.91-1.36,1.57-1.78s1.41-.62,2.22-.62c.7,0,1.31.14,1.84.43.53.28.93.66,1.22,1.12v-1.41h3.04v9.93h-3.04v-1.41c-.3.46-.71.84-1.24,1.12-.53.28-1.14.43-1.84.43-.81,0-1.54-.21-2.21-.63-.66-.42-1.19-1.02-1.57-1.8-.39-.78-.58-1.67-.58-2.69s.19-1.92.58-2.69h.01ZM890,176.62c-.42-.44-.93-.66-1.54-.66s-1.12.22-1.54.65-.63,1.03-.63,1.79.21,1.36.63,1.81c.42.44.93.67,1.54.67s1.12-.22,1.54-.66.63-1.04.63-1.8-.21-1.36-.63-1.8h0Z"/>
      <path class="st4" d="M901.41,180.8v2.58h-1.55c-1.1,0-1.96-.27-2.58-.81s-.92-1.42-.92-2.64v-3.95h-1.21v-2.53h1.21v-2.42h3.04v2.42h1.99v2.53h-1.99v3.98c0,.3.07.51.21.64s.38.2.71.2h1.09Z"/>
      <path class="st4" d="M912.4,179.14h-6.88c.05.62.25,1.09.6,1.41.35.33.78.49,1.29.49.76,0,1.29-.32,1.58-.96h3.24c-.17.65-.47,1.24-.9,1.76-.43.52-.98.93-1.63,1.23s-1.38.44-2.19.44c-.97,0-1.84-.21-2.6-.62-.76-.41-1.35-1.01-1.78-1.78s-.64-1.67-.64-2.7.21-1.93.63-2.7,1.01-1.36,1.77-1.78,1.63-.62,2.61-.62,1.81.2,2.56.6c.75.4,1.33.98,1.75,1.73s.63,1.62.63,2.61c0,.28-.02.58-.05.89h.01ZM909.34,177.45c0-.52-.18-.94-.53-1.25-.36-.31-.8-.46-1.33-.46s-.94.15-1.29.44-.57.72-.65,1.26h3.81,0Z"/>
      <path class="st4" d="M914.03,175.71c.38-.77.91-1.36,1.57-1.78s1.41-.62,2.22-.62c.65,0,1.25.14,1.79.41s.96.64,1.27,1.1v-4.61h3.04v13.16h-3.04v-1.42c-.28.47-.69.85-1.22,1.14-.53.28-1.14.43-1.84.43-.82,0-1.56-.21-2.22-.63s-1.19-1.02-1.57-1.8c-.39-.78-.58-1.67-.58-2.69s.19-1.92.58-2.69ZM920.26,176.62c-.42-.44-.93-.66-1.54-.66s-1.12.22-1.54.65-.63,1.03-.63,1.79.21,1.36.63,1.81c.42.44.93.67,1.54.67s1.12-.22,1.54-.66.63-1.04.63-1.8-.21-1.36-.63-1.8h0Z"/>
    </g>
  </g>
</svg>